<?xml version="1.0" encoding="utf-8"?>
<!-- Generator: Adobe Illustrator 16.0.0, SVG Export Plug-In . SVG Version: 6.00 Build 0)  -->
<!DOCTYPE svg PUBLIC "-//W3C//DTD SVG 1.1//EN" "http://www.w3.org/Graphics/SVG/1.1/DTD/svg11.dtd">
<svg version="1.1" id="Слой_1" xmlns="http://www.w3.org/2000/svg" xmlns:xlink="http://www.w3.org/1999/xlink" x="0px" y="0px"
	 width="612px" height="792px" viewBox="0 0 612 792" enable-background="new 0 0 612 792" xml:space="preserve">
<g>
	<g>
		<g>
			<g>
				<path fill="#FFFFFF" d="M175.007,34.721c-0.749-0.375-1.218-1.591-0.375-1.779c-0.844,0.187-0.937,0.187-1.686-0.563
					c0.563-0.092,0.281-0.843,0.187-1.405c-0.375,0.469-0.375,1.125-0.28,2.343c0.749,0.375,0.749,1.218,0.936,2.06
					c0.094,0.375,0.187,0.844,0.28,1.218c0.187,0.375,0.469,0.563,0.938,0.655C175.007,36.407,175.57,35.47,175.007,34.721z"/>
				<path fill="#FFFFFF" d="M178.005,29.85l-0.375-0.092c0,0,0.187,0.375,0.375,0.655c0.188,0.375,0.375,0.656,0.375,0.656
					C178.005,30.879,177.538,29.944,178.005,29.85z"/>
				<path fill="#FFFFFF" d="M177.255,25.073c0.656,0.281,1.218-0.375,1.78-0.188c-1.313-0.281,0-1.124,0.092-1.78l-0.844-0.563
					c-0.936,0.375-1.218,2.061-1.405,3.372L177.255,25.073z"/>
				<path fill="#FFFFFF" d="M178.285,24.137c0,0-0.092-0.187-0.28-0.281c-0.093-0.187-0.281-0.28-0.281-0.28
					C177.912,23.949,177.818,24.698,178.285,24.137z"/>
				<path fill="#FFFFFF" d="M174.633,24.137c-0.375,1.218,0.563-0.655,0.563,0.655C175.007,24.323,175.101,23.854,174.633,24.137z"
					/>
				<path fill="#FFFFFF" d="M178.285,20.201c0,0-0.187,0.563-0.28,1.218c-0.093,0.281-0.093,0.562-0.187,0.844
					c0,0.187-0.093,0.375-0.093,0.375l0.749-0.749c0,0-0.092-0.375-0.092-0.842C178.285,20.67,178.285,20.201,178.285,20.201z"/>
				<path fill="#FFFFFF" d="M180.252,21.138c-0.094,0.187-0.655,0.469-0.749-0.093c0.563-0.188,0.655-0.468,0.749-0.749
					c0.093-0.281,0.093-0.656,0.656-0.75c0,0,0,0.188-0.094,0.375c0,0.187,0,0.375,0,0.375c0.375,0.187,0.375-0.187,0.468-0.562
					c0.094-0.375,0.281-0.655,0.844-0.188c-0.187-0.655-0.469-0.749-0.844-0.842c-0.28-0.095-0.561-0.095-0.468-0.844
					c-0.281,0.563-0.562,0.938-0.937,1.313c-0.28,0.375-0.749,0.749-1.124,1.124c0.469-0.095,0.469-0.281,0.844-0.469
					c-0.375,0.656-0.375,1.686-0.561,2.437C179.972,22.356,179.411,21.512,180.252,21.138z"/>
				<path fill="#FFFFFF" d="M182.314,18.515c0.469-0.467,1.313-1.218,0.749-2.154c-1.124-0.094-0.563,0.75-0.468,1.311
					c-0.281,0-0.844,0.563-1.125-0.093C181.751,17.673,181.751,18.515,182.314,18.515z"/>
				<path fill="#FFFFFF" d="M184.468,16.829c0,0-0.092-0.28-0.092-0.561c0-0.28-0.094-0.561-0.094-0.561l-0.187,0.375l-0.468-0.563
					c0.094,0.188,0.655,1.312,0.094,1.779C184.375,17.393,184,16.829,184.468,16.829z"/>
				<path fill="#FFFFFF" d="M181.565,12.708c0.844,0,0.844-0.469,1.405-1.03c-0.375,0.281-0.843,0.656-1.313,1.03
					c-0.375,0.375-0.655,0.655-0.655,0.936l-0.093-0.187c0,0-0.375,1.03-0.28,1.968c0.094-0.563,0.655-0.938,1.029-1.312
					C182.034,13.738,182.221,13.363,181.565,12.708z"/>
				<path fill="#FFFFFF" d="M180.535,13.457c0,0,0-0.28,0.093-0.468c0-0.281,0.094-0.468,0.094-0.468s-0.094,0.188-0.094,0.468
					C180.535,13.27,180.535,13.457,180.535,13.457z"/>
				<polygon fill="#FFFFFF" points="186.154,15.425 185.029,15.706 185.406,15.8 				"/>
				<path fill="#FFFFFF" d="M183.25,13.551c0.937-0.468-0.937-0.375-0.094-0.843c0.187-0.281-1.218,0.936-0.936,1.312
					C182.501,14.02,182.689,12.989,183.25,13.551z"/>
				<path fill="#FFFFFF" d="M186.811,15.143c0,0,0.094-0.28,0.28-0.561c0.093-0.281,0.281-0.562,0.281-0.562
					s-0.093,0.281-0.281,0.562C186.905,14.862,186.811,15.143,186.811,15.143z"/>
				<path fill="#FFFFFF" d="M188.965,14.77v-0.561c0.468,0.092,0.938-0.094,1.405-0.187c0.468-0.094,0.937,0,1.312,0.467
					c-0.28-0.656,0.187-1.405-0.656-1.499c-0.092,0.375-0.375,0.375-0.187,0.843c-0.375-0.092-0.375-0.561-0.655-0.655
					c-0.469,0.75-1.405,0.468-1.686,1.218c0.187-0.187,0.281-0.094,0.469-0.094c-0.281,0.561-0.655,0.375-0.938,0.187
					c-0.28-0.187-0.561-0.28-0.375,0.563C187.747,14.301,188.684,15.143,188.965,14.77z"/>
				<path fill="#FFFFFF" d="M187.652,11.304l-0.936,0.094c0-0.75,1.03-0.469,1.03-1.124c-0.187-0.375-1.218-0.281-0.937-0.655
					c0.468,1.593-1.218,0.561-0.093,2.154c-1.032,0.655-0.75-0.843-1.874-0.187l0.094,0.936
					C186.061,11.584,186.528,12.145,187.652,11.304z"/>
				<path fill="#FFFFFF" d="M191.212,10.74l0.469,0.469l-0.28-0.75c0.467-0.093,0.936,0.094,1.404,0.28
					c0.375,0.28,0.75,0.562,1.125,1.03c0.656,0.75,1.124,1.499,1.591,1.313c0.75-0.469,1.406-0.187,1.967,0.187
					c0.281,0.187,0.562,0.374,0.844,0.655c0.28,0.187,0.561,0.375,0.844,0.469c0.843-0.375-0.469-0.563-0.375-1.03
					c0.656-1.218,0.375,0.844,1.03,0c0.469-0.843-1.03-1.499-1.499-2.248c-0.561,0-0.655,0.281-0.938,0.749
					c0-0.563-0.561-0.844-0.561-1.406c-0.655,0.281-1.124,0-1.499-0.187c-0.469-0.187-0.938-0.374-1.499,0
					c-0.375-0.749,0.938-0.094,0.469-0.187h-0.655l0.094,0.093c-0.469,0.375-1.032,0.469-1.687,0.375
					c-0.561-0.094-1.218-0.281-1.499-0.468c0.468,0.187,0.844,0.749,0.375,1.03l-0.563-0.75c0,0-0.281,0.375-0.469,0.75
					c-0.187,0.374-0.375,0.749-0.375,0.749c0.28-0.469,0.844-0.469,1.218-0.375C190.932,11.584,191.212,11.49,191.212,10.74z"/>
				<path fill="#FFFFFF" d="M189.62,9.43c-1.499-0.093,0.469,1.217-1.124,1.217c0,0,1.499-0.468,1.593-0.468L189.62,9.43z"/>
				<path fill="#FFFFFF" d="M196.272,11.397l0.561,0.655C196.646,10.834,195.428,12.239,196.272,11.397z"/>
				<path fill="#FFFFFF" d="M198.612,11.864c0,0-0.187,0.281-0.28,0.47c-0.187,0.28-0.281,0.467-0.281,0.467l0.749-0.467
					c0,0,0-0.095-0.094-0.281C198.612,12.053,198.612,11.864,198.612,11.864z"/>
				<path fill="#FFFFFF" d="M200.111,13.832c0.655-0.281,0.375-1.03-0.188-1.03C200.299,12.989,200.299,13.551,200.111,13.832z"/>
				<path fill="#FFFFFF" d="M201.704,17.204c-0.655-0.562,0.468,0.655-0.655,1.124C201.423,18.047,202.172,17.767,201.704,17.204z"
					/>
				<path fill="#FFFFFF" d="M201.891,20.857c-0.281-0.093-0.281-0.281-0.093-0.467C201.891,20.577,201.984,20.765,201.891,20.857z"
					/>
				<path fill="#FFFFFF" d="M194.21,13.832c-0.092,0-0.187,0-0.28,0C193.93,13.832,194.116,13.832,194.21,13.832z"/>
				<path fill="#FFFFFF" d="M194.396,13.832h-0.187C194.304,13.832,194.304,13.832,194.396,13.832z"/>
				<path fill="#FFFFFF" d="M199.737,17.859L199.737,17.859v-0.092V17.859z"/>
				<path fill="#FFFFFF" d="M178.473,27.04c0.094,0.187,0.094,0.375,0,0.469V27.04L178.473,27.04z"/>
				<path fill="#FFFFFF" d="M176.975,27.507c-0.655-0.938,1.685-0.749,1.406-2.06c0.092,0.562,0.092,1.124,0.092,1.686
					C177.35,27.695,177.912,26.384,176.975,27.507z"/>
				<path fill="#FFFFFF" d="M180.535,16.08L180.535,16.08C180.628,15.894,180.628,15.986,180.535,16.08z"/>
				<path fill="#FFFFFF" d="M202.922,40.81l-0.187-0.281l0.843-0.092L202.922,40.81z"/>
				<path fill="#FFFFFF" d="M202.548,40.435c0,0-0.281,0.092-0.656,0.092c-0.281,0.093-0.655,0.093-0.655,0.093
					s0.375-0.187,0.843-0.656c0.469-0.375,1.124-0.937,1.685-1.592c1.125-1.219,1.968-2.717,1.968-2.717l0.28,0.375
					c0.281,0.094-0.468,1.312-1.499,2.342c-0.469,0.561-1.03,0.938-1.405,1.312C202.642,40.154,202.454,40.34,202.548,40.435z"/>
				<path fill="#FFFFFF" d="M202.548,40.998c0.094,0.749-0.281,0.843-0.562,0.843c-0.375,0-0.749,0-0.937,0.656
					c0.281-0.844,0.187-1.593,0.843-1.593L202.548,40.998z"/>
				<path fill="none" d="M201.61,44.462c-0.468,0-0.749,0.655-1.032,0.655C200.299,44.088,201.143,44.462,201.61,44.462z"/>
				<path fill="#FFFFFF" d="M201.891,48.303c-0.093,0.095-0.187,0.095-0.187,0.095c0.094-0.095,0.094-0.187,0.187-0.281V48.303z"/>
				<path fill="#FFFFFF" d="M201.891,48.115l-0.187-0.375C201.891,47.834,201.984,47.928,201.891,48.115z"/>
				<path fill="#FFFFFF" d="M201.704,48.397c-0.187,0.187-0.375,0.469-0.469,0.655h0.281c-0.281,0.187-0.655,0.75-0.938,0.561
					c0.656-0.187,0.563-0.467,0.375-1.03l-0.938,0.281C199.737,47.461,200.769,48.678,201.704,48.397z"/>
				<path fill="none" d="M198.707,49.708c0,0,0.187-0.28,0.375-0.561c0.188-0.28,0.375-0.563,0.375-0.563
					C200.017,49.333,199.175,49.614,198.707,49.708z"/>
				<path fill="#FFFFFF" d="M197.114,49.146c0.187-0.28,1.124-0.375,0.467-0.655c0.094-0.189,0.281-0.189,0.469-0.281
					C197.488,48.584,198.332,49.427,197.114,49.146z"/>
				<path fill="#FFFFFF" d="M198.051,48.209c0.094,0,0.187-0.094,0.281-0.094C198.238,48.209,198.146,48.209,198.051,48.209z"/>
				<path fill="none" d="M204.702,40.904c-0.187,0-0.187-0.093-0.281-0.187L204.702,40.904z"/>
				<path fill="#FFFFFF" d="M194.96,48.492h-0.375C194.773,48.492,194.866,48.397,194.96,48.492L194.96,48.492z"/>
				<path fill="#FFFFFF" d="M206.014,28.445c-0.187,0.375-0.28,0.749-0.375,1.218c-0.094,0.375-0.094,0.843,0.093,1.498
					c1.029,0.188,0.187,0.469,1.217,0.844c0.095-0.655,0,0.561-0.28,1.874c-0.187,0.656-0.281,1.312-0.375,1.779
					c-0.094,0.469-0.094,0.656,0.092,0.469l-0.28-0.563c0,0,0.188,0.188,0.375,0.375c0.187,0.188,0.375,0.468,0.375,0.468
					c-0.561,0.469-1.779,0.655-1.593,1.406c-0.187-0.094,0.75-1.218,1.406-2.437c0.657-1.218,1.03-2.623,0.844-2.528
					c0.655-0.093,0.375,1.967-0.563,3.935c-0.937,1.966-2.623,3.653-2.529,3.934l-0.467-0.469c-0.188,0.656-0.281,1.218-0.469,1.779
					c-0.094,0.562-0.281,1.124-0.655,1.591l-0.563-0.561c0.749-0.187,0.655-0.75,1.031-1.405c-0.469,0.468-0.843,0.562-1.124,0.655
					c-0.375,0.093-0.562,0.188-1.03,0.469c0.468,0.936,1.03,0.093,0.092,1.125c-0.467-0.281-0.28-1.591-1.124-0.937
					c-1.218,0.187-0.469,1.499-1.593,2.06l0.844,0.094c-0.375,0.187-1.125,0.656-1.686,0.187c0.281,0,0.655-0.28,0.937-0.563
					c0.281-0.375,0.375-0.844,0.187-1.312c-0.375,0.375-1.499,0.281-1.873,0.375l0.092-0.75c-0.561-0.561-0.561,0.469-1.218,0
					c-0.468,0.469,0.469,0.938,0.188,1.312c-0.188-0.187-1.218-0.469-1.499,0c0.187,0.749,0.469,0.655,0.843,0.469
					s0.75-0.375,1.218,0.28l-1.03-0.094c-0.469,1.591,1.685-0.281,1.499,0.936c-0.28,0.843-0.749,0.563-1.218,0.281
					c-0.468-0.282-0.843-0.468-1.217,0.468c0.561,0.375,2.248,0.187,2.154,0.75c-0.655-0.469-0.937,0.655-1.874,0.936
					c0,0-0.28-0.187-0.561-0.28c-0.281-0.187-0.562-0.281-0.562-0.281c-0.469,0.467-0.094,0.467,0.28,0.75
					c-0.375-0.187-0.843-0.281-1.312-0.375c-0.467-0.094-1.03-0.094-1.591-0.094c-0.563-0.093-1.124-0.187-1.686-0.281
					c-0.563-0.187-1.029-0.468-1.498-0.843c-1.312-0.187-0.375,0.562-1.03,0.936c-0.187-0.561-0.563-0.749-1.032-0.844
					c-0.467-0.092-0.936-0.187-1.311-0.374c-0.187-0.187-0.937,0.469-0.937,0.844c0,0,0.468,0.094,1.029,0.187
					c0.281,0,0.469,0.094,0.656,0.094s0.281,0,0.281,0c-0.281,0.375-0.281,1.218,0.375,1.405c0.094-0.938,0.656-0.375,1.312,0.094
					c0.657,0.468,1.499,0.844,1.779-0.094l-0.187,0.843c0,0,0.187,0,0.375,0c0.281,0,0.562,0,0.937-0.093
					c0.28,0,0.655-0.094,0.843-0.094c0.281,0,0.375-0.093,0.375-0.093l-0.093-0.094c0,0.28,2.06-0.469,3.466-0.187
					c-0.188,0.187-0.844,0.187-1.313,0.281c-0.468,0.093-0.655,0.187,0,0.75c-0.563,0.281-1.312,0.093-2.061,0
					c-0.844-0.187-1.779-0.375-2.717-0.469l0.281,0.656c-1.125,0.187-2.342-0.187-3.372-0.75c-0.563-0.28-1.125-0.563-1.593-0.937
					c-0.561-0.375-1.03-0.562-1.591-0.844c0,0,0.28-0.094,0.467-0.187c0.281-0.094,0.469-0.187,0.469-0.187
					c-0.561-0.655-1.03-1.686-1.966-1.499c0.75,0.468,0.187,0.655-0.188,0.843c-0.655-0.187-1.311-0.656-1.966-1.218
					c-0.655-0.655-1.313-1.218-2.062-1.779c0,0,0.187-0.094,0.187-0.187c0,0-0.375-0.281-0.844-0.563
					c-0.375-0.281-0.843-0.561-0.843-0.561c-0.468-0.844-0.188-1.313-0.093-2.06c-0.281-0.187-0.656-0.844-0.938-0.375
					c0.094,0.187,0.094,0.375,0.187,0.375c-1.313-0.281-0.093-0.656-1.218-1.406c1.124,0.374,0.844-0.75,1.593-1.03
					c-0.843-1.03-1.313,0.561-1.687,0.561c-0.375-1.685,0.188-2.153-0.187-3.746c-0.467,0.094,0.094,1.218-0.375,1.499
					c0-0.468-0.28-1.03-0.469-1.03v1.125c-0.092-0.938-0.187-1.779-0.28-2.623c-0.187-0.843-0.375-1.686-0.655-2.623l-0.187,0.187
					c0,0,0-0.281-0.094-0.562c0-0.28,0-0.561,0-0.561l0.937,0.374c-0.281-0.655,0.468-1.312-0.281-1.593l-0.094,0.187l-0.281-0.749
					c0,0,0.187,0.187,0.469,0.375c0.187,0.187,0.467,0.374,0.467,0.374c0.188-0.467-0.187-1.029-0.561-1.779
					c-0.187-0.374-0.375-0.749-0.468-1.123c-0.093-0.375-0.093-0.844,0-1.219c0.655-0.094,0.563,0.655,0.655,1.405
					c0.094,0.749,0.281,1.593,1.03,1.685c0.281-0.468,0.563-1.312,0.187-1.685c-0.467,0-0.467,0.374-0.467,0.749
					c-0.188-0.375-0.281-0.749-0.188-1.125c0-0.375,0.188-0.843,0.28-1.217c0.187-0.75,0.375-1.5-0.187-2.062l-0.75,0.938
					c0.187-1.312,1.966-1.593,1.218-2.249c0,0,0.28,0.375,0.561,0.656c0.28,0.375,0.656,0.655,0.656,0.655
					c-0.375-1.405,0.28-2.81,0.375-4.027c-0.844-0.468-0.75,1.499-0.844,1.406c0,0-0.093-0.187-0.187-0.375
					c-0.093-0.187-0.187-0.375-0.187-0.375c0.656-0.749,0.844-0.749,1.03-0.844c0.187-0.092,0.468-0.281,1.218-1.03l-0.468-0.375
					c1.124-0.188,0.844-2.717,1.685-1.218l-0.655,0.281l0.655,0.375c0,0,0.281-0.563,0.562-1.124
					c0.28-0.563,0.655-1.125,0.655-1.125c0.281,0.561,0.938-0.468,1.218,0.281c0,0,0-0.281,0.094-0.563
					c0.094-0.281,0.094-0.562,0.094-0.562c0.467,0.281,0.375,0.75,0.281,1.218c-0.093,0.563-0.281,1.03,0,1.313
					c0.375,0.28,0.563,0,0.656-0.187c0,0.655-0.469,0.655-0.937,0.749c-0.468,0.092-1.124,0.092-1.406,0.468l0.281,0.749
					l-0.749-0.563c-0.093,0.468,0.187,1.124,0.468,1.406c-0.749,0.092-1.029,0.561-1.124,1.124
					c-0.093,0.563-0.093,1.218-0.468,1.874c-0.094-1.313-1.124,0.467-1.218,0.187c-0.092,0.187-0.092,0.375,0,0.749
					c0.095,0.28,0.095,0.655,0.188,0.938c0.094,0.655,0.094,1.124-0.468,1.312c-0.469,0.375-0.469-0.938-0.843,0
					c0,0.655,0.375,1.124,0.936,0.843c0.094,1.405-0.187,2.904,0,4.402l-0.655-0.281c-0.469,1.031,0.563,1.874,1.312,2.154
					c-0.187,0.187,0,0.187-0.375,0.187c-0.375,0.655,0.093,1.031,0.561,1.312c0.469,0.375,1.218,0.655,1.406,1.593
					c0.749-0.468,0.561-1.218,0-1.593l0.936-0.187c-0.375-1.405-0.936-2.904-1.499-4.122c0,0,0.187,0.094,0.375,0.281
					c0.187,0.093,0.375,0.28,0.375,0.28c0.655-0.563,0.281-0.656,0-0.844c-0.28-0.187-0.563-0.375,0.187-0.843
					c-0.28-0.75-0.563,0.468-0.938,0c0.281-0.47,1.685,0.187,1.78-0.656c0.092,1.499,0.375,2.998,0.843,4.497
					c0.375,1.499,1.03,2.904,1.967,4.122c0.187-0.092,0.187-0.187,0.092-0.375c0.75,0.094,1.499,2.249,2.998,3.935
					c1.499,1.687,3.559,2.811,4.122,1.686c0,0.375-0.563,0.655,0,0.75c0.092-0.187,0.375-0.281,0.375-0.75
					c0.094,0.187,0.28,0.375,0.468,0.561c0.189,0.187,0.375,0.28,0.562,0.375c0.375,0.188,0.843,0.281,1.406,0.281
					c0.467,0,0.936,0.094,1.499,0.094c0.467,0,0.936,0.187,1.499,0.28c-0.094-0.375,0.375-0.655,0.28-0.937
					c0.375,0.469,0.749,0.375,1.218,0.281c0.375-0.093,0.843-0.281,1.124-0.093l-0.28-0.469c0,0,0.467-0.094,0.844-0.187
					c0.187,0,0.467-0.187,0.561-0.187c0.187-0.094,0.28-0.094,0.28-0.094c0-0.187-0.28-0.092-0.375-0.092
					c0.281-0.375,0.563,0.092,0.749,0.467c0,0,0.093-0.28,0.188-0.655c0.094-0.375,0.187-0.656,0.187-0.656
					c1.406,0.375,2.528-0.655,3.372-1.779c0.843-1.125,1.312-2.436,2.528-3.184c-0.467-0.749-0.655-1.218-0.467-1.779l-0.375,0.187
					c-0.375-0.843,0.375,0.187,0.281-0.467c-0.375-0.563-1.125-0.563-0.844,0c-0.375,0.093-0.561-0.187-0.655-0.375
					C203.577,31.349,204.421,30.132,206.014,28.445z"/>
				<path fill="#FFFFFF" d="M202.642,26.852c0.375-0.281,0.469,0.563,1.218,0.094c0.749-0.844,0.469-1.874,0.187-2.811
					c-0.375-0.938-0.936-1.874-1.03-2.998c0.187-0.843,0.094-0.938,0-1.499c-0.094,0.094-0.28,0.187-0.375,0.375
					c-0.187-0.281-0.469-0.469-0.75-0.655c-0.281-0.281-0.469-0.467-0.561-0.844c-0.281,0-0.75,0.469-0.375,0.563
					c-0.469,0-0.563-0.469-0.656-0.843c-0.094-0.375-0.187-0.843-0.469-0.749c0.093,0.562-0.655,0.374-0.375,0.843
					c-0.75-0.281,0.375-2.342-0.28-2.903c-0.095,0.187-0.188,0.281-0.095,0.375c-0.187-0.562-0.843-0.75-1.404-0.844
					c-0.562-0.094-1.03-0.187-0.844-1.03c0,0-0.094,0.093-0.28,0.281c-0.093,0.187-0.281,0.28-0.281,0.28
					c-0.28-0.561-0.094-0.936-0.75-1.218c-0.469,0.187-0.093,0.561-0.281,0.844c-0.093-0.656-1.218-0.47-1.779-1.405
					c0-0.563,0.281-0.188,0.561,0.187c0.281,0.375,0.656,0.749,0.938,0.281c0-0.187,0-0.281-0.187-0.281
					c0.749,0.093,1.312,0.469,1.873,0.843c0.561,0.469,1.03,0.936,1.405,1.405s0.749,0.938,1.124,1.313
					c0.375,0.374,0.75,0.561,1.313,0.655c0,0.843,0.655,0.469,1.217,0c-0.092-0.469-0.749-1.686-1.405-0.469
					c0,0,0-0.281-0.094-0.562c0-0.28-0.093-0.563-0.093-0.563c-0.28-0.093,0.375-1.311,0.375-1.591
					c0.375,0.375,1.591-0.562,1.124-1.406c0.75,0.28,0.28,0.843-0.188,1.499c-0.467,0.562-0.936,1.125-0.375,1.311l0.655-0.843
					c-0.468,0.375,0.187,1.313,0.656,1.219v-0.281c1.218,1.124,2.528,2.342,3.747,3.841c1.218,1.499,2.249,3.184,2.905,4.871
					c-1.125,0.75-0.749,1.218-0.375,1.873c0.187,0.281,0.375,0.561,0.467,0.844c0,0.281-0.187,0.563-0.655,0.749
					c0.375,0.375,0.843-0.655,1.217,0.093c0.187,0.375-0.468,0.469-0.655,0.375c0.092,0.092,0.187,0.187,0.187,0.375
					c-1.218,0.187-2.437,0-3.559-0.28C204.515,27.882,203.577,27.415,202.642,26.852z"/>
			</g>
		</g>
	</g>
</g>
<g>
	<path fill="#FFFFFF" d="M24.102,17.579c-0.092,0-0.092-0.094-0.187-0.187c-0.092-0.188-0.187-0.375-0.28-0.469
		c-0.094,0.094-0.281,0.281-0.563,0.375c-0.187,0.187-0.469,0.375-0.844,0.561l0,0c0,0.188,0.187,0.375,0.656,0.469
		c-0.844,0.28-1.313,0.656-1.591,1.032l-1.688,3.652c0,0,0,0.094-0.093,0.094c0,0.092-0.094,0.187-0.094,0.375
		c0,0.094,0,0.094,0,0.187c0,0.094,0,0.094,0,0.187v0.094v0.094c-0.093,0.093-0.281,0.281-0.655,0.561
		c-0.187,0.093-0.28,0.281-0.467,0.375c-0.094,0.094-0.187,0.187-0.281,0.281c-0.095,0.093-0.281,0.375-0.469,0.843
		c-0.187,0.375-0.375,0.75-0.468,0.937c-0.281,0.187-0.655,0.468-1.03,0.937c-0.187,0.187-0.469,0.281-0.655,0.281
		c-0.092,0-0.092,0-0.187,0l0.094-0.095l0.092-0.092v-0.188c0.094-0.093,0.094-0.375,0.187-0.561c0-0.187,0-0.281,0.094-0.375
		c0.094-0.094,0-0.187,0.094-0.281l0.375-0.281c0.187-0.188,0.281-0.28,0.375-0.468l0,0v-0.094c0-0.092,0-0.187-0.094-0.28
		c-0.093-0.093-0.093-0.281-0.093-0.281c0-0.094,0-0.094,0-0.094l0,0c0-0.093,0.093-0.187,0.188-0.375
		c0.094-0.188,0.187-0.375,0.28-0.655c0.093-0.281,0.187-0.469,0.281-0.655c0.094-0.187,0.094-0.375,0.187-0.469
		c0.094-0.187,0.188-0.375,0.28-0.561c-0.28-0.468-0.468-0.844-0.749-1.218c-0.28-0.375-0.469-0.749-0.656-1.124
		c-0.28-0.844-0.563-1.968-0.843-3.373c-0.187-1.124-0.281-1.874-0.281-2.248v-0.187c0-0.187,0.094-0.28,0.187-0.469
		c0.094-0.187,0.187-0.28,0.187-0.28s0.094,0,0.281-0.094c0.094-0.092,0.281-0.092,0.468-0.092c0.469,0,0.937,0.187,1.499,0.467
		c0,0.095,0.093,0.189,0.28,0.469c0.189,0.281,0.375,0.375,0.375,0.375c0.375,0.467,0.561,1.311,0.561,2.529
		c0.094,0.188,0.187,0.375,0.375,0.563c0.75,0.187,1.124,0.187,1.218,0.187c0.187,0,0.375-0.094,0.375-0.187
		c0.093-0.094,0.187-0.187,0.281-0.281l1.312-2.435c0.094-0.188,0.28-0.375,0.469-0.563c0.187-0.187,0.375-0.28,0.468-0.467
		c0.187-0.189,0.375-0.281,0.469-0.375c0.187-0.092,0.28-0.28,0.375-0.468c0.375,0.094,0.844,0.28,1.312,0.563
		c0.375,0.469,0.656,0.843,0.656,1.124v-0.092C25.976,15.143,25.32,15.986,24.102,17.579z"/>
	<path fill="#FFFFFF" d="M35.343,16.829c-0.375,0.281-0.75,0.469-0.844,0.469c-0.188,0-0.188,0-0.188-0.094l0,0
		c0.094-0.092,0.094-0.187,0.188-0.281c0.093-0.094,0.187-0.281,0.281-0.468h-0.469c-0.092,0.094-0.092,0.094-0.187,0.187
		c-0.092,0.094-0.187,0.094-0.28,0.094c-0.375,0-0.938-0.094-1.499-0.375c-0.094,0-0.281-0.281-0.469-0.75
		c-0.468,0.095-0.843,0.375-1.217,0.844v0.094v0.093c0,0-0.095,0.094-0.281,0.094s-0.375,0.093-0.655,0.093
		c-0.28,0-0.561,0.094-0.844,0.094c-0.282,0-0.561,0.094-0.843,0.094c0-0.374-0.187-0.655-0.375-0.749
		c-0.187-0.187-0.375-0.374-0.375-0.749c0-0.093,0-0.187,0-0.187c0-0.281,0.189-0.655,0.563-1.217
		c0.28-0.47,0.655-0.938,1.029-1.219c0.281,0,0.656,0,1.03,0s0.844,0.093,1.405,0.093c1.218,0.28,1.967,0.469,2.154,0.469
		c0.094,0,0.281,0,0.563-0.093c0.092,0,0.28,0,0.375-0.094c0.094-0.094,0.187,0,0.187,0c0.375,0,0.655,0.094,0.938,0.28
		c0.281,0.187,0.467,0.469,0.467,0.75v0.094c0.188,0.187,0.28,0.469,0.375,0.936c0,0.375,0.187,0.656,0.375,0.75v0.092
		c0,0.094,0,0.094,0,0.188c0,0.093,0,0.187,0,0.28l-0.094,0.656c0,0.094,0,0.094,0,0.187v0.094c0,0.093,0,0.093,0,0.187
		c0,0.093,0,0.093,0,0.187v0.094c0,0.092,0.094,0.092,0.094,0.187c0.094,0.092,0.094,0.187,0.094,0.28v0.094
		c0,0.094-0.28,0.375-0.655,0.75c-0.655,0.561-1.125,0.842-1.125,1.03c0.093,0,0.187,0.092,0.281,0.092
		c0.093,0,0.187,0.094,0.375,0.094h0.093c-0.187,0.093-0.467,0.375-0.75,0.656c0.093,0.092,0.187,0.187,0.281,0.375
		c0.281,0.187,0.375,0.375,0.468,0.375c0.094,0.095,0.094,0.187,0.187,0.375c0,0.187,0.094,0.375,0.094,0.375
		c0.187,0.187,0.375,0.467,0.561,0.749c0.188,0.281,0.469,0.563,0.75,0.938c0,0.092,0,0.187,0,0.187v0.092
		c0,0.094-0.094,0.187-0.094,0.281c-0.093,0.187-0.187,0.375-0.187,0.375c0,0.095,0,0.187,0.094,0.281
		c-0.281,0.28-0.563,0.655-0.844,0.936c-0.28,0.28-0.563,0.656-0.843,0.938c-0.844,0.843-1.594,1.313-2.155,1.313
		c-0.094,0-0.28,0-0.563,0.092c-0.187,0-0.28,0-0.375,0.094c-0.093,0-0.187,0-0.281,0c-0.28,0-0.468-0.094-0.655-0.281
		c-0.094,0.093-0.188,0.187-0.375,0.281c-0.187,0.094-0.375,0.187-0.562,0.187c0-0.093,0-0.093,0-0.187c0-0.187,0-0.281-0.094-0.281
		h-0.371c-0.092,0.093-0.187,0.281-0.187,0.467c-0.092,0-0.092,0-0.187,0H29.63c-0.187,0-0.281,0-0.281-0.093
		c-0.094,0-0.187-0.094-0.469-0.28c-0.094,0-0.28,0.094-0.561,0.375h-1.406c0-0.093,0-0.281,0-0.467
		c0-0.188-0.092-0.375-0.092-0.656c0.467-0.188,0.75-0.28,0.844-0.28l0.092-0.094l0.094-0.092v-0.094
		c0-0.092-0.094-0.28-0.187-0.375l0,0c0.092,0,0.187-0.094,0.28-0.28l-0.187-0.093c0.094-0.281,0.187-0.563,0.281-0.655l1.218,0.655
		c-0.281,0.375-0.562,0.656-0.844,0.844c0.094,0.092,0.094,0.092,0.187,0.187c0.094,0.092,0.094,0.187,0.187,0.28
		c0.094,0.093,0.094,0.188,0.187,0.188c0.095,0.092,0.095,0.092,0.095,0.092c0.187-0.281,0.468-0.655,0.937-1.218
		c0.562,0.187,0.936,0.187,1.03,0.187c0.655,0,1.312-0.094,1.779-0.28c0.094,0,0.094-0.093,0.28-0.093s0.187-0.094,0.375-0.187
		c0.187-0.093,0.375-0.187,0.469-0.187c0.094,0,0.281,0,0.375,0.093c0.094,0.093,0.188,0.093,0.188,0.187
		c0.093,0,0.093,0.094,0.093,0.094l0.375-0.28l0.094-0.937c-0.094-0.094-0.187-0.28-0.28-0.563
		c-0.093-0.092-0.187-0.187-0.375-0.375s-0.281-0.375-0.469-0.375s-0.281-0.094-0.469-0.187c-0.187-0.094-0.28-0.187-0.28-0.469
		c0.187-0.187,0.28-0.28,0.28-0.375l0,0c-0.092-0.094-0.187-0.094-0.28-0.188c-0.094-0.093-0.187-0.093-0.375-0.093
		c-0.093,0-0.281,0.093-0.561,0.281c-0.281,0.187-0.375,0.187-0.469,0.187c-0.093,0-0.093,0-0.281-0.094
		c-0.094,0-0.188-0.187-0.375-0.28l0,0c-0.092-0.093-0.092-0.093-0.187-0.187c-0.092-0.093-0.092-0.187-0.092-0.281
		c0-0.094,0-0.188,0.092-0.28c0.094-0.281,0.281-0.561,0.469-0.844c0.188-0.282,0.468-0.561,0.75-0.749
		c0.281-0.187,0.467-0.375,0.655-0.561c0.188-0.095,0.28-0.188,0.28-0.188c0.375,0,0.561,0,0.561-0.094l0.844-0.749
		c0.281-0.281,0.467-0.656,0.561-0.844v-0.375c0-0.188,0.093-0.469,0.187-0.749c0.095-0.187,0.281-0.375,0.562-0.656
		C35.624,16.923,35.531,16.829,35.343,16.829z"/>
	<path fill="#FFFFFF" d="M38.81,27.134c0,0.092,0,0.187,0,0.28v0.187v0.187c0,0.092-0.093,0.187-0.093,0.281
		c-0.187-0.189-0.375-0.281-0.563-0.281l0.094-0.469c0,0,0.093,0,0.281-0.094C38.622,27.134,38.715,27.134,38.81,27.134z
		 M48.644,19.733c-0.375,0.75-0.561,1.218-0.655,1.405v0.187c0,0,0,0.094,0,0.187c0,0,0,0.094,0,0.188c0,0.092,0,0.187,0.094,0.281
		c0,0.095,0,0.095,0,0.187c0,0.094,0,0.187,0,0.281c0,0.092,0,0.187,0,0.28c-0.187,1.124-0.469,1.779-0.938,2.06l0,0
		c0,0.092,0.094,0.187,0.28,0.375c0,0,0,0.095,0,0.187c0,0,0,0.095,0,0.187c0,0.094,0,0.094,0,0.188
		c-0.094,0.561-0.28,1.405-0.655,2.342c0,0.093-0.187,0.281-0.469,0.656c-0.187,0.187-0.281,0.281-0.375,0.375
		c-0.094,0.093-0.187,0.187-0.187,0.281c0-0.093-0.094-0.281-0.187-0.561c-0.094-0.187-0.188-0.375-0.188-0.562V28.16
		c0-0.093,0.094-0.375,0.28-0.749c0.094-0.188,0.187-0.375,0.187-0.563c0-0.189,0.094-0.281,0.094-0.375c0.28,0,0.469,0,0.562-0.092
		c0,0,0-0.094-0.092-0.188l0,0c0,0-0.094,0-0.187,0c-0.189,0-0.281,0-0.375,0.094c-0.092,0-0.187,0.094-0.187,0.094
		c0-0.188,0-0.563,0.094-1.124c0-0.563,0.092-1.406,0.187-2.437c-0.094-0.187-0.281-0.281-0.469-0.469
		c-0.188-0.188-0.375-0.187-0.561-0.187c-0.563,0-1.312,0.095-2.062,0.375c0,0-0.092,0-0.187,0c-0.092,0-0.187,0-0.28,0l0,0
		c0,0-0.094,0.094-0.281,0.094c-0.187,0.094-0.375,0.187-0.655,0.375c-0.188,0.562-0.375,0.938-0.562,1.312
		c-0.188,0.375-0.28,0.561-0.28,0.749c-0.187,0.375-0.375,0.75-0.561,1.03c-0.188,0.281-0.375,0.655-0.656,0.844
		c0-0.094-0.187-0.188-0.375-0.375c-0.093-0.093-0.187-0.187-0.281-0.281c-0.094-0.094-0.094-0.187-0.187-0.187l0.281,0.281
		c0.28-0.187,0.375-0.467,0.468-0.655l0,0c0-0.188-0.28-0.469-0.749-0.844l0.561-0.187C39,24.604,39,24.416,38.908,24.228
		c-0.094-0.187-0.187-0.374-0.28-0.655c0.094,0,0.28-0.094,0.468-0.187c0.187-0.094,0.281-0.188,0.281-0.375l0,0
		c0-0.092-0.094-0.374-0.187-0.749c-0.094-0.281-0.188-0.469-0.188-0.655c0-0.187-0.093-0.281-0.093-0.375
		c0-0.094,0.093-0.28,0.187-0.563c0.094-1.03,0.094-1.499,0.094-1.685c0-0.093,0-0.187,0-0.281c0-0.095,0-0.188,0-0.281
		c0-0.468,0-0.843-0.094-1.218c0-0.092,0-0.281-0.094-0.375c-0.093-0.187-0.093-0.374-0.187-0.561
		c-0.187-0.375-0.281-0.561-0.281-0.749l0,0c0-0.093,0.093-0.187,0.093-0.375c0.094-0.187,0.187-0.375,0.28-0.561
		c0.281-0.469,0.561-0.844,0.749-1.125c0.844,0,1.686,0.094,2.437,0.281c0.281,0.187,0.469,0.469,0.655,1.124
		c0.187,0.469,0.281,0.844,0.281,1.125v0.187c-0.093,0.375-0.281,0.749-0.75,1.124c-0.561,0.469-0.843,0.843-1.029,1.312
		l0.468,0.095c0.093-0.095,0.093-0.188,0.187-0.281c0.093-0.094,0.093-0.187,0.187-0.187c0,0.093,0,0.187,0,0.281
		c0,0.094,0,0.188,0,0.188c0,0.092,0,0.092,0,0.092v0.095c0,0.281,0.093,0.469,0.281,0.561c0.187,0.093,0.562,0.093,1.218,0.093
		c0.092,0,0.28-0.093,0.561-0.187c0.28-0.094,0.469-0.188,0.656-0.188c0.094,0,0.28,0,0.561,0.094
		c0.28,0.094,0.468,0.094,0.75,0.094l0.281-1.032v-0.093c0-0.094,0-0.28,0-0.563c0-0.28-0.094-0.656-0.094-1.03
		c-0.092-0.844-0.092-1.312-0.092-1.591v-0.094c0-0.094,0.092-0.375,0.28-0.937c0.094-0.28,0.187-0.468,0.281-0.655
		c0.092-0.188,0.092-0.375,0.092-0.469h0.655c0.563,0,1.03,0.281,1.499,0.749c0.469,0.469,0.656,0.844,0.656,1.125
		c0,0.28,0,0.561,0,0.843c0,0.283,0,0.469-0.092,0.75c0,0.28-0.094,0.467-0.094,0.655c0,0.187-0.092,0.375-0.187,0.562v0.092
		c0,0.094,0,0.094,0,0.187c0,0.094,0,0.094,0.094,0.188c0.092,0.187,0.092,0.375,0.092,0.467
		C49.112,18.797,48.926,19.172,48.644,19.733z"/>
	<path fill="#FFFFFF" d="M51.549,27.695c-0.093,0.187-0.093,0.28-0.093,0.375c-0.094,0-0.187,0-0.375,0.092
		c-0.187,0-0.28,0.095-0.375,0.095c-0.093,0-0.187-0.095-0.375-0.187c-0.093-0.095-0.281-0.188-0.375-0.188l0.187-0.936h0.094
		c0.467,0,0.75-0.187,0.844-0.563c0.093,0.095,0.187,0.095,0.375,0.095c0.093,0.281,0.187,0.469,0.187,0.749v0.188
		C51.643,27.415,51.643,27.507,51.549,27.695z M58.762,25.542c0.187,0.188,0.375,0.28,0.467,0.28l-0.28,1.874
		c-0.094,0-0.187,0.094-0.281,0.094c-0.095,0-0.187,0.093-0.375,0.187c0.187,0.095,0.469,0.187,0.75,0.375c0,0.094,0,0.187,0,0.28
		c0,0.094,0,0.281,0.094,0.375L58.012,29.1v-0.188c0-0.281-0.092-0.561-0.375-0.655c0-0.095,0.093-0.187,0.187-0.187
		c0.187-0.095,0.281-0.188,0.375-0.188c-0.561-0.093-0.843-0.467-0.843-1.03c0-0.092,0-0.187,0-0.281c0-0.092,0-0.187,0.094-0.28
		c0.281-0.094,0.469-0.094,0.655-0.187c0.28-0.094,0.467-0.187,0.656-0.375c0,0,0-0.094-0.095-0.188
		c-0.094-0.093-0.187-0.187-0.187-0.187c-0.281,0.094-0.469,0.28-0.469,0.468h-0.749c-0.095,0-0.095,0-0.095-0.092
		c0-0.094,0-0.188,0-0.188v-0.281c0,0,0.095-0.094,0.188-0.094c0.094-0.093,0.187-0.093,0.187-0.188l0,0
		c0-0.093-0.093-0.28-0.187-0.468c-0.093-0.281-0.188-0.469-0.188-0.561c0-0.094,0-0.281,0-0.375c0-0.188,0-0.375,0-0.563
		c0-0.092-0.094-0.092-0.094-0.187c0-0.092-0.093-0.092-0.281-0.092s-0.468,0.092-0.937,0.187c0,0.092,0,0.092,0,0.187
		c0,0.092,0,0.092,0,0.187c-0.092,0.375-0.281,0.655-0.656,0.749c-0.187,0-0.468,0.094-1.029,0.094c-0.562,0-0.844,0-0.937,0
		c-0.094,0-0.094-0.094-0.188-0.094c-0.092,0-0.187-0.092-0.28-0.187c-0.187-0.092-0.281-0.187-0.375-0.187
		c-0.092,0-0.375,0.094-0.655,0.187c-0.375,0.187-0.655,0.281-0.749,0.281c0.094,0.187,0.28,0.375,0.749,0.375
		c0.655,0.094,1.03,0.094,1.124,0.094c-0.092,0.187-0.187,0.281-0.28,0.469c-0.094,0.187-0.189,0.281-0.281,0.467
		c-0.375,0.468-0.655,0.749-0.937,0.749h-1.125l0.093-0.843c0.187,0.093,0.375,0.187,0.563,0.187c0.092,0,0.187,0,0.281-0.094
		l0.28-0.187v-0.093c0-0.187-0.094-0.281-0.28-0.281c-0.375-0.093-0.562-0.093-0.656-0.187c0.094-0.094,0.094-0.28,0.094-0.375
		c0-0.094,0.093-0.375,0.093-0.563c0-0.28,0.094-0.468,0.094-0.561c0-0.187,0.094-0.281,0.094-0.375
		c0.092-0.094,0.187-0.281,0.281-0.469c0.094-0.469,0.28-1.124,0.563-1.967c0.187-0.375,0.28-0.75,0.375-1.03
		c0.092-0.28,0.187-0.561,0.187-0.749c0-0.095,0.092-0.188,0.281-0.375c0.187-0.187,0.28-0.281,0.28-0.375
		c0.094-0.375,0.187-0.844,0.281-1.218c0.094-0.375,0.187-0.843,0.28-1.218c0.467-1.499,1.03-2.154,1.591-2.154
		c0.187,0,0.375,0.092,0.563,0.187c1.125,0.093,1.874,0.187,2.249,0.28c0.749,0.281,1.125,0.75,1.125,1.406v0.187
		c-0.095,0.375-0.281,0.844-0.75,1.591c0.094,0.281,0.281,0.375,0.563,0.469l-0.563-0.093c-0.187,0.093-0.28,0.281-0.375,0.375
		c0.094,0.092,0.187,0.092,0.281,0.092c0.187,0,0.375-0.092,0.467-0.28c0,0.092,0.094,0.28,0.281,0.468c0,0,0,0,0,0.093
		c0,0.094-0.093,0.094-0.093,0.094l-0.094,0.093v0.094c0.187,0.093,0.281,0.187,0.469,0.187c-0.094,0.75-0.281,1.219-0.375,1.405
		l0.093,0.094c0.095,0,0.095,0.093,0.187,0.093c0.281,0.188,0.469,0.28,0.469,0.28c0,0.28-0.187,0.469-0.469,0.75
		c0.094,0.092,0.187,0.28,0.375,0.561c-0.092,0.187-0.28,0.375-0.75,0.47c-0.468,0.187-0.843,0.374-1.124,0.655
		c0.094,0.093,0.187,0.187,0.281,0.281c0.094,0.094,0.187,0.094,0.28,0.094c0.281,0,0.375-0.094,0.375-0.187h0.75
		c-0.187,0.28-0.281,0.561-0.375,0.938l-0.093,0.842v0.659H58.762z M51.643,23.199h-0.468v0.281h0.468V23.199z M51.735,22.45
		L51.735,22.45c0-0.187,0-0.28-0.094-0.28c-0.094,0.094-0.187,0.094-0.28,0.187l0,0c0,0.094,0.094,0.187,0.28,0.375
		C51.735,22.73,51.735,22.637,51.735,22.45z M52.485,20.107c-0.095-0.094-0.187-0.094-0.281-0.094l-0.092,0.563l0.562-0.094
		C52.767,20.296,52.673,20.201,52.485,20.107z M53.234,18.608L53.234,18.608c-0.375-0.094-0.655,0-0.844,0.187l0.281,0.188
		c0.187,0.094,0.281,0.187,0.375,0.187c0.188,0,0.281-0.187,0.375-0.467C53.328,18.703,53.234,18.703,53.234,18.608z M56.512,20.39
		c-0.093-0.189-0.093-0.375-0.093-0.563c0-0.188,0-0.281,0-0.375V19.36v-0.094c-0.188,0-0.375-0.187-0.563-0.468
		c-0.188-0.283-0.28-0.375-0.469-0.469l0,0c-0.187,0.094-0.28,0.28-0.467,0.375c-0.188,0.092-0.375,0.187-0.563,0.187v0.093
		c0,0.094,0,0.187,0.094,0.375c0,0,0,0.092,0,0.187l0,0c0,0.094-0.094,0.188-0.094,0.375c-0.281,0-0.562,0.093-0.656,0.187
		c0.094,0.281,0.28,0.469,0.563,0.656c-0.094,0.375-0.563,0.561-1.312,0.561h-0.281c0.469,0.281,0.749,0.562,0.843,0.844
		c0.094,0,0.187,0,0.28,0.094c0.093,0,0.187,0.092,0.375,0.092c0.094,0,0.187,0,0.28,0c0.093,0,0.281,0,0.561-0.092
		c0.469-0.094,0.75-0.094,0.844-0.094l0.655,0.187c0.094,0,0.187-0.092,0.28-0.187l0.187-0.187
		C56.794,21.419,56.606,20.951,56.512,20.39z M53.889,17.204h-0.561l-0.187,0.375h0.749v-0.375H53.889z M58.385,18.797h-0.467v0.187
		h0.467V18.797z M58.011,20.765l-0.092,0.468c0,0,0,0,0.092,0h0.094h0.092c0.094,0,0.094,0,0.094,0c0.092,0,0.092,0,0.187-0.094
		C58.479,20.857,58.293,20.765,58.011,20.765z M58.762,24.979c-0.189-0.094-0.469-0.187-0.656-0.187
		c0,0.093,0.092,0.187,0.187,0.375C58.293,24.979,58.479,24.979,58.762,24.979z"/>
	<path fill="#FFFFFF" d="M71.876,15.425c-0.375,0.187-0.655,0.375-0.938,0.375c-0.092,0-0.092,0-0.187,0
		c-0.092,0-0.187-0.093-0.28-0.093c-0.094,0-0.188-0.094-0.281-0.094c-0.094,0-0.187,0-0.187,0c-0.094,0-0.28,0-0.468,0.094
		c-0.188,0.093-0.469,0.093-0.844,0.187c-0.094,0-0.187,0-0.187,0.093c0,0,0.092,0.094,0.28,0.094s0.375,0.093,0.563,0.093
		c0.189,0,0.375,0.094,0.562,0.094s0.28,0.094,0.28,0.094s0,0-0.094,0.092c-0.187,0.187-0.281,0.469-0.281,0.656v0.093
		c0,0.188,0.093,0.468,0.281,0.562c0,0.187-0.187,0.468-0.375,0.749c-0.187,0.281-0.281,0.469-0.281,0.656
		c0,0.094,0,0.188,0.095,0.28l-0.095,0.281c-0.281,0-0.467,0.187-0.655,0.281c-0.375,0.375-0.561,0.563-0.561,0.563
		c-0.187,0.093-0.28,0.093-0.562,0.281c-0.187,0.094-0.469,0.28-0.749,0.375l0.094,0.092c0,0,0,0.094,0.093,0.094
		c0,0,0.094,0,0.188,0c0,0,0.187,0,0.467-0.094c0.281-0.092,0.656-0.187,1.313-0.28c0.187,0.187,0.28,0.375,0.28,0.561v0.187
		c-0.28,0-0.563-0.187-0.937-0.375h-0.375c0,0.092-0.095,0.187-0.281,0.375l0,0c0,0.092,0.187,0.187,0.469,0.187
		c0,0.095-0.187,0.281-0.375,0.656l0,0c0.092,0.094,0.092,0.187,0.092,0.28l0,0c0,0.093-0.187,0.187-0.375,0.375
		c0.094,0.094,0.094,0.281,0.094,0.375v0.093c0,0.187-0.187,0.375-0.563,0.562v0.094c0,0.187,0.094,0.187,0.28,0.187
		c0.094,0,0.187,0,0.281-0.094c0.092,0,0.092-0.092,0.092-0.092l-0.187,1.218c0,0.094-0.092,0.187-0.092,0.187
		c-0.094,0-0.187,0-0.187,0.094c0,0.093-0.094,0.469-0.281,0.936c-0.187,0.469-0.28,0.844-0.28,1.125
		c0,0.187-0.093,0.375-0.281,0.656c-0.092,0.094-0.187,0.28-0.281,0.375c-0.094,0.094-0.187,0.187-0.28,0.187
		c-0.093-0.561-0.093-1.313-0.093-2.435c-0.094-0.188-0.188-0.375-0.375-0.375c0-0.188,0-0.281,0-0.375
		c0-0.093,0.094-0.281,0.187-0.375c-0.187-0.281-0.187-0.562-0.187-0.844v-0.094c0.094-1.03,0.187-2.342,0.281-4.028
		c0,0,0-0.092,0.094-0.187l0.093-0.092l0,0c0,0-0.093-0.094-0.187-0.188c0-0.281,0.094-0.655,0.094-1.03
		c0-0.375,0.093-0.749,0.093-1.218v-0.094c0-0.187-0.093-0.468-0.187-0.75c-0.094-0.282-0.281-0.749-0.469-1.124
		c-0.093,0-0.093-0.093-0.187-0.093c-0.093,0-0.187-0.094-0.28-0.094c-0.093,0-0.188,0-0.281,0.094
		c-0.094,0-0.187,0.093-0.375,0.093l0,0l0,0c0,0,0,0-0.093-0.093c-0.094,0-0.187-0.094-0.375-0.094s-0.469-0.093-0.844-0.187
		c-0.375-0.094-0.843-0.187-1.406-0.281c0,0-0.093-0.092-0.187-0.187c-0.093-0.092-0.187-0.28-0.375-0.375
		c-0.187-0.187-0.281-0.375-0.281-0.468l0,0c0-0.188,0.187-0.281,0.375-0.469c0.188-0.187,0.469-0.281,0.656-0.281
		c0.094,0,0.281,0,0.563,0.093c0.281,0.094,0.843,0.094,1.405,0.28h0.094c0.093,0,0.187-0.094,0.375-0.094
		c0.187-0.093,0.375-0.187,0.561-0.281c0.563-0.187,0.938-0.375,1.124-0.375c0,0,0.469,0.094,1.405,0.188l0.094,0.187
		c0,0.093,0.093,0.093,0.28,0.093l0.844-0.281c0.093,0,0.281,0.093,0.375,0.187c0.187,0.187,0.281,0.281,0.375,0.281
		c0.094,0,0.094-0.093,0.187-0.093c0.095,0,0.188-0.094,0.281-0.187l0,0c-0.094,0-0.094,0-0.187,0c-0.095,0-0.187,0-0.281,0
		c-0.092,0-0.187,0-0.375,0c0,0,0.093,0,0.281,0c0.187,0,0.468,0,0.844,0v0.093l0,0v0.094c0,0.093-0.094,0.187-0.094,0.187
		c0,0.094-0.092,0.187-0.092,0.187c0.092,0.094,0.187,0.187,0.187,0.281c0.093,0.092,0.093,0.187,0.093,0.187
		c0,0.095,0.094,0.095,0.094,0.095l0,0c0,0.092-0.094,0.187-0.187,0.28c-0.094,0.094-0.187,0.281-0.187,0.375l0.467,0.187
		c0.187-0.187,0.375-0.467,0.469-0.936c0.094-0.187,0.094-0.375,0.094-0.561c0-0.188,0-0.375,0-0.469c0,0,0.093,0,0.281-0.094
		c0.187,0,0.375-0.093,0.469-0.093c0,0.093-0.093,0.187-0.281,0.375l-0.187,1.591c0,0.094,0.094,0.094,0.094,0.187
		c0,0,0.092,0.094,0.28,0.094c0.281,0,0.467-0.094,0.561-0.281c0.094-0.375,0.281-0.561,0.281-0.655v-0.095
		c0-0.094-0.094-0.187-0.187-0.281c0.187-0.28,0.375-0.468,0.468-0.749c0.094,0.187,0.187,0.375,0.187,0.561
		c0,0.187,0.094,0.375,0.094,0.469v0.187C72.437,14.862,72.249,15.143,71.876,15.425z M67.472,13.363l-0.375,0.375h0.563
		C67.66,13.644,67.566,13.551,67.472,13.363z M68.316,23.762l-0.187-0.187l0.187-0.094l0.187,0.187L68.316,23.762z M69.065,19.452
		c0-0.092-0.093-0.187-0.281-0.187c-0.187,0-0.375,0.094-0.375,0.375c0.094,0,0.094,0.094,0.187,0.094
		C68.69,19.733,68.877,19.639,69.065,19.452L69.065,19.452z M69.439,13.551l0.094-0.187h0.375v0.187H69.439z M74.966,14.676
		c-0.092,0-0.28,0.092-0.561,0.28c-0.281,0.094-0.75,0.28-1.218,0.562c-0.094-0.093-0.187-0.187-0.28-0.187c0,0,0,0,0-0.093
		c0-0.094,0-0.094,0.094-0.187c0.093-0.094,0.093-0.188,0.093-0.188c0-0.092,0-0.092,0.094-0.187l0.561,0.187l0.094-0.092
		l0.092-0.093c0-0.094,0-0.094,0-0.094c0-0.094-0.092-0.187-0.187-0.375l0.281-0.094C74.216,14.395,74.591,14.582,74.966,14.676z
		 M72.906,14.395L73,13.926h0.187v0.469H72.906z"/>
	<path fill="#FFFFFF" d="M86.956,26.478c-0.092,0.469-0.562,0.937-1.218,1.498c-0.75,0.562-1.499,0.937-2.154,1.125
		c-0.937,0.187-2.06,0.28-3.466,0.28c-1.218,0-2.154-0.092-2.811-0.187c-1.31-0.28-1.873-0.843-1.873-1.685v-0.093v-0.094v-0.094
		c0.094-0.187,0.28-0.375,0.656-0.749c0.468-0.375,0.655-0.562,0.749-0.656c0.187-0.375,0.375-0.749,0.561-1.124
		c0.187-0.375,0.281-0.75,0.375-1.03c0.094-0.187,0.094-0.28,0.094-0.469c0-0.187,0.092-0.28,0.092-0.467v-0.094
		c0-0.094,0-0.28,0-0.375c0-0.094,0-0.28,0-0.375v-0.092c0,0,0-0.094,0.094-0.188c0.187-0.28,0.375-0.749,0.561-1.498
		c0.094-0.469,0.28-1.03,0.375-1.686c0.092-0.563,0.187-1.029,0.281-1.498c0.094-0.469,0.187-0.844,0.28-1.124
		c0.093-0.281,0.093-0.469,0.187-0.656c0.094-0.187,0.094-0.375,0.187-0.469c0.094,0,0.094,0,0.094,0.094
		c0,0.092,0.187,0.092,0.375,0.092c0.092,0,0.187,0,0.187-0.092l-0.094-0.187c0,0,0.094-0.094,0.188-0.094h0.562
		c0,0.094,0,0.187,0,0.281c0,0.092,0,0.187,0,0.28c0,0.187-0.094,0.562-0.187,1.03l-0.187,1.03c0,0.093,0,0.187,0,0.187
		c0,0.094,0,0.094,0,0.187c0,0.563,0.187,1.03,0.468,1.313c0.561,0,1.03,0.094,1.405,0.094s0.655,0.093,0.843,0.093
		c0.844,0.187,1.499,0.468,1.874,0.843v0.187c0,0.281,0.094,0.563,0.28,0.844c0.187,0.281,0.469,0.563,0.655,0.844
		c0.187,0.281,0.28,0.561,0.375,0.842c0.094,0.375,0.094,0.655,0.094,1.032v0.092c0,0.281,0,0.561,0,0.843c0,0.282,0,0.563,0,0.844
		c0,0.094,0.093,0.28,0.188,0.468c0,0.187,0.092,0.281,0.092,0.375v0.095L86.956,26.478z M86.956,26.478
		c-0.092,0.469-0.562,0.937-1.218,1.498c-0.75,0.562-1.499,0.937-2.154,1.125c-0.937,0.187-2.06,0.28-3.466,0.28
		c-1.218,0-2.154-0.092-2.811-0.187c-1.31-0.28-1.873-0.843-1.873-1.685v-0.093v-0.094v-0.094c0.094-0.187,0.28-0.375,0.656-0.749
		c0.468-0.375,0.655-0.562,0.749-0.656c0.187-0.375,0.375-0.749,0.561-1.124c0.187-0.375,0.281-0.75,0.375-1.03
		c0.094-0.187,0.094-0.28,0.094-0.469c0-0.187,0.092-0.28,0.092-0.467v-0.094c0-0.094,0-0.28,0-0.375c0-0.094,0-0.28,0-0.375v-0.092
		c0,0,0-0.094,0.094-0.188c0.187-0.28,0.375-0.749,0.561-1.498c0.094-0.469,0.28-1.03,0.375-1.686
		c0.092-0.563,0.187-1.029,0.281-1.498c0.094-0.469,0.187-0.844,0.28-1.124c0.093-0.281,0.093-0.469,0.187-0.656
		c0.094-0.187,0.094-0.375,0.187-0.469c0.094,0,0.094,0,0.094,0.094c0,0.092,0.187,0.092,0.375,0.092c0.092,0,0.187,0,0.187-0.092
		l-0.094-0.187c0,0,0.094-0.094,0.188-0.094h0.562c0,0.094,0,0.187,0,0.281c0,0.092,0,0.187,0,0.28c0,0.187-0.094,0.562-0.187,1.03
		l-0.187,1.03c0,0.093,0,0.187,0,0.187c0,0.094,0,0.094,0,0.187c0,0.563,0.187,1.03,0.468,1.313c0.561,0,1.03,0.094,1.405,0.094
		s0.655,0.093,0.843,0.093c0.844,0.187,1.499,0.468,1.874,0.843v0.187c0,0.281,0.094,0.563,0.28,0.844
		c0.187,0.281,0.469,0.563,0.655,0.844c0.187,0.281,0.28,0.561,0.375,0.842c0.094,0.375,0.094,0.655,0.094,1.032v0.092
		c0,0.281,0,0.561,0,0.843c0,0.282,0,0.563,0,0.844c0,0.094,0.093,0.28,0.188,0.468c0,0.187,0.092,0.281,0.092,0.375v0.095
		L86.956,26.478z M85.551,23.854c0-0.468-0.187-0.844-0.656-1.124c-0.28-0.188-0.843-0.469-1.593-0.843
		c-0.749-0.281-1.217-0.468-1.312-0.656h-0.749c-0.281,0.187-0.469,0.375-0.469,0.75v0.094c0,0,0,0.093,0,0.187
		c0,0.093,0,0.187,0,0.281s0,0.281,0.094,0.375c0.092,0.093,0,0.28,0.092,0.469c0,0.093,0,0.281,0,0.375v0.187v0.094
		c0,0.093-0.092,0.281-0.28,0.375c-0.375,0.187-0.563,0.28-0.656,0.374c0.187,0.281,0.28,0.562,0.467,0.75
		c0.094,0.188,0.189,0.375,0.281,0.563c0.281,0.187,0.655,0.28,1.218,0.28c2.062,0,3.278-0.655,3.561-1.873
		c0-0.093,0-0.093,0.093-0.187c0-0.094,0-0.094,0-0.187v-0.281h-0.091V23.854z M85.551,23.854c0-0.468-0.187-0.844-0.656-1.124
		c-0.28-0.188-0.843-0.469-1.593-0.843c-0.749-0.281-1.217-0.468-1.312-0.656h-0.749c-0.281,0.187-0.469,0.375-0.469,0.75v0.094
		c0,0,0,0.093,0,0.187c0,0.093,0,0.187,0,0.281s0,0.281,0.094,0.375c0.092,0.093,0,0.28,0.092,0.469c0,0.093,0,0.281,0,0.375v0.187
		v0.094c0,0.093-0.092,0.281-0.28,0.375c-0.375,0.187-0.563,0.28-0.656,0.374c0.187,0.281,0.28,0.562,0.467,0.75
		c0.094,0.188,0.189,0.375,0.281,0.563c0.281,0.187,0.655,0.28,1.218,0.28c2.062,0,3.278-0.655,3.561-1.873
		c0-0.093,0-0.093,0.093-0.187c0-0.094,0-0.094,0-0.187v-0.281h-0.091V23.854z M81.43,13.457c-0.093,0.375-0.375,0.563-0.843,0.75
		l0.094-0.844c0.092-0.094,0.187-0.094,0.375-0.094s0.28,0,0.375,0.094V13.457z M81.43,13.457c-0.093,0.375-0.375,0.563-0.843,0.75
		l0.094-0.844c0.092-0.094,0.187-0.094,0.375-0.094s0.28,0,0.375,0.094V13.457z"/>
	<path fill="#FFFFFF" d="M101.849,15.706c-0.468,0.092-0.843,0.374-1.218,0.843v0.093v0.094c0.093,0.187,0.093,0.375,0.093,0.467
		c0,0.095,0,0.189,0,0.189c0,0.092-0.093,0.281-0.093,0.375c-0.187,0.187-0.28,0.375-0.28,0.561v0.187
		c0,0.375,0.187,0.75,0.563,1.218c0,0,0.187,0.093,0.375,0.28c0.187,0.094,0.281,0.187,0.281,0.281c0,0,0.094,0,0.188,0
		c0.092,0,0.28,0,0.467,0.094c0.189,0,0.375,0,0.563,0.093c0.092,0,0.28,0,0.28,0c0.375,0,0.563,0,0.563-0.093l1.499,0.844
		c0.092,0.092,0.187,0.187,0.28,0.374c0.281,0.187,0.375,0.375,0.469,0.375c0.094,0.095,0.094,0.187,0.187,0.375
		c0,0.187,0.094,0.375,0.094,0.375c0.187,0.187,0.375,0.467,0.561,0.75s0.469,0.562,0.75,0.938c0,0.092,0,0.187,0,0.187v0.092
		c0,0.094-0.094,0.187-0.094,0.281c-0.093,0.187-0.187,0.375-0.187,0.375c0,0.094,0,0.187,0.094,0.28
		c-0.28,0.281-0.563,0.655-0.844,0.936c-0.28,0.281-0.563,0.656-0.843,0.938c-0.844,0.844-1.593,1.312-2.155,1.312
		c-0.094,0-0.28,0-0.563,0.093c-0.187,0-0.28,0-0.375,0.094c-0.092,0-0.187,0-0.281,0c-0.28,0-0.467-0.094-0.655-0.28
		c-0.093,0.094-0.187,0.187-0.375,0.28c-0.188,0.094-0.375,0.187-0.562,0.187c0-0.093,0-0.093,0-0.187c0-0.187,0-0.28-0.094-0.28
		h-0.375c-0.093,0.094-0.187,0.28-0.187,0.469c-0.094,0-0.094,0-0.187,0h-0.094c-0.187,0-0.281,0-0.281-0.093
		c-0.094,0-0.188-0.094-0.469-0.28c-0.094,0-0.281,0.092-0.563,0.374H96.98c0-0.092,0-0.28,0-0.468s-0.094-0.375-0.094-0.655
		c0.469-0.189,0.749-0.281,0.844-0.281l0.093-0.094l0.094-0.093v-0.094c0-0.093-0.094-0.281-0.187-0.375l0,0
		c0.093,0,0.187-0.094,0.281-0.281l-0.187-0.092c0.094-0.281,0.187-0.563,0.28-0.656V26.01l-0.094-0.28
		c-0.093-0.094-0.093-0.188-0.093-0.281v-0.094l0.187-0.655v-0.187c0-0.093,0-0.093,0-0.187c0,0,0-0.094,0-0.187v-0.187
		c0-0.094-0.094-0.281-0.094-0.469c-0.093-0.187-0.093-0.469-0.281-0.75c-0.188-0.563-0.281-1.031-0.281-1.313c0,0,0-0.094,0-0.28
		s0-0.281,0-0.469s0-0.28,0-0.375c0-0.094,0-0.187,0-0.187c0.093-0.75,0.281-1.685,0.562-2.811v-0.094
		c0-0.467-0.093-0.842-0.375-1.03c-0.187-0.187-0.375-0.375-0.375-0.749c0-0.094,0-0.188,0-0.188c0-0.28,0.187-0.655,0.562-1.217
		c0.28-0.469,0.655-0.938,1.029-1.218c0.281,0,0.656,0,1.03,0s0.843,0.094,1.406,0.094c1.218,0.281,1.967,0.469,2.154,0.469
		c0.093,0,0.281,0,0.562-0.094c0.094,0,0.28,0,0.375-0.094c0.094-0.093,0.187,0,0.187,0c0.375,0,0.655,0.094,0.937,0.28
		c0.283,0.187,0.469,0.469,0.469,0.75v0.092v0.094c0,0.092,0,0.187-0.094,0.28c-0.092,0.094-0.187,0.281-0.28,0.375
		c-0.095,0.093-0.281,0.187-0.469,0.281c-0.187,0.094-0.375,0.094-0.563,0.094c-0.093,0-0.093,0-0.281,0L101.849,15.706z
		 M104.941,25.916c-0.094-0.094-0.187-0.281-0.281-0.563c-0.094-0.093-0.187-0.187-0.375-0.375s-0.28-0.375-0.469-0.375
		c-0.188,0-0.28-0.094-0.468-0.187c-0.187-0.094-0.281-0.188-0.281-0.468c0.188-0.187,0.281-0.281,0.281-0.375l0,0
		c-0.093-0.094-0.187-0.094-0.281-0.188c-0.092-0.093-0.187-0.093-0.375-0.093c-0.092,0-0.28,0.093-0.562,0.281
		c-0.281,0.187-0.375,0.187-0.469,0.187c-0.094,0-0.28-0.094-0.561-0.375c-0.28-0.281-0.469-0.375-0.563-0.375h-0.467
		c0,0,0.093,0.094,0.187,0.375v0.093c0,0.094-0.094,0.281-0.187,0.375c-0.188,0.188-0.188,0.374-0.188,0.374
		c0.188,0.188,0.281,0.469,0.281,0.749c0,0.095,0,0.095,0,0.187c0,0.188-0.093,0.375-0.187,0.563l-0.655,1.124
		c-0.281,0.375-0.562,0.655-0.844,0.843c0.094,0.094,0.094,0.094,0.187,0.187c0.094,0.094,0.094,0.189,0.187,0.281
		c0.094,0.095,0.094,0.187,0.187,0.187c0.094,0.095,0.094,0.095,0.094,0.095c0.187-0.281,0.469-0.656,0.938-1.219
		c0.561,0.188,0.937,0.188,1.03,0.188c0.655,0,1.313-0.094,1.779-0.281c0.094,0,0.094-0.094,0.281-0.094s0.187-0.092,0.375-0.187
		c0.187-0.092,0.375-0.187,0.468-0.187c0.095,0,0.281,0,0.375,0.094c0.094,0.092,0.187,0.092,0.187,0.187
		c0.094,0,0.094,0.092,0.094,0.092l0.375-0.28L104.941,25.916z M98.946,22.918v0.187l0.375,0.187l0.094-0.187L98.946,22.918z"/>
	<path fill="#FFFFFF" d="M119.553,20.577c-0.094,0.281-0.187,0.561-0.281,0.936c-0.187,0.563-0.561,1.125-1.124,1.593
		c0,0.092,0,0.187-0.094,0.281c0,0.093-0.095,0.281-0.095,0.375c-0.092,0.093-0.28,0.187-0.375,0.28
		c-0.187,0.093-0.375,0.187-0.468,0.281c0,0.094,0.094,0.281,0.375,0.468c-0.187,0.187-0.281,0.281-0.375,0.469
		c-0.093,0.187-0.187,0.375-0.281,0.561c-0.563,0.281-0.938,0.563-1.218,0.938l-0.28,0.655c-0.187,0.375-0.375,0.562-0.563,0.749
		c-0.187,0.188-0.561,0.469-0.936,0.656c-0.469,0.28-0.844,0.468-1.03,0.468s-0.563-0.281-1.312-0.749
		c-0.469-0.375-0.937-0.656-1.218-0.937c-0.281-0.187-0.563-0.375-0.655-0.468c0.093-0.094,0.187-0.281,0.281-0.375
		c0.094-0.094,0.094-0.189,0.094-0.281l0,0c0-0.187-0.094-0.281-0.28-0.469c-0.187-0.188-0.281-0.281-0.469-0.375
		c0-0.094,0-0.094,0-0.187l0.281-0.938v-0.093c0-0.28-0.187-0.468-0.469-0.468c-0.092,0-0.187,0-0.187,0.094v0.093
		c0,0-0.092,0-0.187,0c-0.095,0-0.281-0.093-0.375-0.281c-0.187-0.187-0.281-0.375-0.375-0.375c0-0.093,0.092-0.093,0.187-0.187
		c0.092,0,0.187-0.095,0.28-0.095l0.563-0.187c-0.094-0.187-0.187-0.375-0.375-0.468c-0.187-0.187-0.375-0.375-0.561-0.561
		c0.187-0.188,0.375-0.375,0.375-0.562v-0.375c0.094-0.188,0.187-0.563,0.281-1.032l0.281-1.029c0.092-0.187,0.092-0.375,0.28-0.562
		c0.094-0.187,0.188-0.375,0.375-0.655c0.187-0.281,0.281-0.563,0.375-0.75c0.093-0.188,0.187-0.375,0.187-0.468
		c0.188-0.469,1.03-1.125,2.437-1.967c0.467-0.281,0.75-0.655,0.844-1.125c0.281-0.28,0.561-0.468,0.936-0.468
		c0.094,0,0.469,0.187,1.03,0.468c0.563,0.281,0.937,0.469,1.031,0.469c0.093,0,0.281-0.095,0.656-0.187
		c0.28-0.094,0.563-0.187,0.655-0.187c0.281,0,0.844,0.375,1.593,1.218c0.093,0.187,0.093,0.468,0.093,0.561v0.094
		c0,0.093-0.093,0.281-0.375,0.562c-0.187,0.187-0.375,0.375-0.375,0.563l-0.094,0.562l0.281,0.187c0.094,0,0.094-0.092,0.187-0.187
		c0.094-0.187,0.187-0.187,0.187-0.281c0.094,0,0.187,0.095,0.375,0.188c-0.094,0.375-0.281,0.562-0.655,0.656
		c-0.094,0-0.187,0-0.28,0c-0.187,0-0.375,0-0.562,0l-0.28,0.375c0,0,0,0.093,0.092,0.187c0.094,0.093,0.094,0.187,0.281,0.281
		c0,0,0.094,0,0.281-0.093c0.187-0.094,0.28-0.094,0.468-0.094s0.375,0.187,0.561,0.469h-0.094c-0.187,0-0.467,0.094-0.655,0.187
		c0.093,0.187,0.187,0.28,0.375,0.375c0.187,0.092,0.375,0.187,0.469,0.375C119.742,20.014,119.648,20.296,119.553,20.577z
		 M108.313,24.698l0.092-0.187l0.469,0.187v0.187L108.313,24.698z M116.275,21.701c0-0.281,0-0.563,0-0.843
		c0-0.375,0-0.75-0.093-1.219c-0.187-1.685-0.843-2.528-1.779-2.528c-0.469,0-0.936,0.375-1.405,1.124
		c-0.094,0.28-0.281,0.469-0.375,0.75c-0.094,0.281-0.281,0.468-0.375,0.749c0.094,0.187,0.187,0.375,0.187,0.562
		c0,0.187,0,0.374-0.093,0.468l-0.655,0.375c-0.281,0.187-0.469,0.28-0.562,0.469c0.093,0,0.187,0.094,0.375,0.094
		c0.188,0.092,0.281,0.092,0.469,0.187v0.374l-0.094,0.093c-0.093,0-0.187,0.094-0.281,0.187c-0.187,0.094-0.281,0.188-0.281,0.28
		l0,0c0,0.094,0,0.187,0.093,0.281c0,0.093,0.094,0.093,0.094,0.093l0,0c0.469,0,0.656,0,0.656,0.094
		c-0.094,0.094-0.187,0.187-0.375,0.469c-0.188,0.187-0.281,0.375-0.375,0.375c-0.093,0-0.187,0.093-0.375,0.093
		s-0.375,0.094-0.561,0.188l0.092,0.656h0.469l0.375-0.281c0.187,0.092,0.469,0.187,0.844,0.375l-0.093,0.656l-0.187,0.094
		c-0.28,0-0.469,0.093-0.656,0.187c0.093,0,0.281,0.093,0.469,0.187c0.187,0.094,0.467,0.281,0.749,0.469
		c0.469,0.281,0.75,0.468,0.938,0.468c0.28,0,0.655-0.281,1.218-0.842c0.468-0.469,0.843-0.843,0.936-1.031
		c0.188-0.656,0.375-1.218,0.563-1.685c0.188-0.468,0.187-0.75,0.281-1.03C116.275,22.263,116.275,21.981,116.275,21.701z
		 M112.248,28.258l-0.281,0.093l0.093,0.187l0.281-0.093L112.248,28.258z"/>
	<path fill="#FFFFFF" d="M122.176,27.695c-0.094,0.187-0.094,0.28-0.094,0.375c-0.093,0-0.187,0-0.375,0.092
		c-0.187,0-0.281,0.095-0.375,0.095c-0.094,0-0.187-0.095-0.375-0.187c-0.093-0.095-0.28-0.188-0.375-0.188l0.187-0.936h0.094
		c0.469,0,0.75-0.187,0.844-0.563c0.092,0.095,0.187,0.095,0.375,0.095c0.094,0.281,0.187,0.469,0.187,0.749v0.188
		C122.27,27.415,122.27,27.507,122.176,27.695z M127.047,20.39c-0.094-0.189-0.094-0.375-0.094-0.563c0-0.188,0-0.281,0-0.375V19.36
		v-0.094c-0.187,0-0.375-0.187-0.561-0.468c-0.187-0.283-0.281-0.375-0.469-0.469l0,0c-0.187,0.094-0.281,0.28-0.469,0.375
		c-0.187,0.092-0.374,0.187-0.561,0.187v0.093c0,0.094,0,0.187,0.093,0.375c0.094,0.092,0.094,0.187,0.094,0.281l0,0
		c0,0.094-0.094,0.187-0.094,0.374c-0.281,0-0.561,0.094-0.655,0.187c0.093,0.281,0.281,0.469,0.562,0.656
		c-0.094,0.375-0.562,0.563-1.313,0.563h-0.28c0.28,0,0.468,0.092,0.563,0.28c0.092,0.188,0.187,0.281,0.187,0.562
		c0,0.187,0,0.28-0.094,0.468c0,0.187-0.092,0.375-0.092,0.467c0,0.188-0.094,0.28-0.094,0.469c0,0.188-0.093,0.28-0.093,0.28
		s0,0,0,0.094l0,0c0,0-0.094,0-0.187-0.094c-0.094-0.094-0.188-0.094-0.28-0.187c-0.187-0.094-0.281-0.188-0.375-0.188
		c-0.094,0-0.375,0.094-0.656,0.188c-0.375,0.187-0.655,0.281-0.749,0.281c0.094,0.187,0.28,0.375,0.749,0.375
		c0.656,0.092,1.03,0.092,1.124,0.092c-0.092,0.187-0.187,0.281-0.28,0.469c-0.094,0.187-0.187,0.281-0.281,0.469
		c-0.375,0.468-0.656,0.749-0.938,0.749h-1.125l0.093-0.843c0.187,0.094,0.375,0.187,0.563,0.187c0.093,0,0.187,0,0.281-0.092
		l0.28-0.375v-0.094c0-0.187-0.094-0.281-0.28-0.281c-0.375-0.093-0.562-0.093-0.656-0.187c0.094-0.093,0.094-0.28,0.094-0.375
		c0-0.094,0.095-0.375,0.095-0.562c0-0.28,0.093-0.468,0.093-0.562c0-0.187,0.094-0.281,0.094-0.375
		c0.093-0.094,0.187-0.281,0.281-0.469c0.094-0.467,0.28-1.124,0.563-1.967c0.187-0.375,0.28-0.749,0.375-1.03
		c0.095-0.28,0.187-0.562,0.187-0.75c0-0.094,0.094-0.187,0.281-0.375s0.28-0.281,0.28-0.375c0.094-0.375,0.188-0.844,0.281-1.218
		c0.094-0.375,0.187-0.844,0.281-1.218c0.469-1.499,1.03-2.154,1.591-2.154c0.187,0,0.375,0.092,0.563,0.187
		c1.124,0.094,1.874,0.187,2.248,0.28c0.75,0.281,1.124,0.75,1.124,1.405v0.187c-0.094,0.375-0.281,0.843-0.75,1.593
		c0.094,0.281,0.28,0.375,0.563,0.467l-0.563,0.375c-0.187,0.093-0.281,0.281-0.375,0.375c0.094,0.094,0.187,0.094,0.28,0.094
		c0.187,0,0.375-0.094,0.469-0.281c0,0.093,0.093,0.281,0.28,0.469c0,0,0,0,0,0.092c0,0.094-0.092,0.094-0.092,0.094l-0.094,0.092
		v0.094c0.187,0.094,0.281,0.187,0.469,0.187c-0.094,0.75-0.281,1.218-0.375,1.405l0.092,0.094c0.094,0,0.094,0.094,0.187,0.094
		c0.28,0.187,0.468,0.28,0.468,0.28c0,0.281-0.187,0.469-0.468,0.75c0.094,0.092,0.188,0.28,0.375,0.561
		c-0.094,0.187-0.281,0.375-0.749,0.469c-0.469,0.187-0.844,0.375-1.125,0.655c0.094,0.093,0.188,0.187,0.281,0.281
		c0.094,0.092,0.187,0.092,0.28,0.092c0.281,0,0.375-0.092,0.375-0.187h0.75c-0.094,0.187-0.188,0.281-0.281,0.469
		c-0.094,0.187-0.094,0.281-0.187,0.468l-0.094,0.843l-0.093,0.655c0.187,0.187,0.375,0.281,0.467,0.281l-0.281,1.873
		c-0.094,0-0.187,0.094-0.281,0.094c-0.094,0-0.187,0.094-0.375,0.187c0.187,0.094,0.469,0.187,0.75,0.375c0,0.094,0,0.188,0,0.281
		c0,0.092,0,0.28,0.094,0.375l-1.124,0.094V29.09c0-0.28-0.093-0.563-0.375-0.656c0-0.094,0.092-0.187,0.187-0.187
		c0.187-0.094,0.28-0.187,0.375-0.187c-0.561-0.094-0.843-0.468-0.843-1.032c0-0.092,0-0.187,0-0.28c0-0.094,0-0.188,0.094-0.281
		c0.28-0.092,0.468-0.092,0.655-0.187c0.281-0.094,0.467-0.187,0.655-0.375c0,0,0-0.094-0.094-0.187
		c-0.094-0.094-0.187-0.188-0.187-0.188c-0.28,0.095-0.468,0.281-0.468,0.469h-0.655c-0.093,0-0.093,0-0.093-0.093
		c0-0.094,0-0.187,0-0.187v-0.28c0,0,0.093-0.095,0.187-0.095c0.092-0.093,0.187-0.093,0.187-0.187l0,0
		c0-0.093-0.094-0.281-0.187-0.469c-0.094-0.28-0.187-0.468-0.187-0.561c0-0.094,0-0.28,0-0.375c0-0.187,0-0.375,0-0.563
		c0-0.093-0.094-0.093-0.094-0.187c0-0.093-0.094-0.093-0.281-0.093l0,0c0-0.094,0-0.187,0.094-0.28c0-0.094,0-0.187,0.094-0.187
		l0.187-0.187C127.422,21.419,127.235,20.951,127.047,20.39z M122.27,23.199h-0.468v0.281h0.468V23.199z M122.364,22.45
		L122.364,22.45c0-0.187,0-0.28-0.094-0.28c-0.092,0.094-0.187,0.094-0.28,0.187l0,0c0,0.094,0.093,0.187,0.28,0.375
		C122.364,22.73,122.364,22.637,122.364,22.45z M123.114,20.107c-0.092-0.094-0.187-0.094-0.28-0.094l-0.094,0.563l0.561-0.094
		C123.3,20.296,123.3,20.201,123.114,20.107z M123.863,18.608L123.863,18.608c-0.375-0.094-0.655,0-0.843,0.187l0.28,0.188
		c0.188,0.094,0.281,0.187,0.375,0.187c0.187,0,0.281-0.187,0.375-0.467C123.956,18.703,123.863,18.703,123.863,18.608z
		 M124.519,17.204h-0.563l-0.187,0.375h0.75V17.204z M129.015,18.797h-0.469v0.187h0.469V18.797z M128.64,20.765l-0.092,0.468
		c0,0,0,0,0.092,0h0.094h0.092c0.095,0,0.095,0,0.095,0c0.094,0,0.094,0,0.187-0.094C129.109,20.857,128.92,20.765,128.64,20.765z
		 M129.39,24.979c-0.187-0.094-0.469-0.187-0.656-0.187c0,0.093,0.092,0.187,0.187,0.375
		C128.92,24.979,129.109,24.979,129.39,24.979z"/>
	<path fill="#FFFFFF" d="M142.315,26.478c-0.093,0.469-0.561,0.937-1.218,1.498c-0.749,0.562-1.499,0.937-2.154,1.125
		c-0.938,0.187-2.06,0.28-3.466,0.28c-1.218,0-2.154-0.092-2.811-0.187c-1.311-0.28-1.873-0.843-1.873-1.685v-0.093v-0.094v-0.094
		c0.094-0.187,0.281-0.375,0.655-0.749c0.468-0.375,0.655-0.562,0.75-0.656c0.187-0.375,0.375-0.749,0.561-1.124
		c0.187-0.375,0.281-0.75,0.375-1.03c0.094-0.187,0.094-0.28,0.094-0.469c0-0.187,0.092-0.28,0.092-0.467v-0.094
		c0-0.094,0-0.28,0-0.375c0-0.094,0-0.28,0-0.375v-0.092c0,0,0-0.094,0.094-0.188c0.187-0.28,0.375-0.749,0.562-1.498
		c0.094-0.469,0.281-1.03,0.375-1.686c0.094-0.563,0.188-1.029,0.281-1.498c0.094-0.469,0.187-0.844,0.28-1.124
		c0.093-0.281,0.093-0.469,0.187-0.656c0.094-0.187,0.094-0.375,0.187-0.469c0.094,0,0.094,0,0.094,0.094
		c0,0.092,0.187,0.092,0.375,0.092c0.093,0,0.187,0,0.187-0.092l-0.094-0.187c0,0,0.094-0.094,0.188-0.094h0.561
		c0,0.094,0,0.187,0,0.281c0,0.092,0,0.187,0,0.28c0,0.187-0.094,0.562-0.187,1.03l-0.187,1.03c0,0.093,0,0.187,0,0.187
		c0,0.094,0,0.094,0,0.187c0,0.563,0.187,1.03,0.467,1.313c0.563,0,1.032,0.094,1.406,0.094s0.656,0.093,0.844,0.093
		c0.843,0.187,1.499,0.468,1.874,0.843v0.187c0,0.281,0.094,0.563,0.28,0.844c0.187,0.281,0.469,0.563,0.656,0.844
		c0.187,0.281,0.281,0.561,0.375,0.842c0.094,0.375,0.094,0.655,0.094,1.032v0.092c0,0.281,0,0.561,0,0.843c0,0.282,0,0.563,0,0.844
		c0,0.094,0.092,0.28,0.187,0.468c0,0.187,0.092,0.281,0.092,0.375v0.095L142.315,26.478z M142.315,26.478
		c-0.093,0.469-0.561,0.937-1.218,1.498c-0.749,0.562-1.499,0.937-2.154,1.125c-0.938,0.187-2.06,0.28-3.466,0.28
		c-1.218,0-2.154-0.092-2.811-0.187c-1.311-0.28-1.873-0.843-1.873-1.685v-0.093v-0.094v-0.094c0.094-0.187,0.281-0.375,0.655-0.749
		c0.468-0.375,0.655-0.562,0.75-0.656c0.187-0.375,0.375-0.749,0.561-1.124c0.187-0.375,0.281-0.75,0.375-1.03
		c0.094-0.187,0.094-0.28,0.094-0.469c0-0.187,0.092-0.28,0.092-0.467v-0.094c0-0.094,0-0.28,0-0.375c0-0.094,0-0.28,0-0.375v-0.092
		c0,0,0-0.094,0.094-0.188c0.187-0.28,0.375-0.749,0.562-1.498c0.094-0.469,0.281-1.03,0.375-1.686
		c0.094-0.563,0.188-1.029,0.281-1.498c0.094-0.469,0.187-0.844,0.28-1.124c0.093-0.281,0.093-0.469,0.187-0.656
		c0.094-0.187,0.094-0.375,0.187-0.469c0.094,0,0.094,0,0.094,0.094c0,0.092,0.187,0.092,0.375,0.092c0.093,0,0.187,0,0.187-0.092
		l-0.094-0.187c0,0,0.094-0.094,0.188-0.094h0.561c0,0.094,0,0.187,0,0.281c0,0.092,0,0.187,0,0.28c0,0.187-0.094,0.562-0.187,1.03
		l-0.187,1.03c0,0.093,0,0.187,0,0.187c0,0.094,0,0.094,0,0.187c0,0.563,0.187,1.03,0.467,1.313c0.563,0,1.032,0.094,1.406,0.094
		s0.656,0.093,0.844,0.093c0.843,0.187,1.499,0.468,1.874,0.843v0.187c0,0.281,0.094,0.563,0.28,0.844
		c0.187,0.281,0.469,0.563,0.656,0.844c0.187,0.281,0.281,0.561,0.375,0.842c0.094,0.375,0.094,0.655,0.094,1.032v0.092
		c0,0.281,0,0.561,0,0.843c0,0.282,0,0.563,0,0.844c0,0.094,0.092,0.28,0.187,0.468c0,0.187,0.092,0.281,0.092,0.375v0.095
		L142.315,26.478z M140.816,23.854c0-0.468-0.187-0.844-0.655-1.124c-0.281-0.188-0.844-0.469-1.591-0.843
		c-0.75-0.281-1.218-0.468-1.313-0.656h-0.75c-0.281,0.187-0.467,0.375-0.467,0.75v0.094c0,0,0,0.093,0,0.187
		c0,0.093,0,0.187,0,0.281s0,0.281,0.093,0.375c0.094,0.093,0,0.28,0.094,0.469c0,0.093,0,0.281,0,0.375v0.187v0.094
		c0,0.093-0.094,0.281-0.28,0.375c-0.375,0.187-0.561,0.28-0.655,0.374c0.187,0.281,0.281,0.562,0.469,0.75
		c0.092,0.188,0.187,0.375,0.28,0.563c0.281,0.187,0.656,0.28,1.218,0.28c2.06,0,3.278-0.655,3.559-1.873
		c0-0.093,0-0.093,0.094-0.187c0-0.094,0-0.094,0-0.187v-0.281h-0.096V23.854z M140.816,23.854c0-0.468-0.187-0.844-0.655-1.124
		c-0.281-0.188-0.844-0.469-1.591-0.843c-0.75-0.281-1.218-0.468-1.313-0.656h-0.75c-0.281,0.187-0.467,0.375-0.467,0.75v0.094
		c0,0,0,0.093,0,0.187c0,0.093,0,0.187,0,0.281s0,0.281,0.093,0.375c0.094,0.093,0,0.28,0.094,0.469c0,0.093,0,0.281,0,0.375v0.187
		v0.094c0,0.093-0.094,0.281-0.28,0.375c-0.375,0.187-0.561,0.28-0.655,0.374c0.187,0.281,0.281,0.562,0.469,0.75
		c0.092,0.188,0.187,0.375,0.28,0.563c0.281,0.187,0.656,0.28,1.218,0.28c2.06,0,3.278-0.655,3.559-1.873
		c0-0.093,0-0.093,0.094-0.187c0-0.094,0-0.094,0-0.187v-0.281h-0.096V23.854z M136.79,13.457c-0.095,0.375-0.375,0.563-0.844,0.75
		l0.094-0.844c0.093-0.094,0.187-0.094,0.375-0.094s0.281,0,0.375,0.094V13.457z M136.79,13.457
		c-0.095,0.375-0.375,0.563-0.844,0.75l0.094-0.844c0.093-0.094,0.187-0.094,0.375-0.094s0.281,0,0.375,0.094V13.457z"/>
	<path fill="#FFFFFF" d="M156.647,26.571L156.647,26.571c0,0.189,0.092,0.281,0.187,0.469c0.187,0,0.375-0.092,0.469-0.187h0.187
		c0.187,0,0.28,0,0.561,0c0.187,0,0.468,0,0.75,0.094c0.375,0.092,0.655,0.092,0.936,0.092c0.281,0,0.469,0,0.563,0
		c-0.281,0-0.563,0-1.032,0.094c-0.375,0-0.844,0.092-1.499,0.092c-0.467,0-0.844,0-1.124,0.094c-0.375,0-0.655,0-0.843,0.094
		c-0.187,0.187-0.375,0.281-0.563,0.467c-0.093,0.188-0.187,0.28-0.187,0.469v0.28c-0.093,0-0.187,0-0.281-0.094
		c-0.094-0.093-0.28-0.187-0.375-0.375c-0.187-0.187-0.28-0.28-0.468-0.468c-0.188-0.187-0.28-0.375-0.468-0.468v0.188
		c0,0.187-0.094,0.375-0.094,0.562v0.095h-0.092c-0.094,0-0.188,0-0.375,0s-0.281,0-0.467,0.092c-0.188,0-0.281,0-0.469,0.095
		c-0.187,0.092-0.28,0-0.375,0.092v0.187h-0.094c0,0-0.094-0.092-0.187-0.092c-0.094,0.092-0.094,0.092-0.187,0.187
		c0,0.094-0.094,0.187-0.094,0.187c-0.092,0-0.281-0.093-0.562-0.187l0,0c0,0,0,0,0,0.094c-0.187-0.094-0.281-0.188-0.281-0.28
		c-0.092,0-0.187-0.095-0.28-0.095c-0.187,0-0.375,0.095-0.561,0.187c-0.281,0.094-0.562,0.188-0.656,0.188l-1.405,0.093
		c-0.094,0-0.281,0-0.375,0.094c-0.094,0-0.281,0-0.375,0.093l0.187,0.375c-0.093,0-0.281-0.093-0.467-0.281
		c-0.094,0-0.28,0.093-0.375,0.093c-0.093,0-0.187,0.094-0.281,0.187c-0.28,0.094-0.655,0.187-1.218,0.187
		c-0.375,0-0.843-0.187-1.217-0.655c-0.375-0.375-0.656-0.75-0.656-1.124c0-0.094,0-0.094,0-0.187c0-0.187,0.187-0.469,0.563-0.938
		c0.187-0.187,0.281-0.28,0.375-0.468c0.093-0.187,0.281-0.281,0.375-0.375c0-0.187-0.094-0.375-0.094-0.75
		c0-0.28-0.093-0.749-0.187-1.217c0,0,0-0.093,0-0.187s0-0.188,0-0.281c0-0.094,0-0.281,0.094-0.375
		c0.093-0.561,0.093-0.936,0.093-1.125c-0.093-0.28-0.281-0.375-0.467-0.468c0-0.094,0-0.187,0-0.281c0-0.092,0-0.187,0-0.28
		c0-0.093,0-0.187,0-0.281c0-0.094,0-0.187,0-0.28c0.093-0.095,0.187-0.188,0.375-0.281c-0.094-0.281-0.187-0.467-0.28-0.749
		c-0.093-0.281-0.187-0.469-0.281-0.75c-0.094-0.467-0.188-0.936-0.188-1.311c0-0.093,0-0.187,0-0.281c0-0.094,0-0.187,0-0.187
		c0-0.094,0-0.187,0.094-0.28c0.094-0.093,0.094-0.281,0.187-0.562c0.094-0.28,0.094-0.469,0.187-0.655
		c0.094-0.187,0.094-0.375,0.094-0.469c0.469-0.749,0.936-1.218,1.405-1.405c0.187-0.094,0.655-0.188,1.218-0.188
		c0.094,0,0.469,0.094,1.031,0.281c0.375,0.094,0.656,0.187,0.844,0.187c0.187,0.094,0.375,0.094,0.467,0.094
		c0,0-0.092,0.093-0.092,0.188v-0.095c0,0.281,0.187,0.656,0.655,1.124c-0.28,0.187-0.655,0.469-1.029,0.844
		c-0.469,0.375-0.938,0.749-1.499,1.218l-0.187,1.499c0.093,0.094,0.187,0.281,0.281,0.375c0.094,0.092,0.187,0.187,0.375,0.187
		h0.092c0,0.092-0.092,0.092-0.187,0.187c-0.094,0.094-0.094,0.187-0.187,0.187c-0.187,0.187-0.375,0.375-0.375,0.561v0.187
		c0,0.188,0,0.375,0,0.656c0,0.28,0,0.655,0,1.124c0,0,0,0,0,0.095c0,0,0,0.092,0,0.187l0,0c0,0.092,0.093,0.092,0.187,0.092
		l-0.563,1.593v0.094c0,0.187,0.094,0.28,0.281,0.467c0,0,0,0.375-0.094,1.03v0.188c0.094,0.093,0.094,0.093,0.188,0.187h0.093
		c0.094,0,0.187,0,0.187,0h0.187c0.094,0,0.094,0,0.188,0c0.092,0,0.092,0,0.187,0l0.092-0.094l0.094-0.093
		c0.092,0,0.28-0.094,0.375-0.094c0.187,0,0.281-0.094,0.375-0.187c0.187,0,0.281-0.094,0.375-0.094v0.094c0,0.092,0,0.092,0,0.187
		c0,0.094,0,0.094,0,0.187c0.094,0.094,0.281,0.187,0.375,0.187c0.187,0.094,0.375,0.187,0.468,0.187
		c0.094,0.094,0.188,0.094,0.281,0.188c0.094-0.188,0.187-0.375,0.187-0.563V25.53c0,0,0,0,0.094,0c0-0.092,0-0.28,0.093-0.467
		c0-0.189,0-0.375,0-0.563s0.094-0.375,0.094-0.467c0-0.188,0.094-0.281,0.094-0.375c0.092-0.093,0.092-0.187,0.092-0.281
		c0-0.094,0.094-0.188,0.187-0.281c-0.375,0-0.561-0.28-0.561-0.655v-0.094c0-0.187,0.093-0.467,0.093-0.656
		c0-0.188,0.094-0.375,0.094-0.655v-0.094c0,0,0,0,0-0.094c0,0,0,0,0-0.093l0.469-0.938v-0.093v-0.094c0-0.093,0-0.187-0.094-0.281
		c-0.092-0.094-0.092-0.188-0.092-0.375c0-0.28-0.094-0.375-0.094-0.469c0-0.092-0.092-0.187-0.187-0.28
		c-0.094-0.094-0.094-0.281-0.28-0.469s-0.187-0.562-0.375-1.124c0.094-0.281,0.28-0.561,0.561-0.936
		c0.188-0.375,0.468-0.75,0.749-1.218c0,0,0.092-0.093,0.187-0.187c0.095-0.093,0.187-0.093,0.281-0.187
		c0.092-0.093,0.187-0.093,0.28-0.093c0.094,0,0.188-0.094,0.281-0.094c0.844-0.095,1.405-0.187,1.686-0.187
		c0.187,0,0.468,0.28,0.75,0.749c0.281,0.468,0.375,0.749,0.375,0.844l0,0c0,0.093-0.094,0.187-0.094,0.375
		c0,0.187-0.093,0.375-0.093,0.655c-0.094,0.187-0.094,0.281-0.094,0.467c0,0.095,0,0.188-0.093,0.281v0.094l-0.281,0.749h-0.094
		c-0.28,0-0.467,0.094-0.749,0.187c0.187,0.281,0.469,0.375,0.843,0.375h0.093l-0.936,2.342v0.094
		c-0.468,0.187-0.843,0.375-1.124,0.561c0,0.094,0,0.094,0,0.189c0,0,0.094,0,0.281,0c0.092,0,0.28-0.095,0.562-0.189l0.563-0.28
		v0.092c0,0.094,0,0.187-0.094,0.281c0,0.095,0,0.095,0,0.187c0,0.095,0,0.095-0.094,0.187c0,0-0.093,0.095-0.093,0.187
		c0,0.094-0.094,0.187-0.094,0.187l-0.187,0.469c0,0.094-0.093,0.187-0.093,0.187c0,0.094-0.094,0.094-0.094,0.187
		c-0.095,0.188-0.095,0.375-0.095,0.469c0,0.187,0,0.375,0.095,0.468l2.997,0.843l0.095-0.655c-0.095,0-0.188-0.092-0.281-0.092
		c-0.094,0-0.28-0.094-0.468-0.187c-0.187-0.094-0.281-0.094-0.469-0.188c-0.187-0.093-0.28-0.093-0.375-0.187h2.528l0.094,0.655
		c0.092,0.281,0.28,0.561,0.656,0.75C157.397,25.728,157.022,26.196,156.647,26.571z M146.813,20.296l0.094-0.375h0.28l-0.092,0.375
		H146.813z M148.124,24.885c-0.281,0.188-0.656,0.375-1.218,0.563c0-0.094,0-0.28,0.092-0.469c0-0.187,0.094-0.281,0.094-0.375
		c0-0.094,0-0.094,0-0.187c0,0,0-0.094-0.094-0.188c-0.092-0.092-0.092-0.187-0.092-0.28v-0.094c0-0.187,0.092-0.28,0.187-0.375
		c0.092-0.093,0.28-0.093,0.467-0.093c0.188,0,0.375,0,0.656,0.093c0.187,0.094,0.375,0.187,0.563,0.281v0.093
		C148.592,24.323,148.404,24.604,148.124,24.885z M147.28,27.601L147.28,27.601L147.28,27.601c0,0.093,0,0.187,0.092,0.281
		c0,0.094,0.094,0.094,0.094,0.188l0.187-0.469H147.28z M150.746,26.666h-0.092v0.281h0.092l0,0l0.189,0.093l0.092-0.47
		C150.841,26.666,150.746,26.666,150.746,26.666z M151.871,26.384v-0.094v-0.094c0-0.092-0.093-0.187-0.093-0.28
		c0-0.094,0-0.094,0-0.187h-0.28c-0.187,0.187-0.375,0.375-0.375,0.467c0.092,0,0.092,0.094,0.092,0.094l0.094,0.094
		C151.31,26.384,151.59,26.384,151.871,26.384z M151.683,23.199l-0.375,0.375l0.187,0.093l0.28-0.375L151.683,23.199z
		 M151.871,25.728c0.094,0,0.187,0.092,0.375,0.092c0.095,0,0.281,0.094,0.469,0.094V25.82l0.094,0.187l0.749,0.187
		c0,0.094,0,0.188-0.092,0.281c0,0.093,0,0.187-0.094,0.281l0.563,0.656l0.092-0.094l0.094-0.094c0-0.093-0.094-0.375-0.375-0.842
		c0.189,0,0.375,0,0.469,0c0.094,0,0.187,0,0.187,0c0.187,0,0.375,0.092,0.469,0.281l0,0v-0.094l-0.187-0.561l-1.686-1.313
		l-0.094,0.094c0,0-0.093,0.092-0.093,0.187c0,0.094-0.094,0.094-0.094,0.094l-0.093,0.093l0,0c-0.094,0-0.187,0.095-0.375,0.187
		c-0.187,0.095-0.375,0.187-0.562,0.281c0,0,0.187,0.094,0.469,0.187h-0.281v-0.087H151.871z M151.776,26.76
		C151.776,26.852,151.776,26.852,151.776,26.76c0.093,0,0.093-0.094,0.093-0.189v-0.187L151.776,26.76L151.776,26.76z
		 M152.526,22.918c0-0.094,0-0.094,0-0.094v-0.092c0-0.094,0-0.188-0.093-0.188c-0.188,0.094-0.375,0.375-0.563,0.843
		c0.094,0,0.28-0.093,0.468-0.188L152.526,22.918z M158.334,23.293c0,0.187-0.094,0.281-0.28,0.281c-0.093,0-0.187,0-0.187-0.094
		c-0.094,0-0.094-0.093-0.094-0.093c-0.092,0-0.28,0.093-0.655,0.188h-0.563c0-0.094,0-0.094-0.092-0.188
		c0-0.093-0.094-0.188-0.187-0.28c0.375-0.187,0.561-0.375,0.561-0.563c0-0.093,0-0.187,0-0.281
		c0.375,0.187,0.844,0.281,1.405,0.281L158.334,23.293z M158.99,21.045c-0.187,0.093-0.28,0.187-0.469,0.281
		c-0.094,0.094-0.28,0.187-0.375,0.281c0.093,0.094,0.187,0.187,0.281,0.281c0.094,0.093,0.188,0.28,0.281,0.374h-0.469
		c-0.093,0-0.093,0-0.187-0.094c-0.093,0-0.093-0.093-0.187-0.187c-0.187-0.188-0.281-0.281-0.469-0.281l-0.75,0.093
		c0-0.093,0-0.187,0-0.28c0-0.093,0.092-0.281,0.092-0.375c0.094-0.187,0.094-0.281,0.094-0.375c0-0.094,0-0.187,0-0.187
		s0.092,0,0.187,0c0.095,0,0.187,0,0.375-0.094c0.094,0,0.094,0,0.187,0c0.094,0,0.094,0,0.187,0c0.188,0,0.281,0,0.281,0
		c0.094-0.092,0.281-0.187,0.468-0.187c0.187-0.095,0.469-0.095,0.656-0.187l0.281,0.375
		C159.645,20.67,159.364,20.857,158.99,21.045z M160.583,17.11c-0.092,0.281-0.187,0.562-0.375,0.937
		c0,0.093-0.095,0.281-0.187,0.375c-0.094,0.187-0.187,0.375-0.281,0.562c-0.375,0.187-0.936,0.561-1.779,1.124h-0.937
		c0.094-0.094,0.187-0.187,0.187-0.281v-0.093c0-0.094,0-0.188-0.092-0.281c0-0.092,0-0.092,0.092-0.187c0-0.094,0-0.187,0-0.28
		c0-0.281,0-0.469,0-0.469s0.094,0,0.094-0.093l0.092-0.093l0,0c0,0,0-0.093-0.092-0.093c-0.094-0.094-0.094-0.094-0.094-0.28
		v-0.094c0.094-1.03,0.187-1.685,0.281-1.966c0.187-0.749,0.655-1.499,1.405-2.154c0.749,0.375,1.312,0.749,1.593,1.124
		c0.187,0.281,0.375,0.75,0.375,1.218v0.187v0.187C160.677,16.735,160.677,16.923,160.583,17.11z M158.521,18.515
		c0,0,0,0.094-0.094,0.094l-0.093,0.095c0,0.092-0.094,0.092-0.094,0.187c0,0.093-0.093,0.093-0.093,0.093h0.562
		c0.28-0.188,0.375-0.375,0.375-0.469h-0.563V18.515z"/>
	<path fill="#FFFFFF" d="M171.354,15.518c-0.28,0.094-0.375,0.188-0.563,0.188l-0.375-0.095c-0.093,0-0.375,0.095-0.655,0.375
		c-0.187,0.187-0.375,0.28-0.469,0.469c-0.092,0.187-0.28,0.187-0.28,0.28h-0.655l0.469-0.469l0.092-0.374
		c-0.187,0.092-0.375,0.092-0.655,0.187c-0.281,0.092-0.562,0.187-0.844,0.28c-0.093,0-0.093,0.093-0.093,0.187
		c0,0.093-0.094,0.187-0.094,0.187c-0.375,0.093-1.03,0.375-1.967,0.844v0.187c0,0.093,0,0.093,0,0.187l0,0
		c0,0.094,0.094,0.187,0.094,0.281v0.092c0,0.094-0.28,0.375-0.844,0.938c0.093,0,0.187,0,0.281,0l0.75-0.094
		c0.094,0,0.187,0,0.281,0c0.092,0,0.187,0.094,0.467,0.281c0.094,0.092,0.189,0.187,0.281,0.187
		c0.094,0.094,0.187,0.094,0.281,0.094c0.092,0,0.187,0.093,0.375,0.093c0.094,0,0.28,0.094,0.468,0.094
		c0.281,0,0.469,0,0.562,0.093c0.187,0,0.28,0,0.28,0.094l-0.094,0.469c0,0-0.093,0.093-0.187,0.093
		c-0.093,0-0.187,0.093-0.281,0.093c-0.281,0.093-0.469,0.187-0.563,0.375c0.094,0.094,0.187,0.187,0.28,0.281
		c0.093,0.092,0.187,0.187,0.375,0.375c-0.187,0-0.375,0.092-0.655,0.187c-0.281,0.187-0.469,0.187-0.561,0.187
		c-0.094,0-0.094,0-0.094,0l0,0c0,0,0,0,0-0.093h-0.092c-0.094,0-0.281,0.093-0.563,0.281c-0.28,0.281-0.561,0.375-0.655,0.469
		c0,0-0.281,0-0.844,0c-0.093,0.187-0.093,0.375-0.187,0.749c-0.093,0.281-0.093,0.562-0.187,0.75c0,0.094-0.093,0.187-0.281,0.375
		c-0.187,0.187-0.28,0.375-0.28,0.469v0.094c0,0.093,0,0.281,0.092,0.469c0.094,0.281,0.281,0.467,0.469,0.467
		c0.094,0,0.187,0.094,0.375,0.094s0.469,0.094,0.75,0.094c0,0.187,0.187,0.28,0.469,0.28c0.092,0,0.187,0,0.28-0.094
		c0.094-0.093,0.187-0.093,0.281-0.093c0.656,0,1.218,0.093,1.686,0.281c0,0.092,0.094,0.187,0.187,0.281
		c0.094,0.093,0.094,0.28,0.187,0.375c0,0-0.093,0-0.187,0.092c-0.093,0.094-0.187,0.094-0.375,0.094c-0.094,0-0.28,0-0.375-0.094
		c-0.094-0.092-0.187-0.092-0.187-0.092l-0.28,0.187v0.092c0,0.187,0.094,0.281,0.375,0.281l-0.469,0.468h-0.656V28.34v-0.093
		c0-0.094,0-0.187-0.092-0.28c-0.281,0.094-0.655,0.375-1.124,0.844c-0.093,0-0.187-0.095-0.375-0.281
		c-0.188-0.187-0.28-0.187-0.375-0.187c-0.094,0-0.187,0-0.187,0.095c0,0-0.094,0.092-0.188,0.092c-0.092,0-0.092,0-0.092,0
		s0-0.092-0.094-0.092c-0.092,0,0-0.095-0.092-0.095h-0.094c-0.375,0-0.936,0.375-1.591,1.03c-0.094-0.093-0.28-0.187-0.375-0.375
		c-0.093-0.187-0.187-0.281-0.187-0.469v-0.092c0-0.095,0.094-0.281,0.094-0.375c0-0.188,0.093-0.375,0.188-0.655
		c0.094-0.281,0.187-0.563,0.187-0.75c0.094-0.187,0.094-0.375,0.094-0.468c0-0.281,0-0.655-0.094-1.218v-0.094
		c0-0.092,0-0.092,0-0.187c0-0.092,0-0.187,0.094-0.28c0.093-0.094,0.093-0.188,0.093-0.281c0-0.092,0-0.187,0-0.187v-0.094
		c0-0.093,0-0.093-0.093-0.187c0-0.093-0.187-0.188-0.28-0.375c-0.094-0.188-0.188-0.28-0.281-0.375
		c-0.093-0.094-0.187-0.187-0.187-0.375c-0.093-0.092-0.093-0.28-0.093-0.467c0-0.189,0-0.375,0.093-0.75
		c0.094-0.468,0.28-0.936,0.656-1.405c0.094-0.094,0.187-0.187,0.375-0.28c0.188-0.094,0.28-0.187,0.468-0.375
		c-0.092-0.094-0.187-0.281-0.187-0.562v-0.094v-0.094l0.281-0.936c0-0.094-0.094-0.187-0.281-0.28
		c-0.094-0.187-0.375-0.375-0.655-0.656c-0.187-0.187-0.375-0.468-0.375-0.749c0-0.094,0-0.094,0-0.187
		c0-0.095,0.187-0.281,0.375-0.469c0-0.094,0-0.187,0-0.187c0-0.094,0-0.188,0-0.188c0-0.092,0-0.092,0-0.187
		c0-0.094,0-0.094,0-0.188c0-0.187,0.094-0.375,0.187-0.468c0.094,0,0.094,0,0.187,0c0.187,0,0.375-0.094,0.563-0.281l0.469-0.375
		c0.28-0.094,0.655-0.188,1.31-0.188c0.563,0,0.938,0,1.032,0.094c0.092,0,0.375,0.187,0.75,0.468
		c0.375,0.282,0.561,0.375,0.749,0.375c0.093,0,0.187,0,0.281-0.094c0.094,0,0.094-0.093,0.28-0.093
		c0.093,0,0.281,0.093,0.562,0.187c0.187,0.094,0.28,0.094,0.375,0.187c0.094,0,0.188,0.094,0.188,0.094
		c-0.375,0.28-0.563,0.561-0.655,0.655c0,0,0,0,0,0.092c0,0,0,0,0,0.094c0,0.092,0,0.092,0,0.092c0.093,0,0.281-0.092,0.655-0.28
		c0.28-0.094,0.375-0.188,0.375-0.281v-0.093c0-0.094,0-0.188-0.094-0.374c0.281-0.093,0.656-0.093,1.03-0.187
		c0.375,0,0.844-0.094,1.406-0.094l0.469,0.094c0,0.094-0.094,0.28-0.281,0.468c0,0.094,0.094,0.094,0.094,0.187
		s0.092,0.092,0.092,0.187c0.094,0.094,0.094,0.187,0.094,0.281v0.092C171.823,15.331,171.635,15.425,171.354,15.518z
		 M169.387,21.138c-0.094,0-0.187,0-0.187,0.094c-0.094,0-0.187,0-0.281,0c-0.092,0-0.187,0-0.187,0
		c0.187-0.094,0.375-0.28,0.655-0.563v0.094c0,0.187,0,0.281,0.092,0.375C169.48,21.045,169.48,21.045,169.387,21.138z
		 M168.918,21.888l0.094-0.375c0.092,0.094,0.187,0.281,0.187,0.281l0,0C169.012,21.794,168.918,21.794,168.918,21.888z"/>
</g>
<g>
	<g>
		<g>
			<g>
				<g>
					<path fill="#FFFFFF" d="M185.124,37.063c-0.844,0.28-1.124,0.28-1.218,0.469c-0.094,0.094,0,0.187-0.094,0.28
						c0.843,0,1.312-0.28,1.499-0.469c0.281-0.187,0.281-0.28,0.281-0.28C185.406,36.968,185.029,37.063,185.124,37.063z"/>
					<polygon fill="#FFFFFF" points="186.436,25.073 186.622,25.261 186.248,23.668 					"/>
					<path fill="#FFFFFF" d="M186.436,15.425c-0.655,0.938,0.093,3.466-0.094,5.152l-0.187,0.281l0.563,0.749
						C186.622,19.639,186.248,16.923,186.436,15.425z"/>
					<path fill="#FFFFFF" d="M187.935,10.271c-0.281,0.281-0.187-1.124-0.094,1.219c0-0.093,0-0.187,0.094-0.187
						C187.84,11.115,187.84,10.74,187.935,10.271z"/>
					<path fill="#FFFFFF" d="M187.84,11.304C187.935,12.334,188.121,10.646,187.84,11.304L187.84,11.304z"/>
					<path fill="#FFFFFF" d="M187.652,5.402c0,0,0.187,0.469,0.187,1.124c0.094,0.562,0.094,1.218,0.094,1.218
						c0.092-0.281,0.092-0.938,0.187-1.5c0-0.561,0-0.843,0.092-0.468c-0.092-0.655-0.187-0.936-0.375-1.217
						c-0.092-0.188-0.187-0.281-0.187-0.281C187.56,4.276,187.652,4.746,187.652,5.402z"/>
					<path fill="#FFFFFF" d="M186.622,3.996c0,0,0.188,0.187,0.281,0.375c0.093,0.187,0.187,0.375,0.187,0.375
						C187.091,4.56,187.091,4.276,186.622,3.996z"/>
					<path fill="#FFFFFF" d="M187.56,6.994c0,0,0-0.188,0-0.375s0-0.562-0.094-0.844c-0.094-0.561-0.28-1.029-0.28-1.029
						c0,0.374-0.187,0.374,0.28,0.937C187.186,5.589,187.466,5.963,187.56,6.994z"/>
					<path fill="#FFFFFF" d="M187.466,8.306c-0.187,0.749-0.28,1.687-0.468,0.375C187.091,11.209,187.56,10.834,187.466,8.306z"/>
					<path fill="#FFFFFF" d="M185.781,14.956l-0.187,1.03l0.187,0.843C185.687,16.361,185.967,14.862,185.781,14.956z"/>
					<path fill="#FFFFFF" d="M178.193,1.656c-0.094,0.187,0.467,0.375,0.561,0.561l1.03-0.187
						C179.223,1.937,178.193,1.842,178.193,1.656z"/>
					<path fill="#FFFFFF" d="M178.66,2.217l-1.499,0.28C178.567,2.497,178.754,2.311,178.66,2.217z"/>
					<path fill="#FFFFFF" d="M185.873,4.184c0,0,0.188,0.092,0.375,0.375c0.187,0.187,0.281,0.561,0.469,0.936
						c0.093,0.374,0.187,0.749,0.281,1.124c0.094,0.375,0.094,0.563,0.094,0.563s0-0.28-0.094-0.655
						c-0.093-0.374-0.187-0.844-0.375-1.312C186.434,4.746,186.154,4.371,185.873,4.184c-0.187-0.281-0.467-0.375-0.467-0.375
						C185.406,3.716,185.873,4.184,185.873,4.184z"/>
					<polygon fill="#FFFFFF" points="172.572,1.562 173.322,1.279 171.916,1.748 					"/>
					<path fill="#FFFFFF" d="M168.826,1.656c0.655-0.281-0.843-0.469-0.188-0.656c-1.03,0.093-1.874,0.28-2.623,0.467
						C166.764,1.373,167.607,1.467,168.826,1.656z"/>
					<path fill="#FFFFFF" d="M164.61,1.842c0.375-0.094,0.844-0.187,1.312-0.281C165.454,1.562,165.079,1.656,164.61,1.842z"/>
					<path fill="#FFFFFF" d="M174.727,2.403c-0.094-0.093-0.375-0.28-1.124-0.375l0.561,0.375
						C174.352,2.311,174.54,2.311,174.727,2.403z"/>
					<path fill="#FFFFFF" d="M174.164,2.403L174.164,2.403c-0.655,0-1.124,0-1.31,0C173.042,2.311,173.416,2.311,174.164,2.403z"/>
					<path fill="#FFFFFF" d="M174.821,2.403c-0.093,0-0.093,0-0.187,0C174.821,2.403,174.821,2.403,174.821,2.403z"/>
					<path fill="#FFFFFF" d="M181.096,2.872c-0.844,0.187-2.717,0.469-0.938,0.844C180.816,3.341,179.784,3.153,181.096,2.872z"/>
					<path fill="#FFFFFF" d="M175.57,2.872l1.591,0.095c0-0.095-0.281-0.281,0.094-0.375L175.57,2.872z"/>
					<polygon fill="#FFFFFF" points="174.821,2.967 175.57,2.872 175.007,2.872 					"/>
					<path fill="#FFFFFF" d="M167.327,2.217c-0.655,0.187-1.406,0.187-2.248,0.187c0.843,0.094,1.779,0.187,2.716,0.187
						C167.888,2.403,168.263,2.217,167.327,2.217z"/>
					<path fill="#FFFFFF" d="M170.605,2.311c-0.093,0-0.093,0-0.187,0C170.605,2.403,170.699,2.403,170.605,2.311z"/>
					<path fill="#FFFFFF" d="M156.835,2.403l0.092,0.094c0,0,0,0,0-0.094H156.835z"/>
					<path fill="#FFFFFF" d="M167.888,2.591c0.656,0.094,1.03,0,1.499-0.187c-0.469,0-1.03,0.094-1.593,0.094
						C167.701,2.591,167.701,2.686,167.888,2.591z"/>
					<path fill="#FFFFFF" d="M162.362,2.03c0.375,0.093,0.749,0.187,1.125,0.187C163.205,2.123,162.456,1.937,162.362,2.03z"/>
					<path fill="#FFFFFF" d="M170.23,2.217h0.094C170.136,2.123,170.136,2.123,170.23,2.217z"/>
					<path fill="#FFFFFF" d="M170.23,2.217c-0.375,0.094-0.655,0.187-0.938,0.28c0.375,0,0.75-0.094,1.125-0.094
						C170.417,2.311,170.324,2.311,170.23,2.217z"/>
					<path fill="#FFFFFF" d="M154.307,5.028c0.092-0.375,1.873-0.75,3.372-0.281c1.499-0.281,0.561-1.499-0.75-2.154
						c0,0.187,0,0.28-1.591,0.562c0.562,0.188,3.467,0.469,2.155,0.843c-2.062,0.187-1.686-0.094-2.717-0.281
						c0.844,0.469-2.623,0.655-2.154,1.313l1.779-0.281C154.494,4.746,153.838,4.934,154.307,5.028z"/>
					<path fill="#FFFFFF" d="M159.925,2.497h0.656c-0.75-0.094-1.218-0.187-2.154-0.468c-1.03,0.187-1.31,0.281-1.31,0.468
						l3.091,0.093L159.925,2.497z"/>
					<path fill="#FFFFFF" d="M163.392,2.497c-0.469,0.375-2.061,0.562-1.124,1.03c1.873,0,1.312-0.374,2.436-0.469
						C161.707,3.06,165.64,2.778,163.392,2.497c0.655,0,1.124,0,1.686-0.094c-0.562-0.093-1.03-0.093-1.591-0.187c0,0,0,0,0.092,0
						l0,0l0,0c0.094,0.094,0.187,0.094,0,0.094c0,0,0,0-0.092,0C163.486,2.403,163.486,2.403,163.392,2.497
						c-0.844-0.094-0.092-0.094,0.094-0.187c0,0,0,0,0-0.094l0,0l-2.998,0.187C161.144,2.497,161.987,2.497,163.392,2.497z"/>
					<path fill="#FFFFFF" d="M178.567,4.465c-0.094,0-0.094-0.093-0.094-0.093C178.285,4.465,178.193,4.465,178.567,4.465z"/>
					<path fill="#FFFFFF" d="M177.35,4.276c0.187-0.092,0.375-0.187,1.124-0.187c0.656,0.094,0,0.187,0,0.281
						c0.469-0.094,1.499-0.281,0.187-0.468l-0.187,0.094c-1.218-0.094-2.811-0.655-2.528-0.655
						C176.226,3.622,176.506,3.902,177.35,4.276z"/>
					<path fill="#FFFFFF" d="M170.23,3.435l-2.437,0.281l1.312,0.374l-0.092-0.187C170.417,3.902,170.136,3.622,170.23,3.435z"/>
					<polygon fill="#FFFFFF" points="156.553,2.217 156.835,1.748 155.429,2.403 					"/>
					<polygon fill="#FFFFFF" points="153.275,2.311 153.369,1.937 152.526,2.123 					"/>
					<path fill="#FFFFFF" d="M8.741,32.847l0.749-0.093C9.209,32.754,8.929,32.847,8.741,32.847z"/>
					<path fill="#FFFFFF" d="M5.837,32.566L5.65,32.661C5.743,32.661,5.837,32.661,5.837,32.566z"/>
					<path fill="#FFFFFF" d="M73,2.311c-1.03-0.374-2.249-0.844-2.154-0.468l0.375,0.375C71.968,2.217,72.531,2.217,73,2.311z"/>
					<path fill="#FFFFFF" d="M18.108,4.746c0.092,0,0.187,0.094,0.28,0.094c0.281-0.094,0.469-0.28,0.749-0.375
						C18.857,4.56,18.482,4.652,18.108,4.746z"/>
					<path fill="#FFFFFF" d="M17.358,6.433l-1.405-0.28C16.234,6.244,16.703,6.339,17.358,6.433z"/>
					<path fill="#FFFFFF" d="M37.966,32.378l0.844-0.375C37.497,32.003,38.06,32.191,37.966,32.378z"/>
					<path fill="#FFFFFF" d="M119.836,2.403c-0.938-0.187-1.686-0.187-2.343-0.28C118.618,2.403,119.553,2.778,119.836,2.403z"/>
					<path fill="#FFFFFF" d="M6.398,37.156c0.375,0,0.655-0.094,0.749-0.094s0.187-0.093,0.187-0.093
						c-0.187,0-0.562,0.093-0.75,0.093S6.398,37.156,6.398,37.156z"/>
					<path fill="#FFFFFF" d="M114.776,2.217c0.188,0,0.281,0.094,0.469,0.094c0.655-0.094,1.406-0.094,2.154-0.094
						C116.65,2.03,115.713,1.937,114.776,2.217z"/>
					<path fill="#FFFFFF" d="M143.908,32.754c0.092,0,0.187,0,0.28,0.093C144.188,32.754,144.096,32.754,143.908,32.754z"/>
					<path fill="#FFFFFF" d="M174.821,36.875c-0.281,0-0.844,0-1.311,0C173.789,36.875,174.164,36.875,174.821,36.875z"/>
					<path fill="#FFFFFF" d="M140.162,2.123C140.816,2.03,140.255,2.03,140.162,2.123L140.162,2.123z"/>
					<path fill="#FFFFFF" d="M143.534,3.716c-0.187,0-0.281,0.092-0.281,0.187C143.253,3.81,143.347,3.716,143.534,3.716z"/>
					<path fill="#FFFFFF" d="M107.938,4.746C107.938,4.746,107.846,4.746,107.938,4.746C108.032,4.746,108.032,4.746,107.938,4.746z
						"/>
					<path fill="#FFFFFF" d="M141.191,2.311c-0.28-0.094-0.561-0.094-0.843-0.094C140.443,2.217,140.724,2.217,141.191,2.311z"/>
					<path fill="#FFFFFF" d="M141.004,2.123c0.281,0,0.469,0,0.563,0C141.754,2.03,141.66,2.03,141.004,2.123z"/>
					<path fill="#FFFFFF" d="M139.131,2.123c0.375,0,0.75,0,1.124,0c-0.094,0-0.187-0.093-0.187-0.093
						C139.975,2.123,139.6,2.123,139.131,2.123z"/>
					<path fill="#FFFFFF" d="M87.144,33.877c0,0,0.094,0,0.187,0C87.986,33.69,87.705,33.784,87.144,33.877z"/>
					<path fill="#FFFFFF" d="M55.013,6.526L55.013,6.526L55.013,6.526L55.013,6.526z"/>
					<path fill="#FFFFFF" d="M52.485,6.807c1.03-0.467,1.686-0.467,2.436-0.375l-0.843-1.218L52.485,6.807z"/>
					<path fill="#FFFFFF" d="M21.574,32.754l-1.779-0.375c2.154-0.561,3.653-0.375,1.966-0.936c-0.28,1.313-6.838,0.093-7.025,1.405
						l-1.124-0.281c0.375,0,0.375-0.092,0.749-0.092c-2.248-0.655-1.685,0.938-4.59,0.75c-1.03-0.092-1.686-0.28-1.03-0.467
						c0,0-0.563,0.092-1.125,0.187c-0.656,0.092-0.75,0.187-0.843,0.187c-0.281,0-0.187-0.281,0.092-0.187c0,0-0.375,0-0.749,0.092
						c-0.375,0.094-0.656-0.28-0.656-0.28l0,0c-0.28,0-0.561-0.469-0.655-0.75c0.187-0.561,0.094,0.187,0.28,0.094
						c0,0-0.094-0.188-0.187-0.469c-0.094-0.469-0.188-0.938-0.188-0.938c0.188-0.375,0.281-0.187,0.469,0.28
						c0,0.093,0.094,0.281,0.094,0.375c0,0.094,0,0.375,0.093,0.375c0,0.187,0,0.28,0,0.468c0.28-0.28,0.469-0.375,0.469-0.468
						c0,0,0-0.093,0-0.187c0-0.093,0-0.093,0-0.187c0-0.187-0.093-0.281-0.093-0.469c-0.188-0.655-0.375-1.591,0-3.465l0.187,1.779
						c0.749-1.124,0.469-2.528,0.936-4.59c-0.28,0.469-1.124,4.028-1.405,1.967c0.187-0.75,0.281-1.499,0-2.623
						c0.469,0,0.375-1.125,0.281-2.437l0.561,0.094c-0.187-1.498-0.468-1.312-0.75-2.248c0.094-1.593,0.563-1.967,0.938-2.343
						c0.094-2.622-0.749,1.78-0.844-1.311c0.188-2.155,0-3.653-0.375-6.276c0.187-1.499,0.375,0.281,0.562-0.281
						c0,0-0.093-0.375-0.281-0.655c0-0.093-0.093-0.187-0.093-0.281l0,0c0-0.094-0.094-0.094-0.094-0.094
						c0-0.187,0.187-0.092,0.187,0C5.46,7.745,5.367,7.651,5.179,7.558C5.086,7.464,4.898,7.371,4.804,6.714
						C4.71,6.528,4.71,6.246,4.898,6.152c0.187-0.187,0.655-0.187,1.03,0C6.397,6.246,6.771,6.34,7.052,6.34c0,0,0.281,0,0.375,0
						c0.187,0,0.28,0,0.467,0c0.281,0,0.655-0.094,0.937-0.188C9.3,6.34,8.551,6.526,8.739,6.807
						c2.998-0.467,2.623-0.375,5.058-1.03l2.154,0.375c-1.593-0.468,0.467-0.937,2.154-1.405c-0.563-0.187-1.031-0.375-1.312-0.469
						l2.809-0.281c0.375,0.092,0.094,0.281-0.375,0.562c0.187-0.095,0.375-0.095,0.469-0.187c1.03,0.187,0.469,0.561-0.187,0.937
						c-0.375-0.094-0.655-0.28-1.03-0.375c-0.656,0.375-1.312,0.749-1.218,1.124c0.188-0.093,0.563-0.093,0.937-0.187
						c-0.28,0.093-0.375,0.093-0.28,0.187c0.094,0.094,0.375-0.093,0.844-0.187l0.655,0.656l0.187-0.28l3.653,0.375
						c2.623-0.655,4.871-1.686,8.992-1.966c-1.03,0.467-0.187,0.841-0.281,1.405c-1.124-0.656-3.184,0.28-5.339,0.092
						c1.125,0.094,0.843,0.375,0.563,0.469l3.841-0.561c-0.094,0.468,0.843,0.375,1.779,0.561c-0.75-0.937,2.811-0.655,4.404-0.937
						c0.092,0.281-0.281,0.656-2.155,0.562c2.061,0.749,2.717-1.125,4.777-0.469c-0.467,0-0.749,0-0.936,0.094
						c1.125-0.28,3.747-0.094,3.092,0.187h-0.467c3.092,0.094,9.367,0,9.834-0.749c0,0.093-0.375,0.937-0.562,1.125l5.527-2.717
						c-0.469,0.656,1.405,2.342-1.218,2.717c0.75,0.094,1.591,0.187,3.184,0c-0.469-0.093-1.218-1.03-0.563-1.03
						c1.873,0.75,1.312,0.375,3.652,1.03c-0.749-0.187,0.094-1.218,1.313-1.218c-0.187,0.187,0.094,1.03-0.375,1.124l2.903-0.938
						c-0.75,0.187-0.092,0.938,0.563,1.218c-0.28-0.187,2.529,0,3.372-0.093l-1.218-0.28c3.373,0.187,3.278-1.499,6.559-1.405
						c-0.469,0.28-1.125,1.311,0.561,1.499c0.749-0.563,3.372-2.623,6.37-2.998l0.561,0.281l2.249-0.375
						c-1.406,0.843-5.34,2.528-7.494,3.184c1.218,0.28,0.375,0.375,2.248,0.375c0.656,0.28-1.031,0.468-1.593,0.468l4.31,0.187
						c-0.187-0.655,3.278-0.655,3.184-1.124l-4.684,0.655c-0.187-0.655,2.717-1.779,5.809-1.686
						c0.749,0.281-0.563,1.125-0.563,1.311c0.375-0.281,2.904-0.468,3.184-0.281l-1.313,0.375c1.686,0.281,2.811-0.843,4.871-0.187
						c0.749,0,2.154,0.844,2.248,0.469C93.321,6.248,93.04,4.092,93.79,3.53c0.28,0.093,3.747,0.656,4.496,1.03
						c1.124,0.562-1.779,1.312-0.75,1.874c0-0.187,0.656-0.375,0.938-0.469c0.749,0.187-0.28,0.563,1.313,0.469
						c0.28-0.655,3.278,0.094,0.749-0.562c1.593-0.187,1.685,0.093,3.561,0.093c-0.563-0.375,1.686-1.405,3.278-1.591
						c-0.093,0.187,0.28,0.375,0.468,0.469c3.278,0.092,4.965,0.375,8.055,0.375c0.28,0.187,1.779,0.375,1.124,0.655
						c0.469-0.093,0.843-0.375,1.779-0.375c1.779,0.563-2.061,0.094-0.75,0.75c0.095-0.375,2.437-0.469,3.747-0.75
						c-0.375-0.561-3.091-0.092-4.402,0.094c0-0.749,2.343-1.591,5.527-1.967c2.528-0.187,1.124,0.468,1.499,0.375
						c4.685,0.093,4.027-1.406,7.962-0.843c1.591,0.469,0.093,1.032,0.375,1.406c-2.06,0.187-3.184-0.281-4.496-0.281l1.685,0.281
						c-0.655,0.187-2.06,0.281-2.811,0.187c1.313,0.469,7.962,0.094,11.616,0.469c0.655-0.187,1.779-0.375,1.218-0.561l-1.124,0.092
						c-1.03-0.375,2.154-0.561,0.749-0.75c1.591-0.281,3.278-0.749,5.433-0.469l0.375,0.562c0-0.187-1.406-0.375-2.062-0.187
						c0.937-0.28,3.372,0.75,4.309,0l-1.499-0.375c1.593-0.28,3.467-0.938,5.434-0.749c-0.844-0.562-0.469,0.094-1.779-0.562
						c1.218,0.844-4.965,0-2.998,0.844c-1.405-0.75-2.437-0.281-4.31-0.938c0.094,0.188,0.655,0.375-0.936,0.281
						c-0.094,0.094-0.281,0.094-0.375,0.187c-0.093,0-0.093,0-0.093,0h0.093c-0.093,0-0.093,0,0,0
						c0.375,0.094,0.656,0.188,0.844,0.28c-0.844,0.469-3.372,0.375-4.216,0.656c-0.936-0.094,0.375-0.187-0.093-0.375l-1.312,0.375
						c-0.094-0.375-2.528-0.656-0.281-0.938h-2.06c-1.218-0.281-2.811-0.375-3.841-0.187c-0.937-0.093-2.436,0.468-1.593,0.094
						l-3.184,0.281V2.687c-3.184-0.094-6.462,0.656-10.116-0.094c-1.03,0.094-2.155,0.28-3.936,0.094l-0.375-0.375
						c-1.405,0.093-4.122-0.375-4.684,0c-1.499-0.937-6.65-0.188-8.993-0.375l-0.093,0.469c-1.685,0-3.278,0.094-5.245,0.28
						l0.094,0.375c-1.779,0.092-4.59-0.469-7.4-0.469c0.187-0.187,0.937-0.093,1.405,0c-3.372-0.936-7.024,0.656-10.117,0
						c-0.749,0.188-1.312,0.094-1.874,0c0.094,0,0.094,0,0.188,0c-0.094,0-0.188,0-0.28,0c-0.375-0.093-0.655-0.187-1.03-0.187
						c0.281,0.094,0.655,0.187,0.843,0.187c-0.563,0-1.499,0.094-2.342,0.188l-0.375-0.468c-0.092,0-0.092,0-0.187,0
						c-0.843-0.188-0.655,0.187-0.187,0.561c-0.468,0.095-0.843,0.188-1.124,0.281c-0.656-0.75-2.249,0.281-3.186-0.562
						c-0.561,0.375-4.308,0.28-4.777,1.124C61.571,3.53,61.291,3.53,61.757,3.53c-0.936-0.094-1.966-0.187-2.809,0l-0.375-0.561
						l-2.06,0.749c-1.313-0.375-1.779-0.563-0.561-1.03c-3.092,0.656-2.529,0.281-5.058,0.937l0.093-0.375
						c-0.938,0-2.435,0.468-2.998,0.187c-2.061-0.75-10.304-0.093-15.643-0.75c1.03,1.125-2.529-0.468-2.717,0.375
						c-0.281-0.281-1.03-0.375-0.187-0.656c-2.717,0.28-4.122-0.375-5.995,0.28c-0.281-0.28,0.563-0.375,0.28-0.563
						c-0.187,0.188-0.843,0.375-1.124,0.188c-0.281-0.188,0.375-0.188,0.844-0.375c-2.81,0-3.092,0.844-3.278,1.593
						c-1.406-0.375-2.154-0.28-3.184,0.187c-0.468-0.28-1.312-0.468,0.375-0.563c-0.938,0-5.995-0.375-6.089,0.281
						c-0.281-0.187-1.406,0-1.593,0c-1.125,0-1.686,0-2.248-0.093c-0.375,0-0.75,0-1.218,0c-0.467,0-1.03,0-1.685,0.093
						c0,0,0.187,0,0.375,0c0.187,0,0.375,0,0.375,0C5.09,3.716,4.902,3.81,4.714,3.903C4.434,3.998,4.153,3.998,3.871,4.09
						C3.59,4.184,3.215,4.465,3.027,4.746C2.747,5.12,2.653,5.495,2.653,6.058L2.561,5.964C2.372,7.088,2.372,8.025,2.372,8.4
						s0,0.655,0,0.844c0.095,0.468,0.095,0.843-0.187,2.81l0.469-0.187c0.937,0.375-0.562,3.465-0.187,5.715l0.281-0.843
						c0.375,1.218-1.313,3.465-1.406,4.684C1.25,21.704,1.25,20.954,1.156,20.58c-0.562,3.278,0.563,0.468,0.749,2.903
						c-0.281,0.469-0.843-0.562-0.843,1.03c-0.094,0.375,0.093,1.593,0.375,2.998c0.093,0.656,0.187,1.405,0.187,2.154
						c0,0.375,0,0.655,0,1.03c0,0.187,0,0.28-0.094,0.469c0,0.187-0.093,0.375-0.093,0.561c0.093-0.187,0.093-0.375,0.187-0.469
						c0.094-0.092,0.094-0.187,0.187-0.187c0.094,0,0.094,0,0.187,0.094c-0.093,0.092,0,0.28,0,0.749c0,0.563-0.093,1.312,0,2.154
						c0,0.375,0,0.749,0.187,1.124c0.094,0.375,0.375,0.75,0.563,1.03c0.561,0.563,1.312,0.749,2.06,0.844
						c0.749,0,1.593-0.093,2.154-0.281c0.187,0,0.28,0.093,0.28,0.093c0.093,0,0.093,0.094,0.093,0.094
						c1.312-0.187,4.31-0.375,5.152-0.749c1.218,1.593,8.243-0.749,8.243,0.655l4.122-0.093l-0.094,0.187
						c2.622,0.093,3.56-0.28,4.403-0.563c0.562,0.094,0.188,0.187,0.093,0.281c3.84,0.28,4.215,0.187,7.399-0.469l0.375,0.469
						c0.844-0.281,5.526,0.75,9.273,0.187c0,0.094-0.093,0.187-0.375,0.187c4.216-0.561,10.023,1.312,11.616-0.375l2.81-0.375
						c-3.559-0.094,0.562-0.75-0.937-1.03c1.406-0.094,3.653,0.468,1.874,0.562l-0.281-0.093c-0.656,0.842,4.497,0.281,4.402,0.937
						c7.025,0,13.958,0.468,20.608,0.468l-0.75-0.655h2.343c0.561,0.187,0.843,0.561-0.844,0.468
						c0.844,0.375,2.717-0.28,2.811-0.468c3.184,0.28-1.218,0.843-0.281,0.843l1.313-0.093l-0.561-0.093
						c1.124-0.28,1.217-0.563,3.184-0.563c1.217,0.094,0.655,0.469,1.124,0.469c0,0.094,0.187,0.094,0.75,0l2.904,0.094
						l-1.125-0.563c1.313-0.28,2.717,0,1.406-0.561c1.967,0.937,10.866,0.375,12.084,0.655c1.779-0.375,3.559-0.375,5.808-0.375
						c-0.563-0.094-0.843-0.75,1.03-0.655c-0.655,1.218,3.466,0.561,5.058,1.404c-1.405-0.561,5.434-0.187,3.278-1.03
						c1.591,0.094,0.093,0.469,1.313,0.749c3.747-0.468,8.336,0.281,13.02,0.187c0.093-0.187-0.749-0.375,0.281-0.655l2.436,0.843
						c0.937-0.094,0.844-0.937,2.529-0.375c-0.281-0.094-0.562-0.375,0-0.375c9.181,0.844,18.734-0.656,28.007,0.844
						c-1.218-0.281-0.375-0.375,0.563-0.375c-0.655-0.093,0-0.375-0.094-0.655l3.935,0.655c0.749-0.655,4.215,0,4.59-0.655
						l-1.218,0.094c1.591-0.655-2.249-1.593-2.062-2.437c-1.873,0.75-4.871-1.218-7.868,0c-0.655-0.187,0.563-0.281,0.188-0.467
						c-0.749,0.375-1.687,0.467-3.372,0.281l0.187-0.094c-4.777,0.094-6.837-0.28-12.27-0.561l0.375,0.469
						c-1.125-0.093-1.405-0.187-1.966-0.281c-1.313,0.655,3.278,0,2.06,0.749c-1.499-0.937-8.149,0-9.181-1.029
						c-1.779,0,0.561,0.468-1.218,0.468l-0.468-0.28l-0.469,0.375c-1.124-0.093-1.78-0.375-1.78-0.655
						c0.281,0,0.844-0.092,1.124-0.092c-1.499-0.281-4.31,0.092-4.777,0l1.686,0.187c-4.871,0.28-10.773-0.094-15.456,0.468
						l0.375,0.187c-3.56,0.375-2.904-0.187-6.838-0.094l0.187-0.093c-0.749,0.187-1.873,0.281-2.905,0.281
						c1.032-0.281-1.874-0.469-0.561-0.749c-3.934,0.375-1.967,0.28-4.497,1.124l-0.561-0.375c-0.844,0.28-0.938,0.469-2.905,0.562
						c1.593-0.281-1.218-0.562,0.563-0.936c-4.121-0.749-6.089,0.75-8.055-0.375c-1.873,0.936,3.559,0.561,2.529,0.749
						c0.843,0.28-1.593,0.75-2.905,0.656c-1.311,0-2.249-1.218-5.526-1.218c0.375,0,0.375-0.094,0.656-0.094
						c-1.218-0.28-2.435,0.375-3.934-0.092c-0.843,0.561-1.967,0-2.248,0.749l2.998-0.187c-1.686,0.187-3.372,1.03-6.183,0.656
						c0.187-0.188,1.029-0.375,1.685-0.469c-0.844-0.187-1.591,0.187-2.435-0.093c0.281-0.749,3.653-0.187,5.527-0.749
						c-0.938-0.28-3.466,0.563-2.529-0.28c-1.312,1.031-3.278-0.093-5.526,0.655l0.187-0.467c-0.375,0.092-1.124,0.28-1.779,0.28
						l1.218-0.561c-1.779,0.468-3.465-0.469-5.246-0.187c3.653,0,0.844,0.561,2.343,0.843c-4.497,0.561-2.623-1.125-7.682-0.938
						c0.655-0.092,2.528,0.281,1.499,0.469c-0.937-0.094-2.249-0.28-2.811-0.469c-3.372,0.095,0.468,0.469-0.937,0.75
						c-1.124-0.563-1.685,0.187-3.091,0.375v-0.469c-3.841-0.28-1.03,0.937-4.402,0.563l1.405-0.655l-1.779,0.187l0.375-0.468
						c-1.967,0.375-2.528,0.281-4.497,0.093c0.469,0.28-0.28,0.843-1.967,0.843c-1.125-0.28,0.655-0.468-1.78-0.375
						c0.562-0.28,1.125-0.656,2.154-0.187c0.092-0.187,0.562-0.28,0.656-0.469c-1.218-0.28-3.092-0.092-3.934-0.092
						c0.375,0,0.75,0,0.938,0.092l-3.466,0.656c-0.563-0.187-0.094-0.28,0.281-0.468c-0.655,0.094-1.218,0.28-2.249,0.28
						c0.281-0.375,0.187-0.75,1.686-0.938l-3.279,0.375c-0.188-0.187-1.687-0.469-1.312-0.563c-1.874-0.187-4.497,0.75-6.933,0.468
						c-0.092,0.094-0.375,0.094-0.936,0.187c-2.249-0.092-4.31-0.561-7.025,0l-1.499-0.655c-2.154,0.187,2.06,0.844-1.406,1.124
						c-2.528,0.187-0.936-0.562-1.779-0.75c-1.218,0.375-3.372,1.03-5.715,0.467C20.262,32.661,20.917,32.754,21.574,32.754z
						 M5.555,26.478c0.095,0.469,0.375,1.498,0.095,1.874C5.18,27.789,5.462,27.321,5.555,26.478z M21.948,5.589
						c-0.375,0.187-0.936,0.094-1.591-0.094C20.824,5.495,21.293,5.495,21.948,5.589z M132.575,2.497
						C132.481,2.497,132.481,2.497,132.575,2.497C131.357,2.311,131.731,2.403,132.575,2.497z M134.916,2.686
						c0.28-0.094,0.187-0.094,0.092-0.187c-0.187,0.092-0.655,0.092-1.31,0.092C133.886,2.686,134.167,2.778,134.916,2.686z
						 M94.543,36.875l-0.467-0.093C95.106,36.594,94.825,36.782,94.543,36.875z"/>
					<path fill="#FFFFFF" d="M17.452,6.244c-0.188-0.094-0.188-0.187-0.188-0.281C16.983,6.058,16.983,6.15,17.452,6.244z"/>
					<path fill="#FFFFFF" d="M37.872,32.472L37.872,32.472c0.093,0,0.187-0.094,0.187-0.094L37.872,32.472z"/>
					<path fill="#FFFFFF" d="M98.571,6.526c-0.469-0.094-0.749-0.187-0.938-0.187C97.635,6.339,97.822,6.433,98.571,6.526z"/>
					<path fill="#FFFFFF" d="M147.28,1.937l-1.499,0.094c0.75,0,1.03,0.093,1.313,0.187C147.094,2.03,146.813,1.937,147.28,1.937z"
						/>
					<path fill="#FFFFFF" d="M160.302,4.652c0.187-0.093,0.467,0,0.655-0.093l-0.094-0.188C160.02,4.465,159.364,4.56,160.302,4.652
						z"/>
					<path fill="#FFFFFF" d="M148.685,3.435c0.094,0.375,1.03,0.281,2.154,0.187c-0.095,0-0.095,0-0.187,0
						C150.935,3.06,149.811,3.247,148.685,3.435z"/>
					<path fill="#FFFFFF" d="M151.027,3.529c0.281,0,0.655,0,0.937,0C152.151,3.341,151.59,3.529,151.027,3.529z"/>
					<path fill="#FFFFFF" d="M137.819,2.403c0.469,0.094,0.281-0.469,0.563-0.375C139.037,1.562,135.104,2.686,137.819,2.403z"/>
					<polygon fill="#FFFFFF" points="149.529,4.652 149.153,4.184 148.592,4.56 					"/>
					<path fill="#FFFFFF" d="M141.285,4.276l1.685,0.094c0-0.094,0.188-0.094,0.469-0.187
						C142.315,4.276,141.191,4.184,141.285,4.276z"/>
					<path fill="#FFFFFF" d="M143.347,4.276c0.563,0,1.029,0,1.312-0.092C144.471,4.184,143.814,4.184,143.347,4.276z"/>
					<polygon fill="#FFFFFF" points="147.28,4.746 146.719,4.652 145.595,4.652 					"/>
					<path fill="#FFFFFF" d="M123.208,4.184l-1.874,0.092c-0.187,0.187,0.281,0.281,1.03,0.187
						C122.739,4.465,123.488,4.371,123.208,4.184z"/>
					<path fill="#FFFFFF" d="M128.734,5.495c-0.469-0.093-0.561-0.187-0.843-0.375l-0.094,0.563L128.734,5.495z"/>
					<path fill="#FFFFFF" d="M123.395,5.589c-0.187,0.187-2.623,0.469-0.375,0.469C123.208,5.869,125.08,5.775,123.395,5.589z"/>
					<polygon fill="#FFFFFF" points="95.762,4.934 96.231,4.934 96.137,3.902 					"/>
					<path fill="#FFFFFF" d="M71.407,7.182c2.154,0.187,0.563-0.563,2.436-0.28c0.469-0.187-1.593-0.187-1.124-0.469
						C71.501,6.713,70.75,6.526,71.407,7.182z"/>
					<path fill="#FFFFFF" d="M72.812,6.433c0.187,0,0.375-0.093,0.655-0.093C73.093,6.339,72.906,6.433,72.812,6.433z"/>
					<polygon fill="#FFFFFF" points="179.878,37.343 181.283,37.532 180.44,37.249 					"/>
					<path fill="#FFFFFF" d="M182.595,36.688l0.375,0.561l0.844-0.561C183.438,36.782,182.875,36.782,182.595,36.688z"/>
					<path fill="#FFFFFF" d="M6.773,22.637l-0.094-0.094c-0.187,0.188-0.187,0.563-0.187,1.218L6.773,22.637z"/>
					<polygon fill="#FFFFFF" points="10.52,32.286 10.239,32.286 10.802,32.754 					"/>
					<path fill="#FFFFFF" d="M26.445,31.537c-0.656,0-1.405,0.094-2.06,0.094C25.788,31.537,26.631,32.286,26.445,31.537z"/>
				</g>
			</g>
		</g>
	</g>
</g>
<g enable-background="new    ">
	<path fill="#FFFFFF" d="M188.459,19.323c0.04,0.204,0.106,0.339,0.199,0.407c0.066,0.01,0.132,0.018,0.199,0.022
		c0.067,0.004,0.133,0.007,0.199,0.007c0.198,0,0.38-0.017,0.548-0.051c0.166-0.034,0.329-0.085,0.488-0.153
		c0.052,0.049,0.116,0.102,0.188,0.16c0.072,0.059,0.168,0.122,0.288,0.189c0.147,0.097,0.262,0.174,0.349,0.233
		c0.087,0.059,0.15,0.102,0.188,0.131c0.105-0.175,0.159-0.428,0.159-0.757c0.266,0.223,0.485,0.439,0.657,0.649
		c0.171,0.21,0.312,0.411,0.417,0.608c0.053-0.049,0.095-0.1,0.129-0.154c0.032-0.055,0.05-0.116,0.05-0.184v-0.073
		c0-0.049,0-0.098,0-0.147c0-0.049-0.013-0.104-0.04-0.162c-0.04-0.137-0.063-0.243-0.069-0.316
		c-0.006-0.073-0.016-0.121-0.03-0.139c0.08,0.04,0.531,0.191,1.354,0.457c-0.066,0.373-0.113,0.688-0.14,0.943
		c-0.028,0.256-0.04,0.447-0.04,0.575v0.074h-0.08c-0.119,0-0.319,0.029-0.596,0.087c-0.106,0.04-0.209,0.066-0.309,0.081
		c-0.101,0.015-0.182,0.028-0.249,0.037h-0.14c-0.04,0.029-0.09,0.104-0.15,0.223c-0.061,0.117-0.103,0.201-0.129,0.25
		c-0.08,0-0.206-0.068-0.378-0.206c-0.185-0.127-0.326-0.19-0.418-0.19c-0.08,0-0.185,0.029-0.319,0.088
		c0.014,0.04,0.024,0.076,0.031,0.11c0.006,0.034,0.011,0.077,0.011,0.125v0.78c-0.08-0.059-0.184-0.144-0.309-0.257
		c-0.126-0.113-0.276-0.258-0.449-0.435l-0.994,0.22c-0.067,0.08-0.101,0.143-0.101,0.192c0.133,0.069,0.352,0.103,0.657,0.103
		h0.159c-0.119,0.118-0.332,0.245-0.636,0.384c-0.385,0.167-0.625,0.289-0.717,0.367c0.039,0.167,0.205,0.251,0.498,0.251
		c0.306,0,0.921-0.241,1.85-0.724c0.027,0.05,0.061,0.146,0.101,0.289c0.04,0.142,0.082,0.304,0.129,0.486
		c0.046,0.182,0.095,0.376,0.15,0.582c0.053,0.207,0.116,0.399,0.189,0.582c0.072,0.182,0.146,0.341,0.219,0.479
		c0.074,0.138,0.156,0.23,0.248,0.279l0.378-0.5c0.224-0.286,0.43-0.428,0.617-0.428c0.052,0,0.129-0.004,0.229-0.015
		c0.101-0.01,0.222-0.025,0.367-0.044c0.278-0.029,0.478-0.044,0.597-0.044c0.411,0,1.062,0.114,1.951,0.34
		c0.491,0.127,0.895,0.501,1.213,1.119c0.014,0.01,0.021,0.04,0.021,0.088c0,0.049-0.007,0.105-0.021,0.168
		c-0.013,0.065-0.026,0.125-0.04,0.184l-0.019,0.162c0,0.021,0.002,0.04,0.009,0.059c0.007,0.02,0.01,0.04,0.01,0.059
		c0.066,0.069,0.129,0.157,0.189,0.266c0.061,0.109,0.122,0.231,0.188,0.369c0,0.049-0.008,0.165-0.029,0.346
		c-0.02,0.183-0.058,0.439-0.11,0.774l-0.159,0.486l-0.04,0.367l0.021,0.162c-0.028,0.118-0.126,0.266-0.3,0.442
		c-0.039,0.306-0.092,0.666-0.158,1.083s-0.14,0.907-0.219,1.466c-0.185,0.226-0.412,0.508-0.676,0.848
		c-0.267,0.337-0.571,0.735-0.916,1.187c-0.213,0.108-0.478,0.231-0.796,0.368c-0.319,0.137-0.697,0.29-1.134,0.457
		c-0.055,0.019-0.153,0.029-0.3,0.029h-0.377c-0.186,0-0.325,0.015-0.417,0.044c-0.08,0.02-0.213,0.063-0.398,0.132
		s-0.431,0.162-0.736,0.281c-0.451,0.187-0.743,0.279-0.876,0.279c-0.159,0-0.564-0.153-1.213-0.457
		c-0.372-0.167-0.696-0.327-0.976-0.479c-0.279-0.154-0.531-0.303-0.757-0.45c-0.08-0.05-0.156-0.121-0.229-0.214
		c-0.074-0.093-0.15-0.205-0.229-0.333l-0.318-0.558l0.079-0.472c0.093,0,0.212,0.039,0.359,0.118l0.338,0.176h0.377l0.259-0.147
		c-0.119-0.108-0.332-0.162-0.636-0.162l0.06-0.382c0.172,0,0.299-0.029,0.377-0.087c0-0.011-0.003-0.058-0.01-0.14
		c-0.006-0.084-0.01-0.168-0.01-0.257v-0.119l0.377-0.235c0.093,0.049,0.2,0.125,0.318,0.228c0.121,0.104,0.267,0.234,0.438,0.391
		c0.929-0.344,1.453-0.516,1.572-0.516c0.451,0,0.75,0.143,0.895,0.428c0.133,0.255,0.245,0.457,0.338,0.604
		c0.093,0.149,0.167,0.246,0.219,0.296c0.133-0.08,0.319-0.286,0.558-0.619c0.199-0.266,0.366-0.399,0.498-0.399h0.458
		c0.132-0.108,0.206-0.197,0.219-0.265v-0.015c0-0.069-0.061-0.147-0.18-0.236c-0.119-0.088-0.179-0.176-0.179-0.265l0.24-0.428
		c0.053-0.059,0.206-0.138,0.458-0.235c0.412-0.167,0.636-0.255,0.676-0.265v-0.015c0-0.069-0.037-0.132-0.11-0.191
		c-0.074-0.059-0.162-0.113-0.269-0.162l-0.08-0.029l0.021-0.133c0.027-0.117,0.061-0.257,0.099-0.419
		c0.04-0.162,0.092-0.356,0.158-0.582c0.093-0.286,0.163-0.501,0.209-0.648c0.047-0.147,0.071-0.231,0.071-0.25
		c0.013-0.039,0.019-0.077,0.019-0.117c0-0.04,0-0.08,0-0.118c0-0.413-0.198-0.766-0.596-1.061
		c-0.464-0.333-1.022-0.501-1.672-0.501h-0.061c-0.358,0-0.557,0.108-0.596,0.324l0.019,0.279c0,0.049-0.002,0.096-0.01,0.14
		c-0.006,0.044-0.017,0.096-0.029,0.154c0,0.05-0.007,0.103-0.021,0.162c-0.013,0.059-0.032,0.128-0.06,0.206
		c-0.105,0.442-0.246,0.795-0.418,1.061c-0.067,0.098-0.203,0.201-0.408,0.309c-0.205,0.107-0.387,0.171-0.548,0.191
		c-0.066,0.008-0.184,0.026-0.348,0.051c-0.166,0.025-0.38,0.057-0.646,0.096c-0.213,0.04-0.393,0.066-0.538,0.08
		c-0.147,0.015-0.252,0.022-0.318,0.022c-0.278,0-0.518-0.136-0.718-0.411l-0.297-0.443l0.736-5.904
		c0.093-0.04,0.201-0.083,0.327-0.132c0.127-0.048,0.269-0.103,0.429-0.161l-0.637,0.132c-0.172,0.109-0.465,0.162-0.876,0.162
		c-0.279,0-0.578-0.211-0.896-0.633c-0.293-0.372-0.438-0.741-0.438-1.104V21.1c0.014-0.069,0.05-0.175,0.11-0.315
		c0.061-0.143,0.162-0.313,0.309-0.509c0.251-0.413,0.489-0.728,0.716-0.943c0.105-0.118,0.208-0.203,0.308-0.257
		c0.1-0.055,0.189-0.081,0.269-0.081C187.79,19.002,188.114,19.11,188.459,19.323z M189.195,21.33l0.021,0.176h0.04l0.159,0.074
		l0.1-0.25H189.195z M189.237,21.712l0.039,0.22l0.08-0.206c-0.013-0.01-0.032-0.014-0.06-0.014H189.237z M189.594,20.27
		c0.04-0.009,0.113-0.034,0.219-0.074l0.021-0.132C189.792,20.063,189.712,20.132,189.594,20.27z M191.585,20.755l0.158,0.162
		l0.061-0.589l-0.159-0.162L191.585,20.755z M195.365,20.107c0.211,0.029,0.438,0.056,0.676,0.081
		c0.24,0.025,0.464,0.05,0.676,0.073c0.212,0.025,0.338,0.042,0.378,0.052c0.066,0.029,0.135,0.106,0.208,0.228
		c0.074,0.122,0.143,0.257,0.208,0.404s0.121,0.289,0.159,0.428c0.04,0.138,0.067,0.236,0.08,0.295h0.021
		c-0.014,0-0.021,0.004-0.021,0.015v0.014c0,0.05-0.06,0.093-0.179,0.133c-0.121,0.038-0.276,0.067-0.467,0.087
		c-0.192,0.02-0.401,0.035-0.628,0.044c-0.226,0.01-0.445,0.015-0.656,0.015c-0.121,0-0.232,0-0.338,0
		c-0.106,0-0.206-0.004-0.298-0.015h-0.021c-0.026,0-0.052-0.022-0.079-0.066c-0.026-0.044-0.057-0.091-0.089-0.14
		c-0.032-0.048-0.069-0.095-0.109-0.139c-0.039-0.045-0.073-0.067-0.1-0.067c-0.013,0-0.026,0.015-0.04,0.044
		c-0.066,0.157-0.11,0.273-0.129,0.347c-0.02,0.074-0.029,0.115-0.029,0.125c-0.067-0.048-0.16-0.167-0.279-0.354
		c-0.08-0.108-0.146-0.196-0.199-0.265s-0.113-0.128-0.179-0.177c0-0.029,0.086-0.132,0.259-0.309c0-0.069-0.08-0.324-0.24-0.765
		l0.438-0.03c0.12,0.009,0.239,0.093,0.358,0.25c0.146-0.156,0.219-0.284,0.219-0.382C195.02,20.054,195.152,20.078,195.365,20.107z
		 M195.167,30.473h0.776l0.039-0.177h-0.775L195.167,30.473z"/>
</g>
</svg>
