<?xml version="1.0" encoding="utf-8"?>
<!-- Generator: Adobe Illustrator 19.0.1, SVG Export Plug-In . SVG Version: 6.00 Build 0)  -->
<svg version="1.1" id="Слой_1" xmlns="http://www.w3.org/2000/svg" xmlns:xlink="http://www.w3.org/1999/xlink" x="0px" y="0px"
	 viewBox="0 0 960 560" style="enable-background:new 0 0 960 560;" xml:space="preserve">
<style type="text/css">
	.st0{fill:#FFFFFF;}
	.st1{fill:none;}
	.st2{fill:#FFFFFF;stroke:#FFFFFF;stroke-width:0;stroke-linecap:round;stroke-linejoin:round;}
	.st3{fill:none;stroke:#FFFFFF;stroke-width:0;stroke-linecap:round;stroke-linejoin:round;}
</style>
<g>
	<path class="st0" d="M13.6,37.2L13.6,37.2c-1.2,1-1.2-3.9-1.3-4.4c0-1.3-0.1-2.6-0.1-3.7c0-0.3,0-0.5,0-0.9c0-0.1,0-0.1,0-0.3
		c-0.7,0.1-1.3,0.1-2,0.1c0,0.3,0,0.5,0.1,0.6c0.2,1.8,0.3,3.6,0.3,5.4c0,0.6,0,1.3-0.1,1.8c-0.1,0.4-0.2,1.2-0.6,1l0,0L9.9,37
		c-0.2,0.1-0.5,0.3-0.7,0c-0.2-0.1-0.3-0.5-0.3-0.9c-0.4-3.1-0.3-6.3-0.8-9.4l0,0c0-0.5,0.2-1,0.6-1.2c0.3-0.1,0.5,0,0.7,0.3
		c0,0,0.1,0,0.2-0.1c0.5-0.1,1,0,1.5,0c0.5,0,0.9,0,1.4,0.1c0.3,0,0.6,0,0.8,0.3c0.3,0.3,0.4,0.6,0.4,1.2l0,0c0,0.1,0,0.4,0,0.5
		c0-0.5,0.1-1,0.1-1.5c0-0.1,0.1-0.1,0.1,0c0,3.1,0.1,6.2,0.1,9.3c0,0.4,0,0.8-0.1,1.2C13.9,37,13.8,37.2,13.6,37.2z M9.2,36.1
		c0-0.3,0-0.6,0-0.9c0-0.4-0.1-0.8-0.1-1C9,33.4,9,32.7,8.9,31.9c-0.2-1.4-0.3-3-0.6-4.4c0,0,0-0.1-0.1-0.1c0.3,1.7,0.5,3.3,0.6,5
		c0.1,0.9,0.1,1.8,0.2,2.8c0,0.5,0.1,0.9,0.1,1.4C9.2,37,9.4,37,9.6,36.9c-0.1-0.1-0.1-0.3-0.1-0.4c-0.1,0-0.2-0.1-0.3-0.3
		C9.3,36.3,9.2,36.1,9.2,36.1z"/>
	<path class="st0" d="M17.5,31.6c-0.1,0-0.2,0-0.4-0.1c0,0.3,0.1,0.4,0.1,0.6c0.1,0.9,0.2,1.8,0.3,2.7c0,0.4,0,0.9-0.1,1.3
		c-0.1,0.3-0.2,0.6-0.4,0.9c-0.1,0.1-0.4,0.4-0.6,0.1c-0.1-0.3-0.1-0.6-0.2-0.9c0-0.3-0.1-0.5-0.1-0.6C16,35.4,16,35,15.9,34.7
		c0,0.3,0,0.4,0.1,0.5c0,0.4,0.1,0.6,0.1,0.9c0,0.3,0.1,0.5,0,0.8l0,0C16,36.6,16,36.4,16,36.1c0-0.4-0.1-0.6-0.1-0.9
		c-0.1-0.6-0.1-1.3-0.2-1.9c-0.1-0.8-0.2-1.5-0.2-2.3c-0.4-0.3-0.8-0.5-1.2-0.8l0,0c0.4,0.3,0.8,0.5,1.2,0.6c0-0.1,0-0.3-0.1-0.3
		c-0.3-0.1-0.6-0.4-0.9-0.5c-0.3-0.1-0.4-0.8-0.2-1.2c0.1-0.3,0.4-0.5,0.6-0.4H15c-0.2-0.8-0.3-1.7-0.5-2.4
		c-0.1-0.3,0.1-0.6,0.3-0.6c0-0.1,0.1-0.3,0.1-0.4c0.4-0.4,1-0.1,1.4,0.1c0.4,0.3,0.8,0.6,1.2,1c0.8,0.8,1.6,1.7,2.2,2.6
		c0.1,0.1,0.1,0.3,0.1,0.4c0.1,0.1,0.1,0.4,0.2,0.5c0.1,0.5-0.1,0.9-0.2,1.2C19.5,32,18.2,31.8,17.5,31.6z M17.4,27.9
		c-0.3-0.3-0.6-0.4-0.9-0.6c0.1,0.6,0.3,1.4,0.4,2.1c0.3,0.1,0.5,0.3,0.8,0.4c0.4,0.1,0.9,0.3,1.3,0.1c0.1,0,0.2,0,0.3,0h0.1
		c0,0,0-0.1-0.1-0.1c-0.2-0.4-0.5-0.6-0.8-0.9C18,28.5,17.7,28.3,17.4,27.9z M17,36.4C17,36.5,17,36.5,17,36.4c0.1,0,0.1,0,0.2-0.1
		c0.2-0.5,0.1-1.2,0-1.8c0-0.1-0.1-0.5-0.1-0.5v0.3c0,0.1,0,0.3,0,0.4C17.2,35.2,17.2,35.9,17,36.4z M17.1,31.1L17.1,31.1
		c0.1,0.1,0.1,0.1,0.1,0.1c0.5,0.1,1,0.3,1.5,0.1c0.1,0,0.4-0.1,0.5-0.1h-0.3c-0.4,0.1-0.9,0-1.2,0C17.6,31.4,17.3,31.2,17.1,31.1z"
		/>
	<path class="st0" d="M24.4,35.9c-0.1,0.3-0.3,0.5-0.5,0.8c-0.2,0.4-0.5,0.6-0.9,0.6c-0.1,0-0.3,0-0.4,0c-0.4,0.1-0.9-0.1-1.3-0.5
		c-0.6-0.8-0.9-1.8-1-3c-0.3-2.3,0-4.8,0.8-6.8l0,0c0.1-0.5,0.3-0.9,0.5-1.3l0,0c-0.1,0.1-0.2,0.4-0.2,0.5c-0.1,0.3-0.1,0.4-0.2,0.6
		h0.1c0.2-0.6,0.5-1.3,0.9-1.4c0.2-0.1,0.3-0.1,0.5-0.1s0.4,0,0.6,0.1s0.3,0.5,0.4,0.6c0.1,0,0.2,0,0.3,0.1c0.2,0.5,0.4,1,0.5,1.5
		c0.1,0.5,0.2,1.2,0.3,1.7c0.1,1.2,0.2,2.3,0.1,3.5C25,33.8,24.9,35,24.4,35.9z M23.1,27.5c0-0.1-0.1-0.3-0.1-0.4c0,0,0,0-0.1,0
		c0,0,0,0-0.1,0c-0.1,0.3-0.1,0.4-0.2,0.6c-0.1,0.6-0.3,1.3-0.3,2.1c-0.1,1.4-0.1,2.8,0.1,4.1c0,0.3,0,0.4-0.1,0.5
		c-0.4-2.4-0.3-5.1,0.4-7.3c-0.1,0.1-0.1,0.3-0.2,0.4c-0.2,0.6-0.4,1.4-0.5,2.2c0,0,0,0,0,0.1c-0.1,0.4-0.1,0.9-0.1,1.3
		c0,1.3,0.1,2.6,0.3,3.7L22.1,35c-0.2,0-0.3,0-0.5-0.1l0,0c0.2,0.6,0.7,1.4,1.2,1.2c0.2-0.1,0.3-0.3,0.4-0.4
		c0.1-0.3,0.1-0.4,0.2-0.6c0.2-0.9,0.3-1.8,0.3-2.7c-0.1-0.9-0.1-1.8-0.2-2.8c0-0.3-0.1-0.5-0.1-0.8C23.3,28.2,23.2,27.8,23.1,27.5z
		"/>
	<path class="st0" d="M25.7,36.4c0-0.1,0-0.3,0-0.5c0-3.2,0.3-6.6,0.7-9.8c0-0.3,0.3-0.1,0.3,0.1c-0.5,3.5-0.8,6.9-1,10.6l0,0
		C25.7,36.6,25.7,36.5,25.7,36.4z M31.2,32.4c0,1.5-0.1,3.1-0.1,4.6c-0.1,0.1-0.2,0.3-0.4,0.4c-0.3,0.1-0.6,0-0.8-0.4c0,0,0,0-0.1,0
		c-0.2,0-0.3-0.3-0.3-0.5c-0.1-0.4,0-0.8,0-1.2c0-0.4,0-4.9,0.1-5.9c-0.1,0.1-0.1,0.3-0.2,0.4c-0.4,1-2,5-2,5
		c-0.1,0.3-0.2,0.4-0.3,0.6c0,0.3-0.1,0.4-0.1,0.6c-0.1,0.5-0.1,1-0.5,1.3c-0.1,0-0.2,0.1-0.3,0c-0.2,0-0.5-0.3-0.6-0.5
		c0.1-2.3,0.2-4.5,0.5-6.8c0.1-1.2,0.3-2.2,0.5-3.3c0.1-0.4,0.1-0.6,0.2-1l0.1-0.1c0.2-0.3,0.6-0.3,0.8,0.1l0,0
		c0.1,0.1,0.2,0.3,0.2,0.4c0.1,0.4,0,0.8,0,1c-0.1,0.6-0.2,1.3-0.3,1.9s-0.2,1.3-0.2,1.9c0,0.3-0.1,0.6-0.1,0.9
		c0-0.3,0.2-0.5,0.2-0.8c0.1-0.3,0.2-0.5,0.3-0.9c0.2-0.4,0.3-0.9,0.5-1.3c0.3-0.9,0.7-1.8,1.1-2.6c0.2-0.5,1-1.5,1.4-0.8
		c0.1,0.1,0.1,0.3,0.1,0.4l0,0c0.1,0,0.1,0.1,0.2,0.1c0,0.8,0,1.5,0,2.4C31.3,30,31.2,31.2,31.2,32.4z M28.4,24.3c0.1,0,0.1,0,0.2,0
		l0.1,0.1l0,0c0,0,0,0,0.1,0h0.1c0.1,0,0.2,0,0.3-0.1c0.2-0.3,0.4-0.5,0.6-0.9c0.4-0.6,1.1,0.1,0.8,0.8c-0.2,0.4-0.4,0.8-0.6,1
		c-0.2,0.1-0.5,0.3-0.8,0.3c-0.4-0.1-0.9-0.6-0.8-1.3C28.3,24.4,28.3,24.3,28.4,24.3z M29.8,34.3c0,0.3,0,0.5,0,0.8
		c0,0.4,0,0.8-0.1,1c0,0.1,0,0.4,0.1,0.6c-0.1-0.4,0-0.8,0.1-1.2c0,0,0,0,0-0.1C29.9,35.2,29.9,34.7,29.8,34.3
		C29.9,34.3,29.9,34.3,29.8,34.3C29.9,34.3,29.9,34.3,29.8,34.3z"/>
	<path class="st0" d="M38.7,36.4c-0.1,0.6,0.1,1.4-0.1,1.9c-0.1,0.4-0.6,0.5-0.8,0.3c-0.2-0.3-0.4-0.5-0.4-0.9
		c-0.1-0.4-0.2-0.9-0.2-1.3h-0.1c-0.5-0.1-1-0.1-1.5-0.3c-0.5,0-1-0.1-1.5-0.1c-0.2,0-0.4,0-0.6,0c0,0.1,0.1,0.4,0.1,0.5
		c0.1,0.5,0.1,1.4-0.1,1.9c-0.1,0.1-0.3,0.3-0.4,0.4c-0.1,0-0.1,0-0.2,0c-0.3,0.1-0.5-0.1-0.6-0.5c-0.3-0.6-0.5-1.3-0.6-1.9
		c-0.1-0.5-0.2-1,0-1.5c0.1-0.3,0.2-0.4,0.4-0.5c0.1-0.1,0.3-0.3,0.5-0.3c0.2-0.1,0.4-0.1,0.7-0.1l0,0c0-0.4,0-0.8,0-1.2
		c0.1-0.5,0.1-1,0.2-1.5c0.1-0.5,0.2-0.9,0.3-1.4c0.2-0.8,0.5-1.5,0.8-2.2c0.3-0.5,0.7-1.3,1.2-1.3c0.4-0.1,0.8,0.1,1,0.6
		c0,0.1,0.1,0.3,0.1,0.4c0.1,0,0.2,0,0.2,0.1c0.5,0.4,0.5,1.2,0.5,1.8c0,0.8,0.1,1.4,0.2,2.2c0.1,0.8,0.2,1.5,0.3,2.3
		c0,0.3,0.1,0.5,0.1,0.8c0.1,0,0.2,0.1,0.4,0.3c0.1,0,0.1,0.1,0.2,0.1c0.3,0.4,0.4,0.8,0.3,1.3C38.8,36.3,38.8,36.3,38.7,36.4z
		 M34.5,33.8c0.1,0,0.1,0,0.2,0c0-0.8,0.1-1.5,0.2-2.3c0.1-0.6,0.2-1.3,0.3-1.9c0,0,0,0,0,0.1C34.8,31,34.6,33.7,34.5,33.8z
		 M36,31.2l-0.3-1.9c0-0.1,0-0.3-0.1-0.4c-0.1,0.3-0.1,0.6-0.2,0.9c-0.1,0.6-0.2,1.3-0.3,1.9C35,32.5,35,33.2,35,33.9
		c0.1,0,0.2,0,0.3,0c0.2,0,0.5,0.1,0.7,0.1c0.1,0,0.2,0,0.4,0l0,0c-0.1-0.4-0.1-0.6-0.2-1C36.2,32.5,36.1,31.9,36,31.2z M37.2,34.3
		L37.2,34.3c0.1-0.1-0.2-1.8-0.2-2.1C37,32.5,37.1,34.1,37.2,34.3L37.2,34.3z"/>
	<path class="st0" d="M39.2,36.8c0,0,0-0.1-0.1-0.4c0-0.1,0-0.3,0-0.5c0-3.2,0.3-6.6,0.7-9.8c0-0.1,0.2-0.1,0.3,0
		c0.1,0.3-0.1,0.8-0.1,1c-0.1,0.8-0.2,1.5-0.3,2.3c-0.2,1.5-0.3,3.1-0.4,4.6C39.3,35,39.3,35.9,39.2,36.8L39.2,36.8z M44.8,32.4
		c0,1.5-0.1,3.1-0.1,4.6c-0.1,0.3-0.2,0.4-0.4,0.4c-0.3,0.1-0.6,0-0.7-0.4c0,0,0,0-0.1,0c-0.2,0-0.3-0.3-0.3-0.5
		c-0.1-0.4,0-0.8,0-1.2c0-0.6,0-1.3,0-1.9c0-1.4,0-2.7,0-4.1c-0.1,0.1-0.1,0.3-0.2,0.4c-0.2,0.4-1.5,3.7-2,5
		c-0.1,0.3-0.2,0.4-0.3,0.6c0,0.3-0.1,0.4-0.1,0.6c-0.1,0.5-0.1,1-0.5,1.3c-0.1,0-0.2,0.1-0.3,0c-0.2,0-0.5-0.3-0.6-0.5
		c0.1-2.3,0.2-4.5,0.5-6.8c0.1-1.2,0.2-2.2,0.5-3.3c0.1-0.4,0.1-0.6,0.2-1l0.1-0.1c0.2-0.3,0.6-0.3,0.8,0.1l0,0
		c0.1,0.1,0.2,0.3,0.2,0.4c0.1,0.4,0,0.8,0,1c-0.1,0.6-0.2,1.3-0.3,1.9c-0.1,0.6-0.2,1.3-0.2,1.9c0,0.3-0.1,0.6-0.1,0.9
		c0-0.3,0.9-2.6,1.1-3c0.4-0.9,0.7-1.8,1.2-2.6c0.2-0.5,1-1.5,1.4-0.8c0.1,0.1,0.1,0.3,0.1,0.4l0,0c0.1,0,0.2,0.1,0.2,0.1
		c0,0.8,0,1.5,0,2.4C44.9,30,44.8,31.2,44.8,32.4z M43.5,34.3c0,0.3,0,0.5,0,0.8c0,0.4,0,0.8-0.1,1c0,0.1,0,0.4,0.1,0.6
		c-0.1-0.4,0-0.8,0.1-1.2c0,0,0,0,0-0.1C43.5,35.2,43.5,34.7,43.5,34.3L43.5,34.3L43.5,34.3z"/>
	<path class="st0" d="M53.4,37.2L53.4,37.2c-1.2,1-1.2-3.9-1.3-4.4c0-1.3-0.1-2.6-0.1-3.7c0-0.3,0-0.5,0-0.9c0-0.1,0-0.1,0-0.3
		c-0.7,0.1-1.3,0.1-2,0.1c0,0.3,0,0.5,0.1,0.6c0.2,1.8,0.3,3.6,0.3,5.4c0,0.6,0,1.3-0.1,1.8c-0.1,0.4-0.2,1.2-0.6,1l0,0L49.7,37
		c-0.2,0.1-0.5,0.3-0.7,0c-0.2-0.1-0.3-0.5-0.3-0.9c-0.4-3.1-0.3-6.3-0.8-9.4l0,0c0-0.5,0.2-1,0.6-1.2c0.3-0.1,0.5,0,0.7,0.3
		c0.1-0.1,0.2-0.1,0.3-0.1c0.5-0.1,1,0,1.5,0c0.5,0,0.9,0,1.4,0.1c0.3,0,0.6,0,0.8,0.3c0.3,0.3,0.4,0.6,0.4,1.2l0,0
		c0,0.1,0,0.4,0,0.5c0-0.5,0.1-1,0.1-1.5c0-0.1,0.1-0.1,0.1,0c0,3.1,0.1,6.2,0.1,9.3c0,0.4,0,0.8-0.1,1.2
		C53.7,37,53.5,37.2,53.4,37.2z M49.1,36.1c-0.1-0.3,0-0.6-0.1-0.9c0-0.4-0.1-0.8-0.1-1c-0.1-0.8-0.1-1.5-0.2-2.3
		c-0.2-1.4-0.3-3-0.6-4.4c0,0,0-0.1-0.1-0.1c0.3,1.7,0.5,3.3,0.6,5c0.1,0.9,0.1,1.8,0.2,2.8c0,0.5,0.1,0.9,0.1,1.4
		c0.1,0.4,0.3,0.4,0.5,0.3c-0.1-0.1-0.1-0.3-0.1-0.4c-0.1,0-0.2-0.1-0.3-0.3C49.1,36.3,49.1,36.1,49.1,36.1z"/>
	<path class="st0" d="M57.2,31.6c-0.1,0-0.2,0-0.4-0.1c0,0.3,0.1,0.4,0.1,0.6c0.1,0.9,0.2,1.8,0.3,2.7c0,0.4,0,0.9-0.1,1.3
		c-0.1,0.3-0.2,0.6-0.4,0.9c-0.1,0.1-0.4,0.4-0.6,0.1c-0.1-0.3-0.1-0.6-0.2-0.9c0-0.3-0.1-0.5-0.1-0.6c0.2-0.4,0.1-0.8,0.1-1
		c0,0.3,0,0.4,0.1,0.5c0,0.4,0.1,0.6,0.1,0.9c0,0.3,0.1,0.5,0,0.8l0,0C56,36.6,56,36.3,56,36c0-0.4-0.1-0.6-0.1-0.9
		c-0.1-0.6-0.1-1.3-0.2-1.9c-0.1-0.8-0.2-1.5-0.2-2.3c-0.4-0.3-0.8-0.5-1.2-0.8l0,0c0.4,0.3,0.8,0.5,1.2,0.6c0-0.1,0-0.3-0.1-0.3
		c-0.3-0.1-0.6-0.4-0.9-0.5c-0.3-0.1-0.4-0.8-0.2-1.2c0.1-0.3,0.4-0.5,0.6-0.4H55c-0.2-0.8-0.3-1.7-0.5-2.4
		c-0.1-0.3,0.1-0.6,0.3-0.6c0-0.1,0.1-0.3,0.1-0.4c0.4-0.4,1-0.1,1.4,0.1c0.4,0.3,0.8,0.6,1.2,1c0.8,0.8,1.6,1.7,2.2,2.6
		c0.1,0.1,0.1,0.3,0.1,0.4c0.1,0.1,0.1,0.4,0.2,0.5c0.1,0.5-0.1,0.9-0.2,1.2C59.3,32,58.1,31.8,57.2,31.6z M57.1,27.9
		c-0.3-0.3-0.6-0.4-0.9-0.6c0.1,0.6,0.3,1.4,0.4,2.1c0.3,0.1,0.5,0.3,0.8,0.4c0.4,0.1,0.9,0.3,1.3,0.1c0.1,0,0.2,0,0.3,0h0.1
		c0,0,0-0.1-0.1-0.1c-0.2-0.4-0.5-0.6-0.8-0.9C57.9,28.5,57.5,28.3,57.1,27.9z M56.9,36.4C56.9,36.5,56.9,36.5,56.9,36.4
		c0.1,0,0.1,0,0.2-0.1c0.2-0.5,0.1-1.2,0-1.8c0-0.1-0.1-0.5-0.1-0.5v0.3c0,0.1,0,0.3,0,0.4C57.1,35.2,57.1,35.9,56.9,36.4z
		 M56.9,31.1L56.9,31.1C57,31.2,57,31.2,56.9,31.1c0.6,0.3,1.1,0.4,1.6,0.3c0.1,0,0.4-0.1,0.5-0.1h-0.3c-0.4,0.1-0.9,0-1.2,0
		C57.3,31.4,57.1,31.2,56.9,31.1z"/>
	<path class="st0" d="M64.3,35.9c-0.1,0.3-0.3,0.5-0.5,0.8c-0.2,0.4-0.5,0.6-0.9,0.6c-0.1,0-0.3,0-0.4,0c-0.4,0.1-0.9-0.1-1.3-0.5
		c-0.6-0.8-0.9-1.8-1-3c-0.3-2.3,0-4.8,0.8-6.8l0,0c0.1-0.5,0.3-0.9,0.5-1.3l0,0c-0.1,0.1-0.2,0.4-0.2,0.5c-0.1,0.3-0.1,0.4-0.2,0.6
		h0.1c0.2-0.6,0.5-1.3,0.9-1.4c0.2-0.1,0.3-0.1,0.5-0.1c0.2,0,0.4,0,0.6,0.1c0.2,0.1,0.3,0.5,0.4,0.6c0.1,0,0.2,0,0.3,0.1
		c0.2,0.5,0.4,1,0.5,1.5s0.2,1.2,0.3,1.7c0.1,1.2,0.2,2.3,0.1,3.5C64.8,33.8,64.7,35,64.3,35.9z M62.9,27.5c0-0.1-0.1-0.3-0.1-0.4
		c0,0,0,0-0.1,0c0,0,0,0-0.1,0c-0.1,0.3-0.1,0.4-0.2,0.6c-0.1,0.6-0.3,1.3-0.3,2.1c-0.1,1.4-0.1,2.8,0.1,4.1c0,0.3,0,0.4-0.1,0.5
		c-0.4-2.4-0.3-5.1,0.4-7.3c-0.1,0.1-0.1,0.3-0.2,0.4c-0.2,0.6-0.4,1.4-0.5,2.2c0,0,0,0,0,0.1c0,0.4,0,0.8,0,1.2
		c0,1.3,0.1,2.6,0.3,3.7L62,34.8c-0.2,0-0.3,0-0.5-0.1l0,0c0.2,0.6,0.7,1.4,1.2,1.2c0.2-0.1,0.3-0.3,0.4-0.4
		c0.1-0.3,0.1-0.4,0.2-0.6c0.2-0.9,0.3-1.8,0.3-2.7c-0.1-0.9-0.1-1.8-0.2-2.8c0-0.3-0.1-0.5-0.1-0.8C63.1,28.2,63,27.8,62.9,27.5z"
		/>
	<path class="st0" d="M70.8,37.2c-0.5,0-1.1-0.1-1.6-0.1c-0.8,0-1.5,0-2.1,0.1c-0.1,0.1-0.2,0.1-0.4,0.1c-0.1,0-0.1,0-0.1,0
		c-0.2,0-0.3,0.1-0.5,0.1c-0.2,0-0.5-0.1-0.5-0.4c0,0,0,0,0-0.1c-0.1-0.1-0.1-0.3-0.1-0.4c0-0.4,0.2-0.6,0.5-0.6l0,0
		c0-1.2-0.1-2.2-0.2-3.3c-0.3-0.1-0.5-0.4-0.5-0.9c0-0.4,0.2-0.6,0.4-0.8l0,0c-0.1-0.9-0.1-1.8-0.2-2.8c-0.1-0.1-0.2-0.3-0.3-0.4
		c-0.3-0.4-0.6-0.9-0.3-1.4c0.3-0.5,0.7-0.6,1.1-0.6s0.8,0.1,1.2,0.3c0.4,0.1,0.8,0.4,1.1,0.6c0.7,0.5,4.3,3.9,3,5.3
		c-0.2,0.3-0.4,0.4-0.6,0.4c-0.3,0-0.6-0.1-0.9-0.1c-0.2,0-0.4,0-0.6,0c0.1,0,0.1,0.1,0.2,0.1c0.3,0.3,0.6,0.5,0.9,0.9
		c0.6,0.6,1.1,1.4,1.6,2.2c0.2,0.3,0.4,0.6,0.3,1.2C72,37.2,71.3,37.2,70.8,37.2z M68.9,29.4c-0.2-0.3-0.3-0.4-0.4-0.5
		c-0.4-0.4-0.8-0.6-1.1-0.9c-0.1,0-0.2-0.1-0.4-0.1c-0.1,0-0.1,0-0.2,0l0,0c0.1,0.8,0.2,1.5,0.3,2.4c0.4-0.1,0.9-0.1,1.3-0.1
		s0.7,0,1.1,0C69.3,30,69.1,29.7,68.9,29.4z M68.9,33.7c-0.5-0.4-0.9-0.6-1.5-0.9h-0.1c0.1,0.5,0.1,1,0.2,1.7c0,0.4,0.1,0.8,0.1,1.2
		c0.3,0,0.6-0.1,0.9-0.1c0.5,0,1,0,1.6,0.1c0.2,0,0.5,0.1,0.7,0.1c-0.2-0.3-0.3-0.5-0.5-0.6C69.7,34.6,69.3,34.1,68.9,33.7z"/>
	<path class="st0" d="M79.2,34.7c-1,0.3-1.9,0.6-2.7,1c-0.4,0.3-0.9,0.4-1.3,0.6l0,0h-0.1c-0.1,0.1-0.3,0.1-0.4,0.3l0,0
		c-0.2,0.1-0.9,0.5-0.9,0.4h-0.1c-0.2,0-0.4,0-0.5-0.3c0-0.1,0-0.1,0-0.3c-0.3-0.1-0.5-0.8-0.4-1.2c-0.3-0.5-0.3-1.2-0.3-1.8
		c-0.1-0.8-0.1-1.4-0.2-2.2l-0.2-2.1C72,29.1,72,28.7,72,28.4c0-0.4,0.1-0.6,0.3-0.9c0,0,0-0.1,0.1-0.1c0.3-0.1,0.6-0.3,0.8-0.4
		c0.9-0.4,1.7-0.6,2.5-0.9c0.7-0.3,1.4-0.5,2-0.8c0.1,0,0.2,0,0.3,0.1c0.1,0,0.1,0.1,0.2,0.1c0.1,0.1,0.1,0.1,0.2,0.3
		c0.1,0.4,0.1,0.8,0.1,1.2c-0.2,0.1-0.4,0.1-0.6,0.3c-0.3,0.1-0.6,0.3-0.9,0.4h-0.1c-0.7,0.3-1.9,0.8-2,0.9
		c-0.4,0.3-0.8,0.4-1.2,0.6l0,0c0,0.1,0.1,0.9,0.1,0.9c0.7-0.4,1.4-0.9,2.1-1.3c0.4-0.1,0.8-0.3,1.3-0.5c0.1,0,0.1,0,0.2,0
		c0.2,0,0.3,0,0.5-0.1c0.3,0,0.6,0,0.8,0.4c0,0,0,0.1,0.1,0.1c0,0.1,0.1,0.1,0.1,0.3l0,0c0.1,0.1,0.2,0.3,0.2,0.5
		c0.1,0.4-0.1,0.8-0.3,0.9c-0.3,0.1-0.6,0.1-0.9,0.3c-0.3,0.1-0.6,0.1-0.9,0.3c-0.6,0.3-1.2,0.5-1.8,0.9c-0.4,0.3-0.7,0.5-1.1,0.8
		c0,0.4,0.1,0.8,0.1,1.2c0,0,0,0,0,0.1l0,0c0.3-0.1,0.6-0.4,0.9-0.5c0.4-0.3,0.7-0.4,1.1-0.6c0.2-0.1,0.4-0.3,0.6-0.3
		c0.3-0.1,0.6-0.4,0.9-0.5c0.2-0.1,0.3-0.1,0.5-0.3c0.1,0,0.3-0.1,0.4-0.3c1-0.3,1.2,1.3,1.3,2.4c0,0.4-0.1,0.6-0.2,0.8
		C79.3,34.6,79.3,34.7,79.2,34.7z M74.9,25.6c0.1,0,0.2-0.1,0.3-0.1c0.5-0.1,1.1-0.3,1.6-0.4c0.1,0,0.2,0,0.4,0
		c-0.5,0.1-1,0.4-1.5,0.5c-0.9,0.3-1.8,0.5-2.5,1c-0.3,0.1-0.6,0.3-0.9,0.5V27C73,26.4,74,26,74.9,25.6z M73.9,37
		C74,37,74,37,73.9,37c0.1-0.1,0.2-0.1,0.3-0.3c0.2-0.1,0.4-0.3,0.6-0.4l0,0c-0.2,0.1-0.5,0.3-0.7,0.4c-0.2,0.1-0.5,0.3-0.8,0.4
		C73.6,37,73.9,37,73.9,37z M76.3,30.6c-0.4,0.1-0.8,0.4-1.2,0.5c-0.3,0.1-0.5,0.3-0.8,0.3c0,0.3-0.1,0.4-0.2,0.5
		c0.6-0.5,1.3-0.8,2-1.2C76.1,30.7,76.2,30.7,76.3,30.6L76.3,30.6z"/>
	<path class="st0" d="M82.5,31.6c-0.1,0-0.2,0-0.4-0.1c0,0.3,0.1,0.4,0.1,0.6c0.1,0.9,0.2,1.8,0.3,2.7c0,0.4,0,0.9-0.1,1.3
		c-0.1,0.3-0.2,0.6-0.4,0.9c-0.1,0.1-0.4,0.4-0.6,0.1c-0.1-0.3-0.1-0.6-0.1-0.9c0-0.3-0.1-0.5-0.1-0.6c-0.1-0.3-0.1-0.6-0.2-0.9
		c0,0.3,0,0.4,0.1,0.5c0,0.4,0.1,0.6,0.1,0.9c0,0.3,0.1,0.5,0,0.8l0,0c-0.1-0.3-0.1-0.5-0.1-0.8c0-0.4-0.1-0.6-0.1-0.9
		c-0.1-0.6-0.1-1.3-0.2-1.9c-0.1-0.8-0.2-1.5-0.2-2.3c-0.4-0.3-0.8-0.5-1.2-0.8l0,0c0.4,0.3,0.8,0.5,1.2,0.6c0-0.1,0-0.3-0.1-0.3
		c-0.3-0.1-0.6-0.4-0.9-0.5c-0.3-0.4-0.3-0.9-0.2-1.3c0.1-0.3,0.4-0.5,0.6-0.4h0.1c-0.2-0.8-0.3-1.7-0.5-2.4
		c-0.1-0.3,0.1-0.6,0.3-0.6c0-0.1,0.1-0.3,0.1-0.4c0.4-0.4,1-0.1,1.4,0.1c0.4,0.3,0.8,0.6,1.2,1c0.8,0.8,1.6,1.7,2.2,2.6
		c0.1,0.1,0.1,0.3,0.1,0.4c0.1,0.1,0.1,0.4,0.2,0.5c0.1,0.5-0.1,0.9-0.2,1.2C84.5,32,83.3,31.8,82.5,31.6z M82.3,27.9
		c-0.3-0.3-0.6-0.4-0.9-0.6c0.1,0.6,0.3,1.4,0.4,2.1c0.3,0.1,0.5,0.3,0.8,0.4c0.4,0.1,0.9,0.3,1.3,0.1c0.1,0,0.2,0,0.3,0h0.1
		c0,0,0-0.1-0.1-0.1c-0.2-0.4-0.5-0.6-0.8-0.9C83.1,28.5,82.7,28.3,82.3,27.9z M82,36.4C82,36.5,82,36.5,82,36.4
		c0.1,0,0.1,0,0.2-0.1c0.2-0.5,0.1-1.2,0-1.8c0-0.1-0.1-0.5-0.1-0.5v0.3c0,0.1,0,0.3,0,0.4C82.2,35.2,82.2,35.9,82,36.4z M82.1,31.1
		L82.1,31.1C82.2,31.2,82.2,31.2,82.1,31.1c0.6,0.3,1.1,0.4,1.6,0.3c0.1,0,0.4-0.1,0.5-0.1h-0.3c-0.4,0.1-0.9,0-1.2,0
		C82.5,31.4,82.3,31.2,82.1,31.1z"/>
	<path class="st0" d="M92,36.5c0.4-0.3,0-1.4-0.1-1.8c-0.4-1.5-1-2.8-1.7-4c0.5,0.9,1.8,4.1,1.8,5.1c0,0.5-0.2,1-0.6,1
		c-0.2,0-0.5-0.3-0.6-0.5c-0.1-0.1-0.1-0.4-0.1-0.5c-0.5-1.4-1.2-2.6-1.9-3.7c-0.3-0.5-0.6-1-1-1.4c-0.1,0-0.1,0.1-0.2,0.1
		C87.6,31,87.5,31,87.4,31c0.1,1,0.1,2.1,0.2,3.1c0,0.4,0.1,0.8,0.2,1.2c0.1,0.4,0.2,0.8,0.2,1.2c0,0.1,0,0.4-0.1,0.4
		c-0.3,0.4-0.7,0.5-1.1,0.3c-0.3,0-0.6-0.3-0.7-0.6c-0.2-0.5-0.2-1-0.2-1.7c-0.1-1.3-0.2-2.6-0.3-3.7c-0.1-1.3-0.1-2.6-0.1-3.7
		c0-0.4,0-0.6,0-1c0-0.4,0-0.8,0.3-0.9c0-0.1,0-0.1,0.1-0.3c0.4-0.9,1.4-0.3,1.2,0.6C87,26.1,87,26.5,87,27v1.7l0.1-0.1
		c0.1-0.8,0.1-1.5,0.2-2.3l0,0v0.1c0,0.6,0,1.3,0.1,2.1c1.1-0.6,2.2-1.5,3.3-2.4c0.2-0.1,0.5-0.5,0.8-0.4c0.2,0.1,0.3,0.4,0.3,0.6
		l0,0c0.1-0.1,0.3,0,0.2,0.3c-0.5,1.2-1.3,1.9-2,2.6c-0.1,0.1-0.2,0.1-0.3,0.3c0.1,0.1,0.1,0.1,0.2,0.3c0-0.1,0.1-0.3,0.2-0.1
		c0.8,1,1.4,2.3,1.9,3.7c0.2,0.6,0.4,1.4,0.5,2.1C92.3,35.9,92.3,36.5,92,36.5C92,36.6,92,36.5,92,36.5z"/>
	<path class="st0" d="M98.2,29.6c0,0.1-0.1,0.1-0.1,0.3c0.1,0.4,0.2,0.9-0.1,1.3c0,0,0,0-0.1,0c0,0.1,0,0.3-0.1,0.3
		c-0.1,0.1-0.3,0.3-0.5,0.3c-0.1,0.3-0.2,0.5-0.3,0.8c-0.4,0.9-0.7,1.9-1.1,3c-0.2,0.5-0.3,1-0.5,1.4c-0.1,0.3-0.3,0.5-0.5,0.6
		c0,0-0.1,0-0.1-0.1c-0.4,0.3-1-0.1-0.9-1c0.1-0.5,0.3-1,0.5-1.5c0.1-0.4,0.2-0.6,0.3-1l-0.1-0.1c-0.1,0.3-0.2,0.6-0.3,1
		c-0.2,0.5-0.4,1-0.5,1.5c0-0.3,0-0.5,0-0.8c0.2-0.8,0.5-1.5,0.7-2.3c0-0.1,0-0.4,0.1-0.5c0.1-0.3,0.2-0.4,0.3-0.6c0,0,0,0,0-0.1
		c0.2-0.5,0.4-1,0.6-1.4c-0.2-0.1-0.4-0.3-0.5-0.4c-0.5-0.4-1-0.9-1.5-1.3l-0.1-0.1c-0.1-0.1-0.2-0.1-0.4-0.3
		c-0.1-0.1-0.2-0.1-0.3-0.3v-0.1c0,0,0,0-0.1,0c-0.3-0.3-0.8-0.6-0.7-1.3c0-0.1,0-0.1,0.1-0.3c-0.2-0.3,0-0.9,0.2-1
		c0.1,0,0.1,0,0.1,0h0.1c0.2,0,0.5,0.1,0.7,0.3c0.4,0.3,0.9,0.5,1.3,0.8c0.7,0.5,1.3,0.9,1.9,1.5c0.1-0.3,0.2-0.5,0.3-0.8
		c0.2-0.4,0.4-0.8,0.6-1.3c0.2-0.4,0.4-0.8,0.6-1.2h0.1c0.1,0,0.2,0.1,0.1,0.3c-0.4,0.9-0.8,1.7-1.2,2.6c-0.1,0.1-0.1,0.3-0.2,0.4
		l0,0l0.1,0.1l0.6-1.3c0.3-0.8,0.6-1.4,1.1-2.1c0.1-0.1,0.1-0.1,0.2-0.1c0.2-0.1,0.6,0,0.8,0.3c0.2,0.4,0.3,0.8,0.1,1.2
		c0,0.1,0,0.1,0,0.3C99.2,27.8,98.7,28.7,98.2,29.6z"/>
	<path class="st0" d="M104.9,32.8h-1c-0.2,1-0.3,2.1-0.4,3.2c0,0.3-0.2,0.3-0.2,0c0.1-1,0.2-2.2,0.4-3.2h-0.1
		c-0.2,0.9-0.4,2.7-0.4,2.7l-0.1,0.8c-0.1,1.5-1.6,1.4-1.5-0.3c0.1-1,0.2-2.1,0.4-3.1c-0.1,0-0.2,0-0.3,0v-0.1
		c-0.8-0.3-0.8-2.2,0.7-2.6c0.2-1.2,0.4-2.3,0.7-3.5c0.2-0.6,0.5-1.8,1.1-1.8c0.2,0,0.5,0.1,0.6,0.5c0.4,0,0.6,0.4,0.7,0.9
		c0,0.6,0.1,1.4,0.1,2.1l0,0c0-0.6,0-1.2,0.1-1.8c0-0.1,0.1,2.4,0.2,3.6c0.9,0.1,1.1,1.8,0.4,2.4c0.2,1,0.4,2.4,0.5,3.6
		c0.1,1.5-0.8,1.7-1.1,0.4C105.5,36.4,105,33.3,104.9,32.8z M104.6,30.3c-0.1-0.4-0.1-1.9-0.1-2.4c-0.1,0.5-0.3,1.7-0.4,2.4
		C104.3,30.3,104.5,30.3,104.6,30.3z"/>
	<path class="st0" d="M113.7,31.6c0,0.4-0.3,0.6-0.6,0.6c0,0.9-0.1,1.8-0.1,2.7c0,0.5-0.1,0.9-0.1,1.3c0,0.4-0.1,1-0.4,1.3l0,0
		c0,0.1-0.1,0.1-0.2,0.3c-0.2,0.3-0.5,0.1-0.6-0.1c-0.1-0.1-0.1-0.5-0.2-0.8c0-0.8-0.1-1.4-0.1-2.2c0-0.6,0-1.4,0-2.1
		c0-0.3,0-0.5,0-0.6c-0.1,0-0.2,0-0.3,0c-0.5,0-1,0-1.5,0c0,0.5,0,1,0,1.5c0,0.6,0,1.3-0.1,1.8l0,0c0,0.1,0,0.3,0,0.5
		c0,0.3-0.1,0.8-0.2,1c-0.3,0.5-0.8,0.5-1.1-0.1c0-0.1-0.1-0.1-0.1-0.3c-0.1,0-0.2-0.1-0.2-0.3c-0.1-1.4-0.1-2.7-0.1-4.1
		c0,0-0.1,0-0.1,0.1c-0.4,0.3-0.9-0.5-0.6-1.2c0.1-0.1,0.1-0.3,0.2-0.3c0.1-0.3,0.3-0.4,0.5-0.5c0-0.8,0-1.5-0.1-2.2
		c0-0.9-0.1-1.8,0-2.6l0,0c0.1,0.9,0.2,1.8,0.2,2.7c0.1,0.6,0.1,1.4,0.1,2.1l0,0l0,0c0-1.4,0-2.8-0.2-4.2c0-0.4,0.2-0.8,0.5-0.9
		c0.3,0,0.6,0.3,0.6,0.6l0,0c0.1,0,0.1,0,0.1,0c0.1,0.1,0.2,0.4,0.2,0.6s0,0.6,0,0.9c0,0.9,0.1,1.7,0.1,2.6l0,0
		c0.5-0.1,0.9-0.1,1.4-0.3c0.1,0,0.3,0,0.4-0.1c0-0.8-0.1-1.5-0.1-2.3c-0.1-0.6-0.2-1.4,0.3-1.8c0.4-0.4,0.9-0.4,1.2,0.3
		c0.2,0.5,0.2,1.4,0.2,2.1v0.1c0,0.4,0,0.9,0,1.3c0,0.1,0,0.3,0,0.4c0.1,0,0.2,0.1,0.3,0.1C114,30.1,114,31,113.7,31.6
		C113.7,31.5,113.7,31.5,113.7,31.6z M109.9,31.5C109.8,31.5,109.8,31.5,109.9,31.5C109.8,31.6,109.8,31.6,109.9,31.5
		c0.4,0,0.9,0,1.4,0c0.1,0,0.2,0,0.3,0c0,0,0,0,0-0.1c-0.4,0-0.9,0-1.3,0C110.1,31.4,110,31.5,109.9,31.5z"/>
	<path class="st0" d="M120.6,26.6c0,0.4-0.1,0.6-0.3,0.9c-0.1,0-0.1,0.1-0.2,0.1l-0.1,0.1c-0.7,0.1-1.3,0.4-2,0.5c0,0.8,0,1.7,0,2.4
		c0,1.2,0,2.2,0,3.3c0,0.6,0,1.3,0.1,1.9c0,0.4-0.1,0.9-0.3,1.2l0,0c0-0.3,0-0.5,0-0.8c0-0.1,0-0.5,0-0.6c-0.1,0.4-0.1,0.9-0.2,1.2
		c-0.1,0.4-0.4,0.6-0.7,0.5c-0.5-0.3-0.7-1-0.7-1.8c0-0.9,0-1.9,0-2.8c0-0.9,0.1-1.9,0.1-2.8v-0.8c0-0.3,0-0.4,0-0.6
		c-0.2,0-0.3,0-0.5,0c-0.4,0-0.7,0-1,0c-0.3,0-0.6-0.1-0.8-0.3c-0.2-0.1-0.3-0.4-0.4-0.8c-0.3-0.3-0.4-0.6-0.3-1
		c0.1-0.4,0.3-0.8,0.6-0.6c0.7,0.1,1.4,0.1,2,0.1l0,0c-0.7,0-1.4-0.1-2-0.4v-0.1c1.8,0.1,3.5,0.1,5.3-0.1c0.1,0,0.3,0,0.4-0.1
		c0.1,0,0.1,0,0.2,0c0.2,0,0.4,0,0.6-0.1c0.1,0,0.2,0.3,0,0.4h-0.1c0,0,0.1,0,0.1,0.1c0.3,0.3,0.3,0.9,0,1.2
		C120.6,26.5,120.6,26.6,120.6,26.6z M115.8,27.9c-0.5-0.1-1-0.3-1.5-0.4c0.2,0.3,0.5,0.4,0.9,0.4C115.3,27.9,115.6,27.9,115.8,27.9
		z"/>
	<path class="st0" d="M120.4,36.8c0,0,0-0.1-0.1-0.4c0-0.1,0-0.3,0-0.5c0-3.2,0.3-6.6,0.7-9.8c0-0.1,0.2-0.1,0.3,0
		c0.1,0.3-0.1,0.8-0.1,1c-0.1,0.8-0.2,1.5-0.3,2.3c-0.2,1.5-0.3,3.1-0.4,4.6C120.5,35,120.4,35.9,120.4,36.8L120.4,36.8z M126,32.4
		c0,1.5-0.1,3.1-0.1,4.6c-0.1,0.1-0.2,0.3-0.4,0.4c-0.3,0.1-0.6,0-0.7-0.4c0,0,0,0-0.1,0c-0.2,0-0.3-0.3-0.3-0.5
		c-0.1-0.4,0-0.8,0-1.2c0-0.6,0-1.3,0-1.9c0-1.4,0-2.7,0-4.1c-0.1,0.1-0.1,0.3-0.2,0.4c-0.2,0.4-1.5,3.7-2,5
		c-0.1,0.3-0.2,0.4-0.3,0.6c0,0.3-0.1,0.4-0.1,0.6c-0.1,0.5-0.1,1-0.5,1.3c-0.1,0-0.2,0.1-0.3,0c-0.2,0-0.5-0.3-0.6-0.5
		c0.1-2.3,0.2-4.5,0.5-6.8c0.1-1.2,0.2-2.2,0.5-3.3c0.1-0.4,0.1-0.6,0.2-1l0.1-0.1c0.2-0.3,0.6-0.3,0.8,0.1l0,0
		c0.1,0.1,0.2,0.3,0.2,0.4c0.1,0.4,0,0.8,0,1c-0.1,0.6-0.2,1.3-0.3,1.9c-0.1,0.6-0.2,1.3-0.2,1.9c0,0.3-0.1,0.6-0.1,0.9
		c0-0.3,0.9-2.6,1.1-3c0.4-0.9,0.7-1.8,1.2-2.6c0.2-0.5,1-1.5,1.4-0.8c0.1,0.1,0.1,0.3,0.1,0.4l0,0c0.1,0,0.2,0.1,0.2,0.1
		c0,0.8,0,1.5,0,2.4C126,30,126,31.2,126,32.4z M124.6,34.3c0,0.3,0,0.5,0,0.8c0,0.4,0,0.8-0.1,1c0,0.1,0,0.4,0.1,0.6
		c-0.1-0.4,0-0.8,0.1-1.2c0,0,0,0,0-0.1C124.7,35.2,124.7,34.7,124.6,34.3C124.7,34.3,124.7,34.3,124.6,34.3L124.6,34.3z"/>
	<path class="st0" d="M132.3,37.2c-0.5,0-1.1,0-1.6,0c-0.5,0-1.1,0-1.7,0c-0.1,0-0.3,0-0.4,0c-0.4,0-0.8,0.1-1.1,0.1s-0.6,0-0.7-0.4
		c-0.1-0.3,0-0.5,0.1-0.6c0-0.1,0.1-0.3,0.2-0.4c-0.1-0.1-0.1-0.4-0.1-0.5c0-1.3,0-2.6-0.1-3.7c-0.2-0.3-0.4-0.6-0.4-1.2
		c0-0.4,0-0.8,0.2-1l0.1-0.1c-0.1-0.6-0.1-1.3-0.2-1.9l0,0c0-0.3,0.1-0.5,0.2-0.8l-0.1-0.1c-0.1,0,0-0.1,0-0.1c0.1,0,0.2,0,0.3,0.1
		l0,0c0.2-0.1,0.4,0,0.6,0.1c0.1,0.1,1.1,0.1,1.4,0.1c0.9,0,1.7-0.1,2.4-0.6c0.4-0.3,1-0.6,1.3,0c0.2,0.3,0.2,0.5,0.2,0.9
		c0,0.3-0.2,0.6-0.4,0.8c0,0,0,0-0.1,0.1c0,0.1,0,0.1-0.1,0.3c-1,0.4-1.9,0.8-2.8,0.8c-0.5,0-1,0-1.4-0.1c0,0,0,0-0.1,0
		c0,0.3,0.1,0.6,0.1,0.9c0.1,0,0.2,0,0.4,0.1c0.3,0.1,0.5,0.3,0.8,0.3c0-0.1,0.2-0.1,0.3,0c0.5,0.3,1.1,0.6,1.5,1
		c0.3,0.3,0.5,0.5,0.8,0.9c0.2,0.3,0.4,0.6,0.6,0.9c0.3,0.4,0.6,1,0.8,1.8c0.2,0.6,0.3,1.4,0.1,2.1C133.2,37,132.7,37.2,132.3,37.2z
		 M129.9,32.5c-0.1-0.1-1.4-0.8-1.4-0.8v0.1c0,0-0.1,0.1-0.1,0.3c0,0.9,0,1.9,0.1,2.8c0,0.1,0,0.3,0,0.4c0.1,0,0.1,0,0.2,0
		c0.7-0.1,1.3-0.1,2-0.1c0.1,0,1.3,0,1.3,0.1v-0.1c-0.1-0.6-0.5-1-0.8-1.4C130.8,33.3,130.3,32.9,129.9,32.5z"/>
	<path class="st0" d="M137.7,35.9c-0.1,0.3-0.3,0.5-0.5,0.8c-0.2,0.4-0.5,0.6-0.9,0.6c-0.1,0-0.3,0-0.4,0c-0.4,0.1-0.9-0.1-1.3-0.5
		c-0.6-0.8-0.9-1.8-1-3c-0.3-2.3,0-4.8,0.8-6.8l0,0c0.1-0.5,0.3-0.9,0.5-1.3l0,0c-0.1,0.1-0.2,0.4-0.2,0.5c-0.1,0.3-0.1,0.4-0.2,0.6
		h0.1c0.2-0.6,0.5-1.3,0.9-1.4c0.2-0.1,0.3-0.1,0.5-0.1s0.4,0,0.6,0.1c0.2,0.1,0.3,0.5,0.4,0.6c0.1,0,0.2,0,0.3,0.1
		c0.2,0.5,0.4,1,0.5,1.5s0.2,1.2,0.3,1.7c0.1,1.2,0.2,2.3,0.1,3.5C138.3,33.8,138.2,35,137.7,35.9z M136.4,27.5
		c0-0.1-0.1-0.3-0.1-0.4c0,0,0,0-0.1,0c0,0,0,0-0.1,0c-0.1,0.3-0.1,0.4-0.2,0.6c-0.1,0.6-0.3,1.3-0.3,2.1c-0.1,1.4-0.1,2.8,0.1,4.1
		c0,0.3,0,0.4-0.1,0.5c-0.4-2.4-0.3-5.1,0.4-7.3c-0.1,0.1-0.1,0.3-0.2,0.4c-0.2,0.6-0.4,1.4-0.5,2.2c0,0,0,0,0,0.1
		c-0.1,0.4-0.1,0.9-0.1,1.3c0,1.3,0.1,2.6,0.3,3.7l-0.1,0.1c-0.2,0-0.3,0-0.5-0.1l0,0c0.2,0.6,0.7,1.4,1.2,1.2
		c0.2-0.1,0.3-0.3,0.4-0.4c0.1-0.3,0.1-0.4,0.2-0.6c0.2-0.9,0.3-1.8,0.3-2.7c-0.1-0.9-0.1-1.8-0.2-2.8c0-0.3-0.1-0.5-0.1-0.8
		C136.5,28.2,136.5,27.8,136.4,27.5z"/>
	<path class="st0" d="M145.4,26.6c0,0.4-0.1,0.6-0.3,0.9c-0.1,0-0.1,0.1-0.2,0.1l-0.1,0.1c-0.7,0.1-1.3,0.4-2,0.5c0,0.8,0,1.7,0,2.4
		c0,1.2,0,2.2,0,3.3c0,0.6,0,1.3,0.1,1.9c0,0.4-0.1,0.9-0.3,1.2l0,0c0-0.3,0-0.5,0-0.8c0-0.1,0-0.5,0-0.6c-0.1,0.4-0.1,0.9-0.2,1.2
		c-0.1,0.4-0.4,0.6-0.7,0.5c-0.5-0.3-0.7-1-0.7-1.8c0-0.9,0-1.9,0-2.8c0-0.9,0.1-1.9,0.1-2.8v-0.8c0-0.3,0-0.4,0-0.6
		c-0.2,0-0.3,0-0.5,0c-0.4,0-0.7,0-1,0s-0.6-0.1-0.8-0.3c-0.2-0.1-0.3-0.4-0.4-0.8c-0.3-0.3-0.4-0.6-0.3-1c0.1-0.4,0.3-0.8,0.6-0.6
		c0.7,0.1,1.4,0.1,2,0.1l0,0c-0.7,0-1.4-0.1-2-0.4v-0.1c1.8,0.1,3.5,0.1,5.3-0.1c0.1,0,0.3,0,0.4-0.1c0.1,0,0.1,0,0.2,0
		c0.2,0,0.4,0,0.6-0.1c0.1,0,0.2,0.3,0,0.4h-0.1c0,0,0.1,0,0.1,0.1c0.3,0.3,0.3,0.9,0,1.2C145.5,26.5,145.5,26.6,145.4,26.6z
		 M140.5,27.9c-0.5-0.1-1-0.3-1.5-0.4c0.2,0.3,0.5,0.4,0.9,0.4C140,27.9,140.3,27.9,140.5,27.9z"/>
</g>
<g>
	<g>
		<g>
			<g>
				<path class="st1" d="M123.4,5.5c0-0.4-1.7-0.8-3.7-0.9C121.5,4.8,117.1,5.9,123.4,5.5z"/>
				<path class="st1" d="M33.6,4.1l2.6-0.2c-2.2-0.4-6.1-0.6-7.9-1C25.3,3.5,35.5,3.2,33.6,4.1z"/>
				<path class="st1" d="M2.2,44.4c0.3,0.3,0.6,0,0.9-0.8c-0.1-0.7-0.2-1.3-0.3-1.8C2.6,42.2,2.4,43.3,2.2,44.4z"/>
				<path class="st1" d="M55.2,4.3c0.4,0,0.7,0.1,1.2,0.1c0.1,0,0.2-0.1,0.3-0.1C56.2,4.3,55.7,4.3,55.2,4.3z"/>
				<path class="st1" d="M40.3,3.6l1-0.1l-0.6-0.3C40.2,3.4,40.1,3.5,40.3,3.6z"/>
				<path class="st1" d="M2,21.2l-0.2,0.7c0.1,0.4,0.1,0.6,0.2,0.7C1.9,22.1,1.9,21.7,2,21.2z"/>
				<path class="st1" d="M59.5,4.6c-0.1,0-0.2,0.1-0.3,0.1c0.4,0,0.9,0.1,1.4,0.1C60.3,4.7,59.9,4.7,59.5,4.6z"/>
				<path class="st1" d="M2.6,23.7c-0.1-0.2-0.2-0.5-0.3-0.7c0,0.5-0.1,1-0.1,1.5C2.4,24.3,2.5,24,2.6,23.7z"/>
				<path class="st1" d="M62.6,5c-0.5-0.1-1-0.2-1.3-0.3l-0.2,0.2C61.7,4.9,62.2,4.9,62.6,5z"/>
				<path class="st1" d="M1.6,18C1.6,18,1.6,18,1.6,18c0,0.5,0,1,0,1.4c0.3-0.6,0.5-1.5,0.7-2.4C2.1,17.4,1.9,17.4,1.6,18z"/>
				<path class="st1" d="M76.3,4c0.4,0.1,1.2,0.2,1.8,0.4c0.7,0.1,1.4,0.1,2.2,0.2c-0.4-0.1-0.6-0.3-0.6-0.6c0.4,0,0.9,0,1.4,0.1
					l-2.3-0.6c-0.5,0-0.9,0-1.4,0C76.4,3.7,76.1,3.9,76.3,4z"/>
				<path class="st1" d="M76,3.9c0.2,0,0.3-0.1,0.4-0.2c-0.1,0-0.2,0-0.3,0.1C76,3.8,76,3.8,76,3.9z"/>
				<path class="st1" d="M66.5,2.4l-1.2,0.5c1.5-0.1,2.2-0.3,3.2-0.5C68.1,2.3,67.4,2.3,66.5,2.4z"/>
				<path class="st1" d="M2.9,5.6c0,0,0-0.1,0-0.1C2.3,6.1,2,7,2,8.1c0.1-0.3,0.3-0.4,0.6-0.2c0-0.2,0.1-0.4,0.1-0.6
					c0,0,0.1-0.8,0.5-1.6c0.2-0.4,0.5-0.7,0.7-0.9c0.2-0.2,0.4-0.3,0.4-0.3c0.1-0.1,0.2-0.2,0.3-0.2C4,4.5,3.5,4.9,3,5.3
					C3,5.4,3,5.5,2.9,5.6z"/>
				<path class="st1" d="M14,1.7l1.1,0.4C15.7,2,16,1.8,14,1.7z"/>
				<path class="st1" d="M15.8,2.4l-0.7-0.2C14.5,2.3,13.7,2.5,15.8,2.4z"/>
				<path class="st1" d="M11.4,4.3c0.3-0.1,0.6-0.1,1-0.1l-1.2,0C11.3,4.2,11.4,4.2,11.4,4.3z"/>
				<path class="st1" d="M2.9,7.7L2.8,8.1c0-0.1,0.1-0.2,0.1-0.2L2.9,7.7z"/>
				<path class="st1" d="M68.4,54.6c-0.1,0.1-0.1,0.2,0,0.3c1,0,2,0.1,3,0.1c0,0-0.1,0-0.2,0C70.5,54.8,70.1,54.5,68.4,54.6z"/>
				<path class="st1" d="M1.6,11.2C1.6,11.2,1.6,11.2,1.6,11.2c0,0.5,0,0.9,0,1.3c0,0,0,0,0,0C1.6,12,1.6,11.6,1.6,11.2z"/>
				<path class="st0" d="M132.9,55.7c0.5,0,1.1,0,1.6,0.1C134,55.7,133.5,55.6,132.9,55.7z"/>
				<path class="st0" d="M138.6,57.7c3.9,0.1,3.7-0.9,7.7-0.2l-0.1-0.8l2.2,0.3c-0.6-0.3,1.3-0.6,0.2-1c1.2,0.9-8-0.4-4.6,0.8
					c-2.5-0.9-5.6-1-9.5-1.2c1.3,0.2,1.9,0.7,2.9,1.1l1.3-0.8C142.8,56.2,141.8,57.4,138.6,57.7z"/>
				<path class="st0" d="M1.4,19.9c0.1-0.1,0.1-0.3,0.2-0.5c0-0.4,0-0.9,0-1.4C1.6,18.6,1.5,19.2,1.4,19.9z"/>
				<path class="st0" d="M2.9,11.2L2.8,14l0.3-2.3C3,11.6,3,11.4,2.9,11.2z"/>
				<path class="st0" d="M4.9,4.2c-0.1,0-0.2,0.1-0.3,0.1C4.5,4.4,4.4,4.5,4.3,4.6C4.3,4.5,4.9,4.2,4.9,4.2z"/>
				<path class="st0" d="M6,3.9c0,0-0.3,0.7-0.2,0.7c0.2,0,0.5,0.1,0.7,0.2c0.1-0.2,0.4-0.4,0.1-0.6c0,0,0.4,0,0.7,0c0.5,0,1,0,1,0
					L7.6,4C7.1,3.9,6.6,3.9,6,3.9z"/>
				<path class="st0" d="M3.4,11.7l0-0.4c0,0.1,0,0.1-0.1,0.2L3.4,11.7z"/>
				<path class="st0" d="M2.7,7.3c0,0.2-0.1,0.4-0.1,0.6C2.3,7.7,2.1,7.8,2,8.1c-0.1,1-0.2,2-0.3,3.1c0,0.4,0,0.8,0,1.3
					c0.2-0.5,0.4-1.2,0.6-2c0.1-0.4,0.2-0.8,0.3-1.2c0.1-0.4,0.2-0.9,0.3-1.2l0.1-0.4l0,0.2C3,7.7,3,7.6,3.1,7.4c0,0,0,0.1,0.1,0.4
					c0,0.1,0,0.2,0.1,0.4c0,0.1,0.1,0.2,0.1,0.5c0.1,0.8,0.2,1.7,0.2,1.7s0.1-0.9,0.2-1.8c0.1-0.6,0.2-1,0.2-1c0,0-0.2-0.2-0.4-0.4
					C3.4,6.9,3.2,6.6,3.2,6.6c0.1-0.3,0.2-0.5,0.4-0.7c0,0-0.3,0.4-0.6,0.8c-0.2,0.5-0.3,1-0.3,1L2.7,7.3z"/>
				<path class="st0" d="M7.3,3.7c0,0-0.1-0.1-0.2-0.2C6.9,3.4,6.8,3.3,6.8,3.3C6.3,3.4,5.8,3.6,5.3,3.8C6,3.7,6.7,3.7,7.3,3.7z"/>
				<path class="st0" d="M1.6,18C1.6,18,1.6,18,1.6,18C1.6,18,1.6,18,1.6,18C1.6,18,1.6,18,1.6,18z"/>
				<path class="st0" d="M1.9,14.1l-0.3,0.7c0,0.6,0,1.3,0,2C1.7,16.3,1.8,15.6,1.9,14.1z"/>
				<path class="st0" d="M6.9,5.2C6.7,5.1,6.6,5,6.4,4.9C6.4,5,6.4,5.1,6.9,5.2z"/>
				<path class="st0" d="M2.9,15.7c-0.2,0.7-0.4,1.1-0.6,1.3c-0.2,1-0.5,1.8-0.7,2.4c0,1.4-0.1,2.6-0.3,3.5l0.4-1l0-0.2
					c0,0.1,0,0.1,0,0.2L2,21.2c0,0.5,0,1-0.1,1.3c0.2,0.4,0.4-0.9,0.6-1.8c0.1-1.1,0.1-2.2,0.3-3.2c0.1,0.2,0.2,0.4,0.3,0.5L3,16
					C3,15.8,2.9,15.7,2.9,15.7z"/>
				<path class="st0" d="M3,15.5L3,16C3,16.3,3,17,3,18.1c0.3,0.6,0.4,0.9,0.8-0.7l-0.5-4.1c-0.2,0.9-0.5,1.8-0.7,2.7
					c0.1-0.4,0.3-0.7,0.3-0.4C2.9,15.6,3,15.6,3,15.5z"/>
				<path class="st0" d="M2.3,24.4c0-0.5,0.1-1,0.1-1.5c-0.2-0.7-0.4-0.9-0.5,2l-0.1-1.5c-0.1,1.1-0.3,1.4-0.5,2.9c0,0,0.1,0,0.1,0
					c0.4-1.8,0.8-1.3,1.3-2.4c0-0.1-0.1-0.1-0.1-0.2C2.5,24,2.4,24.3,2.3,24.4z"/>
				<path class="st0" d="M3.1,23.2L3.2,26C3.2,24.5,3.2,23.6,3.1,23.2z"/>
				<path class="st0" d="M3.1,23.2l0-0.5c0,0.1,0,0.1,0,0.2c0,0,0,0,0,0.1C3.1,23,3.1,23,3.1,23.2z"/>
				<path class="st0" d="M1.9,33C2,31.7,2,31,2.1,30.7c-0.1-0.2-0.2-0.3-0.3-0.4L1.9,33z"/>
				<path class="st0" d="M3.2,31c0-0.3,0.1-0.7,0.1-1.2l-0.5,0.4C3,30.6,3.1,30.8,3.2,31z"/>
				<path class="st0" d="M2.8,27.7c-0.2,0.2-0.3,0.8-0.4,1.4c0.1,0.2,0.1,0.4,0.2,0.6C2.7,29,2.7,28.1,2.8,27.7z"/>
				<path class="st0" d="M2.8,4.4C2.4,4.5,1.9,4.9,1.8,4.9c-0.1,0,0-0.1,0.1-0.4c0.2-0.3,0.5-0.7,1.1-1.2c0.1-0.1,0.2-0.2,0.2-0.3
					c-0.2,0-0.3,0-0.5,0C2.2,3.6,1.6,4.6,1.5,4.2c0,0.5-0.1,1-0.3,1.8C1.1,6.7,1,7.5,0.7,8.7c0.4-0.3,0.6-1,0.7-1.8
					C1.6,6.2,1.9,5.4,2.3,5C2.4,4.7,2.6,4.5,2.8,4.4z"/>
				<path class="st0" d="M3,5.3L2.9,5.5c0,0,0,0.1,0,0.1C3,5.5,3,5.4,3,5.3z"/>
				<path class="st0" d="M2.9,3c0.2-0.1,0.4-0.2,0.6-0.3C3.7,2.5,3.3,2.7,2.9,3z"/>
				<path class="st2" d="M11,2.4l-0.7-0.3C9.6,2.3,8.6,2.5,11,2.4z"/>
				<path class="st2" d="M9,1.7l1.2,0.4C10.8,2,11.1,1.8,9,1.7z"/>
				<path class="st0" d="M7.6,2.7l0.6-0.1L6.4,2.2C6.5,2.3,7.3,2.5,7.6,2.7z"/>
				<path class="st0" d="M6.1,2.5l0.1,0.4c0,0,0.2,0,0.4-0.1c0.2,0,0.4,0,0.4,0C7.1,2.6,6.7,2.5,6.1,2.5z"/>
				<path class="st2" d="M4.1,20.1C4.2,19,4.7,19,4.8,16C4.5,19,4.1,16.6,4.1,20.1z"/>
				<path class="st0" d="M4.4,7.3L4.3,7.2c0,0-0.1,0.1-0.1,0.3C4.2,7.7,4.1,8,4.1,8.3c0,1.1-0.1,2.2-0.1,2.2s0.1-1.1,0.2-2.2
					C4.3,7.8,4.4,7.3,4.4,7.3z"/>
				<path class="st0" d="M34.8,4.7c0.2-0.1,0-0.3-0.3-0.4C34.2,4.4,34.2,4.6,34.8,4.7z"/>
				<path class="st0" d="M29.6,2.6c-0.8-0.1-1.1-0.1-1.3,0l0.6,0.1C29.1,2.7,29.3,2.7,29.6,2.6z"/>
				<path class="st0" d="M40.3,3.6c-0.2-0.1-0.1-0.2,0.5-0.4l-0.1,0c-1.2,0.1-2.8-0.1-3.4-0.3l1.5,0.7l-2.1,0.2c0,0,0,0-0.1,0.1
					L40.3,3.6z"/>
				<path class="st0" d="M33.6,4.1c1.9-0.9-8.3-0.6-5.3-1.2c-0.1,0-0.2-0.1-0.3-0.1c-0.2,0.1-0.3,0.3-1.1,0.4l-3.4-0.7
					c-0.2,0.8,9.1,1.1,10.9,1.9c0.5-0.2,1.6-0.3,2.6-0.3c-0.2-0.1-0.5-0.1-0.9-0.2L33.6,4.1z"/>
				<path class="st0" d="M37.7,4.1c0.6,0,1.1,0.2,1.2,0.4c1.7-0.1,2.3-0.1,2.5-0.2C41.1,3.8,38.7,3.9,37.7,4.1z"/>
				<path class="st0" d="M37.3,3L37,2.8C37,2.9,37.2,2.9,37.3,3z"/>
				<path class="st0" d="M35.7,2.3c0.4-0.1,0.5-0.2,0.2-0.2c-0.5,0-0.9,0-1.3,0.1C34.9,2.3,35.3,2.3,35.7,2.3z"/>
				<path class="st0" d="M32.9,2.6c-0.3,0.1-0.6,0.1-0.8,0.1l0.3,0.2c1,0,1.9-0.2,2.6-0.3l-0.6-0.3c-1.4,0.1-2.6,0.2-3.4-0.1
					l0.8,0.4C32,2.5,32.3,2.5,32.9,2.6z"/>
				<path class="st0" d="M12,5.5c-0.7,0-1.1,0-1.1-0.1C11.2,5.4,11.6,5.4,12,5.5l3.3-0.1c-0.8-0.2-1.6-0.5-2.8-0.8
					c0.5,0.1,1,0.1,1.4,0c-0.4-0.1-0.6-0.2-0.6-0.4l0.8,0c-0.4-0.1-0.7-0.1-1-0.1l-0.7,0c-0.4,0-0.7,0.1-1,0.1
					c0,0.1-0.3,0.3-0.5,0.4c0.2,0.1,0.4,0.2,0.6,0.3c-0.7-0.1-0.8-0.2-0.6-0.3l-0.4-0.2C9.7,4.7,8.8,5,7.4,4.8
					c2.8,0.8,3.7,1.1,7,1.8C14.7,6.1,16,6,17.5,5.9c-0.7-0.2-1.3-0.3-1.9-0.5C15.5,5.9,13.5,5.6,12,5.5z"/>
				<path class="st2" d="M12,5.5c1.5,0.2,3.4,0.5,3.6,0c-0.1,0-0.1,0-0.2-0.1C14.7,5.4,13.1,5.5,12,5.5z"/>
				<path class="st2" d="M15.4,5.4L15.4,5.4L12,5.5C13.1,5.5,14.7,5.4,15.4,5.4z"/>
				<path class="st2" d="M11,5.4c-0.1,0,0.4,0.1,1.1,0.1C11.6,5.4,11.2,5.4,11,5.4z"/>
				<path class="st2" d="M38,4.7c4.4,0.3-2.1,0.7,2.8,0.8C41.6,5,40.2,4.7,38,4.7z"/>
				<polygon class="st0" points="92.3,4.3 92.8,4.2 90.3,3.3 89.7,3.4 				"/>
				<path class="st0" d="M55.1,3.5c-0.4-0.1-0.7-0.2-0.9-0.3c-1.2-0.4,1.4-1.3-2.9-0.7C53.2,3,51.6,3.5,55.1,3.5z"/>
				<path class="st2" d="M59.8,2.9C58,3,58.9,3.5,60.4,3.8c0.3,0,0.6,0,1,0C60.5,3.5,61.4,3.1,59.8,2.9z"/>
				<path class="st0" d="M88.5,2.2c-0.3,0-0.7,0-1.2,0c0.2,0,0.3,0,0.4,0C88.1,2.3,88.3,2.3,88.5,2.2z"/>
				<path class="st0" d="M98.5,3.7c0.7,0.2,0.5,0.4,2.8,0.5c-0.9-0.2-1.7-0.3-2.5-0.5L98.5,3.7z"/>
				<path class="st0" d="M101.4,4.2c0.6,0,1.2,0,2.1,0c0.4-0.1,0.7-0.1,0.8-0.2C102.9,3.9,101.2,3.7,101.4,4.2z"/>
				<path class="st0" d="M101.8,3l-0.5,0.1c0.1,0,0.1,0,0.2,0C101.5,3.1,101.6,3.1,101.8,3z"/>
				<path class="st0" d="M96.5,3.6c0.6,0.1,1.2,0.1,1.8,0.2l0.2-0.1C98.2,3.6,97.6,3.6,96.5,3.6z"/>
				<path class="st0" d="M77,5.1c1.9-0.2,2.2-0.3,1.9-0.5c-0.7,0-1.4,0-2.2,0C77.2,4.7,77.3,4.9,77,5.1z"/>
				<path class="st0" d="M78.1,4.4c-0.6-0.1-1.4-0.2-1.8-0.4C76.5,4.2,77.2,4.3,78.1,4.4z"/>
				<path class="st0" d="M69.9,3.6c-0.2,0.1,0,0.3,0.4,0.4c1-0.2,2.1-0.5,4.2-0.4C73.1,3.4,71.4,3.2,69.9,3.6z"/>
				<path class="st0" d="M81.2,4.8c-0.2-0.1-0.5-0.1-0.8-0.1C80.6,4.7,80.9,4.8,81.2,4.8z"/>
				<path class="st0" d="M83.4,3c1.7,0.1,3.5,0.3,5.2,0.5c1,0,1.5,0.1,1.8,0.1l1.8-0.4c-0.5,0-1-0.1-1.5-0.1
					c-0.3-0.6,2.9-0.9,4.6-0.3C99,2.3,90.7,2.3,94.8,2c-7.7-0.5,0.9,0.8-8.7,0.9c-1.4-0.2-0.9-0.4,0-0.5C84.7,2.3,83.2,2.5,83.4,3z"
					/>
				<path class="st0" d="M78.2,3.4c-0.3,0.1-0.6,0.1-0.8,0.2c0.5,0,0.9-0.1,1.4,0L78.2,3.4z"/>
				<path class="st0" d="M89.1,5.4l-0.5,0.1L90.8,6c1.2-0.6-1-0.9-3.4-1.2c0,0,0,0,0,0C88.2,5,88.8,5.1,89.1,5.4z"/>
				<path class="st0" d="M95,3.6C95,3.6,95,3.6,95,3.6c0.6,0,1.1,0,1.5,0c-1.2-0.1-2.4-0.2-3.6-0.3C93,3.4,94.2,3.5,95,3.6z"/>
				<path class="st0" d="M82.5,4.5L81,4.1c-0.5,0-0.9-0.1-1.4-0.1c0,0.3,0.3,0.5,0.6,0.6c0.8,0.1,1.5,0.2,2.1,0.3c1.2,0,2.7-0.1,4,0
					c-0.2,0-0.3-0.1-0.5-0.1c0,0,0.1,0,0.1,0c-1.1-0.1-2.1-0.2-2.6-0.4C83.1,4.4,82.8,4.4,82.5,4.5z"/>
				<path class="st0" d="M68.5,2.3c0.1,0,0.3-0.1,0.4-0.1c-0.7-0.1-1.4-0.1-2.2,0l-0.3,0.1C67.4,2.3,68.1,2.3,68.5,2.3z"/>
				<path class="st0" d="M72.3,2.4l1.4-0.6c-1.7,0-2,0.1-2,0.2c0.1,0,0.2,0,0.3,0C71.7,2.3,71.9,2.4,72.3,2.4z"/>
				<path class="st0" d="M90.5,3.5l-0.2,0c-0.5-0.1-1.1-0.1-1.6-0.2c-0.4,0-0.8,0-1.4,0c1,0.3,0.7,0.5-0.1,0.6l2.7,0.7
					c1.6-0.3,6.4-0.4,5.8-0.9c-0.1,0-0.3,0.1-0.6,0.1C90.8,4.1,91.3,3.7,90.5,3.5z"/>
				<path class="st0" d="M75.8,2.7l0.4-0.2c0.7-0.4,1.2-0.4,2.1-0.3c0-0.1,0.1-0.1,0.1-0.2c-2.2,0-3.3,0.2-4.3,0.4
					C74.8,2.5,75.4,2.5,75.8,2.7z"/>
				<path class="st0" d="M76,3.9c0,0,0-0.1,0.1-0.1c0.1,0,0.2,0,0.3-0.1c0,0,0,0,0,0c-0.2,0-0.4,0-0.7,0c-0.6,0.1-1,0.2-1.2,0.3
					C75.1,3.9,75.6,4,76,3.9z"/>
				<path class="st0" d="M79.1,2.8c1.4,0,2.4,0,3.1-0.1c-1.1-0.3-3.1-0.1-3.7-0.2C78.2,2.6,78.3,2.7,79.1,2.8z"/>
				<path class="st0" d="M83.7,2.3c-0.3,0-0.5,0.1-0.8,0.3C83.5,2.5,83.7,2.4,83.7,2.3z"/>
				<path class="st0" d="M66,2.3c-0.2,0-0.3,0-0.4,0.1C65.7,2.4,65.8,2.4,66,2.3C65.9,2.4,66,2.4,66,2.3z"/>
				<path class="st0" d="M69.6,3.5c-0.4,0-0.7-0.1-1.1-0.1c-0.3,0.2-0.6,0.4-0.4,0.5C68.2,3.8,68.5,3.7,69.6,3.5z"/>
				<path class="st0" d="M68.2,4c-0.6,0-1.6-0.1-2.6,0c1.6,0.3,2.6,0.3,3.4,0.2C68.7,4.1,68.4,4,68.2,4z"/>
				<path class="st0" d="M56.7,4.3c0.4-0.1,0.9-0.1,1.5-0.1c-0.9-0.2-1.6-0.3-3-0.3l-0.8,0.3c0.2,0,0.5,0.1,0.8,0.1
					C55.7,4.3,56.2,4.3,56.7,4.3z"/>
				<path class="st0" d="M53.4,4.5c0.2-0.1,0.6-0.1,1.1-0.2c-0.1,0-0.2,0-0.4,0L53.4,4.5z"/>
				<path class="st0" d="M60.9,5.2L61.1,5c-0.1,0-0.1,0-0.2,0C60.9,5.1,61,5.1,60.9,5.2z"/>
				<path class="st0" d="M60.6,4.8c0.2,0,0.4,0,0.6,0l0.2-0.2c-0.6,0-1.1-0.1-1.6-0.2c-0.1,0-0.2,0.1-0.3,0.1
					C59.9,4.7,60.3,4.7,60.6,4.8z"/>
				<path class="st0" d="M65.8,4.6c0.3,0,0.6,0.1,0.8,0.1C66.3,4.7,66,4.7,65.8,4.6z"/>
				<path class="st0" d="M65.8,4.6c-1.6-0.2-3.5-0.3-4.4,0c0.3,0.1,0.7,0.2,1.3,0.3c0.5,0,1,0.1,1.3,0.1c2.8,0.2,6.4,0.2,5.5,0.9
					c2.7-0.8-2.3-0.8-5-1.1C64.8,4.8,65.2,4.6,65.8,4.6z"/>
				<path class="st0" d="M75.8,2.7c0.1-0.1,0.2-0.1,0.3-0.2L75.8,2.7C75.8,2.7,75.8,2.7,75.8,2.7z"/>
				<path class="st0" d="M103.4,2.9c3.1,0.6,4.5,1.1,7,1.5c-0.3-0.6,2.5-0.1,4.1-0.3C111.6,2.8,109.2,3.5,103.4,2.9z"/>
				<path class="st0" d="M118.5,2.9c0-0.1-0.2-0.2-0.6-0.3l2.5,0.1L117,2c4.5,0.9-4.3,0.4-2.6,1C115.2,2.8,118.5,3.2,118.5,2.9
					c-0.4,0-0.9-0.1-1.4-0.2L118.5,2.9z"/>
				<path class="st2" d="M93.5,5c3.6,0.8-0.3-0.1,3.8-0.1C96.2,4.5,94.8,5,93.5,5z"/>
				<path class="st0" d="M129.7,3.1l-2.2-0.2C128.3,3,129.1,3,129.7,3.1z"/>
				<path class="st0" d="M129.7,3.1l2.8,0.3c-0.2-0.1-0.2-0.1-0.2-0.2c-0.3-0.1-0.7-0.1-1-0.2C130.8,3.1,130.3,3.1,129.7,3.1z"/>
				<path class="st2" d="M134.4,5.8c0-0.4-1.9-0.8-4-1C132.3,5.1,127.5,6.2,134.4,5.8z"/>
				<path class="st0" d="M108.2,55c-1.2,0.3,0.3,0.6,1.7,0.9c0.1,0,0.3,0,0.4,0.1l-0.1,0c1,0.3,2,0.5,2,0.8c0.2,0,0.4,0,0.7,0
					C111.8,55.8,111.7,56.2,108.2,55z"/>
				<path class="st2" d="M129.3,55.6l1.7,0.1C130.7,55.6,129.9,55.6,129.3,55.6z"/>
				<path class="st2" d="M89.2,54.9l-0.8-0.2C88.6,54.7,88.9,54.8,89.2,54.9z"/>
				<path class="st0" d="M79.1,55c0,0,0.1,0,0.1,0l0.1-0.4L79.1,55z"/>
				<path class="st0" d="M158.1,52.4c-0.2,0.1-0.4,0.1-0.7-0.1c-0.4-4.3-0.7-9-0.9-13.7c-1.5,3-4.1,6.9-6,6.2c0,1.9,0.1,3.8,0.5,5.9
					l-0.8,0.9c-0.1,1-0.2,2.4-0.2,2.1c-0.1,0.2-0.2,0.4-0.4,0.5c-0.3,0.3-0.7,0.4-1,0.3c-0.6,0.7-0.4,1.5,0.1,2.4
					c0.4,0.8,1.5,1.7,3.1,1.7c1.6,0,3.5-1,4.7-2.5c0.2-0.2,0.3-0.4,0.4-0.6c0.1-0.2,0.2-0.4,0.3-0.7c0.1-0.2,0.2-0.5,0.3-0.7
					c0.1-0.1,0.1-0.2,0.2-0.4l0-0.1l0,0l0,0c0,0,0-0.4,0-0.2l0,0l0,0l0,0l0.1-0.2c0-0.1,0.1-0.2,0.1-0.3c0.1-0.2,0.1-0.3,0.2-0.5
					C158.1,52.5,158.1,52.4,158.1,52.4z"/>
				<path class="st0" d="M150.8,15.5l0.1,0.2c0-1.6,0-3.6,0-5.8c0-0.5,0-1,0-1.6c0-0.3,0-0.6-0.1-0.9c-0.1-0.6-0.5-1.1-0.9-1.5
					c0.2,0.5,0.3,1,0.3,1.4c0,0.2,0,0.5,0,0.7l0,0.2l0,0.3c0,0.3,0,0.6,0,0.9c0,6.9,0.5,15.8,0.4,21.1l-0.2-0.3
					c0.2,1.7,0.2,3.2,0.3,4.7l0.6-0.6C150.2,27.8,151.5,22.9,150.8,15.5z"/>
				<path class="st0" d="M50.2,54.4c0.1,0,0.2,0,0.3,0c-1.3-0.1-2.3-0.2-0.8-0.5c-2.2,0.2-1.3,0.3-2.5,0.7c0.3,0,0.7,0,1-0.1
					C48.8,54.4,49.5,54.4,50.2,54.4z"/>
				<path class="st0" d="M47.1,54.5C47.1,54.5,47.1,54.5,47.1,54.5c0.3,0,0.7,0,1-0.1C47.8,54.5,47.5,54.5,47.1,54.5z"/>
				<path class="st0" d="M50.5,54.3L50.5,54.3c-0.1,0-0.2,0-0.3,0C50.3,54.3,50.4,54.3,50.5,54.3z"/>
				<path class="st0" d="M2.9,41.7c0,0-0.1,0.1-0.1,0.1c0.1,0.5,0.2,1.1,0.3,1.8c-0.3,0.8-0.6,1.1-0.9,0.8c-0.1,0.8-0.3,1.6-0.4,2
					l-0.2,1.9c0.6-0.6,1-1.5,1.5-4.6c0,0,0,0.1,0,0.1c0.1-1.6,0.2-3.3,0.4-4.1c-0.3-0.2-0.6-1-0.9-1.8c-0.1,0.3-0.2,0.4-0.3,0.3
					L2.9,41.7z"/>
				<path class="st0" d="M1.5,34.5c-0.2-0.1-0.4,0.2-0.5,1C1.2,35.7,1.4,35.8,1.5,34.5z"/>
				<path class="st0" d="M0.9,36.4c0.3,1.1,0.5,1.7,0.7,2.1l0.1-1.2L0.9,36.4z"/>
				<path class="st0" d="M1.7,42.7c0-0.1-0.1-0.3-0.1-0.4c0,4.9-1,0.1-1.6,2.3L1.4,46C1.4,44.9,1.5,43.9,1.7,42.7z"/>
				<path class="st0" d="M50.5,54.4l0.2,0.7c3.8,0.4,7.2,0.1,12,0.6l0.1-0.2l0,0c-0.9-0.9-3.7-1-6.5-1.5
					C54.3,54.2,52.4,54.3,50.5,54.4c1,0,2.2,0.1,2.5,0.1L50.5,54.4z"/>
				<path class="st0" d="M47.6,55.8l0.6-0.5l-2.6-0.4c0.7-0.1,1.2-0.3,1.5-0.4c-1.2,0.1-2.3,0.2-3.4,0.2C45.5,55,47,55.2,47.6,55.8z
					"/>
				<path class="st0" d="M85.8,55.6c-1.2,0.5-0.6,1.1,3.1,1.1l-1.6-0.6c3.9,0.2,1.1,0.9,4.4,0.9c0,0,0,0,0,0l0.3,0c0.3,0,0.6,0,1,0
					c0.4-0.7-4.2-1.2-4.1-1.6c-2.2-0.3-4.1-0.5-3.6-1.2c1.9-0.1,2.3,0.2,3.1,0.4c-0.3-0.1-0.3-0.3-0.3-0.4c-5.4-0.4-4.2,1-7.4,0.9
					C81.7,55.3,82.1,55.8,85.8,55.6z"/>
				<path class="st0" d="M57.6,64.2c-0.3,0-0.6,0.1-1,0.1C57,64.3,57.3,64.3,57.6,64.2z"/>
				<path class="st0" d="M54.8,64.9c0.1-0.3,0.4-0.4,0.7-0.5c-0.6,0-1.2,0.1-1.8,0.1C54,64.6,54.3,64.8,54.8,64.9z"/>
				<path class="st0" d="M124.3,56.6c-2.3-0.4-4.3-0.8-7.8-0.6c-0.1,0-0.1,0.1-0.2,0.1c2.3,0.1,4.2,0.4,5.9,1
					C120.3,56.4,122.5,56.5,124.3,56.6z"/>
				<path class="st0" d="M79.2,55L79.2,55c0.2,0.1,0.3,0.1,0.5,0C79.6,55,79.4,55,79.2,55z"/>
				<path class="st0" d="M109.9,58.3c0.6-0.1,1.2-0.3,1.8-0.5c0.5,0.2,1.4,0.3,3.1,0.3c2.9-0.7,2.1-0.9,1.6-1.3l1-0.6
					c2.4,0.1,2.9,0.6,2.2,1c-0.4,0-0.8-0.1-1.3-0.1c0.1,0.2,0.4,0.3,0.7,0.4c-0.4,0.1-1,0.3-1.8,0.3c1.9,0.1,2.8-0.2,3.7-0.3
					c0.7,0,1.4,0,1.5,0.4l1.1-0.4c0.1,0,0.2,0,0.3,0c0.1,0,0.3,0,0.4,0.1l0-0.1c1.8,0.1,1.2,0.7,1,0.6c2.2,0.3,3.8-0.4,3-0.2
					c-4.2,0.5-1.3-0.5-4-0.6l0-0.1l1.2-0.2l0.7,0.1c-0.2-0.1-0.1-0.2,0.1-0.3c1.1,0.1,2.4,0.2,4,0.1l-4.3-1.5l3.3,0.2
					c3.6,0.3,1.2,1.2,5.6,1c-2.3,1.7-6.7,1.8-9.9,2.9c-4.9,0-5.5,0-11.8-0.3c1,1.3-9.1,2.2-14.5,3l-3.3-0.5
					c-7.6,1.3-17.5,2.9-29.3,3.4c-2.8-0.2-5.2,0.4-6.6-0.6l0.5-0.1l-1.5-0.4c7.4-0.7,13.9-1.7,19-2.6l3.1,0.4
					c5-0.7,14.2-1.5,13.3-2.7c5.8,0.3,6.3,0.2,10.8,0.2c0.2-0.1,0.4-0.1,0.6-0.2c0,0.3-0.1,0.5,2.4,0.5c-2.1-0.1-1.7-0.4-1.5-0.8
					c0.8-0.2,1.6-0.4,2.4-0.5c1.6,0.1,3,0.3,2.3,0.7l1.3-0.8C111.5,58.4,110.7,58.4,109.9,58.3z M119.7,58.1
					c0.6,0.1,1.3,0.1,2.1,0.2c1.1,0.2,1.2,0.6,3.8,0.7c-0.6-0.4-2.2-0.5-3.8-0.7C121.3,58.2,120.7,58.1,119.7,58.1z"/>
				<path class="st0" d="M66.9,54.8c-1-0.1-1.9-0.2-2.9-0.3l-1,0.8C65.5,55.6,66,55.2,66.9,54.8z"/>
				<path class="st0" d="M125.2,57l-1-0.2l0,0.2C124.5,57,124.9,57,125.2,57z"/>
				<path class="st0" d="M22.9,60.4l-0.2,0.1c1.8,0.1,3.5,0.2,5.2,0.3C27.3,60.5,26,60.3,22.9,60.4z"/>
				<path class="st0" d="M74,56.2c0.5-0.3,2-0.7-0.1-0.7c7.5-0.3,0.9,1.5,7.2,1.2l-1.3-0.5l2,0c-1.2-0.1-2.2-0.5-3.3-0.8
					c-2.7-0.3-5-0.3-7.2-0.4c0.2,0.1,0.4,0.1,0.6,0.2c-0.2,0-0.4-0.1-0.6-0.2c-1,0-2-0.1-3-0.1C68.8,55.5,71.9,55.6,74,56.2z"/>
				<path class="st0" d="M29.3,55.2c1.3-0.1,2.6-0.2,4-0.3c0,0,0,0,0,0c1.1-0.4,0.3-0.4,2.3-0.6c-1.4,0.3-0.4,0.4,0.8,0.5h0
					c0.9,0,1.8-0.1,2.7-0.1c-3-0.6-3-1.8-6.2-2c-7.2-0.4-11.7-0.1-15.9,0.4c1,0,2.1,0.1,3.2,0.1C24.1,53.3,23,55.2,29.3,55.2z"/>
				<path class="st0" d="M109.6,57.1l-3.1-1.1c-0.1,0-0.3,0-0.4,0l1.7,0.6c-4.1,0-4.7-0.7-3.4-1.2c-6.3,0.2-4-1.2-8.8-0.4
					c1.7,0.4,2.8,1,4.5,1.1l-2.2,0l0.5,0.2C102.7,56.1,104.4,57.3,109.6,57.1z"/>
				<path class="st0" d="M90.9,55.8c0.2,0,0.4,0.1,0.6,0.1c0.5-0.3,2.1-0.7-0.1-0.8c6.6-0.2,3.2,0.9,5.2,1.3
					c-0.5,0.6,1.5,0.8,0.1,1.3l-0.7-0.2l0.6,0.2c-0.3,0.1-0.7,0.2-1.3,0.4c-4.5,0-2.9-0.8-3.6-1.1c0.1,0,0.2,0,0.3,0l1.7,0
					C92.9,56.2,92.7,56.4,90.9,55.8z M94.3,56.5l1.5,0.7C97.9,56.7,95.5,56.7,94.3,56.5l-0.6-0.3C93.5,56.4,93.8,56.5,94.3,56.5z"/>
				<path class="st0" d="M125.5,59c-0.6-0.4-2.2-0.5-3.8-0.7C122.9,58.5,123,58.9,125.5,59z"/>
				<path class="st0" d="M119.7,58.1c0.6,0.1,1.3,0.1,2.1,0.2C121.3,58.2,120.7,58.1,119.7,58.1z"/>
				<path class="st0" d="M120.9,57.5c0.7,0,1.4,0,1.5,0.4l1.1-0.4c0.1,0,0.2,0,0.3,0C122.4,57.3,121.6,57.4,120.9,57.5z"/>
				<path class="st0" d="M118.2,57.1c0.1,0.2,0.4,0.3,0.7,0.4c0.2-0.1,0.4-0.2,0.6-0.2C119.1,57.2,118.7,57.2,118.2,57.1z"/>
				<path class="st0" d="M125.2,58.1c2.2,0.3,3.8-0.4,3-0.2c-4.2,0.5-1.3-0.5-4-0.6l0,0.1C126,57.6,125.4,58.2,125.2,58.1z"/>
				<path class="st0" d="M124.2,57.1l0,0.2l1.2-0.2l-0.2,0C124.9,57,124.5,57,124.2,57.1z"/>
				<path class="st0" d="M107.8,59.8c-2.1-0.1-1.7-0.4-1.5-0.8c-0.3,0.1-0.6,0.1-0.8,0.2C105.4,59.6,105.3,59.8,107.8,59.8z"/>
				<path class="st0" d="M111,59.2l1.3-0.8c-0.8,0-1.6-0.1-2.5-0.2c-0.4,0.1-0.8,0.2-1.2,0.3C110.3,58.6,111.7,58.8,111,59.2z"/>
				<path class="st0" d="M96.6,57.8c0,0,0.1,0,0.1,0l-0.7-0.2L96.6,57.8z"/>
				<path class="st0" d="M94.3,56.5l-0.6-0.3C93.5,56.4,93.8,56.5,94.3,56.5z"/>
				<path class="st0" d="M94.3,56.5l1.5,0.7C97.9,56.7,95.5,56.7,94.3,56.5z"/>
				<path class="st0" d="M50.2,54.4c-0.7,0-1.3,0.1-2,0.1C48.8,54.4,49.5,54.4,50.2,54.4z"/>
				<path class="st0" d="M48.2,55.3l0.6-0.5c0.7,0.1,1.3,0.2,2,0.2l-0.2-0.7l2.5,0.1c-0.3-0.1-1.5-0.1-2.5-0.2c-0.1,0-0.2,0-0.3,0
					c-0.7,0-1.3,0.1-2,0.1c-0.4,0-0.7,0-1,0.1c-0.3,0.1-0.8,0.2-1.5,0.4L48.2,55.3z"/>
				<path class="st0" d="M112,55.9c0.5,0,1,0,1.4,0.1C113,55.9,112.6,55.9,112,55.9z"/>
				<path class="st0" d="M126.4,56.3c0.5,0.4-0.7,0.4-2.1,0.3c0.6,0.1,1.3,0.2,2,0.3C126.6,56.7,127,56.5,126.4,56.3z"/>
				<path class="st0" d="M113.4,56c1.2,0.2,1.7,0.6,2.7,1l0.2-0.1c-0.3-0.2-0.5-0.4,0-0.7C115.4,56.1,114.5,56,113.4,56z"/>
				<path class="st0" d="M119.5,57.2c2.2,0.2,3.5,0,4.6-0.1l0-0.2l1,0.2c0.1,0,0.3,0,0.4,0l-0.2,0l0.7,0.1c-0.2-0.1-0.1-0.2,0.1-0.3
					c-0.7-0.1-1.3-0.2-2-0.3c-1.9-0.1-4-0.2-2.1,0.5c-1.7-0.6-3.6-0.8-5.9-1c-0.4,0.3-0.2,0.5,0,0.7l1-0.6
					C119.7,56.4,120.2,56.8,119.5,57.2z"/>
				<path class="st0" d="M124.2,57.6L124.2,57.6c-0.1-0.1-0.3-0.1-0.4-0.1C123.9,57.5,124.1,57.5,124.2,57.6z"/>
				<path class="st0" d="M119,57.5c-0.4,0.1-1,0.3-1.8,0.3c1.9,0.1,2.8-0.2,3.7-0.3C120.3,57.5,119.5,57.5,119,57.5z"/>
				<path class="st0" d="M124.2,57.4l0-0.1l-1,0.2C123.6,57.4,123.9,57.4,124.2,57.4z"/>
				<path class="st0" d="M125.2,57l0.2,0l0.2,0C125.5,57,125.3,57,125.2,57z"/>
				<path class="st0" d="M119.5,57.2c-0.1,0.1-0.3,0.2-0.6,0.2c0.5,0.1,1.3,0,2,0c0.7-0.1,1.5-0.2,2.9,0c0.1,0,0.3,0,0.4,0l0-0.1
					c-0.3,0-0.6,0-1,0l1-0.2l0-0.2C123.1,57.2,121.7,57.4,119.5,57.2z"/>
				<path class="st0" d="M1.4,12.9c0.1-0.1,0.1-0.3,0.2-0.4c0-0.4,0-0.8,0-1.2C1.5,11.8,1.5,12.3,1.4,12.9z"/>
				<path class="st0" d="M3,5.3c0.4-0.5,1-0.8,1.6-1C4.8,4.1,5.1,4,5.3,3.8C5.1,3.9,4.8,3.9,4.6,4c0-0.3-0.2-0.4-0.5-0.4
					c-0.3,0-0.8,0.3-1.2,0.7c0.3-0.1,0.5-0.2,0.6,0C3.4,4.5,3.3,4.7,3,5.3z"/>
				<path class="st0" d="M3.6,5.9L3.6,5.9c0.1-0.1-0.2,0.6-0.1,0.6c0,0,0.1-0.2,0.3-0.4c0.2-0.2,0.4-0.5,0.7-0.7
					C4.7,5.2,5.1,5.1,5.3,5c0.3-0.1,0.4-0.1,0.4-0.1l0-0.2C5.2,4.6,4.3,4.8,3.6,5.9z"/>
				<path class="st0" d="M2,8.1c0.1-1,0.4-1.9,1-2.6c0-0.5-0.1-0.7-0.2-0.8C2.7,4.6,2.5,4.7,2.3,5c-1.1,1.5-0.6,3.9-0.7,6.2
					c0,0,0,0,0,0c0-0.7,0-1.4,0.1-1.9C1.8,8.7,1.8,8.3,2,8.1z"/>
				<path class="st0" d="M4.3,4.6c0,0-0.2,0.1-0.4,0.3C3.7,5.1,3.4,5.4,3.2,5.7C2.8,6.5,2.7,7.3,2.7,7.3C3.1,6.1,3.7,5.2,4.3,4.6z"
					/>
				<path class="st0" d="M11.2,4.1l1.2,0c0.2,0,0.4,0,0.7,0l0.1,0l-1.3-0.9c-1.5,0.2-3,0.4-4.6,0.5c0,0,0.3,0.2,0.3,0.2
					c1.5,0.1,2.3,0.3,3,0.5c0.3-0.1,0.5-0.1,0.8-0.2C11.4,4.2,11.3,4.2,11.2,4.1z"/>
				<path class="st0" d="M5.3,3.8C5.1,4,4.8,4.1,4.6,4.3c0.1,0,0.2-0.1,0.3-0.1c0,0-0.6,0.3-0.6,0.3C3.7,5.2,3.1,6.1,2.7,7.3l0,0.4
					c0,0,0.1-0.5,0.3-1c0.2-0.5,0.6-0.8,0.6-0.8c0.8-1.1,1.7-1.3,2.2-1.2c0,0,0.2-0.7,0.2-0.7c0.6-0.1,1.1,0,1.6,0
					c0,0-0.3-0.2-0.3-0.2C6.7,3.7,6,3.7,5.3,3.8z"/>
				<path class="st0" d="M1.6,11.2C1.7,10,1.8,9,2,8.1C1.8,8.3,1.8,8.7,1.7,9.3C1.7,9.8,1.6,10.4,1.6,11.2z"/>
				<path class="st0" d="M2.9,5.5L3,5.3c0.3-0.6,0.4-0.9,0.3-1c-0.1-0.1-0.3-0.1-0.6,0C2.6,4.5,2.4,4.7,2.3,5
					c0.2-0.3,0.4-0.4,0.5-0.3C2.9,4.8,2.9,5,2.9,5.5z"/>
				<path class="st0" d="M12.4,4.2l0.7,0C12.9,4.2,12.6,4.2,12.4,4.2z"/>
				<path class="st0" d="M11.4,4.3c-0.3,0.1-0.6,0.1-0.8,0.2l0.4,0.2C11.1,4.5,11.4,4.4,11.4,4.3z"/>
				<path class="st0" d="M11.5,4.9c-0.2-0.1-0.4-0.2-0.6-0.3C10.8,4.8,10.8,4.9,11.5,4.9z"/>
				<path class="st0" d="M1.6,12.5c0,1.2-0.1,2.4-0.3,3.2l0.3-0.8C1.6,14,1.6,13.2,1.6,12.5C1.6,12.4,1.6,12.4,1.6,12.5z"/>
				<path class="st0" d="M3.6,10.7l-0.1-0.4l-0.1,1C3.5,11.1,3.5,10.9,3.6,10.7z"/>
				<path class="st0" d="M3.1,11.7c0.1,0.1,0.1,0,0.2-0.2l-0.1-0.8L3.1,11.7z"/>
				<path class="st0" d="M2.8,8.1c0,0.2-0.1,0.3-0.1,0.5L2.7,9.1l-0.2,1.2c-0.1,0.8-0.2,1.6-0.3,2.4C2,14.3,1.9,16,1.6,18
					c0.2-0.5,0.4-0.6,0.7-1c0.1-0.3,0.1-0.6,0.2-0.9c-0.1,0.4-0.3,0.8-0.4,1c0.1-2.3,0.2-4.3,0.4-6.3c0.1,0.1,0.2,0.3,0.2,0.4
					l0.1-3.4C2.9,7.9,2.9,8,2.8,8.1z"/>
				<path class="st0" d="M1.2,19.7c0.1-0.9,0.3-1.4,0.4-1.7c0-0.4,0-0.8,0-1.2C1.5,17.5,1.3,17.9,1.2,19.7z"/>
				<path class="st0" d="M2.9,7.8l-0.1,3.4C3,11.4,3,11.6,3.1,11.7l0.1-1l0.1,0.8c0,0,0-0.1,0.1-0.2l0.1-1c0,0-0.1-0.8-0.2-1.7
					c0-0.2-0.1-0.3-0.1-0.5c0-0.1,0-0.3-0.1-0.4c0-0.2-0.1-0.4-0.1-0.4C3,7.6,3,7.7,2.9,7.8z"/>
				<path class="st0" d="M2.8,8.1C2.7,8.3,2.6,8.8,2.5,9.2c-0.1,0.4-0.2,0.8-0.3,1.2c-0.2,0.8-0.4,1.5-0.6,2c0,0.8,0,1.6,0,2.4
					l0.3-0.7c-0.1,1.5-0.1,2.2-0.2,2.7c0,0.4,0,0.8,0,1.2c0,0,0,0,0,0c0.2-2,0.4-3.7,0.6-5.3c0.1-0.8,0.2-1.6,0.3-2.4l0.2-1.2
					l0.1-0.6C2.8,8.3,2.8,8.2,2.8,8.1z"/>
				<path class="st0" d="M2.9,15.7c-0.1-0.2-0.2,0.1-0.3,0.4c-0.1,0.3-0.1,0.6-0.2,0.9C2.5,16.7,2.7,16.4,2.9,15.7z"/>
				<path class="st0" d="M3,18.5c0-0.2,0-0.3,0-0.4l0,0L3,18.5z"/>
				<path class="st0" d="M3,18.1L3,18.1C3,17,3,16.3,3,16L3,18.1z"/>
				<path class="st0" d="M3,15.5c0,0.1,0,0.1-0.1,0.2c0,0.1,0,0.1,0.1,0.3L3,15.5z"/>
				<path class="st0" d="M2.3,22.9c0.1,0.2,0.2,0.5,0.3,0.7c0.2-0.5,0.4-1.1,0.5-0.8l0,0c0-0.2,0-0.5,0.1-0.8l-0.7,0.6
					c0-0.8,0-2,0.2-2.5c-0.1,0.1-0.2,0.4-0.2,0.7C2.4,21.5,2.4,22.2,2.3,22.9z"/>
				<path class="st0" d="M1.7,21.8L1.7,21.8l0.1,1.6c0-0.3,0.1-0.6,0.1-0.9C1.8,22.4,1.8,22.2,1.7,21.8z"/>
				<path class="st0" d="M2.7,23.9c0.1,0.3,0.3,0.2,0.4-1c0,0,0,0,0,0C2.9,23.3,2.8,23.6,2.7,23.9z"/>
				<path class="st0" d="M1.9,22.5c0,0.4-0.1,0.7-0.1,0.9l0.1,1.5c0-2.9,0.2-2.7,0.5-2c0-0.7,0.1-1.5,0.1-2.2
					C2.3,21.6,2.1,22.9,1.9,22.5z"/>
				<path class="st0" d="M1.7,21.7l0,0.2l0-0.1C1.7,21.8,1.7,21.7,1.7,21.7z"/>
				<path class="st0" d="M3.1,22.9c-0.1-0.3-0.3,0.3-0.5,0.8c0,0.1,0.1,0.2,0.1,0.2C2.8,23.6,2.9,23.3,3.1,22.9z"/>
				<path class="st0" d="M3.1,22.9C3.1,22.9,3.1,22.9,3.1,22.9L3.1,22.9C3.1,22.9,3.1,22.9,3.1,22.9z"/>
				<path class="st0" d="M6.1,2.5L6,2.1l0.4,0.1c-0.1-0.1,0.3-0.1,1.9,0c2.4-0.7-2,0-1.6-0.6C6,2,5.1,2.2,3.5,2.7
					c0,0.1-0.1,0.2-0.2,0.3C4.1,2.9,5.3,2.5,6.1,2.5z"/>
				<path class="st0" d="M6.6,3.3C7.2,3.2,7.5,3.1,7.7,3c0.2-0.1,0.1-0.2-0.1-0.3L7.1,2.8C7.1,2.9,6.9,3.1,6.6,3.3z"/>
				<path class="st0" d="M2.8,3L2.8,3L2.8,3C2.9,3,2.8,3,2.8,3z"/>
				<path class="st0" d="M3.5,2.7C3.3,2.8,3.1,2.9,2.9,3l-0.1,0c0.1,0,0.3,0,0.5,0C3.4,2.9,3.5,2.8,3.5,2.7z"/>
				<path class="st0" d="M6.1,2.5c0.6,0,1,0.1,1,0.3l0.5-0.1C7.3,2.5,6.5,2.3,6.4,2.2L6,2.1L6.1,2.5z"/>
				<polygon class="st0" points="11.3,2.8 13.3,2.6 11.3,2.1 				"/>
				<path class="st3" d="M3.8,13.2c0.1-1,0.6-1.1,0.7-3.8C4.2,12.1,3.9,9.9,3.8,13.2z"/>
				<path class="st0" d="M6.2,5.2L6.3,5c0,0-0.6,0.1-1.1,0.4C4.9,5.6,4.7,5.8,4.5,5.9C4.4,6.1,4.3,6.2,4.3,6.2S4.4,6.1,4.5,6
					c0.2-0.1,0.4-0.3,0.6-0.4C5.6,5.2,6.2,5.2,6.2,5.2z"/>
				<path class="st0" d="M37.7,4.5c0.2-0.1,0-0.3-0.3-0.4C37.1,4.3,37.1,4.4,37.7,4.5z"/>
				<path class="st0" d="M37.1,4.1c0.1,0,0.2,0.1,0.3,0.1c0.1,0,0.2,0,0.3-0.1C37.5,4.1,37.3,4.1,37.1,4.1z"/>
				<path class="st0" d="M40,2.9l-0.2-0.1C39.8,2.8,39.9,2.8,40,2.9z"/>
				<path class="st0" d="M28.3,2.6l-0.9-0.2c0,0.1,0.2,0.2,0.6,0.3C28.1,2.7,28.2,2.7,28.3,2.6z"/>
				<path class="st0" d="M40,2.9l0.7,0.4c0.3,0,0.5,0,0.8-0.1c-0.3,0-0.5,0.1-0.7,0.1l0.6,0.3l-1,0.1c0.3,0.2,1.3,0.4,1.1,0.6
					c0,0,0,0,0.1,0.1c5.8-0.2-1.3-0.7,2.4-1.2C42.8,3.3,40.7,3.1,40,2.9z"/>
				<path class="st0" d="M36.2,3.9l0.5,0c1.1-0.8-8.3-0.5-4.6-1.1l-0.3-0.2c-0.4,0.1-0.3,0.4-1.3,0.5l-1.6-0.3
					c-0.2,0-0.4,0.1-0.6,0.1C30.1,3.2,34.1,3.5,36.2,3.9z"/>
				<path class="st0" d="M40.3,3.6l-3.7,0.3c0.1,0,0.1,0,0.1-0.1l-0.5,0c0.3,0.1,0.7,0.1,0.9,0.2c0.2,0,0.4,0,0.6,0
					c1-0.2,3.4-0.3,3.7,0.1C41.6,4.1,40.6,3.9,40.3,3.6z"/>
				<path class="st0" d="M41.5,3.2c-0.2,0-0.5,0.1-0.8,0.1l0.1,0C41,3.2,41.2,3.2,41.5,3.2z"/>
				<path class="st0" d="M28.9,2.8l-0.6-0.1c-0.1,0-0.2,0.1-0.3,0.2c0.1,0,0.2,0.1,0.3,0.1C28.5,2.8,28.7,2.8,28.9,2.8z"/>
				<path class="st0" d="M32.9,2.6c-0.6-0.1-1-0.1-1.2,0l0.3,0.2C32.3,2.7,32.6,2.7,32.9,2.6z"/>
				<path class="st0" d="M35.5,2.8c2,0,3.9-0.9,3.2-0.7c-1.1,0-2.1,0.1-3,0.2c-0.2,0.1-0.4,0.2-0.7,0.2L35.5,2.8z"/>
				<path class="st0" d="M34.2,2.1l0.2,0.1l0.2,0C34.4,2.2,34.3,2.2,34.2,2.1z"/>
				<path class="st0" d="M35.7,2.3c-0.4,0-0.8,0-1.2-0.1l-0.2,0l0.6,0.3C35.2,2.5,35.5,2.4,35.7,2.3z"/>
				<path class="st0" d="M18,4.1l0.8,0c-2.7-0.4-3.3,0.4-4.9,0.5c0.8,0.2,2.2,0.4,3.5,0.6c1.1,0,2.3,0,2.7-0.1c0,0,0,0,0-0.1
					c0.2,0,0.1,0,0,0.1c0,0.3-0.4,0.3-1.1,0.3c0.3,0,0.5,0.1,0.8,0.1c-0.7,0.2-1.5,0.3-2.3,0.4C17.9,6,18.4,6.1,19,6.2
					c0.4-0.8,3.2-0.4,4.9-1C22.1,4.9,17.8,4.7,18,4.1z"/>
				<path class="st0" d="M20.1,5.1c-0.4,0-1.6,0.1-2.7,0.1C18,5.3,18.5,5.3,19,5.4C19.7,5.4,20.1,5.4,20.1,5.1z"/>
				<path class="st0" d="M20.1,5.1C20.1,5.1,20.1,5.1,20.1,5.1C20.2,5.1,20.3,5.1,20.1,5.1z"/>
				<path class="st0" d="M19.8,5.6c-0.2-0.1-0.5-0.1-0.8-0.1c-0.6,0-1.5-0.1-2.2-0.2c-0.6,0-1,0-1-0.1c0.3,0,0.6,0,1,0.1
					c0.2,0,0.4,0,0.6,0c-1.4-0.2-2.8-0.3-3.5-0.6c-0.4,0-0.8,0-1.4,0c1.2,0.3,2,0.6,2.8,0.8l0.3,0c0,0,0,0,0-0.1c0.2,0,0.1,0,0,0.1
					c0,0,0,0,0,0.1c0.6,0.1,1.2,0.3,1.9,0.5C18.3,5.8,19.1,5.8,19.8,5.6z"/>
				<path class="st0" d="M15.8,5.1c-0.1,0,0.4,0.1,1,0.1C16.4,5.1,16.1,5.1,15.8,5.1z"/>
				<path class="st0" d="M19,5.4c-0.5-0.1-1-0.1-1.6-0.2c-0.2,0-0.4,0-0.6,0C17.5,5.3,18.3,5.4,19,5.4z"/>
				<path class="st0" d="M15.6,5.5C15.6,5.4,15.6,5.4,15.6,5.5c0-0.1-0.1-0.1-0.2-0.1C15.4,5.4,15.5,5.4,15.6,5.5z"/>
				<path class="st0" d="M15.6,5.4l-0.3,0l0,0C15.5,5.4,15.6,5.4,15.6,5.4z"/>
				<path class="st0" d="M15.6,5.3C15.6,5.3,15.6,5.4,15.6,5.3C15.8,5.4,15.8,5.3,15.6,5.3z"/>
				<path class="st3" d="M40.7,4.5c4.1,0.3-2,0.7,2.6,0.7C44,4.7,42.7,4.5,40.7,4.5z"/>
				<polygon class="st0" points="90.4,4.1 90.9,4.1 88.6,3.2 88.1,3.3 				"/>
				<path class="st0" d="M51,3.4l-0.5-0.2c-2.5-0.2,1.1-1.4-3.3-0.7C48.9,2.9,47.2,3.4,51,3.4z"/>
				<path class="st3" d="M55.5,3.5c-0.2,0-0.3,0-0.4,0C56,3.8,57.4,4,58.3,3.7c-3.8,0-1.3-0.7-3.4-1c-1,0.1-1.1,0.2-0.8,0.4
					c0.2,0.1,0.4,0.1,0.7,0.1L55.5,3.5z"/>
				<path class="st0" d="M55.1,3.5c0.2,0,0.3,0,0.4,0l-0.6-0.2c-0.3,0-0.5-0.1-0.7-0.1C54.4,3.3,54.7,3.4,55.1,3.5z"/>
				<path class="st0" d="M79.2,2.3c0.6,0,1.2,0,2.1-0.1C80.8,2.2,79.9,2.2,79.2,2.3z"/>
				<path class="st0" d="M95.6,3.8c0.4-0.1,0-0.2-0.7-0.3C95.3,3.7,95.6,3.7,95.6,3.8z"/>
				<path class="st0" d="M93.5,2.9l-1.2,0.2c0.2,0,0.4,0,0.7,0C92.9,3.1,93,3,93.5,2.9z"/>
				<path class="st0" d="M93,3.2c-0.2,0-0.4,0-0.7,0l-1.8,0.4c0.8,0.2,0.3,0.5,4.6,0.4c0.3-0.1,0.5-0.1,0.6-0.1
					c-0.1-0.1-0.3-0.2-0.7-0.3C94.2,3.5,93,3.4,93,3.2z"/>
				<path class="st0" d="M88.6,3.4c0.5,0.1,1.1,0.1,1.6,0.2l0.2,0C90.2,3.5,89.6,3.4,88.6,3.4z"/>
				<path class="st0" d="M78.5,2.5c0.2-0.1,0.4-0.1,0.8-0.1c-0.4,0-0.7,0-1-0.1C78.2,2.4,78.3,2.4,78.5,2.5z"/>
				<path class="st0" d="M83.4,4.4c1.2-0.1,2.8-0.2,3.7-0.4l-2-0.5C82.8,3.9,82.6,4.2,83.4,4.4z"/>
				<path class="st0" d="M72.5,2.8c0.6-0.1,1.1-0.2,1.6-0.3c-0.7,0-1.4,0-1.9,0l-1,0.4C71.8,2.8,72.2,2.8,72.5,2.8z"/>
				<path class="st0" d="M70.8,4.8c3.7-0.4,0.9-0.6-0.4-0.9c-0.4,0.1-0.8,0.2-1.2,0.2C70.1,4.3,71.3,4.4,70.8,4.8z"/>
				<path class="st0" d="M86.1,2.4c0.6,0,1.1,0.1,1.5,0.3c1.2-0.2,0.9-0.3,0.2-0.3c-0.6,0.1-1.1,0.1-1.6,0
					C86.2,2.4,86.2,2.4,86.1,2.4z"/>
				<path class="st0" d="M82.6,2.8c0.1-0.1,0.2-0.2,0.3-0.2c-0.2,0-0.4,0.1-0.7,0.1C82.3,2.7,82.5,2.8,82.6,2.8z"/>
				<path class="st0" d="M86.3,2.4c0.3,0,0.7-0.1,1.1-0.1c-1.1-0.1-2.3-0.1-0.3-0.3c-4-0.3-3.2,0-3.4,0.3
					C84.4,2.2,85.1,2.3,86.3,2.4z"/>
				<path class="st0" d="M70.3,2.3c1,0,0.6,0.1,0.4,0.2c1.7-0.1,1-0.4,1-0.5c-1.2,0-2.1,0.1-2.8,0.2c0.5,0,0.9,0.1,1.1,0.2L70.3,2.3
					z"/>
				<path class="st0" d="M74.6,3.9c-0.5,0-0.9-0.1-1.4-0.1c0.1,0.8,1.7,0.8,3.6,0.8C75.8,4.4,73.4,4.3,74.6,3.9z"/>
				<path class="st0" d="M76,3.9C76,3.9,76.1,4,76.3,4c-0.2-0.1,0.1-0.3,1-0.5c-0.3,0-0.6,0.1-0.9,0.1C76.3,3.8,76.2,3.8,76,3.9z"/>
				<path class="st0" d="M78.1,4.4c0.4,0.1,0.7,0.1,0.8,0.2c0.5,0,1,0,1.5,0.1c0,0-0.1,0-0.1,0C79.5,4.6,78.8,4.5,78.1,4.4z"/>
				<path class="st0" d="M83.2,3.8c-1.2,0-2.9-0.3-4.5-0.3L81,4.1C82,4.1,82.9,4.2,83.2,3.8z"/>
				<path class="st0" d="M81.2,4.8c0.3,0.1,0.5,0.2,0.7,0.3l-0.5,0l2.1,0.5c0.7-0.4,0.1-0.6-1.1-0.8C81.9,4.9,81.5,4.9,81.2,4.8z"/>
				<path class="st0" d="M68.2,3.9C68.2,3.9,68.2,3.9,68.2,3.9c0.1,0,0.2,0,0.2,0C68.3,3.9,68.2,3.9,68.2,3.9z"/>
				<path class="st0" d="M74.6,3.5c0.4,0,0.8,0.1,1.2,0.1l0,0C75.3,3.6,74.9,3.5,74.6,3.5z"/>
				<path class="st0" d="M66.7,2.3l1-0.4c-2.8-0.1-1.5,0.2-1.7,0.5C66.2,2.3,66.5,2.3,66.7,2.3z"/>
				<path class="st0" d="M68.6,3.1l0.6-0.3c0.1-0.2,0-0.4-0.7-0.5c-1,0.2-1.7,0.4-3.2,0.5l1.2-0.5c-0.2,0-0.4,0-0.6,0
					c-0.2,0.1-0.5,0.1-1.4,0.2C65,2.3,61.7,2,60.2,2.4c6.7-0.5,1.1,1.3,2.7,1.4c-0.3,0-0.9,0-1.5,0c0.3,0.1,0.9,0.2,2.2,0.2
					c-0.9,0.2-2.1,0.1-3.1-0.1c0,0,0,0,0,0c4,0.8,4-0.6,8.2-0.4C68.7,3.3,68.9,3.2,69,3C68.9,3.1,68.7,3.1,68.6,3.1z"/>
				<path class="st0" d="M63.5,3.9c-1.2,0-1.8-0.1-2.2-0.2c-0.3,0-0.6,0-1,0C61.4,4,62.6,4.1,63.5,3.9z"/>
				<path class="st0" d="M87.8,2.3c-0.1,0-0.3,0-0.4,0c-0.4,0-0.8,0-1.1,0.1C86.7,2.4,87.2,2.4,87.8,2.3z"/>
				<path class="st0" d="M78.1,4.4c-0.9-0.1-1.6-0.2-1.8-0.4C76.1,4,76,3.9,76,3.9c-0.4,0.1-0.9,0.1-1.4,0c-1.1,0.4,1.2,0.5,2.2,0.7
					c0.7,0,1.5,0,2.2,0C78.8,4.5,78.5,4.5,78.1,4.4z"/>
				<path class="st0" d="M80.4,4.7c0.3,0,0.5,0.1,0.8,0.1c0.4,0,0.8,0.1,1.2,0.1c-0.6-0.1-1.3-0.2-2.1-0.3
					C80.3,4.6,80.4,4.7,80.4,4.7z"/>
				<path class="st0" d="M66.7,2.3c-0.3,0-0.5,0-0.8,0.1c0,0,0,0-0.1,0.1c0.2,0,0.4,0,0.6,0L66.7,2.3z"/>
				<path class="st0" d="M76.6,3.1c-0.7,0-1.3,0-1.9,0.1C75.2,3.3,75.7,3.3,76.6,3.1z"/>
				<path class="st0" d="M87.2,3.4c0.6,0,1,0,1.4,0c-1.7-0.2-3.5-0.4-5.2-0.5c-0.2-0.4,1.3-0.7,2.7-0.6c0.1,0,0.1,0,0.2,0
					c-1.1,0-1.9-0.2-2.6-0.1c-0.1,0.1-0.2,0.2-0.8,0.3c-0.1,0.1-0.2,0.1-0.3,0.2c-0.1-0.1-0.2-0.1-0.4-0.1c-0.7,0.1-1.6,0.1-3.1,0.1
					c-0.8-0.1-0.9-0.2-0.7-0.3c-0.2,0-0.2-0.1-0.2-0.2c-0.8-0.1-1.4-0.1-2.1,0.3l0.4-0.2c1.9-0.1-0.8,0.5,0.9,0.6
					c3.5-0.5,2.8,1,6.6,0.1c-1.2,0.9-4.2,0.1-7,0C75.4,3.9,71.8,2.7,69,3c-0.1,0.1-0.3,0.2-0.4,0.3c0.3,0,0.7,0,1.1,0.1
					c-1.1,0.2-1.5,0.3-1.4,0.4c0,0,0.1,0,0.2,0c-0.1,0-0.1,0-0.2,0c0.1,0.1,0.5,0.1,0.9,0.2c0.4-0.1,0.8-0.1,1.2-0.2
					c-0.4-0.1-0.7-0.2-0.4-0.4c1.5-0.4,3.2-0.2,4.7,0c0.4,0,0.8,0,1.2,0.1l0,0c0.2,0,0.5,0,0.7,0c0,0,0,0,0,0
					c0.3-0.1,0.6-0.1,0.9-0.1c0.2-0.1,0.5-0.1,0.8-0.2l0.5,0.1c1.7,0,3.3,0.4,4.5,0.3C82.9,4.2,82,4.1,81,4.1l1.5,0.4
					c0.2,0,0.5-0.1,0.8-0.1c-0.7-0.2-0.6-0.5,1.7-0.9l2,0.5C88,3.9,88.3,3.7,87.2,3.4z"/>
				<path class="st0" d="M70.7,2.6c-0.2,0.1-0.3,0.2,0.4,0.3l0.2,0l1-0.4c-0.4,0-0.6-0.1-0.3-0.4c-0.1,0-0.2,0-0.3,0
					C71.7,2.2,72.4,2.5,70.7,2.6z"/>
				<path class="st0" d="M69.2,2.8l0.9-0.4c-0.2-0.1-0.6-0.1-1.1-0.2c-0.2,0-0.3,0.1-0.4,0.1C69.2,2.4,69.3,2.6,69.2,2.8z"/>
				<path class="st0" d="M74.7,3.2l1.1-0.5c-0.4-0.2-1-0.2-1.6-0.2c-0.5,0.1-1,0.2-1.6,0.3C73.5,2.8,73.9,3.1,74.7,3.2z"/>
				<path class="st0" d="M75.8,2.7l-1.1,0.5c0,0,0,0,0,0c0.6-0.1,1.2-0.1,1.9-0.1c0.2,0,0.3-0.1,0.5-0.1c-0.1,0-0.1,0.1-0.2,0.1
					c2.8,0.1,5.9,0.9,7,0c-3.7,0.9-3.1-0.6-6.6-0.1c-1.7-0.1,1-0.6-0.9-0.6l-0.4,0.2C76,2.6,75.9,2.7,75.8,2.7
					C75.8,2.7,75.8,2.7,75.8,2.7z"/>
				<path class="st0" d="M54.5,4.3c1,0.1,1.7,0.4,1.4,0.6l0.5-0.5c-0.5,0-0.8-0.1-1.2-0.1C54.9,4.3,54.7,4.3,54.5,4.3z"/>
				<path class="st0" d="M50.8,3.8l-1.7,0.5c0.7-0.3,3.3-0.2,5.1,0l0.3-0.1C53,4,52.4,3.7,50.8,3.8z"/>
				<path class="st0" d="M54.4,4.2l-0.3,0.1c0.1,0,0.2,0,0.4,0c0.2,0,0.4,0,0.7,0C54.9,4.3,54.7,4.2,54.4,4.2z"/>
				<path class="st0" d="M60.4,4.4c0.3,0,0.5,0.1,0.8,0.1C60.9,4.4,60.7,4.4,60.4,4.4z"/>
				<path class="st0" d="M59.2,4.7c0.1-0.1,0.2-0.1,0.3-0.1c-0.8-0.1-1.8-0.2-2.8-0.3c-0.1,0-0.2,0.1-0.3,0.1
					c0.8,0.4,2.7,0.5,4.5,0.6c-0.1-0.1-0.1-0.1-0.3-0.2C60.1,4.8,59.6,4.8,59.2,4.7z"/>
				<path class="st0" d="M60.4,4.4c-0.7-0.1-1.5-0.2-2.2-0.2c0.4,0.1,0.9,0.2,1.6,0.3C60,4.4,60.2,4.4,60.4,4.4z"/>
				<path class="st0" d="M61.2,4.9L61.1,5c1.8,0.1,3.3,0.2,2.7,0.7c1-0.3,0.8-0.5,0.1-0.6C63.5,5.1,63,5,62.6,5
					C62.2,4.9,61.7,4.9,61.2,4.9z"/>
				<path class="st0" d="M56.7,4.3c1,0,2,0.1,2.8,0.3c0.1,0,0.2-0.1,0.3-0.1c-0.6-0.1-1.1-0.2-1.6-0.3C57.7,4.2,57.1,4.2,56.7,4.3z"
					/>
				<path class="st0" d="M60.6,4.8c0.1,0,0.2,0.1,0.3,0.2c0.1,0,0.1,0,0.2,0l0.1-0.1C61,4.9,60.8,4.9,60.6,4.8z"/>
				<path class="st0" d="M63.9,5.1C63.6,5.1,63.2,5,62.6,5C63,5,63.5,5.1,63.9,5.1z"/>
				<path class="st0" d="M72.5,2.8c-0.3,0-0.7,0-1.2,0.1l-0.2,0.1C71.6,2.9,72.1,2.8,72.5,2.8z"/>
				<path class="st0" d="M70.2,2.6c0.2,0,0.3,0,0.5,0c0.2-0.1,0.6-0.3-0.4-0.2l-0.2,0.1C70.2,2.5,70.3,2.6,70.2,2.6z"/>
				<path class="st0" d="M68.6,3.1c0.1,0,0.3,0,0.4-0.1c0.1-0.1,0.1-0.1,0.2-0.2L68.6,3.1z"/>
				<path class="st0" d="M74.7,3.2C74.7,3.2,74.7,3.2,74.7,3.2L74.7,3.2c-0.8-0.1-1.2-0.4-2.2-0.4c-0.4,0.1-0.9,0.1-1.4,0.1l0.2-0.1
					l-0.2,0c-0.7,0-0.6-0.2-0.4-0.3c-0.1,0-0.3,0-0.5,0c0.1-0.1,0-0.1-0.2-0.2l-0.9,0.4C69.1,2.9,69.1,3,69,3
					c2.8-0.3,6.4,0.8,7.9,0.1c-0.1,0-0.2,0-0.3,0C75.7,3.3,75.2,3.3,74.7,3.2z"/>
				<path class="st0" d="M76.6,3.1c0.1,0,0.2,0,0.3,0C77,3.1,77.1,3,77.1,3C76.9,3,76.8,3.1,76.6,3.1z"/>
				<path class="st0" d="M66.7,2.3c0,0,7.9,0.9,7.9,0.9l0,0C74.6,3.2,66.8,2.3,66.7,2.3z"/>
				<polygon class="st0" points="101.4,4.2 101.4,4.2 101.3,4.2 				"/>
				<path class="st0" d="M101.4,3.1c-1.3,0.5,3.4,0.5,2.8,0.8c0.3,0,0.6,0,0.8,0C103.9,3.4,102.8,3.2,101.4,3.1z"/>
				<path class="st0" d="M95,2.8c1.6,0.3,2.7,0.6,3.8,0.9l2.5-0.5C99.7,3,97.7,3.1,95,2.8z"/>
				<path class="st0" d="M101.4,3.1c-0.1,0-0.1,0-0.2,0l-2.5,0.5c0.8,0.2,1.6,0.4,2.5,0.5l0.1,0c-0.2-0.5,1.5-0.2,2.9-0.2
					C104.8,3.6,100.1,3.7,101.4,3.1z"/>
				<path class="st0" d="M108.3,2.5l2.3,0.1L107.5,2c4.1,0.8-4,0.4-2.4,1C106,2.6,110.3,3.3,108.3,2.5z"/>
				<path class="st3" d="M86.4,4.9c1.3,0.3,1,0.2,1.1,0.1C87.1,4.9,86.7,4.9,86.4,4.9z"/>
				<path class="st3" d="M89.3,4.6c-1-0.4-2.2,0.1-3.4,0.1c0.5,0,1,0.1,1.5,0.2C87.5,4.8,87.9,4.6,89.3,4.6z"/>
				<path class="st0" d="M86.4,4.9c0.4,0,0.7,0,1.1,0.1c0,0,0,0,0,0c-0.5-0.1-1-0.1-1.5-0.2c0,0-0.1,0-0.1,0
					C86,4.8,86.2,4.8,86.4,4.9z"/>
				<path class="st0" d="M118.5,2.9c0.2,0,0.4,0,0.6,0L118.5,2.9L118.5,2.9z"/>
				<path class="st0" d="M117.1,2.7c0.5,0.1,1,0.1,1.4,0.2l0,0L117.1,2.7z"/>
				<path class="st0" d="M119.1,3l2.6,0.3c-0.8-0.3,0.7-0.7,0.9-0.8C121.7,2.8,120.6,3,119.1,3z"/>
				<path class="st0" d="M89.3,55.3c-0.2,0.1-0.4,0.1-0.4,0.2c0.7,0.1,1.3,0.2,2,0.4C90.5,55.7,89.9,55.5,89.3,55.3z"/>
				<path class="st0" d="M93,57.1c-0.4,0-0.7,0-1,0l1.7,0c-0.9-0.9-1-0.7-2.9-1.3c-0.6-0.1-1.3-0.3-2-0.4
					C88.8,55.9,93.4,56.4,93,57.1z"/>
				<path class="st3" d="M108.7,55.9l1.4,0.1l-0.3-0.1C109.5,55.9,109.1,55.8,108.7,55.9z"/>
				<path class="st0" d="M109.9,55.9l0.3,0.1l0.1,0C110.2,55.9,110,55.9,109.9,55.9z"/>
				<path class="st0" d="M91.7,57.1C91.7,57.1,91.7,57.1,91.7,57.1c0.1,0,0.2,0,0.3,0L91.7,57.1z"/>
				<path class="st3" d="M0.3,53c0-0.9,0.2-1.9,0.2-2C0.3,51.2,0.3,51.9,0.3,53z"/>
				<path class="st0" d="M62.6,55.3c0,0,0.1,0,0.1,0l0.1-0.4L62.6,55.3z"/>
				<path class="st0" d="M150.6,35.1c-0.3,3.9-0.4,6.4-0.5,9.5c0.2,0.1,0.3,0.2,0.5,0.3c0-3.2,0.2-6.3,0.2-9.9L150.6,35.1z"/>
				<path class="st0" d="M145.7,0.9c0.7,0.3,1.3,0.3,2,0.3c0.7,0,1.4-0.1,2.1,0.2c1.6,0.2,3.2,1.1,4.3,2.5c0.5,0.7,0.9,1.6,1.1,2.5
					c0.1,0.5,0.1,0.9,0.2,1.4l0.1,1.3c0.2,3.2,0.3,6.4,0.5,9.7c0.2,6.6,0.4,13.3,0.7,19.8c0.6-1.2,1.1-2.2,1.2-2.7c0,0,0-0.1,0-0.1
					c-0.2,0.1-0.4,0.1-0.6-0.1c-0.7-7.5-1-15.8-1.2-24.1l-0.1-3.1c0-0.6,0-1.3-0.1-2c-0.1-0.6-0.3-1.3-0.5-1.9c-1-2.4-3.4-4-5.9-4.1
					c-0.6,0-1.3,0-1.8,0c-0.5,0-1,0.1-1.5,0.1c-1,0.1-2,0.1-2.9,0.2c-1.9,0.1-3.8,0.3-5.7,0.5c-1.3-0.2-2.3,0.1-3.6-0.4
					c0.6,0.7-11.5,0.9-4.6,1.8c0.7,0.1,1.5,0.2,2.1,0.3c0.9-0.1,1.6-0.3,2.2-0.5c-0.2,0.1-1.2,0.4-1.2,0.7c4.8,0.9,8.3,2.5,13.7,2.2
					c0.5,0,1,0,1.6,0c0.3,0,0.5,0,0.8,0c0.5,0,1.1,0.3,1.5,0.6c-0.2-0.5-0.5-0.9-1-1.3c-0.2-0.2-0.5-0.3-0.8-0.4
					c-0.3-0.1-0.6-0.2-1.1-0.4c-1.9-0.5-4-0.9-6.3-1.1C133.2,1.9,146.3,1.6,145.7,0.9z"/>
				<path class="st0" d="M133.5,2.5c-0.6,0.2-1.4,0.4-2.2,0.5c0.3,0.1,0.7,0.1,1,0.2C132.3,2.9,133.3,2.6,133.5,2.5z"/>
				<path class="st0" d="M149.8,1.4c-0.7-0.3-1.4-0.2-2.1-0.2c-0.6,0-1.2,0-2-0.3c0.6,0.7-12.5,1-5,1.9c2.4,0.2,4.4,0.6,6.3,1.1
					c0.5,0.1,0.8,0.2,1.1,0.4c0.3,0.1,0.5,0.3,0.8,0.4c0.5,0.4,0.8,0.8,1,1.3c0.4,0.4,0.8,0.9,0.9,1.5c0.1,0.3,0.1,0.6,0.1,0.9
					c0,0.5,0,1.1,0,1.6c0.1,2.2,0.1,4.2,0,5.8l-0.1-0.2c0.7,7.5-0.6,12.4,0.5,18.8l-0.6,0.6c0,3.6-0.2,6.7-0.2,9.9
					c1.9,0.7,4.4-3.3,6-6.2c-0.3-6.5-0.4-13.2-0.7-19.8c-0.1-3.3-0.3-6.5-0.5-9.7l-0.1-1.3c0-0.5-0.1-0.9-0.2-1.4
					c-0.2-0.9-0.6-1.7-1.1-2.5C153,2.5,151.4,1.6,149.8,1.4z"/>
				<path class="st0" d="M36.1,54.7c0.1,0,0.2,0,0.3,0c-1.2-0.1-2.1-0.2-0.8-0.5c-2,0.2-1.2,0.3-2.3,0.6c0.3,0,0.6,0,0.9,0
					C34.9,54.8,35.5,54.7,36.1,54.7z"/>
				<path class="st0" d="M33.3,54.9C33.3,54.9,33.3,54.9,33.3,54.9l0.9,0C34,54.8,33.6,54.8,33.3,54.9z"/>
				<path class="st0" d="M36.1,54.7c0.1,0,0.2,0,0.3,0h0C36.3,54.7,36.2,54.7,36.1,54.7z"/>
				<path class="st0" d="M2.2,44.4c0.2-1.1,0.3-2.2,0.6-2.6c-0.5-2.7-0.8-2.5-1.2-3.3l-0.3,2.6L2,39.2c0,1.2-0.2,2.4-0.3,3.5
					C1.9,43.6,2,44.2,2.2,44.4z"/>
				<path class="st0" d="M1.4,46.6c0.2,0.3,0.3,0.2,0.4-0.2L1.4,46C1.4,46.2,1.4,46.4,1.4,46.6z"/>
				<path class="st0" d="M0.9,35.5c-0.3-0.3-0.6-0.8-0.9,0.2l0.8,0.8c0-0.1-0.1-0.2-0.1-0.3C0.9,35.8,0.9,35.6,0.9,35.5z"/>
				<path class="st0" d="M1.3,26.3c-0.2,0.1-0.3,0.5-0.5,1.5c0.4,1.6,0.7,2.1,0.9,2.5l-0.1-0.8c0.3,2,0.5,0.8,0.7-0.3
					c-0.4-1.3-0.7-2.7-1-2.8c-0.1,0.3-0.1,0.6-0.2,1C1.3,26.9,1.3,26.6,1.3,26.3z"/>
				<path class="st0" d="M2.1,30.7c0.3,0.5,0.5,1.3,0.9,3.9C2.5,35.9,2,36,1.5,33.5c0,0.4,0,0.7,0,1c0.4,0.2,0.7,2,1.2,3.4
					C3,36.6,3,32.4,3.3,31.1c0,0-0.1-0.1-0.1-0.1C2.9,33.9,2.3,29.1,2.1,30.7z"/>
				<path class="st0" d="M2.8,30.2c-0.1-0.2-0.1-0.3-0.2-0.5c0,0.3,0,0.5,0,0.7L2.8,30.2z"/>
				<path class="st0" d="M1.3,27.3c0.1-0.4,0.1-0.7,0.2-1c0,0-0.1,0-0.1,0C1.3,26.6,1.3,26.9,1.3,27.3z"/>
				<path class="st0" d="M1.7,29.4l0.1,0.8c0.1,0.1,0.2,0.3,0.3,0.4c0.3-1.6,0.9,3.3,1.2,0.3c-0.1-0.2-0.3-0.4-0.4-0.7l-0.2,0.2
					c0-0.2,0-0.5,0-0.7c-0.1-0.2-0.1-0.4-0.2-0.6C2.2,30.2,2,31.4,1.7,29.4z"/>
				<path class="st0" d="M1.5,34.5c-0.1,1.3-0.3,1.2-0.5,1c0,0.2-0.1,0.4-0.1,0.6c0,0.1,0.1,0.2,0.1,0.3l0.9,0.8l-0.1,1.2
					c0.4,0.8,0.7,0.6,1.2,3.3c0,0,0.1-0.1,0.1-0.1l-0.6-3.5c0.1,0.1,0.2,0,0.3-0.3C2.2,36.4,1.9,34.7,1.5,34.5z"/>
				<path class="st0" d="M2.2,44.4c-0.2-0.2-0.4-0.7-0.6-1.6c-0.1,1.1-0.3,2.2-0.3,3.2l0.5,0.4C2,46,2.1,45.2,2.2,44.4z"/>
				<path class="st0" d="M42.7,54.8c0.3,0,0.7-0.1,1.1-0.1c-0.7-0.1-1.4-0.2-2.1-0.3c-0.8,0-1.7,0.1-2.5,0.1
					C40,54.7,41.2,54.8,42.7,54.8z"/>
				<path class="st0" d="M57.6,64.2c0.3,0,0.7-0.1,1-0.1l-0.8-0.2C57.8,64.1,57.7,64.2,57.6,64.2z"/>
				<path class="st0" d="M79.2,55.1c-0.4,0-0.9,0.1-1.5,0.2c0.3,0.1,0.5,0.1,0.8,0.2c0.2,0,0.4,0,0.6,0.1L79.2,55.1z"/>
				<path class="st0" d="M80.6,55.1c-0.3,0-0.6-0.1-0.9-0.1C80.1,55.1,80.4,55.1,80.6,55.1z"/>
				<path class="st0" d="M68.4,54.9c-0.1-0.1-0.1-0.2,0-0.3c1.7-0.1,2.2,0.2,2.8,0.4c-0.2-0.1-0.3-0.3-0.3-0.4c-2.3-0.2-3.3,0-4,0.3
					C67.4,54.9,67.9,54.9,68.4,54.9z"/>
				<path class="st0" d="M3.2,43.8c0.4,1.1-0.4,1.8-0.1,4.4c0.3-0.8,0.5-3.3,0.7-5.1c-0.1-0.2-0.2,0-0.4,0.5c0.3-5.2,0.9,2.1,1.4-2
					c0,0.6,0,1.1,0,1.7l0,0.1c-0.1,1.1-0.2,2,0.1,2.8c0.1,1.4,0.1,2.8,0.2,4c0.1,1.1,0.2,2.7,0.3,2.6c0.3,0.6,0.9,0.8,1.3,0.7
					c0.2,0,0.4-0.1,0.5-0.2c0,0,0.1-0.1,0.1-0.1c0.2,0,0.5,0,0.7-0.1c0.5,0,1-0.1,1.5-0.1c2.1-0.1,4.5-0.2,7.3-0.1
					c-2.4,0.3-4.7,0.6-7.3,1c-0.7,0.1-1.3,0.2-2,0.2c-0.5,0-0.4,0.1-0.5,0.1c-0.1,0-0.2,0.1-0.3,0.1c-0.5,0.1-1-0.1-1.4-0.6
					c-0.4-0.1-0.4-0.6-0.3-1c0,0,0.1-1,0-1.7c0,0.1,0,0.1,0,0.2C5,51.8,5,52.2,4.9,52.4c-0.1,0.2-0.1,0.2-0.2,0.2
					c-0.1,0-0.1,0-0.2-0.2c-0.1-0.2-0.1-0.3-0.2-0.5c-0.1-0.4-0.3-0.7-0.4-0.6c-0.1,0.1-0.1,0.2-0.2,0.6c0,0.3-0.1,0.6-0.1,1.2
					c0.2-0.4,0.3-0.5,0.5-0.4c-0.1,0.5-0.2,1.2,0,1.8c0.1,0.6,0.5,1.1,0.6,1.4c-0.9-0.5-1.1-1.2-1.1-1.6c0-0.5,0.1-0.8-0.2-1.2
					c-0.2,0.8-0.2,1.6-0.1,2.1c0.1,0.6,0.2,1,0.3,1.3c0.1,0.7,0,1.3,0.3,2.1c1.6,0.6,2.8,0.3,2.8,0.1c2.4,0.1,3,0.3,2.2,0.8
					c0.1,0.1-0.1,0.1-0.4,0.2c3.1,0,7.9-0.2,7.4,0.9c2.6-0.1,4.8-0.1,6.9,0l-0.9,0.6c-3-0.2-5.6-0.4-8.3-0.6
					c-1.3-0.1-2.7-0.1-4.2-0.2c-0.4,0-0.7,0-1.1,0c-0.4,0-0.8,0-1.2,0c-0.9,0-1.9,0-2.9-0.4c0.5-0.4-0.6-0.8-1.7-1.9
					c-0.5-0.5-1.1-1.3-1.4-2.1c-0.4-0.8-0.5-1.7-0.5-2.5c0,0.3,0.1,0.5,0.2,0.4c0.5,0.7,0.6,0,0.7-2.2c-0.2,0-0.3-1-0.5-2.5
					c0.3-0.4,0.6-0.6,0.9-0.9l-0.3,2.3l0.7-2c0,1.5-0.2,2.9-0.4,4.2c-0.2,1.2-0.1,2.5,0.6,3.4c0.7,0.2,0.1-0.8,0.1-2
					c0-0.6,0.1-1.2,0.3-1.7c0.1-0.6,0.3-1.1,0.5-1.3l-0.6-3.8C2.9,47.8,3,45.8,3.2,43.8z M7.9,59.7c0.1,0,0.3,0,0.4,0
					C8.2,59.7,8.1,59.7,7.9,59.7c-0.5,0-1.1,0-1.5-0.1c-0.4,0-0.7-0.1-0.8-0.2c0.1,0,0.4,0.1,0.9,0.2C7,59.6,7.6,59.7,7.9,59.7z"/>
				<path class="st0" d="M110.8,56.9c0.5,0.2,0,0.6,0.8,0.9c0.8-0.3,1.6-0.6,2.2-1c-0.4,0-0.7,0-1,0c0,0,0.1,0.1,0.2,0.1l-1.9,0
					C111,56.9,110.9,56.9,110.8,56.9C110.8,56.9,110.8,56.9,110.8,56.9l0.3,0c0.3,0,0.6,0,1.1,0c0,0,0-0.1,0-0.1
					c-1.7-0.1-0.8-0.7-3.5-0.9l-3-0.2l0.8,0.3C110,56.2,107.4,56.9,110.8,56.9z"/>
				<path class="st0" d="M62.8,55.3l0,0.2l0.2-0.2C62.9,55.3,62.9,55.3,62.8,55.3z"/>
				<path class="st0" d="M99.3,56.5l-0.9-0.3c-0.4,0-0.9,0-1.4,0c-0.2,0.1-0.2,0.2-0.3,0.2C97.1,56.5,97.9,56.6,99.3,56.5z"/>
				<path class="st0" d="M50.1,63.9l1.4,0c-2.5-0.4,1.2-1.3-3.7-1.3l-2.4,1.1l-2-0.7c1.1-0.1,1.6-0.2,2.5-0.1c-0.3,0-0.6,0-0.8-0.1
					h0c-0.8,0-2.8-0.1-3,0.3c-3.7-0.1,0.1-0.8-2.2-1.1c-0.6,0-1.2,0-1.7-0.1l-0.7,0.6c-1.1-0.6-4.8-0.4-6.6-1L30.6,62
					c-3.6-0.9,1.1-0.2,2.2-0.8c-1.7-0.1-3.4-0.3-5-0.4c1.1,0.6,0.1,1.5,4.3,1.7c-0.8,0-1.3,0-2.3,0.1l1.8,0.7l2.2-1
					c4.5,0,1.1,0.8,3.4,1.2l-1.3,0c3-0.1,2.8,0.6,4.4,0.9c0.4-1,2.8-0.2,2.7-0.9l2.1,0.5l-0.5,0c1.4,0.9,3.6,0.4,6.1,0.6
					c1-0.1,2-0.1,2.9-0.2C53,64.2,52.4,63.9,50.1,63.9z"/>
				<path class="st0" d="M55.5,64.4c0.4,0,0.7-0.1,1.1-0.1C56.2,64.3,55.8,64.3,55.5,64.4z"/>
				<path class="st0" d="M37.1,61.4c-0.3,0.3,0.2,0.5,1,0.6l0,0c0.8,0,1.3,0.1,1.7,0.1c0.8,0,1.6,0,2.4,0c-0.9-0.8,0-1.8-6.5-1.6
					l-1.3,0.8c-0.4,0-0.8-0.1-1.2-0.1l1.1,0.8L37.1,61.4z"/>
				<path class="st0" d="M111.1,56.9l1.9,0c-0.1-0.1-0.1-0.1-0.2-0.1c-0.3,0-0.5,0-0.7,0c0,0,0,0.1,0,0.1
					C111.7,56.9,111.4,56.9,111.1,56.9z"/>
				<path class="st0" d="M110.8,56.9c0.1,0,0.2,0,0.3,0L110.8,56.9C110.8,56.9,110.8,56.9,110.8,56.9z"/>
				<path class="st0" d="M7.9,59.7c-0.4,0-1-0.1-1.4-0.1c-0.5-0.1-0.8-0.1-0.9-0.2c0.1,0.1,0.4,0.2,0.8,0.2
					C6.9,59.7,7.4,59.7,7.9,59.7z"/>
				<path class="st0" d="M1.6,48.3l-0.3,2.3l0.7-2c0,1.5-0.2,2.9-0.4,4.2c-0.2,1.2-0.1,2.5,0.6,3.4c0.7,0.2,0.1-0.8,0.1-2
					c0-0.6,0.1-1.2,0.3-1.7c0.1-0.6,0.3-1.1,0.5-1.3l-0.6-3.8c0.4,0.3,0.6-1.6,0.7-3.7c0,0,0-0.1,0-0.1C2.6,46.8,2.2,47.7,1.6,48.3z
					"/>
				<path class="st0" d="M76.6,56.7l1.3,0.6C79.9,56.9,77.7,56.9,76.6,56.7z"/>
				<path class="st0" d="M17,52.9c1,0,2.1,0.1,3.2,0.1c3.8,0.2,2.7,2.1,9,2.1c1.3-0.1,2.6-0.2,4-0.3C33,55,32.6,55.1,32,55.2
					l4.9,0.8l-0.4-1.3l2.3,0.1c-0.2-0.1-1.4-0.1-2.3-0.2c0.9,0,1.8-0.1,2.7-0.1c0.9,0.2,2,0.3,3.6,0.3c0.3,0,0.7-0.1,1.1-0.1
					c1.7,0.2,3.2,0.4,3.8,1l0.6-0.5l2.7,0.5l-0.2-0.7c3.8,0.4,7.2,0.1,12,0.6l0.1-0.2l0.2-0.2c2.5,0.3,3-0.1,3.9-0.5
					c0.5,0,1,0.1,1.5,0.1c0.4,0.6,3.5,0.6,5.7,1.2c0.5-0.3,2-0.7-0.1-0.7c7.5-0.3,0.9,1.5,7.2,1.2l-1.3-0.5l2,0
					c-1.2-0.1-2.2-0.5-3.3-0.8c0.2,0,0.4,0,0.6,0.1l0.1-0.4c0.2,0,0.3,0,0.5,0c0.4,0,0.7,0.1,0.9,0.1c1,0.2,1.5,0.7,5.2,0.5
					c-1.2,0.5-0.6,1.1,3.1,1.1l-1.6-0.6c3.9,0.2,1.1,0.9,4.4,0.9c0.7,0.3-0.9,1,3.6,1.1c0.6-0.1,1-0.3,1.3-0.4l0.3,0.1l3.1,0.6
					l-3.3-0.8c1.4-0.5-0.6-0.7-0.1-1.3c0.5,0.1,1.3,0.1,2.6,0.1l-0.9-0.3c4.4,0,6,1.1,11.3,0.9l-3.1-1.1c3.5,0.2,0.9,0.9,4.3,0.9
					c0.5,0.2,0,0.6,0.8,0.9c-0.6,0.2-1.2,0.3-1.8,0.5c-0.7-0.1-1.4-0.2-2.1-0.3c0.1,0,0.1,0,0,0c-1.3-0.2-2.5-0.5-3.4-0.7l1-0.2
					c-1.5-0.1-3,0.5-6.8,0.1c0.3,0.8,3.5-0.1,3.8,0.7l1-0.3c2.5,0,1.8,0.7,1.6,0.6c1,0.1,1.8,0.1,2.4,0c0.5,0.1,0.7,0.3,0.4,0.4
					c0.3,0,0.7,0,1,0c-0.8,0.2-1.6,0.3-2.4,0.5c0.1-0.2,0.1-0.3-0.5-0.5l-1.1,0.1c0.8,0.2,0.8,0.4,0.8,0.6c-0.2,0.1-0.4,0.1-0.6,0.2
					c-4.5,0-5,0-10.8-0.2c0.9,1.2-8.4,2-13.3,2.7l-3.1-0.4c-5.2,0.9-11.6,1.9-19,2.6l-0.8-0.2c0,0.1-0.1,0.2-0.2,0.3
					c-0.3,0-0.6,0.1-1,0.1c-0.4,0-0.8,0-1.1,0.1c-0.6,0-1.2,0.1-1.8,0.1c-0.7-0.3-1.3-0.6-3.6-0.6l1.4,0c-2.5-0.4,1.2-1.3-3.7-1.3
					l-2.4,1.1l-2-0.7c1.1-0.1,1.6-0.2,2.5-0.1c-0.3,0-0.6,0-0.8-0.1c0.7-0.4,0.2-0.6-0.8-0.7l0.2-0.3c2,0.7,6.1,0.4,7.2,1.1l0.7-0.7
					c0.5,0.1,1.2,0.1,1.9,0.1c2.6,0.3-1.6,1,2.4,1.2c0.2-0.4,2.4-0.4,3.3-0.3c1.6-1-2.5-0.8-5.7-0.8c-0.4-0.1-1-0.1-1.8-0.1l0,0
					c-0.9-0.1-1.4-0.3-1.1-0.7l-3,0.7l-1.5-1c-0.7,0.9-6.1,0.1-3.3,0.9c-0.4,0-0.8,0-1.3,0c-0.9-0.8,0-1.8-6.5-1.6l-1.3,0.8
					c-0.4,0-0.8-0.1-1.2-0.1L33,61c0,0.1-0.1,0.1-0.2,0.1c-1.7-0.1-3.4-0.3-5-0.4c-0.6-0.3-1.8-0.5-5-0.4l-0.2,0.1
					c-2.1-0.1-4.3-0.1-6.9,0c0.5-1.1-4.2-0.8-7.4-0.9c0.3,0,0.5,0,0.4-0.2c0.8-0.5,0.2-0.7-2.2-0.8c0,0.2-1.2,0.5-2.8-0.1
					c-0.2-0.8-0.1-1.3-0.3-2.1c-0.1-0.4-0.2-0.8-0.3-1.3c-0.1-0.6-0.1-1.3,0.1-2.1c0.3,0.4,0.2,0.7,0.2,1.2c0,0.5,0.2,1.2,1.1,1.6
					c-0.1-0.3-0.4-0.8-0.6-1.4c-0.2-0.6-0.1-1.3,0-1.8c-0.2-0.1-0.3,0-0.5,0.4c0.1-0.5,0.1-0.9,0.1-1.2c0.1-0.3,0.1-0.5,0.2-0.6
					c0.1-0.1,0.3,0.2,0.4,0.6c0.1,0.2,0.1,0.4,0.2,0.5c0.1,0.2,0.1,0.1,0.2,0.2c0.1,0,0.1,0,0.2-0.2C5,52.2,5,51.8,5.1,51.2
					c0,0.5,0,1,0,1.4l0,0c-0.1,0.4-0.1,0.9,0.3,1c0.4,0.5,1,0.7,1.4,0.6c0.1,0,0.2,0,0.3-0.1c0.1,0,0.1-0.1,0.5-0.1
					c0.7-0.1,1.4-0.2,2-0.2C12.4,53.5,14.6,53.2,17,52.9z M101.8,58.3c1.4,0.1,2.9,0.3,3.5,0.6C102.9,58.9,102.8,58.6,101.8,58.3
					c-0.7-0.1-1.3-0.1-1.9-0.2C100.8,58.2,101.4,58.2,101.8,58.3z M88.9,58.5c1.8-0.1,3.8,0.2,3.1,0.7l1-0.6
					c0.7,0.1,1.7,0.1,2.7,0.3L92,58.1c0,0.1,0,0.2,0.2,0.3c-2.5-0.2-4.8-0.6-6.4-1C86,57.7,89.8,58.2,88.9,58.5z M86.1,58.7l1-0.1
					c1.5,0.3-1.2,0.9,1.9,1.1C85.2,59.7,87.9,59.1,86.1,58.7z M76.1,56.5l0.5,0.3c1.1,0.1,3.3,0.2,1.3,0.6l-1.3-0.6
					C76.2,56.7,75.9,56.6,76.1,56.5z M78.2,57.7l3.6,0.8L79,58L78.2,57.7z M74.5,58.2l3.3,0.7C76,58.5,74.3,58.8,74.5,58.2z
					 M69.1,56.1c2.2-0.5-0.3-0.6-2.5-0.7C65.7,55.9,68.5,55.9,69.1,56.1z M51.1,55.7c2,0,4.3,0.2,2.3,0.6
					C52.9,56.1,50.4,56.1,51.1,55.7z"/>
				<path class="st0" d="M104.3,57.3l-1.2,0.2c3.8-0.1,0.7,0.9,4,0.6C106.2,57.8,104.6,57.5,104.3,57.3z"/>
				<path class="st0" d="M105.3,59c-0.6-0.4-2-0.5-3.5-0.6C102.8,58.6,102.9,58.9,105.3,59z"/>
				<path class="st0" d="M99.9,58.2c0.6,0,1.2,0.1,1.9,0.2C101.4,58.2,100.8,58.2,99.9,58.2z"/>
				<path class="st0" d="M76.6,56.7l-0.5-0.3C75.9,56.6,76.2,56.7,76.6,56.7z"/>
				<path class="st0" d="M105.8,58.6l-1.1,0.1c0.8,0.2,0.8,0.4,0.8,0.6c0.3-0.1,0.6-0.2,0.8-0.2C106.4,58.9,106.4,58.7,105.8,58.6z"
					/>
				<path class="st0" d="M107.8,58c-0.1,0-0.3,0.1-0.5,0.1c0.5,0.1,0.7,0.3,0.4,0.4c0.3,0,0.7,0,1,0c0.4-0.1,0.8-0.2,1.2-0.3
					C109.2,58.2,108.5,58.1,107.8,58z"/>
				<path class="st0" d="M107.1,58.1c0.2,0,0.3,0,0.6-0.1c0,0,0,0,0.1,0c-1.3-0.2-2.5-0.5-3.4-0.7l0,0
					C104.6,57.5,106.2,57.8,107.1,58.1z"/>
				<path class="st0" d="M56.6,63.5c0.2-0.4,2.4-0.4,3.3-0.3c1.6-1-2.5-0.8-5.7-0.8C56.8,62.7,52.6,63.4,56.6,63.5z"/>
				<path class="st0" d="M44.2,62.2l0.2-0.3c2,0.7,6.1,0.4,7.2,1.1l0.7-0.7c-0.9-0.1-1.4-0.3-1.1-0.7l-3,0.7l-1.5-1
					c-0.7,0.9-6.1,0.1-3.3,0.9C43.8,62.1,44,62.2,44.2,62.2z"/>
				<path class="st0" d="M54.2,62.4c-0.4-0.1-1-0.1-1.8-0.1l0,0C52.9,62.3,53.5,62.4,54.2,62.4z"/>
				<path class="st0" d="M96.9,57.9l3.1,0.6l-3.3-0.8c0,0-0.1,0-0.1,0L96.9,57.9z"/>
				<path class="st0" d="M92.9,58.6c0.7,0.1,1.7,0.1,2.7,0.3L92,58.1c0,0.1,0,0.2,0.2,0.3c0.3,0,0.6,0,1,0L92.9,58.6z"/>
				<path class="st0" d="M66.5,55.4c-0.8,0.5,2,0.5,2.5,0.7C71.2,55.6,68.7,55.5,66.5,55.4z"/>
				<path class="st0" d="M48.2,55.3l2.7,0.5l-0.2-0.7c-0.6-0.1-1.3-0.1-2-0.2L48.2,55.3z"/>
				<path class="st0" d="M5.1,52.7c0,0,0.1-1,0-1.7c0,0.1,0,0.1,0,0.2C5.1,51.7,5.1,52.2,5.1,52.7L5.1,52.7z"/>
				<path class="st0" d="M103.1,57.5l1.2-0.2c0,0,0,0,0,0c0,0,0,0,0.1,0l1-0.2c-1.5-0.1-3,0.5-6.8,0.1c0.3,0.8,3.5-0.1,3.8,0.7
					l1-0.3c2.5,0,1.8,0.7,1.6,0.6c1,0.1,1.8,0.1,2.4,0c-0.1,0-0.1,0-0.2-0.1C103.8,58.4,106.9,57.4,103.1,57.5z"/>
				<path class="st0" d="M107.7,58C107.8,58,107.8,58,107.7,58C107.9,58,107.9,58,107.7,58z"/>
				<path class="st0" d="M104.3,57.3L104.3,57.3C104.3,57.3,104.3,57.3,104.3,57.3C104.3,57.3,104.3,57.3,104.3,57.3z"/>
				<path class="st0" d="M107.7,58C107.7,58,107.7,58,107.7,58c-0.3,0-0.5,0.1-0.6,0.1c0.1,0,0.1,0,0.2,0.1
					C107.5,58.1,107.7,58,107.7,58C107.8,58,107.8,58,107.7,58z"/>
				<path class="st0" d="M89,59.7c-3-0.2-0.3-0.8-1.9-1.1l-1,0.1C87.9,59.1,85.2,59.7,89,59.7z"/>
				<path class="st0" d="M88.9,58.5c1.8-0.1,3.8,0.2,3.1,0.7l1-0.6c-0.3,0-0.6-0.1-0.8-0.2c-2.5-0.2-4.8-0.6-6.4-1
					C86,57.7,89.8,58.2,88.9,58.5z"/>
				<path class="st0" d="M92.9,58.6l0.2-0.1c-0.3,0-0.6,0-1,0C92.3,58.5,92.6,58.6,92.9,58.6z"/>
				<path class="st0" d="M42,63.1c0.2-0.4,2.2-0.3,3-0.3h0c-1.7-0.1-2.4-0.4-2.8-0.7c-0.8,0-1.6,0-2.4,0C42.2,62.4,38.3,63,42,63.1z
					"/>
				<path class="st0" d="M45,62.8c0.7-0.4,0.2-0.6-0.8-0.7l-0.1,0.1c-0.3-0.1-0.5-0.1-0.6-0.2c-0.4,0-0.8,0-1.3,0
					C42.6,62.4,43.3,62.7,45,62.8z"/>
				<path class="st0" d="M44.2,62.2c-0.2,0-0.4,0-0.7,0c0.2,0,0.4,0.1,0.6,0.2L44.2,62.2z"/>
				<path class="st0" d="M30.6,62l0.2-0.4c1.8,0.7,5.6,0.4,6.6,1l0.7-0.6c-0.8-0.1-1.3-0.3-1-0.6L34.4,62l-1.1-0.8
					c-0.1,0-0.3,0-0.4,0C31.7,61.8,27,61.1,30.6,62z"/>
				<path class="st0" d="M33,61c0,0.1-0.1,0.1-0.2,0.1c0.1,0,0.3,0,0.4,0L33,61z"/>
				<path class="st0" d="M38.1,62L38.1,62c0.5,0.1,1,0.1,1.7,0.1C39.4,62,38.9,62,38.1,62z"/>
				<polygon class="st0" points="78.2,57.7 79,58 81.8,58.5 				"/>
				<path class="st0" d="M77.8,58.9l-3.3-0.7C74.3,58.8,76,58.5,77.8,58.9z"/>
				<path class="st0" d="M51.1,55.7c-0.7,0.4,1.8,0.4,2.3,0.6C55.4,55.9,53.1,55.7,51.1,55.7z"/>
				<path class="st0" d="M36.1,54.7c-0.6,0-1.2,0.1-1.8,0.1C34.9,54.8,35.5,54.7,36.1,54.7z"/>
				<path class="st0" d="M34.3,54.8l-1,0.1C33,55,32.6,55.1,32,55.2l4.9,0.8l-0.4-1.3l2.3,0.1c-0.2-0.1-1.4-0.1-2.3-0.2
					c-0.1,0-0.2,0-0.3,0C35.5,54.7,34.9,54.8,34.3,54.8z"/>
				<path class="st0" d="M4.8,43.4c0-0.6,0.1-1.2,0-1.9c0,0.1,0,0.1,0,0.2C4.8,42.3,4.8,42.8,4.8,43.4L4.8,43.4z"/>
			</g>
		</g>
	</g>
</g>
<g>
	<path class="st0" d="M148,58.1c-0.2,0.5-0.4,0.9-0.6,1.2s-0.3,0.6-0.3,0.7v0.2c0,0,0,0.1,0,0.2c0,0.1,0,0.1,0,0.2
		c0,0.2,0.1,0.3,0.1,0.4c0,0.1,0,0.2,0,0.2c0,0.1,0,0.2,0,0.4c0,0.1,0,0.2,0,0.4c-0.2,1.5-0.6,2.5-1.3,2.8v0c0,0.2,0.1,0.3,0.4,0.4
		c0,0,0,0.2,0,0.3c0,0,0,0.1,0,0.2c0,0.1,0,0.2,0,0.3c0,0.4-0.1,0.8-0.3,1.4c-0.1,0.5-0.3,1.2-0.6,1.9c0,0.1-0.2,0.4-0.6,0.9
		c-0.2,0.2-0.4,0.4-0.5,0.5c-0.1,0.1-0.2,0.3-0.3,0.4c0-0.1-0.1-0.4-0.3-0.8c-0.1-0.3-0.2-0.6-0.2-0.7v-0.1c0-0.1,0-0.2,0.1-0.4
		c0.1-0.2,0.1-0.4,0.2-0.7c0.1-0.3,0.2-0.5,0.2-0.7c0.1-0.2,0.1-0.4,0.1-0.5c0.4,0,0.6,0,0.7-0.1c0,0,0-0.1-0.1-0.2v0
		c0,0-0.1,0-0.3,0c-0.2,0-0.3,0-0.5,0.1c-0.1,0-0.2,0.1-0.3,0.1c0-0.2,0-0.7,0.1-1.5c0-0.8,0.1-1.9,0.2-3.3
		c-0.1-0.2-0.3-0.4-0.6-0.6c-0.3-0.2-0.5-0.2-0.7-0.2c-0.8,0-1.7,0.2-2.7,0.5c0,0-0.1,0-0.3-0.1c-0.2,0-0.3-0.1-0.4-0.1h0
		c-0.4,0-0.9,0-1.5-0.1c-0.6-0.1-1.1-0.2-1.6-0.4s-1-0.4-1.4-0.6s-0.7-0.6-0.9-1c0.1-0.1,0.1-0.2,0.2-0.3c0.1-0.1,0.2-0.3,0.4-0.4
		c0.8-1.4,1.2-2.2,1.3-2.3l0.3-0.7c0.2-0.3,0.3-0.6,0.4-0.9c0.1-0.3,0.2-0.5,0.3-0.8c0.1-0.1,0.1-0.3,0.2-0.6
		c0.1-0.2,0.1-0.5,0.2-0.8c0.1-0.5,0.2-0.8,0.3-1l0-0.1c0.1-0.1,0.2-0.3,0.4-0.5c0.2-0.2,0.4-0.5,0.7-0.8c0.3-0.3,0.6-0.6,0.8-0.8
		c0.3-0.3,0.5-0.5,0.8-0.7c0.9,0,1.7,0.1,2.3,0.4c0.1,0.1,0.1,0.3,0.1,0.5c0,0.2,0,0.6-0.1,1c-0.1,0.3-0.2,0.6-0.3,0.9
		c-0.1,0.3-0.2,0.5-0.3,0.7l-0.1,0.3c-0.2,0.2-0.4,0.5-0.6,0.7s-0.6,0.5-1,0.8c-0.9,0.6-1.5,1.2-2,1.7l0.4,0.2
		c0.2-0.2,0.3-0.3,0.4-0.4c0.1-0.1,0.2-0.2,0.3-0.3c-0.1,0.1-0.2,0.2-0.2,0.3c-0.1,0.1-0.1,0.2-0.2,0.3c0,0.1-0.1,0.1-0.1,0.2
		c0,0-0.1,0.1-0.1,0.2c-0.1,0.3-0.2,0.5-0.2,0.6c0,0.1,0,0.2,0.1,0.2c0,0,0.1,0.1,0.3,0.1c0.2,0.1,0.4,0.1,0.6,0.2s0.5,0.1,0.7,0.1
		c0.2,0,0.5,0.1,0.7,0.1c0.1,0,0.4-0.1,0.7-0.3c0.2-0.1,0.4-0.1,0.5-0.2s0.2-0.1,0.3-0.1c0.1,0,0.3,0,0.7,0.1
		c0.3,0.1,0.6,0.1,0.9,0.1l0.3-1.3V56c0-0.1,0-0.4,0-0.7c0-0.4-0.1-0.8-0.1-1.4c-0.1-1.1-0.1-1.9-0.1-2.2v-0.1
		c0-0.1,0.1-0.5,0.4-1.3c0.2-0.4,0.3-0.7,0.3-1c0.1-0.3,0.1-0.5,0.2-0.6h0.8c0.7,0,1.3,0.3,2,1c0.6,0.6,0.8,1.1,0.8,1.6
		c0,0.4,0,0.8,0,1.1c0,0.4,0,0.7-0.1,1c0,0.3-0.1,0.6-0.2,0.9s-0.1,0.6-0.2,0.8v0.2c0,0.1,0,0.1,0,0.2c0,0.1,0,0.2,0.1,0.3
		c0.1,0.2,0.1,0.3,0.1,0.4c0,0.1,0,0.2,0,0.3C148.7,56.8,148.4,57.3,148,58.1z"/>
</g>
<g>
	<g>
		<g>
			<g>
				<path class="st0" d="M125.3,66.7c-0.8-0.4-1.3-1.7-0.4-1.9c-0.9,0.2-1,0.2-1.8-0.6c0.6-0.1,0.3-0.9,0.2-1.5
					c-0.4,0.5-0.4,1.2-0.3,2.5c0.8,0.4,0.8,1.3,1,2.2c0.1,0.4,0.2,0.9,0.3,1.3c0.2,0.4,0.5,0.6,1,0.7
					C125.3,68.5,125.9,67.4,125.3,66.7z"/>
				<path class="st0" d="M128.5,61.5l-0.4-0.1c0,0,0.2,0.4,0.4,0.7c0.2,0.4,0.4,0.7,0.4,0.7C128.5,62.6,128,61.6,128.5,61.5z"/>
				<path class="st0" d="M127.7,56.4c0.7,0.3,1.3-0.4,1.9-0.2c-1.4-0.3,0-1.2,0.1-1.9l-0.9-0.6c-1,0.4-1.3,2.2-1.5,3.6L127.7,56.4z"
					/>
				<path class="st0" d="M128.9,55.3c0,0-0.1-0.2-0.3-0.3c-0.1-0.2-0.3-0.3-0.3-0.3C128.4,55.1,128.3,56,128.9,55.3z"/>
				<path class="st0" d="M124.9,55.4c-0.4,1.3,0.6-0.7,0.6,0.7C125.3,55.6,125.4,55.1,124.9,55.4z"/>
				<path class="st0" d="M128.8,51.2c0,0-0.2,0.6-0.3,1.3c-0.1,0.3-0.1,0.6-0.2,0.9c0,0.2-0.1,0.4-0.1,0.4s0.8-0.8,0.8-0.8
					c0,0-0.1-0.4-0.1-0.9C128.8,51.6,128.8,51.2,128.8,51.2z"/>
				<path class="st0" d="M130.9,52.2c-0.1,0.2-0.7,0.5-0.8-0.1c0.6-0.2,0.7-0.5,0.8-0.8c0.1-0.3,0.1-0.7,0.7-0.8c0,0,0,0.2-0.1,0.4
					c0,0.2,0,0.4,0,0.4c0.4,0.2,0.4-0.2,0.5-0.6c0.1-0.4,0.3-0.7,0.9-0.2c-0.2-0.7-0.5-0.8-0.9-0.9c-0.3-0.1-0.6-0.1-0.5-0.9
					c-0.3,0.6-0.6,1-1,1.4c-0.3,0.4-0.8,0.8-1.2,1.2c0.5-0.1,0.5-0.3,0.9-0.5c-0.4,0.7-0.4,1.8-0.6,2.6
					C130.6,53.5,130,52.5,130.9,52.2z"/>
				<path class="st0" d="M133.1,49.4c0.5-0.5,1.4-1.3,0.8-2.3c-1.2-0.1-0.6,0.8-0.5,1.4c-0.3,0-0.9,0.6-1.2-0.1
					C132.5,48.5,132.5,49.4,133.1,49.4z"/>
				<path class="st0" d="M135.4,47.6c0,0-0.1-0.3-0.1-0.6c0-0.3-0.1-0.6-0.1-0.6l-0.2,0.4l-0.5-0.6c0.1,0.2,0.7,1.4,0.1,1.9
					C135.3,48.2,134.9,47.6,135.4,47.6z"/>
				<path class="st0" d="M132.3,43.2c0.9,0,0.9-0.5,1.5-1.1c-0.4,0.3-0.9,0.7-1.4,1.1c-0.4,0.4-0.7,0.7-0.7,1l-0.1-0.2
					c0,0-0.4,1.1-0.3,2.1c0.1-0.6,0.7-1,1.1-1.4C132.8,44.3,133,43.9,132.3,43.2z"/>
				<path class="st0" d="M131.2,44c0,0,0-0.3,0.1-0.5c0-0.3,0.1-0.5,0.1-0.5s-0.1,0.2-0.1,0.5C131.2,43.8,131.2,44,131.2,44z"/>
				<polygon class="st0" points="137.2,46.1 136,46.4 136.4,46.5 				"/>
				<path class="st0" d="M134.1,44.1c1-0.5-1-0.4-0.1-0.9c0.2-0.3-1.3,1-1,1.4C133.3,44.6,133.5,43.4,134.1,44.1z"/>
				<path class="st0" d="M137.9,45.8c0,0,0.1-0.3,0.3-0.6c0.1-0.3,0.3-0.6,0.3-0.6s-0.1,0.3-0.3,0.6C138,45.5,137.9,45.8,137.9,45.8
					z"/>
				<path class="st0" d="M140.2,45.4l0-0.6c0.5,0.1,1-0.1,1.5-0.2c0.5-0.1,1,0,1.4,0.5c-0.3-0.7,0.2-1.5-0.7-1.6
					c-0.1,0.4-0.4,0.4-0.2,0.9c-0.4-0.1-0.4-0.6-0.7-0.7c-0.5,0.8-1.5,0.5-1.8,1.3c0.2-0.2,0.3-0.1,0.5-0.1c-0.3,0.6-0.7,0.4-1,0.2
					c-0.3-0.2-0.6-0.3-0.4,0.6C138.9,44.9,139.9,45.7,140.2,45.4z"/>
				<path class="st0" d="M138.9,41.7l-1,0.1c0-0.8,1.1-0.5,1.1-1.2c-0.2-0.4-1.3-0.3-1-0.7c0.5,1.7-1.3,0.6-0.1,2.3
					c-1.1,0.7-0.8-0.9-2-0.2l0.1,1C137.1,42,137.6,42.6,138.9,41.7z"/>
				<path class="st0" d="M142.6,41.1l0.5,0.5l-0.3-0.8c0.5-0.1,1,0.1,1.5,0.3c0.4,0.3,0.8,0.6,1.2,1.1c0.7,0.8,1.2,1.6,1.7,1.4
					c0.8-0.5,1.5-0.2,2.1,0.2c0.3,0.2,0.6,0.4,0.9,0.7c0.3,0.2,0.6,0.4,0.9,0.5c0.9-0.4-0.5-0.6-0.4-1.1c0.7-1.3,0.4,0.9,1.1,0
					c0.5-0.9-1.1-1.6-1.6-2.4c-0.6,0-0.7,0.3-1,0.8c0-0.6-0.6-0.9-0.6-1.5c-0.7,0.3-1.2,0-1.6-0.2c-0.5-0.2-1-0.4-1.6,0
					c-0.4-0.8,1-0.1,0.5-0.2c0,0-0.7,0-0.7,0l0.1,0.1c-0.5,0.4-1.1,0.5-1.8,0.4c-0.6-0.1-1.3-0.3-1.6-0.5c0.5,0.2,0.9,0.8,0.4,1.1
					l-0.6-0.8c0,0-0.3,0.4-0.5,0.8c-0.2,0.4-0.4,0.8-0.4,0.8c0.3-0.5,0.9-0.5,1.3-0.4C142.3,41.9,142.6,41.9,142.6,41.1z"/>
				<path class="st0" d="M140.9,39.7c-1.6-0.1,0.5,1.3-1.2,1.3c0,0,1.6-0.5,1.7-0.5L140.9,39.7z"/>
				<path class="st0" d="M148,41.8l0.6,0.7C148.4,41.2,147.1,42.7,148,41.8z"/>
				<path class="st0" d="M150.5,42.3c0,0-0.2,0.3-0.3,0.5c-0.2,0.3-0.3,0.5-0.3,0.5s0.8-0.5,0.8-0.5c0,0,0-0.1-0.1-0.3
					C150.5,42.4,150.5,42.3,150.5,42.3z"/>
				<path class="st0" d="M152.1,44.4c0.7-0.3,0.4-1.1-0.2-1.1C152.3,43.5,152.3,44.1,152.1,44.4z"/>
				<path class="st0" d="M153.8,48c-0.7-0.6,0.5,0.7-0.7,1.2C153.5,48.8,154.3,48.6,153.8,48z"/>
				<path class="st0" d="M154,51.9c-0.3-0.1-0.3-0.3-0.1-0.5C154,51.6,154.1,51.7,154,51.9z"/>
				<path class="st0" d="M145.8,44.4c-0.1,0-0.2,0-0.3,0C145.5,44.3,145.7,44.3,145.8,44.4z"/>
				<path class="st0" d="M146,44.4l-0.2,0C145.9,44.4,145.9,44.4,146,44.4z"/>
				<path class="st0" d="M151.7,48.6L151.7,48.6c0,0,0-0.1,0-0.1L151.7,48.6z"/>
				<path class="st0" d="M129,58.5c0.1,0.2,0.1,0.4,0,0.5L129,58.5L129,58.5z"/>
				<path class="st0" d="M127.4,58.9c-0.7-1,1.8-0.8,1.5-2.2c0.1,0.6,0.1,1.2,0.1,1.8C127.8,59.2,128.4,57.8,127.4,58.9z"/>
				<path class="st0" d="M131.2,46.8C131.2,46.8,131.2,46.7,131.2,46.8C131.3,46.6,131.3,46.7,131.2,46.8z"/>
				<path class="st0" d="M155.1,73.2l-0.2-0.3c0,0,0.9-0.1,0.9-0.1C155.8,72.8,155.1,73.2,155.1,73.2z"/>
				<path class="st0" d="M154.7,72.8c0,0-0.3,0.1-0.7,0.1c-0.3,0.1-0.7,0.1-0.7,0.1s0.4-0.2,0.9-0.7c0.5-0.4,1.2-1,1.8-1.7
					c1.2-1.3,2.1-2.9,2.1-2.9l0.3,0.4c0.3,0.1-0.5,1.4-1.6,2.5c-0.5,0.6-1.1,1-1.5,1.4C154.8,72.5,154.6,72.7,154.7,72.8z"/>
				<path class="st0" d="M154.7,73.4c0.1,0.8-0.3,0.9-0.6,0.9c-0.4,0-0.8,0-1,0.7c0.3-0.9,0.2-1.7,0.9-1.7L154.7,73.4z"/>
				<path class="st3" d="M153.7,77c-0.5,0-0.8,0.7-1.1,0.7C152.3,76.7,153.2,77.1,153.7,77z"/>
				<path class="st0" d="M154,81.2c-0.1,0.1-0.2,0.1-0.2,0.1c0.1-0.1,0.1-0.2,0.2-0.3L154,81.2z"/>
				<path class="st0" d="M154,81l-0.2-0.4C154,80.7,154.1,80.8,154,81z"/>
				<path class="st0" d="M153.8,81.3c-0.2,0.2-0.4,0.5-0.5,0.7l0.3,0c-0.3,0.2-0.7,0.8-1,0.6c0.7-0.2,0.6-0.5,0.4-1.1l-1,0.3
					C151.7,80.2,152.8,81.5,153.8,81.3z"/>
				<path class="st3" d="M150.6,82.7c0,0,0.2-0.3,0.4-0.6c0.2-0.3,0.4-0.6,0.4-0.6C152,82.3,151.1,82.6,150.6,82.7z"/>
				<path class="st0" d="M148.9,82c0.2-0.3,1.2-0.4,0.5-0.7c0.1-0.2,0.3-0.2,0.5-0.3C149.3,81.5,150.2,82.4,148.9,82z"/>
				<path class="st0" d="M149.9,81.1c0.1,0,0.2-0.1,0.3-0.1C150.1,81,150,81.1,149.9,81.1z"/>
				<path class="st3" d="M157,73.3c-0.2,0-0.2-0.1-0.3-0.2L157,73.3z"/>
				<path class="st0" d="M146.7,81.3l-0.4,0C146.4,81.3,146.5,81.3,146.7,81.3L146.7,81.3z"/>
				<path class="st0" d="M158.4,60c-0.2,0.4-0.3,0.8-0.4,1.3c-0.1,0.4-0.1,0.9,0.1,1.6c1.1,0.2,0.2,0.5,1.3,0.9c0.1-0.7,0,0.6-0.3,2
					c-0.2,0.7-0.3,1.4-0.4,1.9c-0.1,0.5-0.1,0.7,0.1,0.5l-0.3-0.6c0,0,0.2,0.2,0.4,0.4c0.2,0.2,0.4,0.5,0.4,0.5
					c-0.6,0.5-1.9,0.7-1.7,1.5c-0.2-0.1,0.8-1.3,1.5-2.6c0.7-1.3,1.1-2.8,0.9-2.7c0.7-0.1,0.4,2.1-0.6,4.2c-1,2.1-2.8,3.9-2.7,4.2
					l-0.5-0.5c-0.2,0.7-0.3,1.3-0.5,1.9c-0.1,0.6-0.3,1.2-0.7,1.7l-0.6-0.6c0.8-0.2,0.7-0.8,1.1-1.5c-0.5,0.5-0.9,0.6-1.2,0.7
					c-0.4,0.1-0.6,0.2-1.1,0.5c0.5,1,1.1,0.1,0.1,1.2c-0.5-0.3-0.3-1.7-1.2-1c-1.3,0.2-0.5,1.6-1.7,2.2c0,0,0.9,0.1,0.9,0.1
					c-0.4,0.2-1.2,0.7-1.8,0.2c0.3,0,0.7-0.3,1-0.6c0.3-0.4,0.4-0.9,0.2-1.4c-0.4,0.4-1.6,0.3-2,0.4l0.1-0.8c-0.6-0.6-0.6,0.5-1.3,0
					c-0.5,0.5,0.5,1,0.2,1.4c-0.2-0.2-1.3-0.5-1.6,0c0.2,0.8,0.5,0.7,0.9,0.5c0.4-0.2,0.8-0.4,1.3,0.3l-1.1-0.1
					c-0.5,1.7,1.8-0.3,1.6,1c-0.3,0.9-0.8,0.6-1.3,0.3c-0.5-0.3-0.9-0.5-1.3,0.5c0.6,0.4,2.4,0.2,2.3,0.8c-0.7-0.5-1,0.7-2,1
					c0,0-0.3-0.2-0.6-0.3c-0.3-0.2-0.6-0.3-0.6-0.3c-0.5,0.5-0.1,0.5,0.3,0.8c-0.4-0.2-0.9-0.3-1.4-0.4c-0.5-0.1-1.1-0.1-1.7-0.1
					c-0.6-0.1-1.2-0.2-1.8-0.3c-0.6-0.2-1.1-0.5-1.6-0.9c-1.4-0.2-0.4,0.6-1.1,1c-0.2-0.6-0.6-0.8-1.1-0.9c-0.5-0.1-1-0.2-1.4-0.4
					c-0.2-0.2-1,0.5-1,0.9c0,0,0.5,0.1,1.1,0.2c0.3,0,0.5,0.1,0.7,0.1c0.2,0,0.3,0,0.3,0c-0.3,0.4-0.3,1.3,0.4,1.5
					c0.1-1,0.7-0.4,1.4,0.1c0.7,0.5,1.6,0.9,1.9-0.1l-0.2,0.9c0,0,0.2,0,0.4,0c0.3,0,0.6,0,1-0.1c0.3,0,0.7-0.1,0.9-0.1
					c0.3,0,0.4-0.1,0.4-0.1l-0.1-0.1c0,0.3,2.2-0.5,3.7-0.2c-0.2,0.2-0.9,0.2-1.4,0.3c-0.5,0.1-0.7,0.2,0,0.8
					c-0.6,0.3-1.4,0.1-2.2,0C142,83.2,141,83,140,83l0.3,0.7c-1.2,0.2-2.5-0.2-3.6-0.8c-0.6-0.3-1.2-0.6-1.7-1
					c-0.6-0.4-1.1-0.6-1.7-0.9c0,0,0.3-0.1,0.5-0.2c0.3-0.1,0.5-0.2,0.5-0.2c-0.6-0.7-1.1-1.8-2.1-1.6c0.8,0.5,0.2,0.7-0.2,0.9
					c-0.7-0.2-1.4-0.7-2.1-1.3c-0.7-0.7-1.4-1.3-2.2-1.9c0,0,0.2-0.1,0.2-0.2c0,0-0.4-0.3-0.9-0.6c-0.4-0.3-0.9-0.6-0.9-0.6
					c-0.5-0.9-0.2-1.4-0.1-2.2c-0.3-0.2-0.7-0.9-1-0.4c0.1,0.2,0.1,0.4,0.2,0.4c-1.4-0.3-0.1-0.7-1.3-1.5c1.2,0.4,0.9-0.8,1.7-1.1
					c-0.9-1.1-1.4,0.6-1.8,0.6c-0.4-1.8,0.2-2.3-0.2-4c-0.5,0.1,0.1,1.3-0.4,1.6c0-0.5-0.3-1.1-0.5-1.1l0,1.2
					c-0.1-1-0.2-1.9-0.3-2.8c-0.2-0.9-0.4-1.8-0.7-2.8l-0.2,0.2c0,0,0-0.3-0.1-0.6c0-0.3,0-0.6,0-0.6l1,0.4
					c-0.3-0.7,0.5-1.4-0.3-1.7l-0.1,0.2l-0.3-0.8c0,0,0.2,0.2,0.5,0.4c0.2,0.2,0.5,0.4,0.5,0.4c0.2-0.5-0.2-1.1-0.6-1.9
					c-0.2-0.4-0.4-0.8-0.5-1.2c-0.1-0.4-0.1-0.9,0-1.3c0.7-0.1,0.6,0.7,0.7,1.5c0.1,0.8,0.3,1.7,1.1,1.8c0.3-0.5,0.6-1.4,0.2-1.8
					c-0.5,0-0.5,0.4-0.5,0.8c-0.2-0.4-0.3-0.8-0.2-1.2c0-0.4,0.2-0.9,0.3-1.3c0.2-0.8,0.4-1.6-0.2-2.2l-0.8,1
					c0.2-1.4,2.1-1.7,1.3-2.4c0,0,0.3,0.4,0.6,0.7c0.3,0.4,0.7,0.7,0.7,0.7c-0.4-1.5,0.3-3,0.4-4.3c-0.9-0.5-0.8,1.6-0.9,1.5
					c0,0-0.1-0.2-0.2-0.4c-0.1-0.2-0.2-0.4-0.2-0.4c0.7-0.8,0.9-0.8,1.1-0.9c0.2-0.1,0.5-0.3,1.3-1.1l-0.5-0.4
					c1.2-0.2,0.9-2.9,1.8-1.3l-0.7,0.3l0.7,0.4c0,0,0.3-0.6,0.6-1.2c0.3-0.6,0.7-1.2,0.7-1.2c0.3,0.6,1-0.5,1.3,0.3
					c0,0,0-0.3,0.1-0.6c0.1-0.3,0.1-0.6,0.1-0.6c0.5,0.3,0.4,0.8,0.3,1.3c-0.1,0.6-0.3,1.1,0,1.4c0.4,0.3,0.6,0,0.7-0.2
					c0,0.7-0.5,0.7-1,0.8c-0.5,0.1-1.2,0.1-1.5,0.5l0.3,0.8l-0.8-0.6c-0.1,0.5,0.2,1.2,0.5,1.5c-0.8,0.1-1.1,0.6-1.2,1.2
					c-0.1,0.6-0.1,1.3-0.5,2c-0.1-1.4-1.2,0.5-1.3,0.2c-0.1,0.2-0.1,0.4,0,0.8c0.1,0.3,0.1,0.7,0.2,1c0.1,0.7,0.1,1.2-0.5,1.4
					c-0.5,0.4-0.5-1-0.9,0c0,0.7,0.4,1.2,1,0.9c0.1,1.5-0.2,3.1,0,4.7l-0.7-0.3c-0.5,1.1,0.6,2,1.4,2.3c-0.2,0.2,0,0.2-0.4,0.2
					c-0.4,0.7,0.1,1.1,0.6,1.4c0.5,0.4,1.3,0.7,1.5,1.7c0.8-0.5,0.6-1.3,0-1.7l1-0.2c-0.4-1.5-1-3.1-1.6-4.4c0,0,0.2,0.1,0.4,0.3
					c0.2,0.1,0.4,0.3,0.4,0.3c0.7-0.6,0.3-0.7,0-0.9c-0.3-0.2-0.6-0.4,0.2-0.9c-0.3-0.8-0.6,0.5-1,0c0.3-0.5,1.8,0.2,1.9-0.7
					c0.1,1.6,0.4,3.2,0.9,4.8c0.4,1.6,1.1,3.1,2.1,4.4c0.2-0.1,0.2-0.2,0.1-0.4c0.8,0.1,1.6,2.4,3.2,4.2c1.6,1.8,3.8,3,4.4,1.8
					c0,0.4-0.6,0.7,0,0.8c0.1-0.2,0.4-0.3,0.4-0.8c0.1,0.2,0.3,0.4,0.5,0.6c0.2,0.2,0.4,0.3,0.6,0.4c0.4,0.2,0.9,0.3,1.5,0.3
					c0.5,0,1,0.1,1.6,0.1c0.5,0,1,0.2,1.6,0.3c-0.1-0.4,0.4-0.7,0.3-1c0.4,0.5,0.8,0.4,1.3,0.3c0.4-0.1,0.9-0.3,1.2-0.1l-0.3-0.5
					c0,0,0.5-0.1,0.9-0.2c0.2,0,0.5-0.2,0.6-0.2c0.2-0.1,0.3-0.1,0.3-0.1c0-0.2-0.3-0.1-0.4-0.1c0.3-0.4,0.6,0.1,0.8,0.5
					c0,0,0.1-0.3,0.2-0.7c0.1-0.4,0.2-0.7,0.2-0.7c1.5,0.4,2.7-0.7,3.6-1.9c0.9-1.2,1.4-2.6,2.7-3.4c-0.5-0.8-0.7-1.3-0.5-1.9
					l-0.4,0.2c-0.4-0.9,0.4,0.2,0.3-0.5c-0.4-0.6-1.2-0.6-0.9,0c-0.4,0.1-0.6-0.2-0.7-0.4C155.8,63.1,156.7,61.7,158.4,60z"/>
				<path class="st0" d="M154.8,58.2c0.4-0.3,0.5,0.6,1.3,0.1c0.8-0.9,0.5-2,0.2-3c-0.4-1-1-2-1.1-3.2c0.2-0.9,0.1-1,0-1.6
					c-0.1,0.1-0.3,0.2-0.4,0.4c-0.2-0.3-0.5-0.5-0.8-0.7c-0.3-0.3-0.5-0.5-0.6-0.9c-0.3,0-0.8,0.5-0.4,0.6c-0.5,0-0.6-0.5-0.7-0.9
					c-0.1-0.4-0.2-0.9-0.5-0.8c0.1,0.6-0.7,0.4-0.4,0.9c-0.8-0.3,0.4-2.5-0.3-3.1c-0.1,0.2-0.2,0.3-0.1,0.4
					c-0.2-0.6-0.9-0.8-1.5-0.9c-0.6-0.1-1.1-0.2-0.9-1.1c0,0-0.1,0.1-0.3,0.3c-0.1,0.2-0.3,0.3-0.3,0.3c-0.3-0.6-0.1-1-0.8-1.3
					c-0.5,0.2-0.1,0.6-0.3,0.9c-0.1-0.7-1.3-0.5-1.9-1.5c0-0.6,0.3-0.2,0.6,0.2c0.3,0.4,0.7,0.8,1,0.3c0-0.2,0-0.3-0.2-0.3
					c0.8,0.1,1.4,0.5,2,0.9c0.6,0.5,1.1,1,1.5,1.5c0.4,0.5,0.8,1,1.2,1.4c0.4,0.4,0.8,0.6,1.4,0.7c0,0.9,0.7,0.5,1.3,0
					c-0.1-0.5-0.8-1.8-1.5-0.5c0,0,0-0.3-0.1-0.6c0-0.3-0.1-0.6-0.1-0.6c-0.3-0.1,0.4-1.4,0.4-1.7c0.4,0.4,1.7-0.6,1.2-1.5
					c0.8,0.3,0.3,0.9-0.2,1.6c-0.5,0.6-1,1.2-0.4,1.4l0.7-0.9c-0.5,0.4,0.2,1.4,0.7,1.3l0-0.3c1.3,1.2,2.7,2.5,4,4.1
					c1.3,1.6,2.4,3.4,3.1,5.2c-1.2,0.8-0.8,1.3-0.4,2c0.2,0.3,0.4,0.6,0.5,0.9c0,0.3-0.2,0.6-0.7,0.8c0.4,0.4,0.9-0.7,1.3,0.1
					c0.2,0.4-0.5,0.5-0.7,0.4c0.1,0.1,0.2,0.2,0.2,0.4c-1.3,0.2-2.6,0-3.8-0.3C156.8,59.4,155.8,58.8,154.8,58.2z"/>
			</g>
		</g>
	</g>
</g>
</svg>
