<?xml version="1.0" encoding="utf-8"?>
<!-- Generator: Adobe Illustrator 19.1.0, SVG Export Plug-In . SVG Version: 6.00 Build 0)  -->
<svg version="1.1" id="Слой_1" xmlns="http://www.w3.org/2000/svg" xmlns:xlink="http://www.w3.org/1999/xlink" x="0px" y="0px"
	 viewBox="0 0 960 560" style="enable-background:new 0 0 960 560;" xml:space="preserve">
<style type="text/css">
	.st0{fill:#0F0F0F;}
</style>
<g>
	<path class="st0" d="M12.3,6.4c0,0.2,0,0.4-0.1,0.5c-0.1,0.2-0.2,0.3-0.3,0.5c-0.1,0.2-0.3,0.3-0.4,0.5c-0.2,0.2-0.4,0.3-0.6,0.5
		c-0.1,0.1-0.3,0.2-0.6,0.4C10.1,8.9,9.8,9,9.5,9.2C9.2,9.3,8.9,9.4,8.6,9.6c-0.3,0.1-0.7,0.2-1,0.3c-0.3,0.1-0.6,0.2-0.9,0.3
		c-0.3,0.1-0.6,0.2-0.9,0.2s-0.6,0.1-0.9,0.2s-0.6,0.1-0.9,0.1c-0.1,0-0.3,0-0.5-0.1S3,10.5,2.8,10.4s-0.5-0.1-0.7-0.2
		c-0.2-0.1-0.4-0.2-0.5-0.2C1.5,9.9,1.4,9.8,1.3,9.7C1.2,9.6,1.2,9.4,1.1,9.3C1,9.2,1,9.1,0.9,9c0-0.1-0.1-0.2-0.1-0.2
		c0-0.1,0-0.2,0-0.3c0-0.1,0-0.2,0.1-0.4S1,7.8,1.1,7.6c0-0.2,0.1-0.3,0.1-0.5s0.1-0.3,0.2-0.4c0.1-0.1,0.1-0.2,0.2-0.3
		c0.1-0.1,0.2-0.3,0.3-0.5C1.9,5.7,2,5.6,2.2,5.4c0.1-0.2,0.2-0.3,0.4-0.5C2.7,4.8,2.8,4.6,3,4.5c0.1-0.1,0.3-0.3,0.5-0.4
		C3.6,4,3.8,3.9,3.9,3.8c0.2-0.1,0.3-0.2,0.6-0.3c0.2-0.1,0.4-0.2,0.7-0.3c0.2-0.1,0.5-0.1,0.7-0.2C6.1,3,6.3,3,6.5,3
		c0.2,0,0.4,0,0.6,0.1c0.1,0.1,0.3,0.1,0.4,0.2c0.1,0.1,0.2,0.1,0.3,0.2S8,3.7,8,3.8c0,0.1,0.1,0.1,0.1,0.2c0,0,0,0.1-0.1,0.2
		c0.1,0,0.3,0,0.6,0.1c0.3,0,0.6,0.1,1,0.1c0.2,0,0.4,0.1,0.6,0.2c0.2,0.1,0.5,0.2,0.7,0.3c0.2,0.1,0.4,0.2,0.6,0.3
		c0.2,0.1,0.3,0.2,0.4,0.3c0,0.1,0.1,0.1,0.2,0.2c0.1,0.1,0.1,0.2,0.1,0.3s0.1,0.2,0.1,0.3C12.3,6.3,12.3,6.4,12.3,6.4z M11.1,6.3
		c0-0.1,0-0.1-0.1-0.2s-0.2-0.2-0.3-0.3s-0.3-0.2-0.4-0.3c-0.2-0.1-0.3-0.1-0.4-0.2C9.6,5.3,9.3,5.2,9.1,5.2S8.7,5.1,8.4,5.1
		S7.9,5,7.7,5C7.4,5,7.1,5,6.8,4.9l0,0c-0.1,0-0.2,0-0.2,0c-0.1,0-0.1,0-0.1-0.1S6.4,4.8,6.4,4.7c0,0,0-0.1,0-0.2c0,0,0-0.1,0-0.1
		s0-0.1,0-0.1c0.1,0,0.2-0.1,0.3-0.1c0.1,0,0.2,0,0.3,0c0,0-0.1-0.1-0.1-0.1c0,0,0,0-0.1-0.1c0,0-0.1,0-0.1,0S6.6,4,6.5,4
		C6.4,4,6.2,4,6,4.1C5.9,4.1,5.7,4.2,5.5,4.3C5.3,4.4,5.1,4.5,4.9,4.6S4.5,4.8,4.4,4.9C4.3,5,4.1,5.2,4,5.4C3.8,5.5,3.6,5.7,3.4,6
		C3.4,6.1,3.3,6.2,3.2,6.3S3,6.5,3,6.7C2.9,6.8,2.8,6.9,2.7,7S2.6,7.3,2.6,7.4C2.5,7.6,2.4,7.9,2.3,8.1C2.3,8.3,2.2,8.5,2.2,8.7
		c0,0.1,0.1,0.3,0.2,0.4c0.1,0.1,0.3,0.2,0.4,0.3C3,9.5,3.2,9.5,3.4,9.6c0.2,0,0.4,0.1,0.6,0.1c0.9,0,1.8-0.2,2.8-0.5
		c0.5-0.2,1-0.3,1.6-0.6C8.9,8.4,9.4,8.1,10,7.8c0.1-0.1,0.2-0.1,0.3-0.3c0.1-0.1,0.3-0.3,0.4-0.4C10.8,7,10.9,6.8,11,6.7
		C11.1,6.5,11.1,6.4,11.1,6.3z M9,7.2C9,7.2,9,7.2,9,7.2c0,0.1,0,0.1,0,0.1c0,0.1-0.1,0.2-0.3,0.4S8.4,7.9,8.2,8.1S7.7,8.3,7.5,8.4
		C7.3,8.5,7,8.6,6.8,8.6c-0.2,0-0.3,0.1-0.4,0.1C6.3,8.8,6.2,8.8,6,8.8s-0.2,0-0.3,0.1c-0.1,0-0.2,0-0.3,0c-0.2,0-0.4,0-0.6-0.1
		C4.6,8.7,4.4,8.6,4.3,8.5C4.1,8.4,4,8.2,3.9,8.1C3.9,7.9,3.8,7.8,3.8,7.6c0-0.2,0-0.3,0.1-0.5C4,7,4,6.8,4.1,6.6
		c0.1-0.2,0.2-0.3,0.3-0.4C4.6,6,4.7,5.9,4.9,5.8h0c0.3-0.2,0.6-0.4,0.9-0.5C6,5.2,6.3,5.2,6.6,5.2c0.2,0,0.3,0,0.5,0.1
		c0.1,0.1,0.3,0.1,0.4,0.2c0.1,0.1,0.2,0.2,0.3,0.3S7.8,6,7.8,6.2c0,0,0,0.1,0,0.1c0,0,0,0.1,0,0.1S7.7,6.5,7.7,6.5
		c-0.1,0-0.1,0.1-0.2,0.1C7.2,6.7,7.1,6.7,7,6.7c-0.1,0-0.2,0-0.2,0c-0.1,0-0.1-0.1-0.1-0.1S6.6,6.5,6.5,6.4c0-0.1,0-0.1,0-0.2
		c0,0-0.1,0-0.1,0c-0.1,0-0.2,0-0.3,0.1C6,6.3,6,6.4,5.9,6.4C5.7,6.5,5.6,6.6,5.5,6.7S5.4,6.8,5.3,6.9C5.2,7,5.2,7.1,5.2,7.2
		c0,0.1,0,0.2,0,0.4c0,0.2,0.1,0.3,0.1,0.3C5.3,7.9,5.4,8,5.6,8c0.2,0,0.3,0,0.5,0c0.1,0,0.3,0,0.4-0.1c0.1,0,0.3-0.1,0.4-0.1
		c0.1,0,0.3-0.1,0.4-0.1c0.1,0,0.2-0.1,0.3-0.1c0.1,0,0.2-0.1,0.2-0.1S8,7.2,8,7.2c0.1-0.1,0.1-0.1,0.1-0.1C8.2,7,8.3,7,8.3,6.9
		c0.1,0,0.2,0,0.3,0C8.9,6.9,9,7,9,7.2z"/>
	<path class="st0" d="M22.1,5.3c0.1,0,0.2,0,0.2,0c0.1,0,0.1,0.1,0.2,0.1c0,0,0.1,0.1,0.1,0.2s0,0.1,0,0.2c0,0.1,0,0.2-0.1,0.2
		c-0.1,0.1-0.2,0.1-0.3,0.2c-0.1,0.1-0.2,0.1-0.3,0.2s-0.2,0.1-0.3,0.1c0,0-0.1,0-0.2,0.1c-0.1,0-0.2,0.1-0.3,0.1S21,6.9,20.9,6.9
		c-0.1,0-0.2,0.1-0.3,0.1c0,0-0.1,0-0.1,0.1c-0.1,0-0.1,0.1-0.2,0.1c-0.1,0-0.2,0.1-0.3,0.1c-0.1,0-0.2,0-0.2,0.1
		c0.1,0.1,0.3,0.2,0.4,0.3s0.4,0.2,0.5,0.3s0.4,0.2,0.6,0.4c0.2,0.1,0.3,0.2,0.5,0.4C22,8.8,22.1,8.9,22.2,9s0.1,0.2,0.1,0.2
		c0,0,0,0.1-0.1,0.2c0,0.1-0.1,0.1-0.1,0.2c-0.1,0-0.1,0.1-0.2,0.1s-0.1,0-0.2,0c-0.1,0-0.2,0-0.4-0.1c-0.1-0.1-0.3-0.2-0.5-0.3
		c-0.2-0.1-0.4-0.3-0.6-0.4c-0.2-0.1-0.4-0.3-0.6-0.5c-0.1-0.1-0.2-0.2-0.4-0.3c-0.1-0.1-0.3-0.2-0.5-0.3c-0.2-0.1-0.4-0.2-0.5-0.3
		c-0.1-0.1-0.1-0.2-0.1-0.3c0-0.1,0-0.2,0.1-0.3c0-0.1,0.1-0.1,0.2-0.1c0.1,0,0.2-0.1,0.3-0.1s0.2,0,0.3-0.1c0.2,0,0.4-0.1,0.6-0.2
		c0.2-0.1,0.4-0.2,0.7-0.3C21.4,5.6,22,5.3,22.1,5.3z M27.2,6.1c0,0,0,0.1,0,0.1s-0.1,0.1-0.1,0.1c0,0-0.1,0.1-0.1,0.1
		c-0.1,0-0.1,0.1-0.2,0.1c0,0-0.1,0-0.1,0c-0.1,0-0.1,0-0.2,0c-0.1,0-0.1,0-0.2,0c-0.1,0-0.1,0-0.1,0l-1.2,0.3
		c-0.1,0-0.2,0.1-0.3,0.1c-0.1,0-0.2,0.1-0.3,0.1c-0.1,0-0.2,0.1-0.3,0.1s-0.1,0-0.2,0.1c0.1,0.1,0.2,0.1,0.3,0.2
		c0.1,0.1,0.2,0.2,0.4,0.3c0.1,0.1,0.3,0.2,0.4,0.3c0.1,0.1,0.2,0.2,0.3,0.2c0.3,0.2,0.5,0.4,0.7,0.6S26,9.2,26,9.3
		c0,0.1,0,0.1-0.1,0.2c0,0.1-0.1,0.1-0.1,0.1c-0.1,0-0.1,0.1-0.2,0.1c-0.1,0-0.2,0-0.2,0c-0.1,0-0.2,0-0.3-0.1
		c-0.1-0.1-0.2-0.1-0.2-0.2c-0.3-0.2-0.6-0.5-1-0.8C23.5,8.4,23,8,22.4,7.6c-0.1-0.1-0.2-0.2-0.2-0.3c0-0.2,0.1-0.3,0.2-0.3
		c0.1-0.1,0.2-0.1,0.4-0.2s0.3-0.1,0.5-0.1c0.3-0.1,0.6-0.2,1-0.3c0.3-0.1,0.7-0.2,1.1-0.3c0,0,0.1,0,0.2-0.1c0.1,0,0.2-0.1,0.3-0.1
		c0.1,0,0.2-0.1,0.4-0.1s0.2-0.1,0.3-0.1c0.2,0,0.3,0,0.4,0.1C27.1,5.9,27.2,6,27.2,6.1z"/>
	<path class="st0" d="M36.9,8.1c0,0.2,0,0.3-0.1,0.5c0,0.2-0.1,0.3-0.2,0.5c-0.1,0.2-0.2,0.3-0.3,0.5S36.2,9.9,36,10
		c-0.1,0.1-0.2,0.2-0.3,0.3c-0.1,0.1-0.2,0.2-0.3,0.2c-0.1,0.1-0.2,0.1-0.3,0.2c-0.1,0.1-0.2,0.1-0.2,0.2c-0.1,0.1-0.3,0.2-0.5,0.2
		c-0.2,0.1-0.5,0.2-0.7,0.2c-0.3,0.1-0.5,0.1-0.8,0.2c-0.3,0-0.5,0.1-0.7,0.1c-0.2,0-0.4,0-0.6-0.1s-0.3-0.1-0.5-0.2
		s-0.2-0.2-0.3-0.3c-0.1-0.1-0.1-0.2-0.1-0.4c0-0.1,0-0.2,0.1-0.3c0.1-0.1,0.1-0.1,0.2-0.2c0.1-0.1,0.2-0.1,0.3-0.1
		c0.1,0,0.2,0,0.4,0c0.1,0,0.2,0,0.2,0c0.1,0,0.1,0,0.2,0c0.1,0,0.1,0,0.2,0c0,0,0.1,0,0.2,0.1c0.2,0.1,0.4,0.1,0.5,0.1
		c0.1,0,0.1,0,0.2,0c0.1,0,0.2,0,0.3-0.1c0.1,0,0.2-0.1,0.3-0.1s0.2-0.1,0.2-0.1c0.2-0.1,0.3-0.2,0.5-0.4s0.3-0.3,0.5-0.5
		s0.3-0.3,0.3-0.5c0.1-0.2,0.1-0.3,0.1-0.5c0-0.1,0-0.2-0.1-0.3c-0.1-0.1-0.2-0.2-0.3-0.3c-0.1-0.1-0.2-0.1-0.3-0.2
		c-0.1-0.1-0.3-0.1-0.4-0.1c-0.1,0-0.2-0.1-0.3-0.1c-0.1,0-0.2,0-0.2,0c-0.2,0-0.3,0-0.4,0s-0.2,0-0.3,0c-0.1,0-0.2,0-0.2,0.1
		s-0.2,0.1-0.2,0.1c-0.1,0-0.2,0.1-0.3,0.1c-0.1,0-0.1,0-0.2,0c-0.1,0-0.2,0-0.3,0c-0.1,0-0.2-0.1-0.2-0.1c-0.1-0.1-0.1-0.1-0.1-0.2
		c0-0.1-0.1-0.1-0.1-0.2c0-0.1,0-0.2,0.1-0.3s0.1-0.2,0.2-0.3c0.1-0.1,0.2-0.1,0.3-0.2c0.1,0,0.2-0.1,0.3-0.1c0.1,0,0.1,0,0.2,0
		c0.1,0,0.1,0,0.2,0s0.1,0,0.2,0c0.1,0,0.1,0,0.1,0c0.1,0,0.2-0.1,0.3-0.2s0.3-0.2,0.4-0.2c0.1-0.1,0.3-0.2,0.4-0.3
		c0.1-0.1,0.3-0.2,0.4-0.3c0.1-0.1,0.2-0.2,0.3-0.3s0.1-0.2,0.1-0.2c0-0.1-0.1-0.2-0.2-0.3c-0.1-0.1-0.4-0.1-0.7-0.1
		c-0.3,0-0.5,0-0.9,0.1c-0.3,0-0.6,0.1-1,0.2c-0.1,0-0.3,0.1-0.4,0.1c-0.1,0.1-0.3,0.1-0.4,0.2S31.1,4.9,31,4.9
		c-0.1,0.1-0.2,0.1-0.2,0.2c0,0,0,0.1,0,0.1c0,0.1,0,0.1,0,0.2s0,0.2,0,0.4c0,0.2,0,0.4,0,0.6c0,0.2,0,0.3,0,0.4c0,0.1,0,0.2,0,0.3
		s0,0.2,0,0.3c0,0.1,0,0.2-0.1,0.4c0,0.2-0.1,0.4-0.1,0.6c0,0.2,0,0.4,0,0.5v1c0,0.4-0.1,0.6-0.2,0.8c-0.2,0.2-0.4,0.2-0.7,0.2
		c-0.2,0-0.3,0-0.4-0.1c-0.1-0.1-0.2-0.1-0.3-0.2c-0.1-0.1-0.1-0.2-0.1-0.4s0-0.3,0-0.5c0,0,0,0,0-0.1c0-0.1,0-0.2,0-0.3
		c0-0.1,0-0.2,0.1-0.4c0-0.1,0-0.3,0.1-0.4c0-0.1,0-0.2,0.1-0.3c0-0.1,0-0.2,0-0.2c0,0,0-0.1,0-0.2s0-0.2,0-0.3c0-0.1,0-0.3,0.1-0.4
		c0-0.2,0-0.3,0.1-0.4c0-0.1,0-0.3,0-0.4c0-0.1,0-0.2,0-0.2c0-0.3,0.1-0.4,0.1-0.5c0,0,0-0.1,0-0.1c0-0.1,0-0.1,0-0.2
		c0-0.1,0-0.1,0-0.1c0,0,0-0.1,0-0.1c0-0.1,0-0.3,0-0.4c0-0.1,0.1-0.2,0.1-0.3c0.2-0.3,0.4-0.4,0.6-0.4c0.1,0,0.2,0,0.4-0.1
		c0.1,0,0.2-0.1,0.3-0.1c0.5-0.1,1-0.3,1.3-0.4c0.3-0.1,0.5-0.1,0.6-0.2c0.1,0,0.3-0.1,0.4-0.1c0.1,0,0.3,0,0.4-0.1s0.3,0,0.5,0
		c0.2,0,0.4,0,0.6,0c0.1,0,0.3,0,0.5,0.1c0.2,0,0.3,0.1,0.5,0.2c0.2,0.1,0.3,0.1,0.4,0.2C35.9,3.5,36,3.6,36,3.8
		c0,0,0.1,0.1,0.1,0.2c0,0.1,0.1,0.1,0.1,0.2s0,0.1,0.1,0.2s0,0.1,0,0.2c0,0.3-0.1,0.6-0.4,0.8c-0.3,0.3-0.6,0.6-1.1,1
		c0.3,0.1,0.6,0.2,0.8,0.3c0.3,0.1,0.5,0.3,0.7,0.4c0.2,0.2,0.4,0.3,0.5,0.5C36.9,7.8,36.9,7.9,36.9,8.1z"/>
	<path class="st0" d="M44.6,6.7c0,0,0,0.1,0,0.1c0,0.1,0,0.1-0.1,0.2c0,0.1-0.1,0.1-0.1,0.1c-0.1,0-0.1,0.1-0.2,0.1c0,0-0.1,0-0.1,0
		c-0.1,0-0.1,0-0.2,0c-0.1,0-0.1,0-0.2,0c-0.1,0-0.1,0-0.1,0c-0.7,0-1.3,0.2-1.8,0.6c-0.1,0.1-0.2,0.2-0.4,0.3
		c-0.1,0.1-0.3,0.3-0.4,0.4c-0.1,0.1-0.2,0.3-0.3,0.5c-0.1,0.2-0.2,0.3-0.3,0.5c-0.1,0.1-0.1,0.3-0.2,0.5S40,10.4,40,10.5
		c0,0.1-0.1,0.2-0.1,0.2s0,0.2-0.1,0.2c0,0.1-0.1,0.1-0.1,0.1c-0.1,0-0.1,0.1-0.2,0.1c-0.1,0-0.1,0-0.2,0.1c-0.1,0-0.1,0-0.2,0
		c-0.3,0-0.5-0.1-0.6-0.3c-0.1-0.2-0.2-0.5-0.2-0.9c0-0.1,0-0.2,0-0.3s0-0.2,0-0.3c0-0.1,0-0.2,0-0.3s0-0.2,0-0.3
		c0-0.2,0-0.4,0.1-0.6c0-0.2,0.1-0.5,0.1-0.7s0.1-0.5,0.1-0.7c0-0.2,0.1-0.4,0.1-0.6C38.9,6.3,39,6.1,39.1,6
		c0.1-0.1,0.3-0.2,0.5-0.2c0.1,0,0.1,0,0.2,0C39.9,5.9,40,5.9,40,6c0.1,0,0.1,0.1,0.1,0.1c0,0.1,0.1,0.1,0.1,0.1l0,0.1
		c0,0.1,0,0.2,0,0.4c0,0.1,0,0.3-0.1,0.4S40.1,7.5,40,7.6s-0.1,0.3-0.1,0.4c0,0.1-0.1,0.3-0.1,0.4s-0.1,0.2-0.1,0.3
		C39.9,8.5,40,8.2,40.2,8c0.2-0.2,0.4-0.5,0.6-0.7c0.2-0.2,0.4-0.4,0.6-0.6c0.2-0.2,0.5-0.3,0.7-0.4c0.2-0.1,0.4-0.1,0.6-0.2
		c0.2,0,0.3-0.1,0.5-0.1c0.2,0,0.3,0,0.5,0c0.2,0,0.3,0.1,0.5,0.1s0.3,0.1,0.4,0.2S44.6,6.6,44.6,6.7z"/>
	<path class="st0" d="M54.6,7.4c0,0,0,0.1,0,0.2c0,0.1,0,0.1-0.1,0.2c0,0.1-0.1,0.1-0.1,0.2S54.3,8,54.3,8.1c0,0-0.1,0.1-0.1,0.1
		S54.1,8.3,54,8.3c-0.1,0.1-0.1,0.1-0.2,0.2c-0.1,0.1-0.2,0.1-0.2,0.2c-0.2,0.2-0.5,0.4-0.8,0.6S52.3,9.6,52,9.8s-0.6,0.3-0.9,0.4
		c-0.3,0.1-0.6,0.1-1,0.1c-0.1,0-0.3,0-0.4-0.1c-0.1-0.1-0.3-0.1-0.4-0.2c-0.1-0.1-0.2-0.2-0.3-0.3c-0.1-0.1-0.2-0.3-0.2-0.4
		c-0.1,0.1-0.2,0.2-0.3,0.3c-0.1,0.1-0.3,0.2-0.4,0.4c-0.1,0.1-0.3,0.2-0.5,0.3c-0.2,0.1-0.3,0.2-0.4,0.3c-0.1,0.1-0.2,0.1-0.3,0.2
		c-0.1,0.1-0.3,0.1-0.4,0.2S46.1,11,46,11s-0.3,0-0.4,0c-0.2,0-0.4,0-0.5-0.1c-0.2-0.1-0.3-0.2-0.4-0.4c-0.1-0.1-0.2-0.3-0.2-0.5
		s-0.1-0.3-0.1-0.4c0-0.2,0-0.5,0.1-0.7c0.1-0.2,0.2-0.5,0.3-0.7c0.1-0.2,0.3-0.5,0.4-0.7c0.2-0.2,0.3-0.4,0.5-0.6
		c0.2-0.2,0.4-0.3,0.6-0.5C46.5,6.3,46.7,6.1,47,6c0.2-0.1,0.5-0.2,0.7-0.3s0.5-0.1,0.6-0.1c0.1,0,0.2,0,0.3,0c0.1,0,0.2,0,0.3,0
		s0.2,0,0.3,0c0.1,0,0.2,0,0.3,0.1c0.1,0,0.1,0.1,0.2,0.2s0.1,0.2,0.2,0.2s0.1,0.2,0.1,0.3s0.1,0.1,0.1,0.2c0,0.1,0,0.2-0.1,0.4
		S50,7.2,49.9,7.3c0,0.2-0.1,0.3-0.1,0.5c0,0.2-0.1,0.3-0.1,0.5c0,0.1,0,0.2,0.1,0.3s0.1,0.2,0.1,0.3C50,8.9,50.1,9,50.2,9.1
		c0.1,0.1,0.2,0.1,0.3,0.1c0.3,0,0.5,0,0.7-0.1c0.2-0.1,0.5-0.2,0.7-0.3c0.2-0.1,0.5-0.3,0.7-0.5C53,8,53.2,7.8,53.5,7.6
		c0,0,0,0,0.1-0.1c0.1-0.1,0.1-0.1,0.2-0.2C53.9,7.3,54,7.2,54,7.1c0.1-0.1,0.2-0.1,0.2-0.1c0.1,0,0.2,0,0.2,0.1
		C54.6,7.2,54.6,7.3,54.6,7.4z M48.8,6.9c0,0,0-0.1,0-0.1c0,0,0-0.1-0.1-0.1c0,0-0.1-0.1-0.1-0.1c0,0-0.1,0-0.1,0
		c-0.3,0-0.5,0.1-0.8,0.2S47.3,7,47,7.2c-0.1,0.1-0.3,0.3-0.5,0.5s-0.3,0.4-0.4,0.6S45.9,8.8,45.8,9s-0.1,0.4-0.1,0.6
		c0,0,0,0.1,0,0.1c0,0,0,0.1,0,0.1c0,0,0,0.1,0.1,0.1s0.1,0,0.1,0c0.2,0,0.3,0,0.6-0.1c0.2-0.1,0.4-0.2,0.6-0.3s0.4-0.3,0.6-0.5
		c0.2-0.2,0.4-0.4,0.5-0.6c0.2-0.2,0.3-0.5,0.4-0.7S48.8,7.2,48.8,6.9z"/>
	<path class="st0" d="M60.6,7.6c0,0.1,0,0.2-0.1,0.3c-0.1,0.1-0.2,0.3-0.3,0.4c-0.1,0.2-0.3,0.3-0.5,0.5c-0.2,0.2-0.4,0.4-0.6,0.5
		c-0.2,0.2-0.5,0.4-0.7,0.6c-0.3,0.2-0.5,0.4-0.8,0.6c-0.3,0.2-0.6,0.3-0.9,0.4c-0.3,0.1-0.6,0.1-0.8,0.1c-0.3,0-0.6,0-0.8-0.1
		s-0.4-0.2-0.6-0.3c-0.2-0.1-0.3-0.3-0.4-0.5C54.1,10,54,9.8,53.9,9.6s-0.1-0.4-0.1-0.6s0-0.4,0-0.6c0-0.1,0-0.2,0-0.3
		c0-0.2,0-0.3,0.1-0.5s0-0.3,0.1-0.5c0-0.2,0.1-0.3,0.1-0.4c0.1-0.2,0.2-0.3,0.4-0.5c0.2-0.2,0.5-0.2,0.7-0.2c0.3,0,0.4,0.1,0.4,0.4
		c0,0.1,0,0.3,0,0.4c0,0.2-0.1,0.3-0.1,0.4c-0.1,0.3-0.1,0.5-0.1,0.7c0,0.2,0,0.4,0,0.6c0,0.2,0,0.4,0,0.5s0.1,0.3,0.1,0.5
		s0.1,0.2,0.2,0.3c0.1,0.1,0.2,0.1,0.3,0.1c0.1,0,0.3,0,0.4,0c0.1,0,0.3-0.1,0.5-0.2C57.2,9.6,57.6,9.3,58,9
		c0.1-0.1,0.3-0.2,0.5-0.4s0.4-0.3,0.6-0.4s0.4-0.3,0.5-0.4c0.2-0.1,0.3-0.3,0.4-0.4c0,0,0,0,0.1-0.1c0,0,0-0.1,0.1-0.1
		c0,0,0.1-0.1,0.1-0.1c0,0,0.1,0,0.1,0c0.1,0,0.1,0,0.2,0c0,0,0.1,0.1,0.1,0.1C60.6,7.5,60.6,7.5,60.6,7.6z M56.6,3.1
		c0,0.1,0,0.2-0.1,0.3c0,0.1-0.1,0.2-0.2,0.3C56.2,4,56,4.1,55.6,4.1c-0.1,0-0.2,0-0.4,0C55.1,4,55,4,54.9,4c-0.1,0-0.2-0.1-0.2-0.1
		c-0.1-0.1-0.1-0.1-0.1-0.2c0-0.1,0-0.2,0.1-0.4C54.8,3.2,54.8,3.1,55,3s0.2-0.2,0.4-0.3s0.3-0.1,0.4-0.1c0.1,0,0.3,0,0.4,0
		c0.1,0,0.2,0,0.3,0.1c0.1,0,0.1,0.1,0.2,0.2C56.6,2.9,56.6,3,56.6,3.1z"/>
	<path class="st0" d="M70.8,7.2c0,0.1,0,0.1,0,0.2c0,0.1-0.1,0.2-0.1,0.2c0,0.1-0.1,0.2-0.1,0.2C70.4,8,70.4,8,70.3,8.1
		c-0.1,0.1-0.3,0.3-0.5,0.5c-0.2,0.2-0.3,0.3-0.5,0.5c-0.2,0.2-0.4,0.3-0.6,0.5c-0.2,0.1-0.4,0.3-0.6,0.4c-0.1,0.1-0.3,0.2-0.4,0.2
		c-0.1,0.1-0.3,0.1-0.4,0.2c-0.1,0.1-0.3,0.1-0.5,0.1c-0.2,0-0.3,0-0.5,0c-0.3,0-0.6-0.1-0.8-0.2S65.1,10,65,9.9
		c-0.1-0.2-0.2-0.4-0.3-0.6c-0.1-0.2-0.1-0.5-0.2-0.7c-0.1-0.3-0.1-0.6-0.2-0.8s-0.2-0.3-0.3-0.3c-0.1,0-0.2,0-0.2,0.1
		s-0.2,0.1-0.3,0.2c-0.1,0.1-0.3,0.3-0.5,0.5S62.7,8.7,62.4,9c-0.1,0.1-0.2,0.3-0.4,0.4c-0.1,0.2-0.3,0.3-0.5,0.4
		c-0.2,0.1-0.3,0.3-0.5,0.4c-0.2,0.1-0.3,0.2-0.4,0.2c-0.5-0.1-0.8-0.5-0.8-1.3c0-0.2,0-0.5,0.1-0.9c0-0.2,0.1-0.3,0.1-0.5
		c0-0.2,0.1-0.4,0.1-0.6c0-0.2,0.1-0.4,0.2-0.6s0.1-0.4,0.2-0.5C60.5,6,60.6,6,60.7,5.9c0.1-0.1,0.1-0.1,0.2-0.1c0.1,0,0.1,0,0.2,0
		c0.1,0,0.1,0,0.2,0c0.1,0,0.1,0,0.2,0s0.1,0.1,0.2,0.1s0.1,0.1,0.1,0.2c0,0.1,0,0.2,0,0.2c0,0.1,0,0.2,0,0.2c0,0.1,0,0.2-0.1,0.2
		S61.6,7,61.6,7.1c0,0.1-0.1,0.2-0.1,0.3c0,0.1-0.1,0.2-0.1,0.3c0,0.1-0.1,0.2-0.1,0.4c0,0.1-0.1,0.3-0.1,0.4c0,0.1-0.1,0.2-0.1,0.3
		c0.1-0.1,0.2-0.2,0.3-0.3c0.1-0.1,0.2-0.2,0.3-0.4s0.2-0.3,0.3-0.4c0.1-0.1,0.2-0.3,0.3-0.4c0.1-0.2,0.3-0.3,0.4-0.4
		c0.1-0.1,0.3-0.3,0.5-0.4s0.3-0.2,0.5-0.2c0.2-0.1,0.4-0.1,0.6-0.1c0.3,0,0.5,0,0.7,0.1s0.3,0.2,0.4,0.4c0.1,0.2,0.2,0.4,0.2,0.6
		c0.1,0.2,0.1,0.5,0.1,0.8c0,0.1,0,0.3,0.1,0.4c0,0.1,0.1,0.3,0.1,0.4c0.1,0.1,0.1,0.2,0.2,0.3c0.1,0.1,0.2,0.1,0.3,0.1
		c0.2,0,0.4,0,0.6-0.1c0.2-0.1,0.5-0.2,0.7-0.4s0.5-0.3,0.8-0.5c0.3-0.2,0.5-0.4,0.8-0.7c0.1-0.1,0.2-0.2,0.2-0.2
		c0.1-0.1,0.2-0.1,0.2-0.2s0.1-0.1,0.2-0.1C70.3,7,70.4,7,70.5,7c0,0,0.1,0,0.1,0c0,0,0.1,0,0.1,0c0,0,0.1,0,0.1,0.1
		C70.8,7.1,70.8,7.1,70.8,7.2z"/>
	<path class="st0" d="M83.9,7.3c0,0,0,0.1,0,0.1c0,0.1,0,0.1-0.1,0.2c0,0.1-0.1,0.1-0.1,0.2c0,0.1-0.1,0.1-0.1,0.2
		c-0.1,0.1-0.2,0.2-0.3,0.3S83,8.5,82.9,8.7S82.6,8.9,82.5,9c-0.2,0.1-0.3,0.3-0.5,0.4c-0.1,0.1-0.3,0.2-0.4,0.3
		C81.4,9.8,81.2,9.9,81,10c-0.2,0.1-0.4,0.2-0.6,0.2c-0.2,0.1-0.4,0.1-0.6,0.1c-0.2,0-0.3,0-0.5-0.1c-0.2-0.1-0.3-0.2-0.4-0.3
		c-0.1-0.2-0.3-0.4-0.4-0.6c-0.1-0.3-0.2-0.6-0.2-1.1c0,0,0-0.1,0-0.2c0-0.1,0-0.2,0-0.3c0-0.1,0-0.2,0-0.2c0-0.1,0-0.1,0-0.1
		c0,0-0.1,0-0.2,0.1s-0.2,0.2-0.3,0.3c-0.1,0.1-0.2,0.3-0.4,0.5c-0.1,0.2-0.3,0.4-0.4,0.6c-0.2,0.3-0.3,0.5-0.5,0.7
		s-0.3,0.4-0.4,0.5c-0.1,0.1-0.3,0.2-0.4,0.3c-0.1,0.1-0.3,0.1-0.4,0.1c-0.2,0-0.4,0-0.5-0.1c-0.1-0.1-0.2-0.2-0.3-0.3
		s-0.1-0.3-0.2-0.5c0-0.2,0-0.5-0.1-0.7c0-0.5,0-0.8-0.1-1.1c0-0.3-0.1-0.4-0.1-0.4c-0.1,0-0.1,0.1-0.3,0.2
		c-0.1,0.1-0.3,0.3-0.4,0.5c-0.2,0.2-0.3,0.4-0.5,0.7s-0.4,0.5-0.6,0.8c-0.1,0.1-0.1,0.2-0.2,0.3S72.1,10,72,10.1
		c-0.1,0.1-0.2,0.2-0.2,0.3c-0.1,0.1-0.1,0.2-0.2,0.3c-0.1,0.1-0.2,0.2-0.3,0.2S71.1,11,71,11c-0.2,0-0.3,0-0.4-0.1
		c-0.1-0.1-0.2-0.1-0.3-0.3c-0.1-0.1-0.1-0.2-0.2-0.4c0-0.1-0.1-0.3-0.1-0.5c0-0.1,0-0.3,0-0.4c0-0.1,0-0.2,0-0.4
		c0-0.1,0-0.2,0.1-0.4c0-0.1,0-0.3,0.1-0.5c0-0.2,0-0.3,0.1-0.5c0-0.2,0-0.3,0-0.5c0-0.2,0-0.3,0-0.4c0-0.1,0-0.3,0.1-0.3
		c0-0.1,0-0.1,0.1-0.2s0.1-0.1,0.1-0.2c0.1-0.1,0.1-0.1,0.2-0.2c0.1,0,0.2-0.1,0.4-0.1c0.1,0,0.2,0,0.3,0.1s0.1,0.1,0.2,0.2
		c0,0.1,0.1,0.2,0.1,0.2c0,0.1,0,0.2,0,0.3c0,0.1,0,0.2,0,0.4c0,0.1-0.1,0.3-0.1,0.5c0,0.2-0.1,0.4-0.1,0.6
		c-0.1,0.2-0.1,0.4-0.1,0.6c0,0.2-0.1,0.3-0.1,0.5s-0.1,0.3-0.1,0.3c0,0,0-0.1,0.1-0.1c0-0.1,0.1-0.1,0.1-0.2s0.1-0.2,0.2-0.3
		c0.1-0.1,0.1-0.2,0.2-0.3c0.1-0.1,0.1-0.2,0.2-0.2c0-0.1,0.1-0.1,0.1-0.1c0.1-0.1,0.2-0.2,0.3-0.4c0.1-0.1,0.2-0.3,0.3-0.4
		S72.9,7.1,73,7c0.1-0.1,0.2-0.2,0.3-0.3c0.2-0.2,0.4-0.3,0.6-0.4c0.2-0.1,0.4-0.1,0.7-0.1c0.3,0,0.5,0.1,0.7,0.2s0.3,0.4,0.4,0.6
		c0,0.1,0,0.2,0.1,0.3c0,0.1,0,0.3,0,0.4c0,0.1,0,0.3,0,0.5s0,0.3,0,0.4s0,0.2,0,0.3c0,0.1,0,0.1,0,0.1c0,0,0.1,0,0.2-0.1
		C76,8.7,76,8.6,76.1,8.5c0.1-0.1,0.2-0.3,0.3-0.4c0.1-0.2,0.2-0.3,0.3-0.4C76.8,7.4,77,7.2,77.2,7c0.2-0.2,0.3-0.4,0.5-0.5
		c0.2-0.1,0.3-0.3,0.5-0.4C78.3,6,78.4,6,78.5,6c0.1,0,0.2,0,0.3,0C78.9,6,78.9,6,79,6c0.1,0,0.2,0.1,0.2,0.1c0.1,0,0.1,0.1,0.1,0.1
		c0.1,0.1,0.1,0.2,0.2,0.3s0.1,0.2,0.1,0.4c0,0.1,0,0.3,0,0.5c0,0.2,0,0.4,0,0.6c0,0.4,0.1,0.7,0.2,0.9c0.1,0.2,0.2,0.3,0.4,0.3
		c0.1,0,0.2,0,0.3-0.1C80.7,9.1,80.8,9,81,9s0.3-0.1,0.4-0.2c0.1-0.1,0.3-0.2,0.4-0.3c0.1-0.1,0.3-0.2,0.4-0.3s0.3-0.2,0.4-0.3
		s0.3-0.2,0.4-0.3c0.1-0.1,0.3-0.2,0.4-0.4c0.1-0.1,0.2-0.1,0.3-0.1C83.8,7.1,83.9,7.2,83.9,7.3z"/>
	<path class="st0" d="M92.6,7.4c0,0,0,0.1,0,0.2c0,0.1,0,0.1-0.1,0.2c0,0.1-0.1,0.1-0.1,0.2S92.3,8,92.3,8.1c0,0-0.1,0.1-0.1,0.1
		S92.1,8.3,92,8.3c-0.1,0.1-0.1,0.1-0.2,0.2c-0.1,0.1-0.2,0.1-0.2,0.2c-0.2,0.2-0.5,0.4-0.8,0.6S90.3,9.6,90,9.8s-0.6,0.3-0.9,0.4
		c-0.3,0.1-0.6,0.1-1,0.1c-0.1,0-0.3,0-0.4-0.1c-0.1-0.1-0.3-0.1-0.4-0.2c-0.1-0.1-0.2-0.2-0.3-0.3c-0.1-0.1-0.2-0.3-0.2-0.4
		c-0.1,0.1-0.2,0.2-0.3,0.3c-0.1,0.1-0.3,0.2-0.4,0.4c-0.1,0.1-0.3,0.2-0.5,0.3c-0.2,0.1-0.3,0.2-0.4,0.3c-0.1,0.1-0.2,0.1-0.3,0.2
		c-0.1,0.1-0.3,0.1-0.4,0.2S84.1,11,84,11s-0.3,0-0.4,0c-0.2,0-0.4,0-0.5-0.1c-0.2-0.1-0.3-0.2-0.4-0.4c-0.1-0.1-0.2-0.3-0.2-0.5
		s-0.1-0.3-0.1-0.4c0-0.2,0-0.5,0.1-0.7c0.1-0.2,0.2-0.5,0.3-0.7C82.9,8,83,7.7,83.2,7.5c0.2-0.2,0.3-0.4,0.5-0.6
		c0.2-0.2,0.4-0.3,0.6-0.5C84.5,6.3,84.7,6.1,85,6c0.2-0.1,0.5-0.2,0.7-0.3s0.5-0.1,0.6-0.1c0.1,0,0.2,0,0.3,0c0.1,0,0.2,0,0.3,0
		s0.2,0,0.3,0c0.1,0,0.2,0,0.3,0.1c0.1,0,0.1,0.1,0.2,0.2s0.1,0.2,0.2,0.2S88,6.3,88,6.3s0.1,0.1,0.1,0.2c0,0.1,0,0.2-0.1,0.4
		S88,7.2,87.9,7.3c0,0.2-0.1,0.3-0.1,0.5c0,0.2-0.1,0.3-0.1,0.5c0,0.1,0,0.2,0.1,0.3s0.1,0.2,0.1,0.3C88,8.9,88.1,9,88.2,9.1
		c0.1,0.1,0.2,0.1,0.3,0.1c0.3,0,0.5,0,0.7-0.1c0.2-0.1,0.5-0.2,0.7-0.3c0.2-0.1,0.5-0.3,0.7-0.5c0.2-0.2,0.5-0.4,0.7-0.6
		c0,0,0,0,0.1-0.1c0.1-0.1,0.1-0.1,0.2-0.2c0.1-0.1,0.2-0.1,0.3-0.2c0.1-0.1,0.2-0.1,0.2-0.1c0.1,0,0.2,0,0.2,0.1
		C92.5,7.2,92.6,7.3,92.6,7.4z M86.8,6.9c0,0,0-0.1,0-0.1c0,0,0-0.1-0.1-0.1c0,0-0.1-0.1-0.1-0.1c0,0-0.1,0-0.1,0
		c-0.3,0-0.5,0.1-0.8,0.2S85.3,7,85,7.2c-0.1,0.1-0.3,0.3-0.5,0.5s-0.3,0.4-0.4,0.6S83.9,8.8,83.8,9s-0.1,0.4-0.1,0.6
		c0,0,0,0.1,0,0.1c0,0,0,0.1,0,0.1c0,0,0,0.1,0.1,0.1s0.1,0,0.1,0c0.2,0,0.3,0,0.6-0.1c0.2-0.1,0.4-0.2,0.6-0.3s0.4-0.3,0.6-0.5
		c0.2-0.2,0.4-0.4,0.5-0.6c0.2-0.2,0.3-0.5,0.4-0.7S86.8,7.2,86.8,6.9z"/>
	<path class="st0" d="M98.3,6.3c0,0.1,0,0.1-0.1,0.2s-0.1,0.1-0.1,0.2c-0.1,0-0.1,0.1-0.2,0.1c-0.1,0-0.1,0.1-0.2,0.1
		C97.6,7,97.4,7,97.2,7.1c-0.2,0.1-0.4,0.1-0.7,0.1s-0.4,0.1-0.6,0.1s-0.4,0-0.6,0.1c-0.1,0-0.2,0-0.4,0s-0.3,0-0.4,0s-0.2,0-0.3,0
		s-0.2,0-0.3,0c-0.1,0.3-0.2,0.6-0.3,0.9s-0.2,0.5-0.2,0.8c0,0,0,0.1,0,0.2c0,0.1,0,0.2-0.1,0.2c0,0.1,0,0.2-0.1,0.3
		c0,0.1,0,0.2,0,0.3c0,0.1,0,0.2,0,0.2c0,0.1,0,0.1,0,0.2c0,0.1,0,0.2,0.1,0.3c0,0.1,0.1,0.1,0.1,0.1c0.1,0.1,0.2,0.1,0.2,0.2
		c0.1,0.1,0.1,0.1,0.1,0.2c0,0.1,0,0.1-0.1,0.2s-0.1,0.1-0.2,0.2c-0.1,0-0.2,0.1-0.3,0.1c-0.1,0-0.2,0-0.3,0c-0.2,0-0.3,0-0.4-0.1
		c-0.1-0.1-0.2-0.1-0.3-0.3s-0.2-0.2-0.2-0.4s-0.1-0.3-0.1-0.4c0-0.2,0-0.5,0.1-0.8s0.1-0.6,0.2-0.9c0-0.1,0.1-0.3,0.1-0.4
		c0-0.2,0.1-0.3,0.1-0.4c0-0.1,0.1-0.3,0.1-0.4c0-0.1,0-0.2,0.1-0.2c-0.1,0-0.2,0-0.4,0c-0.2,0-0.4,0-0.6,0c-0.2,0-0.4,0-0.5,0
		s-0.2-0.1-0.3-0.1c-0.1-0.1-0.1-0.1-0.2-0.2c0-0.1-0.1-0.2-0.1-0.4c0-0.1,0-0.2,0.1-0.2c0.1-0.1,0.2-0.1,0.3-0.1
		c0.1,0,0.2,0,0.3-0.1s0.2,0,0.3,0c0,0,0.1,0,0.2,0c0.1,0,0.2,0,0.3,0c0.1,0,0.2,0,0.4,0s0.2,0,0.3,0c0,0,0,0,0.1-0.1
		c0-0.1,0.1-0.2,0.1-0.3s0.1-0.2,0.1-0.4S93,5.6,93,5.4s0.1-0.2,0.1-0.4c0-0.1,0.1-0.2,0.1-0.3c0-0.2,0.1-0.3,0.1-0.5
		c0-0.2,0.1-0.4,0.1-0.5c0.1-0.2,0.2-0.3,0.3-0.4c0.1-0.1,0.3-0.2,0.5-0.2c0.2,0,0.4,0,0.5,0.1c0.1,0.1,0.2,0.2,0.2,0.4
		c0,0.1,0,0.2,0,0.3c0,0.1-0.1,0.2-0.1,0.4c-0.1,0.3-0.2,0.5-0.3,0.8c-0.1,0.2-0.1,0.5-0.2,0.6s-0.1,0.4-0.1,0.6c0.2,0,0.3,0,0.5,0
		c0.2,0,0.3,0,0.5,0c0.2,0,0.3,0,0.5,0c0.2,0,0.4,0,0.6,0c0.2,0,0.5-0.1,0.6-0.1c0.2,0,0.3,0,0.5-0.1c0.1,0,0.2,0,0.4-0.1
		c0.1,0,0.2,0,0.3,0c0.1,0,0.1,0,0.2,0C98.3,6.2,98.3,6.2,98.3,6.3z"/>
	<path class="st0" d="M103.2,6.3c0,0.1,0,0.1-0.1,0.2s-0.1,0.1-0.1,0.2c-0.1,0-0.1,0.1-0.2,0.1c-0.1,0-0.1,0.1-0.2,0.1
		c-0.2,0.1-0.4,0.1-0.6,0.2c-0.2,0.1-0.4,0.1-0.7,0.1s-0.4,0.1-0.6,0.1s-0.4,0-0.6,0.1c-0.1,0-0.2,0-0.4,0s-0.3,0-0.4,0
		s-0.2,0-0.3,0s-0.2,0-0.3,0c-0.1,0.3-0.2,0.6-0.3,0.9s-0.2,0.5-0.2,0.8c0,0,0,0.1,0,0.2c0,0.1,0,0.2-0.1,0.2c0,0.1,0,0.2-0.1,0.3
		c0,0.1,0,0.2,0,0.3c0,0.1,0,0.2,0,0.2c0,0.1,0,0.1,0,0.2c0,0.1,0,0.2,0.1,0.3c0,0.1,0.1,0.1,0.1,0.1c0.1,0.1,0.2,0.1,0.2,0.2
		c0.1,0.1,0.1,0.1,0.1,0.2c0,0.1,0,0.1-0.1,0.2s-0.1,0.1-0.2,0.2c-0.1,0-0.2,0.1-0.3,0.1c-0.1,0-0.2,0-0.3,0c-0.2,0-0.3,0-0.4-0.1
		c-0.1-0.1-0.2-0.1-0.3-0.3s-0.2-0.2-0.2-0.4s-0.1-0.3-0.1-0.4c0-0.2,0-0.5,0.1-0.8s0.1-0.6,0.2-0.9C97,9,97,8.9,97.1,8.7
		c0-0.2,0.1-0.3,0.1-0.4c0-0.1,0.1-0.3,0.1-0.4c0-0.1,0-0.2,0.1-0.2c-0.1,0-0.2,0-0.4,0c-0.2,0-0.4,0-0.6,0c-0.2,0-0.4,0-0.5,0
		s-0.2-0.1-0.3-0.1c-0.1-0.1-0.1-0.1-0.2-0.2c0-0.1-0.1-0.2-0.1-0.4c0-0.1,0-0.2,0.1-0.2c0.1-0.1,0.2-0.1,0.3-0.1
		c0.1,0,0.2,0,0.3-0.1s0.2,0,0.3,0c0,0,0.1,0,0.2,0c0.1,0,0.2,0,0.3,0c0.1,0,0.2,0,0.4,0s0.2,0,0.3,0c0,0,0,0,0.1-0.1
		c0-0.1,0.1-0.2,0.1-0.3s0.1-0.2,0.1-0.4s0.1-0.3,0.1-0.4S98,5.2,98,5.1C98,5,98,4.9,98.1,4.8c0-0.2,0.1-0.3,0.1-0.5
		c0-0.2,0.1-0.4,0.1-0.5c0.1-0.2,0.2-0.3,0.3-0.4c0.1-0.1,0.3-0.2,0.5-0.2c0.2,0,0.4,0,0.5,0.1c0.1,0.1,0.2,0.2,0.2,0.4
		c0,0.1,0,0.2,0,0.3c0,0.1-0.1,0.2-0.1,0.4c-0.1,0.3-0.2,0.5-0.3,0.8c-0.1,0.2-0.1,0.5-0.2,0.6s-0.1,0.4-0.1,0.6c0.2,0,0.3,0,0.5,0
		c0.2,0,0.3,0,0.5,0c0.2,0,0.3,0,0.5,0c0.2,0,0.4,0,0.6,0c0.2,0,0.5-0.1,0.6-0.1c0.2,0,0.3,0,0.5-0.1c0.1,0,0.2,0,0.4-0.1
		c0.1,0,0.2,0,0.3,0c0.1,0,0.1,0,0.2,0C103.2,6.2,103.2,6.2,103.2,6.3z"/>
	<path class="st0" d="M109.3,7.3c0,0.1-0.1,0.2-0.2,0.4c-0.2,0.3-0.5,0.5-0.7,0.8c-0.3,0.3-0.6,0.5-0.9,0.8c-0.3,0.2-0.6,0.5-1,0.7
		c-0.3,0.2-0.7,0.4-1,0.5c-0.3,0.1-0.7,0.3-1,0.3c-0.3,0.1-0.7,0.1-1,0.1c-0.7,0-1.3-0.2-1.7-0.5c-0.4-0.3-0.6-0.9-0.6-1.6
		c0-0.3,0-0.6,0.1-0.8s0.1-0.5,0.2-0.8c0.1-0.3,0.3-0.5,0.4-0.8c0.2-0.3,0.4-0.5,0.6-0.7c0.1-0.1,0.2-0.2,0.3-0.3
		c0.1-0.1,0.3-0.2,0.4-0.2c0.1-0.1,0.3-0.1,0.4-0.2c0.2,0,0.3-0.1,0.5-0.1c0.2,0,0.4,0,0.6,0.1s0.3,0.2,0.4,0.3s0.2,0.3,0.2,0.4
		c0.1,0.2,0.1,0.3,0.1,0.5c0,0.3-0.1,0.7-0.4,1c-0.3,0.3-0.7,0.7-1.2,1.1c-0.2,0.1-0.3,0.2-0.6,0.4c-0.2,0.1-0.5,0.3-0.7,0.5
		c0,0.1,0,0.2,0.1,0.3c0.1,0.1,0.1,0.1,0.2,0.2c0.1,0.1,0.2,0.1,0.3,0.1s0.3,0.1,0.4,0.1c0.2,0,0.4,0,0.7-0.1c0.2,0,0.5-0.1,0.7-0.2
		c0.2-0.1,0.5-0.2,0.7-0.3c0.2-0.1,0.4-0.2,0.6-0.3c0.3-0.2,0.6-0.4,0.9-0.6c0.3-0.2,0.6-0.4,0.8-0.7l0.3-0.3
		c0.2-0.2,0.4-0.3,0.6-0.3c0.1,0,0.1,0,0.2,0.1C109.3,7.2,109.3,7.3,109.3,7.3z M104.3,6.3c0-0.1,0-0.2,0-0.2s0-0.1-0.1-0.1
		c-0.1,0-0.3,0.1-0.5,0.2s-0.3,0.3-0.5,0.4c-0.1,0.2-0.3,0.4-0.4,0.7c-0.1,0.3-0.2,0.6-0.3,0.9c0.2-0.1,0.4-0.3,0.6-0.4
		c0.2-0.1,0.4-0.3,0.6-0.4c0.2-0.2,0.3-0.3,0.4-0.5S104.3,6.5,104.3,6.3z"/>
	<path class="st0" d="M114.6,6.7c0,0,0,0.1,0,0.1c0,0.1,0,0.1-0.1,0.2c0,0.1-0.1,0.1-0.1,0.1c-0.1,0-0.1,0.1-0.2,0.1
		c0,0-0.1,0-0.1,0c-0.1,0-0.1,0-0.2,0c-0.1,0-0.1,0-0.2,0c-0.1,0-0.1,0-0.1,0c-0.7,0-1.3,0.2-1.8,0.6c-0.1,0.1-0.2,0.2-0.4,0.3
		c-0.1,0.1-0.3,0.3-0.4,0.4c-0.1,0.1-0.2,0.3-0.3,0.5c-0.1,0.2-0.2,0.3-0.3,0.5c-0.1,0.1-0.1,0.3-0.2,0.5s-0.1,0.3-0.2,0.5
		c0,0.1-0.1,0.2-0.1,0.2s0,0.2-0.1,0.2c0,0.1-0.1,0.1-0.1,0.1c-0.1,0-0.1,0.1-0.2,0.1c-0.1,0-0.1,0-0.2,0.1c-0.1,0-0.1,0-0.2,0
		c-0.3,0-0.5-0.1-0.6-0.3c-0.1-0.2-0.2-0.5-0.2-0.9c0-0.1,0-0.2,0-0.3s0-0.2,0-0.3c0-0.1,0-0.2,0-0.3s0-0.2,0-0.3
		c0-0.2,0-0.4,0.1-0.6c0-0.2,0.1-0.5,0.1-0.7s0.1-0.5,0.1-0.7c0-0.2,0.1-0.4,0.1-0.6c0.1-0.2,0.1-0.3,0.3-0.4
		c0.1-0.1,0.3-0.2,0.5-0.2c0.1,0,0.1,0,0.2,0c0.1,0,0.1,0.1,0.2,0.1c0.1,0,0.1,0.1,0.1,0.1c0,0.1,0.1,0.1,0.1,0.1l0,0.1
		c0,0.1,0,0.2,0,0.4c0,0.1,0,0.3-0.1,0.4S110,7.5,110,7.6s-0.1,0.3-0.1,0.4c0,0.1-0.1,0.3-0.1,0.4s-0.1,0.2-0.1,0.3
		c0.1-0.3,0.3-0.5,0.5-0.8c0.2-0.2,0.4-0.5,0.6-0.7c0.2-0.2,0.4-0.4,0.6-0.6c0.2-0.2,0.5-0.3,0.7-0.4c0.2-0.1,0.4-0.1,0.6-0.2
		c0.2,0,0.3-0.1,0.5-0.1c0.2,0,0.3,0,0.5,0c0.2,0,0.3,0.1,0.5,0.1s0.3,0.1,0.4,0.2S114.6,6.6,114.6,6.7z"/>
	<path class="st0" d="M118.8,7.9C118.8,7.9,118.8,7.9,118.8,7.9c0,0.1,0,0.2,0,0.2s0,0.1,0,0.1c0,0,0,0.1-0.1,0.1
		c0,0-0.1,0.1-0.3,0.1s-0.3,0.1-0.5,0.2c-0.2,0.1-0.3,0.2-0.5,0.2c-0.1,0.1-0.2,0.1-0.3,0.1c-0.1,0.1-0.2,0.1-0.4,0.2
		c-0.2,0.1-0.3,0.2-0.6,0.4c-0.1,0.1-0.3,0.2-0.4,0.3c-0.1,0.1-0.3,0.1-0.3,0.1c-0.2,0-0.4,0-0.5-0.1c-0.1-0.1-0.2-0.2-0.2-0.4
		c0,0,0-0.1,0.1-0.1c0-0.1,0.1-0.1,0.1-0.3c0.1,0,0.2-0.1,0.3-0.2c0.1-0.1,0.3-0.1,0.5-0.2s0.4-0.2,0.6-0.3c0.2-0.1,0.4-0.2,0.5-0.2
		c0.2-0.1,0.3-0.1,0.4-0.2c0.1-0.1,0.2-0.1,0.2-0.1c0,0,0,0-0.1-0.1c-0.1-0.1-0.2-0.1-0.3-0.2c-0.1-0.1-0.2-0.2-0.4-0.3
		s-0.3-0.2-0.4-0.3c-0.2-0.2-0.4-0.3-0.5-0.5c-0.1-0.1-0.2-0.2-0.2-0.3c0-0.1,0-0.1,0.1-0.2s0.1-0.1,0.1-0.2c0.1,0,0.1-0.1,0.2-0.1
		c0.1,0,0.2,0,0.2,0c0,0,0.1,0,0.2,0.1s0.2,0.1,0.3,0.2s0.2,0.2,0.3,0.2c0.1,0.1,0.2,0.2,0.4,0.3c0.1,0.1,0.2,0.2,0.3,0.3
		c0.1,0.1,0.2,0.2,0.2,0.2s0.1,0.1,0.2,0.2c0.1,0,0.1,0.1,0.2,0.1c0.1,0,0.1,0.1,0.2,0.1s0.1,0.1,0.2,0.2c0.1,0.1,0.1,0.2,0.2,0.2
		C118.8,7.8,118.8,7.8,118.8,7.9z M123.2,7.8c0,0.1-0.1,0.3-0.2,0.4c-0.1,0.1-0.4,0.2-0.7,0.3c0,0-0.1,0-0.2,0.1
		c-0.1,0-0.2,0.1-0.3,0.2c-0.1,0.1-0.3,0.1-0.4,0.2c-0.1,0.1-0.3,0.2-0.4,0.2c-0.1,0.1-0.2,0.1-0.3,0.2s-0.1,0.1-0.2,0.1
		c-0.1,0-0.2,0.1-0.2,0.2c-0.1,0.1-0.2,0.1-0.3,0.2c-0.1,0.1-0.2,0.2-0.3,0.2s-0.2,0.1-0.4,0.1c-0.2,0-0.3-0.1-0.5-0.2
		c-0.1-0.1-0.2-0.2-0.2-0.4c0-0.1,0.1-0.3,0.3-0.4c0.2-0.1,0.5-0.3,0.9-0.5c0.2-0.1,0.3-0.2,0.5-0.2c0.2-0.1,0.3-0.1,0.5-0.2
		c0.1-0.1,0.3-0.1,0.4-0.2c0.1-0.1,0.2-0.1,0.3-0.1c-0.1,0-0.1-0.1-0.3-0.2s-0.2-0.1-0.3-0.2c-0.1-0.1-0.2-0.2-0.4-0.3
		c-0.1-0.1-0.2-0.2-0.3-0.2c-0.1-0.1-0.2-0.1-0.3-0.2c-0.1-0.1-0.1-0.1-0.1-0.1c-0.2-0.2-0.3-0.3-0.3-0.4c0,0,0-0.1,0.1-0.2
		c0-0.1,0.1-0.1,0.1-0.2s0.1-0.1,0.2-0.1c0.1,0,0.1-0.1,0.2-0.1c0.1,0,0.2,0,0.4,0.1s0.3,0.2,0.5,0.4c0.1,0.1,0.3,0.2,0.4,0.4
		s0.3,0.2,0.4,0.3s0.3,0.2,0.5,0.3c0.2,0.1,0.3,0.2,0.4,0.2c0.1,0,0.1,0,0.2,0.1s0.1,0.1,0.2,0.1s0.1,0.1,0.1,0.1
		C123.2,7.7,123.2,7.7,123.2,7.8z"/>
	<path class="st0" d="M127.5,10.5c0,0,0,0.1-0.1,0.2s-0.1,0.2-0.2,0.3c-0.1,0.1-0.1,0.2-0.2,0.3c-0.1,0.1-0.1,0.2-0.2,0.2
		c-0.1,0.1-0.1,0.1-0.2,0.2c-0.1,0.1-0.2,0.1-0.3,0.2c-0.1,0.1-0.2,0.1-0.3,0.1c-0.1,0-0.2,0.1-0.4,0.1c-0.1,0-0.1,0-0.1,0
		c0,0-0.1,0-0.1,0c-0.2,0.1-0.3,0.1-0.5,0.1s-0.3,0.1-0.4,0.1c-0.3,0-0.4-0.1-0.4-0.4c0-0.1,0-0.2,0.1-0.3c0.3-0.1,0.6-0.1,0.8-0.2
		c0.2-0.1,0.4-0.2,0.6-0.3c0,0,0.1-0.1,0.1-0.1c0-0.1,0.1-0.1,0.1-0.2s0.1-0.1,0.1-0.2s0-0.1,0-0.1c0,0,0-0.1,0-0.1
		c0-0.1,0-0.1,0-0.2c0-0.1,0-0.1,0-0.2c0-0.1,0-0.1-0.1-0.1c-0.1-0.1-0.1-0.2-0.1-0.3c0,0,0-0.1,0-0.2s0.1-0.1,0.1-0.2
		c0-0.1,0.1-0.1,0.2-0.1c0.1,0,0.1-0.1,0.2-0.1c0.1,0,0.2,0,0.3,0c0.1,0,0.2,0.1,0.3,0.1c0.1,0,0.2,0.1,0.3,0.1
		c0.1,0,0.1,0.1,0.1,0.1C127.5,9.9,127.5,10.2,127.5,10.5z"/>
	<path class="st0" d="M142.5,10.2c0,0.1,0,0.2-0.1,0.3c0,0.1-0.1,0.1-0.2,0.2c-0.1,0.1-0.2,0.1-0.3,0.2c-0.1,0-0.3,0.1-0.4,0.1
		c-0.2,0-0.3,0-0.5,0c-0.2,0-0.4,0-0.5,0c-0.2,0-0.3,0-0.4-0.1c-0.1,0-0.3-0.1-0.5-0.1c-0.2,0-0.4,0-0.6-0.1c-0.2,0-0.4,0-0.7,0
		c-0.2,0-0.4,0-0.6,0c-0.2,0-0.4,0-0.6,0s-0.5,0-0.7,0.1s-0.5,0.1-0.7,0.1c-0.2,0.1-0.4,0.1-0.5,0.2c-0.1,0.1-0.2,0.1-0.2,0.2
		c-0.1,0.1-0.1,0.1-0.2,0.2c-0.1,0-0.1,0.1-0.2,0.1s-0.2,0-0.3,0c-0.5,0-0.7-0.2-0.7-0.5c0-0.2,0-0.3,0.1-0.4
		c0.1-0.1,0.1-0.3,0.3-0.4s0.2-0.2,0.4-0.3s0.3-0.2,0.4-0.3c0.2-0.1,0.4-0.2,0.7-0.4c0.3-0.1,0.5-0.3,0.8-0.4
		c0.3-0.1,0.5-0.3,0.8-0.4s0.5-0.3,0.7-0.4c0.2-0.1,0.3-0.2,0.4-0.3c0.1-0.1,0.2-0.2,0.3-0.3c0.1-0.1,0.2-0.1,0.2-0.2
		c0.1-0.1,0.1-0.1,0.2-0.2c0.1-0.1,0.2-0.2,0.3-0.3c0.1-0.1,0.2-0.2,0.2-0.3c0.1-0.1,0.1-0.2,0.2-0.3c0-0.1,0.1-0.2,0.1-0.3
		c0-0.1,0-0.3-0.1-0.4c-0.1-0.1-0.1-0.2-0.3-0.3C139,5.1,138.9,5,138.7,5c-0.2-0.1-0.3-0.1-0.5-0.1c-0.2,0-0.5,0.1-0.9,0.3
		c-0.1,0.1-0.3,0.1-0.4,0.2c-0.1,0.1-0.2,0.1-0.3,0.2c-0.1,0.1-0.2,0.1-0.3,0.2c-0.1,0.1-0.2,0.1-0.2,0.2C136.1,6,136,6.1,136,6.1
		s-0.1,0.1-0.2,0.1c-0.1,0-0.2,0-0.2,0c-0.1,0-0.2,0-0.3,0c-0.1,0-0.2,0-0.3-0.1c-0.1-0.1-0.1-0.1-0.2-0.2c-0.1-0.1-0.1-0.2-0.1-0.2
		c0-0.1,0-0.2,0-0.2c0-0.1,0-0.1,0.1-0.2s0.1-0.1,0.2-0.2c0.1-0.1,0.2-0.1,0.3-0.2c0.1-0.1,0.2-0.1,0.4-0.2c0.2-0.1,0.4-0.2,0.6-0.3
		c0.2-0.1,0.3-0.2,0.5-0.3c0.2-0.1,0.3-0.1,0.5-0.2c0.2-0.1,0.3-0.1,0.5-0.2c0.1,0,0.3-0.1,0.5-0.1c0.2,0,0.4,0,0.7,0
		c0.3,0,0.6,0.1,0.9,0.2s0.6,0.3,0.8,0.5c0.2,0.2,0.4,0.4,0.6,0.6c0.1,0.2,0.2,0.5,0.2,0.7c0,0.1,0,0.3-0.1,0.5
		c0,0.2-0.1,0.4-0.3,0.6c-0.1,0.2-0.3,0.4-0.5,0.6c-0.2,0.2-0.3,0.4-0.5,0.6c-0.2,0.2-0.4,0.4-0.7,0.6c-0.3,0.2-0.5,0.4-0.8,0.5
		c-0.3,0.2-0.6,0.3-0.8,0.5c-0.3,0.1-0.6,0.3-0.8,0.4c0.1,0,0.3-0.1,0.5-0.1c0.2,0,0.4,0,0.6,0s0.4,0,0.6,0c0.2,0,0.4,0,0.7,0
		c0.2,0,0.3,0,0.5,0c0.2,0,0.3,0,0.5,0.1c0.2,0,0.3,0,0.5,0.1c0.2,0,0.3,0,0.4,0c0.1,0,0.2,0,0.3,0c0.1,0,0.2,0,0.2,0
		c0.1,0,0.1,0,0.2,0c0.1,0,0.1,0,0.2,0c0.1,0,0.2,0,0.2,0.1c0.1,0,0.1,0.1,0.2,0.1c0.1,0.1,0.1,0.1,0.1,0.2S142.5,10.1,142.5,10.2z"
		/>
	<path class="st0" d="M152.2,6.9c0,0.5-0.2,1-0.6,1.4c-0.2,0.2-0.4,0.5-0.6,0.7c-0.2,0.2-0.5,0.4-0.8,0.6c-0.3,0.2-0.6,0.4-0.9,0.5
		c-0.3,0.2-0.6,0.3-1,0.5c-0.3,0.1-0.6,0.2-0.9,0.3c-0.3,0.1-0.6,0.1-0.8,0.2c-0.3,0-0.6,0.1-0.8,0.1c-0.2,0-0.4,0-0.6,0
		c-0.4,0-0.7-0.1-1-0.2c-0.3-0.1-0.5-0.3-0.7-0.5c-0.2-0.2-0.3-0.4-0.4-0.7c-0.1-0.3-0.1-0.5-0.1-0.8c0-0.4,0.1-0.9,0.3-1.5
		c0.1-0.3,0.2-0.5,0.4-0.7c0.1-0.2,0.3-0.5,0.5-0.7c0.2-0.2,0.4-0.4,0.6-0.6s0.4-0.4,0.6-0.5c0.2-0.2,0.5-0.3,0.8-0.5
		c0.3-0.1,0.5-0.3,0.8-0.4c0.3-0.1,0.6-0.2,0.9-0.3c0.3-0.1,0.5-0.1,0.8-0.1c0.2,0,0.4,0,0.7,0.1s0.5,0.1,0.7,0.2
		c0.2,0.1,0.4,0.2,0.6,0.2s0.4,0.2,0.5,0.3c0.2,0.1,0.3,0.2,0.4,0.3s0.2,0.1,0.2,0.2c0.2,0.2,0.4,0.5,0.5,0.8
		C152.1,6.1,152.2,6.5,152.2,6.9z M150.6,7c0-0.1,0-0.2,0-0.3s0-0.2-0.1-0.3c0-0.1-0.1-0.2-0.1-0.3c0-0.1-0.1-0.2-0.1-0.2
		c0,0-0.1-0.1-0.2-0.2c-0.1-0.1-0.1-0.1-0.2-0.2c-0.1-0.1-0.1-0.1-0.2-0.2c-0.1-0.1-0.1-0.1-0.2-0.2c-0.1,0.1-0.3,0.1-0.5,0.1
		c0,0-0.1,0-0.1,0c-0.1,0-0.1-0.1-0.2-0.1c-0.1,0-0.1-0.1-0.2-0.1c-0.1,0-0.1,0-0.1,0c-0.2,0-0.4,0-0.6,0s-0.3,0.1-0.5,0.1
		c-0.1,0.1-0.3,0.1-0.4,0.2c-0.1,0.1-0.3,0.2-0.5,0.3c-0.6,0.4-1,0.9-1.4,1.4c-0.4,0.5-0.6,1.1-0.6,1.6c0,0.1,0,0.2,0,0.3
		s0,0.2,0.1,0.3c0,0.1,0.1,0.2,0.1,0.2c0,0.1,0.1,0.1,0.1,0.1c0.3,0.2,0.7,0.2,1,0.2c0.2,0,0.4,0,0.7-0.1c0.2-0.1,0.5-0.1,0.7-0.2
		c0.2-0.1,0.5-0.2,0.7-0.3s0.4-0.2,0.6-0.3c0.1-0.1,0.2-0.1,0.3-0.2c0.1-0.1,0.3-0.2,0.4-0.3c0.1-0.1,0.3-0.2,0.4-0.4
		c0.1-0.1,0.3-0.3,0.4-0.4s0.2-0.3,0.3-0.4C150.6,7.2,150.6,7.1,150.6,7z"/>
	<path class="st0" d="M161.2,9.4c0,0.2-0.1,0.3-0.2,0.4c-0.1,0-0.2,0.1-0.3,0.1c-0.1,0-0.2,0.1-0.4,0.1c-0.1,0-0.2,0-0.4,0.1
		c-0.1,0-0.3,0-0.4,0.1c-0.2,0-0.5,0.1-0.7,0.1c-0.2,0-0.5,0.1-0.7,0.1l0,0.2c0,0.3-0.4,0.4-1.1,0.4c-0.1,0-0.1,0-0.2,0
		s-0.1-0.1-0.1-0.1c0,0-0.1-0.1-0.1-0.1c0,0,0,0-0.1,0c0,0-0.1,0-0.2,0c-0.1,0-0.2,0.1-0.4,0.1c-0.1,0-0.3,0.1-0.4,0.1
		s-0.2,0.1-0.3,0.1c-0.3,0.1-0.5,0.1-0.7,0.2c-0.2,0-0.4,0-0.5,0c-0.1,0-0.3,0-0.4-0.1s-0.2-0.1-0.3-0.1c-0.1-0.1-0.1-0.1-0.2-0.2
		c0-0.1-0.1-0.1-0.1-0.2c0-0.1,0-0.2,0.1-0.3c0.1-0.1,0.2-0.1,0.4-0.2s0.3-0.1,0.6-0.1c0.2,0,0.4-0.1,0.7-0.1c0.2,0,0.4-0.1,0.7-0.1
		c0.2,0,0.5-0.1,0.7-0.2c0-0.2,0-0.4,0.1-0.6s0-0.4,0.1-0.5c0-0.2,0.1-0.4,0.1-0.7c0-0.2,0.1-0.5,0.1-0.7c0-0.2,0.1-0.5,0.1-0.7
		c0-0.2,0.1-0.4,0.1-0.6c0-0.2,0.1-0.3,0.1-0.4c0-0.1,0-0.2,0-0.2c-0.1,0-0.2,0.1-0.3,0.1c-0.1,0.1-0.3,0.1-0.4,0.2
		c-0.1,0.1-0.3,0.1-0.4,0.2c-0.1,0.1-0.2,0.1-0.3,0.2c-0.1,0-0.1,0.1-0.3,0.1s-0.2,0.1-0.4,0.1c-0.1,0-0.3,0.1-0.4,0.1
		c-0.1,0-0.3,0-0.4,0c-0.1,0-0.3,0-0.4-0.1c-0.1-0.1-0.2-0.2-0.2-0.3c0-0.1,0-0.2,0.1-0.3c0.1-0.1,0.2-0.1,0.3-0.2
		c0.1-0.1,0.3-0.1,0.5-0.2c0.2-0.1,0.4-0.1,0.6-0.2c0,0,0.1,0,0.2-0.1c0.1,0,0.2-0.1,0.3-0.1c0.1-0.1,0.2-0.1,0.4-0.2
		s0.3-0.1,0.4-0.2s0.2-0.1,0.3-0.2c0.1,0,0.2-0.1,0.2-0.1c0.1-0.1,0.3-0.1,0.4-0.2s0.2-0.1,0.3-0.1c0.1,0,0.2-0.1,0.3-0.1
		s0.1,0,0.2,0c0.2,0,0.4,0.1,0.6,0.3c0.1,0.2,0.2,0.3,0.2,0.5c0,0.1-0.1,0.2-0.2,0.4c-0.1,0.4-0.2,0.7-0.3,1.1
		c-0.1,0.4-0.2,0.7-0.2,1.1c-0.1,0.4-0.1,0.7-0.2,1c0,0.3-0.1,0.6-0.1,0.8c0,0,0,0.1,0,0.2c0,0.1,0,0.2,0,0.4c0.1,0,0.3,0,0.5-0.1
		c0.2,0,0.4-0.1,0.6-0.1c0.2,0,0.4-0.1,0.6-0.1s0.3-0.1,0.3-0.1c0.1,0,0.3,0,0.5,0c0.2,0,0.4,0,0.6,0c0.1,0.1,0.1,0.2,0.2,0.3
		C161.2,9.2,161.2,9.3,161.2,9.4z"/>
	<path class="st0" d="M172.1,4.4c0,0.1,0,0.1-0.1,0.2c-0.1,0.1-0.1,0.2-0.2,0.2c-0.1,0.1-0.2,0.1-0.3,0.2c-0.1,0.1-0.2,0.1-0.3,0.1
		c-0.2,0-0.4,0.1-0.6,0.1c-0.2,0-0.5,0-0.8,0c0,0-0.1,0-0.3,0c-0.2,0-0.4,0-0.6,0c-0.2,0-0.4,0-0.6,0c-0.2,0-0.4,0-0.5,0
		c-0.3,0-0.5,0-0.8,0c-0.3,0-0.5,0-0.6,0.1c-0.1,0.1-0.1,0.1-0.2,0.2s-0.1,0.1-0.2,0.2c-0.1,0.1-0.2,0.2-0.2,0.3
		c-0.1,0.1-0.2,0.2-0.3,0.4c0.1,0,0.2,0.1,0.4,0.1c0.2,0,0.4,0.1,0.6,0.1s0.4,0,0.6,0.1c0.2,0,0.3,0,0.5,0.1
		c0.4,0.1,0.8,0.1,1.1,0.2s0.6,0.2,0.8,0.4c0.2,0.2,0.4,0.3,0.4,0.6c0.1,0.2,0.1,0.5,0.1,0.8c0,0.2,0,0.3-0.1,0.5s-0.2,0.3-0.3,0.5
		c-0.1,0.2-0.3,0.3-0.4,0.4c-0.2,0.1-0.3,0.2-0.5,0.3c-0.3,0.1-0.5,0.3-0.7,0.4c-0.2,0.1-0.5,0.2-0.7,0.2c-0.2,0.1-0.5,0.1-0.8,0.1
		c-0.3,0-0.5,0-0.8,0c-0.5,0-0.9,0-1.2-0.1c-0.4-0.1-0.7-0.2-1-0.4c-0.1,0-0.1-0.1-0.2-0.1s-0.1-0.1-0.2-0.1c0,0-0.1-0.1-0.1-0.1
		s0-0.1,0-0.2c0-0.4,0.3-0.7,1-0.7c0.1,0,0.2,0,0.3,0.1s0.2,0.1,0.3,0.2c0.2,0.1,0.5,0.2,0.7,0.2s0.4,0.1,0.7,0.1
		c0.2,0,0.4,0,0.7-0.1c0.3-0.1,0.5-0.1,0.8-0.2s0.5-0.2,0.7-0.3c0.2-0.1,0.4-0.3,0.5-0.4c0,0,0-0.1,0-0.2c0-0.2-0.1-0.4-0.2-0.5
		c-0.1-0.1-0.3-0.2-0.5-0.3c-0.2-0.1-0.4-0.1-0.6-0.2c-0.2,0-0.5-0.1-0.7-0.1c-0.3,0-0.5,0-0.7-0.1s-0.5,0-0.7-0.1
		c-0.1,0-0.3-0.1-0.4-0.1c-0.1-0.1-0.3-0.1-0.4-0.2c-0.1-0.1-0.2-0.1-0.3-0.2c-0.1-0.1-0.1-0.2-0.1-0.2c0-0.1,0.1-0.3,0.3-0.5
		c0,0,0.1-0.1,0.2-0.2c0.1-0.1,0.2-0.3,0.4-0.5c0.3-0.4,0.6-0.7,0.9-1c0.2-0.2,0.4-0.4,0.6-0.4c0.1,0,0.2,0,0.4,0c0.2,0,0.3,0,0.5,0
		s0.5,0,0.7,0c0.3,0,0.6,0,0.9,0c0.2,0,0.4,0,0.5,0c0.1,0,0.3,0,0.4,0c0.1,0,0.3,0,0.4,0c0.1,0,0.3-0.1,0.5-0.1
		c0.2,0,0.3-0.1,0.4-0.1c0.1,0,0.2,0,0.2,0c0.1,0,0.2,0,0.3,0s0.2,0.1,0.4,0.1c0.1,0,0.2,0.1,0.3,0.2C172.1,4.2,172.1,4.3,172.1,4.4
		z"/>
	<path class="st0" d="M184.9,9.1c0,0.1-0.1,0.2-0.2,0.3c-0.1,0.1-0.3,0.2-0.4,0.4c-0.3,0.2-0.6,0.4-0.9,0.6
		c-0.3,0.2-0.6,0.4-0.9,0.5s-0.7,0.2-1,0.3c-0.3,0.1-0.7,0.1-1,0.1c-0.2,0-0.5,0-0.7-0.1c-0.2-0.1-0.4-0.1-0.5-0.2s-0.3-0.2-0.4-0.4
		c-0.1-0.2-0.1-0.3-0.1-0.5c0-0.2,0-0.4,0.1-0.6c0.1-0.2,0.2-0.4,0.3-0.5s0.3-0.3,0.5-0.5s0.3-0.3,0.5-0.4c0.1-0.1,0.2-0.2,0.3-0.3
		c0.1-0.1,0.2-0.2,0.3-0.3c0.1-0.1,0.1-0.2,0.2-0.3c0-0.1,0.1-0.2,0.1-0.3c0-0.1,0-0.1-0.1-0.2c0,0-0.1-0.1-0.2-0.1
		c-0.1,0-0.2,0-0.3,0c-0.1,0-0.2,0.1-0.4,0.1c-0.1,0.1-0.3,0.1-0.4,0.2c-0.1,0.1-0.3,0.2-0.4,0.3c0,0-0.1,0.1-0.2,0.1
		s-0.1,0.1-0.2,0.1c-0.1,0-0.1,0.1-0.2,0.1c-0.1,0-0.1,0.1-0.1,0.1c-0.1,0-0.2,0-0.2,0s-0.1-0.1-0.1-0.1c0,0-0.1-0.1-0.1-0.1
		s0-0.1,0-0.1c0-0.1,0-0.1,0.1-0.2c0.1-0.1,0.2-0.2,0.4-0.4c0.2-0.1,0.3-0.3,0.5-0.4c0.2-0.1,0.4-0.3,0.7-0.4
		c0.2-0.1,0.5-0.2,0.7-0.3c0.2-0.1,0.5-0.1,0.7-0.1c0.2,0,0.3,0,0.5,0.1c0.2,0.1,0.3,0.1,0.4,0.2c0.1,0.1,0.2,0.2,0.3,0.3
		c0.1,0.1,0.1,0.3,0.1,0.4c0,0.2,0,0.4-0.1,0.6c-0.1,0.2-0.2,0.4-0.3,0.5c-0.1,0.2-0.3,0.3-0.5,0.5c-0.2,0.1-0.3,0.3-0.5,0.4
		c-0.1,0.1-0.2,0.2-0.4,0.3c-0.1,0.1-0.2,0.2-0.3,0.3c-0.1,0.1-0.2,0.2-0.2,0.3c-0.1,0.1-0.1,0.2-0.1,0.3c0,0.1,0,0.2,0.1,0.3
		s0.2,0.1,0.4,0.1c0.4,0,0.9-0.1,1.4-0.3c0.5-0.2,1-0.5,1.6-0.9c0.1-0.1,0.3-0.2,0.4-0.3c0.1-0.1,0.2-0.1,0.4-0.1
		c0.1,0,0.2,0,0.3,0.1C184.8,8.9,184.9,9,184.9,9.1z"/>
	<path class="st0" d="M186.8,9.8c0,0.1,0,0.2-0.1,0.4c0,0.1-0.1,0.1-0.1,0.2c-0.1,0.1-0.2,0.2-0.3,0.3c-0.1,0.1-0.3,0.2-0.4,0.2
		s-0.2,0.1-0.3,0.1c-0.2,0-0.3,0-0.4,0c-0.1,0-0.2-0.1-0.2-0.1c-0.1-0.1-0.1-0.1-0.1-0.2c0-0.1,0-0.2,0-0.4c0-0.1,0-0.2,0-0.3
		s0-0.1,0-0.2c0-0.2,0.4-0.4,1.1-0.4c0.2,0,0.3,0,0.4,0.1s0.2,0.1,0.3,0.2C186.8,9.6,186.8,9.7,186.8,9.8z"/>
</g>
</svg>
