<?xml version="1.0" encoding="utf-8"?>
<!-- Generator: Adobe Illustrator 19.1.0, SVG Export Plug-In . SVG Version: 6.00 Build 0)  -->
<svg version="1.1" id="Слой_1" xmlns="http://www.w3.org/2000/svg" xmlns:xlink="http://www.w3.org/1999/xlink" x="0px" y="0px"
	 viewBox="0 0 960 560" style="enable-background:new 0 0 960 560;" xml:space="preserve">
<style type="text/css">
	.st0{fill:url(#SVGID_1_);}
	.st1{fill:#0D0D0D;stroke:#333333;stroke-width:0.5;stroke-miterlimit:10;}
	.st2{fill:#300F0F;}
	.st3{fill:url(#SVGID_2_);}
	.st4{fill:#8F2B2B;}
	.st5{fill:#4A2D2D;}
	.st6{fill:#DBA932;}
	.st7{fill:#FFBC59;}
</style>
<linearGradient id="SVGID_1_" gradientUnits="userSpaceOnUse" x1="0.1637" y1="26.2657" x2="204.5" y2="26.2657">
	<stop  offset="0" style="stop-color:#7C7C7A"/>
	<stop  offset="0" style="stop-color:#858382"/>
	<stop  offset="0.4082" style="stop-color:#454D4A"/>
	<stop  offset="1" style="stop-color:#595C5B"/>
	<stop  offset="1" style="stop-color:#4D5855"/>
</linearGradient>
<rect x="0.2" y="-0.2" class="st0" width="204.3" height="53"/>
<rect x="4.6" y="2.6" class="st1" width="196.7" height="10.3"/>
<rect x="4.6" y="15.2" class="st1" width="196.7" height="10.3"/>
<rect x="4.6" y="27.8" class="st1" width="196.7" height="10.3"/>
<rect x="4.8" y="40" class="st1" width="196.7" height="10.3"/>
<path d="M157.7,28.5c-0.6,1.2-1.8,3.5-2.6,6.7c-3.3,13.1,3.1,25.9,1.7,26.4c-0.3,0.1-0.9-0.2-1.7-1.4c-12.4-18.3,11.3,25.2,10,35.2
	c-1.3,10-7.5,17.1-9.8,12.1c-2.3-5-5,0.6-6,2.9c-1,2.3-2.7,2.4-2.7,2.4s-4.1,1.9-8.9-4.5c-4.9-6.4-7,8.1-8.5,11.2
	c-1.4,3.1-4.8-8.3-6.4-11c-1.2-1.9-3.9,1.8-5.4,4.1c-0.4,0.6-1.3,0.6-1.7-0.1c-0.8-1.7-2.3-4.1-4-4c-1.8,0.1-3,3.1-4.6,6.3
	c-0.3,0.6-4.8,7.4-7.9,11.1c-1,1.2-9-14.8-9.1-14.2c-0.6,6.9-0.9,18-4,14.1C72,108,65.1,105.2,62.5,93.5c-4.9-22.3,10.7-37.4-1.6-50
	c-8-8.2-13.6-11.9-17.1-13.6c-0.7-0.3-0.4-1.4,0.3-1.4H157.7z"/>
<path class="st2" d="M31.6,37.3c0.3-6,10.1-10,10.6-9.6C42.9,28.4,40.9,27,56,38H31"/>
<linearGradient id="SVGID_2_" gradientUnits="userSpaceOnUse" x1="99.4164" y1="30.9167" x2="126.0831" y2="121.5834">
	<stop  offset="0" style="stop-color:#782525"/>
	<stop  offset="0.1888" style="stop-color:#7D2626"/>
	<stop  offset="0.8673" style="stop-color:#38120A"/>
	<stop  offset="1" style="stop-color:#1E1B1B"/>
</linearGradient>
<path class="st3" d="M155.7,27.5c-0.6,1.2-1.8,3.5-2.6,6.7c-3.3,13.1,3.1,25.9,1.7,26.4c-0.3,0.1-0.9-0.2-1.7-1.4
	c-12.4-18.3,11.3,25.2,10,35.2c-1.3,10-7.5,17.1-9.8,12.1c-2.3-5-5,0.6-6,2.9c-1,2.3-2.7,2.4-2.7,2.4s-4.1,1.9-8.9-4.5
	c-4.9-6.4-7,8.1-8.5,11.2c-1.4,3.1-4.8-8.3-6.4-11c-1.2-1.9-3.9,1.8-5.4,4.1c-0.4,0.6-1.3,0.6-1.7-0.1c-0.8-1.7-2.3-4.1-4-4
	c-1.8,0.1-3,3.1-4.6,6.3c-0.3,0.6-4.8,7.4-7.9,11.1c-1,1.2-9-14.8-9.1-14.2c-0.6,6.9-0.9,18-4,14.1C70,107,63,104.2,60.5,92.5
	c-4.9-22.3,10.7-37.4-1.6-50c-8-8.2-13.6-11.9-17.1-13.6c-0.7-0.3-0.4-1.4,0.3-1.4H155.7z"/>
<g>
	<path class="st4" d="M145.7,64.3c2.5,7.9-76.1,2.6-76.1,2.6c12.8-17-5.6-29.6-5.6-29.6s73.5,0.1,77.9-1.6
		C141.9,35.6,139.3,43.6,145.7,64.3z"/>
	<g>
		<g>
			<g>
				<g>
					<path class="st5" d="M145.1,64.5c0.1,0.1,0.3,0,0.2-0.3l-0.4-0.1L145.1,64.5z"/>
					<path class="st5" d="M145.1,62.2c-0.3-0.3-0.7-0.6-0.9-0.3c0.4,0.3,0.3,0.4,0.8,0.7c0.1,0.3,0.1,0.6-0.1,0.5
						c0.1,0.1,0.1,0.5,0.3,0.6c0.1-0.5,0-1-0.4-1.4C144.9,62.1,145,62.2,145.1,62.2z"/>
					<path class="st5" d="M137.9,35.7l0.2,0C138,35.7,138,35.7,137.9,35.7z"/>
					<path class="st5" d="M118.7,36.2c0.1,0,0.2,0,0.2-0.1C118.8,36.1,118.7,36.1,118.7,36.2z"/>
					<path class="st5" d="M115.4,35.9c0.1,0,0.1,0,0.2,0C115.5,35.8,115.5,35.8,115.4,35.9z"/>
					<path class="st5" d="M137.9,35.7l-0.5-0.1C137.3,35.7,137.6,35.7,137.9,35.7z"/>
					<path class="st5" d="M143.1,58.3c0,0.1,0.1,0.2,0.2,0.2L143.1,58.3C143.2,58.3,143.2,58.3,143.1,58.3z"/>
					<path class="st5" d="M142.1,40.1l0,0.2c0,0,0.1,0.1,0.1,0.1L142.1,40.1z"/>
					<path class="st5" d="M142.5,46.5c0-0.1-0.3-0.2-0.4-0.2c0.1,0.1,0.2,0.2,0.2,0.3C142.4,46.5,142.4,46.5,142.5,46.5z"/>
					<path class="st5" d="M143.9,56.6l0.1,0.2C143.9,56.7,143.9,56.7,143.9,56.6z"/>
					<path class="st5" d="M142.7,34.6c0-0.1,0-0.1,0-0.1C142.7,34.6,142.7,34.6,142.7,34.6z"/>
					<path class="st5" d="M139.4,66.1C139.3,66.1,139.4,66.2,139.4,66.1C139.4,66.1,139.4,66.1,139.4,66.1z"/>
					<path class="st5" d="M145.8,64.2l0,0.1c0.1,0,0.1,0,0.2,0C146,64.3,145.8,64.2,145.8,64.2z"/>
					<path class="st5" d="M109.4,35.6C109.4,35.6,109.4,35.6,109.4,35.6C109.6,35.6,109.5,35.6,109.4,35.6z"/>
					<path class="st5" d="M69.7,44.8c-0.1-0.6,0.8,0.6,0.5-0.3C70.2,44.7,69.4,44.1,69.7,44.8z"/>
					<path class="st5" d="M143.1,58.1l-0.1-0.3C143.1,58,143.1,58.1,143.1,58.1z"/>
					<path class="st5" d="M70.3,44.5L70.3,44.5L70.3,44.5C70.2,44.5,70.3,44.5,70.3,44.5z"/>
					<path class="st5" d="M95.6,35.9c0,0,0.1,0.1,0.1,0.1C95.7,36,95.7,36,95.6,35.9z"/>
					<path class="st5" d="M105.9,36.2l-0.3,0C105.7,36.2,105.8,36.2,105.9,36.2z"/>
					<path class="st5" d="M90.2,36.3c-0.1,0-0.2-0.1-0.4,0c0,0,0,0,0.1,0C90,36.3,90.1,36.3,90.2,36.3z"/>
					<path class="st5" d="M84.7,36.4c0,0,0.1,0,0.1,0.1c0.1,0,0.1,0,0.2,0L84.7,36.4z"/>
					<path class="st5" d="M122.7,67.3c0.1,0.1,0.2,0.2,0.3,0.2C122.8,67.4,123.6,67.3,122.7,67.3z"/>
					<path class="st5" d="M143.3,58.3c-0.1,0-0.1-0.1-0.2-0.1C143.1,58.2,143.2,58.2,143.3,58.3C143.2,58.3,143.3,58.3,143.3,58.3z"
						/>
					<path class="st5" d="M90,38.6l-0.9,0C89.4,38.5,89.7,38.6,90,38.6z"/>
					<path class="st5" d="M82.8,66.4l0.2,0C82.9,66.4,82.8,66.4,82.8,66.4z"/>
					<path class="st5" d="M86.5,38.6c-0.2-0.1-0.3-0.2-0.5-0.2c0,0-0.1,0-0.1,0.1L86.5,38.6z"/>
					<path class="st5" d="M122.9,67.6L122.9,67.6L122.9,67.6z"/>
					<path class="st5" d="M128.7,66.8c-0.8,0-0.4,0.4-0.5,0.6c-1,0.1-0.5-0.3-0.8-0.4c-0.6,0.1-1.1,0.5-1.6,0.5c0-0.1-0.1-0.1,0-0.2
						c-0.7,0.3-2,0.1-2.7,0.4c-0.1,0-0.1-0.1-0.1-0.1c0.1,0.2,0.2,0.4,0.1,0.5c-0.4,0-0.7,0.2-0.8,0c0.2,0,0.2-0.1,0.4-0.2l-0.4,0.1
						c-0.4-0.3,0.5-0.1,0.5-0.4c-0.8,0.1-1.7,0.4-2.3,0.3c-0.1-0.3,1.4-0.1,0.6-0.4l0.9,0.1c-0.7-0.5,0.6,0-0.1-0.5
						c-1.2-0.1-1.3,0.2-2.5,0.1c-0.3,0.2,0.1,0.3-0.2,0.5c-1.7,0.3-1.3-0.8-2.6-0.4c-0.3,0.2-0.5,0.7-1.3,0.4l0.3-0.4
						c-1.2,0-0.7,0.5-1.9,0.3c0.2-0.1,0.9-0.1,0.7-0.2c-0.8-0.3-0.6,0.2-1.2,0.2l-0.1-0.3c-1.2,0-2.6,0.3-4,0.3
						c0.1-0.1,0.3-0.2,0-0.3c-1.7,0.1-3.7-0.1-5.4-0.4l-0.6,0.3c-0.1,0-0.3-0.1-0.1-0.2c-0.6-0.1,0,0.2-0.4,0.3
						c-0.4,0-0.5-0.2-0.2-0.3c-1.2,0.2-3.3,0.4-4.5,0.1l0.2-0.1c-0.9-0.2-1.1,0.6-1.9,0.3l0.2,0c-2-0.2-4.3,0-5.9-0.5
						c-0.3,0.4-2-0.3-2.2,0.3c-1.2-0.3-0.8-0.4-2.5-0.7c-0.4,0-0.7,0.3-1.2,0.4l0-0.3l-0.8,0.3l-0.4-0.4L83,66.4
						c0.2,0,0.4,0.2,0.4,0.2c-0.8,0.1-1.9-0.3-1.9-0.5l-1.9,0.2c0-0.1,0.4-0.1,0.6-0.2c-1,0.3-0.2-0.3-1.1-0.1
						c0.1,0.1-0.1,0.2-0.1,0.2c-0.4-0.2-1.5-0.3-2.3-0.2l0.2-0.2c-0.7-0.1-1.4-0.1-2.2-0.1c-0.4,0-0.8,0-1.2,0c-0.3,0-0.7,0-1,0
						c0,0,0,0,0,0.1c0,0,0.1,0,0.1,0.1c0.1,0.1,0.1,0.1,0.1,0.2c0,0.1-0.2,0.2-0.3,0.2c0,0,0-0.3,0-0.3c-0.2,0.2,0.2,0.1-0.2,0.4
						c-0.3-0.1,0.1-0.4,0.2-0.5c0,0-0.2,0.1-0.3,0.1c0.1-0.1,0.2-0.1,0.3-0.3c-0.1,0.1-0.1,0,0,0c0-0.1,0.1-0.1-0.2,0.1l0.2-0.1
						c0-0.1,0-0.1,0-0.1c0,0,0-0.1,0-0.1c0.1-0.2,0.3-0.5,0.4-0.8c-0.2-0.2,0.1-0.6,0-1.1c0.5-0.8,1.2-1.7,1.5-2.9
						c0.1-0.8-0.2-0.3-0.2-0.7c0.3,0,0.5-1.1,0.6-0.5c0.3-1.4,0.4-1.8,0.3-3.7c-0.1,0.2-0.2,0.4-0.3,0.3c0-0.3,0.2-0.7,0.3-0.7
						l0,0.1C75,54.8,75,54.3,75,53.7c0-0.6,0-1.1,0-1.7c0-1.1-0.1-2.3-0.7-3l0.1,0.1c0,0-0.2-0.4-0.4-0.8c-0.2-0.4-0.4-0.7-0.4-0.7
						c-0.2-0.7,0.3,0.4,0.3-0.2c-1.1-1.5-1.2-2.6-2.3-3.7c0-0.7-0.6-1.5-1.3-2.3c-0.7-0.8-1.5-1.6-1.9-2.3l-0.1,0.2
						c-0.1,0-0.2-0.1-0.2-0.1c0,0,0,0,0-0.1c0-0.1,0.1-0.1,0.1-0.1c-0.1,0.1-0.1,0.2-0.2,0.2c-0.3-0.2-0.6-0.5-0.7-0.6l0,0l0.2,0
						l0.3,0.1c0.2,0,0.3,0.1,0.5,0.1c0.1,0,0.1,0.1,0.3,0.1c0.5,0,1.1,0.1,1.6,0.1c1.2,0,0.7-0.9,2.2-0.5l-0.4,0.3
						c2.4-0.4,5,0,7.4-0.3c-0.1,0.1-0.1,0.2-0.4,0.2c0.5,0.2,1.9,0,1.9-0.2c0.4,0,0.1,0.2,0.3,0.3c0.5,0.1,1.3-0.3,1.5-0.1
						c0,0-0.1,0.1-0.2,0.1c0.3-0.1,1.5,0,1.2-0.3c0.9,0.1,1.7-0.1,2.4,0c0.5-0.3,1.5,0.1,1.7-0.3c-0.1,0.5,1.6,0.4,2.1,0.1
						c-0.2,0.1,0.5,0.1,0.3,0.3c0.6,0,1.2-0.1,1.1-0.3c1.2,0.5,2.4-0.5,3.1,0.2c1.9-0.3,3.7-0.4,5.4-0.6c-0.1,0.5-1.9,0.1-1.8,0.5
						c1.6-0.2,2.6-0.6,4.2-0.5c0.4,0.1-0.2,0.2-0.4,0.3c1.6-0.2,3.2,0,4.6-0.3c0,0-0.2,0.1-0.3,0.1c0.3,0,0.7,0.1,0.6-0.1l-0.3,0.1
						c-0.5-0.3,1.1-0.6,1.2-0.8c-0.5,0.6,1.4,0.1,0.7,0.9c0.2,0,0.4-0.1,0.4-0.3c0.3,0,0.4,0.1,0.1,0.3c1-0.1,0.7-0.3,1.6-0.3
						c0,0.1-0.2,0.1-0.3,0.3c0.5-0.2,0.9-0.4,1.7-0.3c0,0.1,0,0.1-0.2,0.1c1.4-0.1,2.3-0.6,3.8-0.4c-0.4,0.4,0.5,0.1,0.6,0.5
						l0.8-0.1l-0.3-0.2c0.7,0,1.3-0.3,1.9-0.2l-0.5,0.2l1.3-0.1l-0.7-0.1c0.7-0.2-0.1-0.5,0.9-0.4c-0.2,0,0.7,0,1.1,0.2l0,0
						c0.3-0.1,0.7-0.3,1.2-0.2c0.1,0.1-0.1,0.4,0,0.5c0.3-0.3,1.6-0.1,2.1-0.5c-0.1,0.1-0.1,0.3-0.1,0.3l0.3-0.3
						c0.3,0.1,0.4,0.1,0.3,0.3c1,0-0.3-0.5,0.8-0.3c-0.1,0,0,0.1-0.2,0.1c1.2,0.1,2.2-0.2,3.3-0.1c0.3,0.4-0.9,0.1-0.6,0.4
						c1.5-0.1,3.2-0.6,4.7-0.5l-0.3,0c0.2-0.5,1.1,0.2,1.9-0.1c-0.2,0-0.2,0.3-0.2,0.2c1,0,2.1-0.2,3.6-0.5l-0.2,0.1
						c0.6,0.1,1.6,0,2.3,0c0.2-0.2,0.5-0.2,0.3-0.3c0.3,0.1,0.5,0.2,0.7,0.2c0.1,0,0.2,0,0.3,0c0.1,0,0.3-0.1,0.3-0.1
						c0,0.3,0,0.6,0,1c0,0.1,0,0.2,0,0.3c0,0.1,0,0.3-0.1,0.4c0,0.3-0.1,0.5-0.2,0.8c0-0.2-0.1-0.5-0.1-0.4c0,0,0,0.4,0,0.8
						c0,0.4,0,0.8,0,0.8c0.2-0.1,0.1-0.2,0.3-0.5c0.1,0.2,0.2,0.6,0.2,1c-0.1-0.7-0.4,0-0.5,0.3c0.1-0.1,0.1,0.1,0.2,0
						c-0.4,0.8,0.5,0.1,0.2,1.2l-0.1-0.1c0.1,0.4,0.3,0.8,0.3,1.2c-0.3,0.2-0.1-0.4-0.4-0.4c0,0.6,0.6,1.2,0.4,1.8
						c-0.1-0.3-0.1-0.6-0.2-0.9c-0.3,0.6-0.2,0.7-0.2,1.2l0,0l0,1.1l0.1-0.3c0.8,0.7,0.3,1.6,0.9,2.5c-0.6-0.9-0.3-0.1-0.6-0.2
						c0,0.3-0.1,0.7-0.2,0.6c0.3,0.5-0.1,0.8,0.4,1.5c-0.1,0,0.1,0.5-0.2,0.5c0.2,0.6,0.1-0.2,0.3-0.1c0.5,0.9,0,2.4,0.8,3.7
						c0.5,1.2,0.8,1.3,1.2,2.4c-0.1,0.4-0.4-0.2-0.4-0.2c0,0.6,0.1,1.1,0.4,1.6c-0.1-0.1-0.2,0-0.2,0.2c0.1,0.4,0.4,0.2,0.4,0.8
						c-0.1-0.1-0.3-0.2-0.5-0.4c0.2,0.5,0.5,1,0.8,1.5c-0.1,0.2-0.3-0.3-0.5-0.4c0.2,0.6,0.6,1.6,0.9,1.7l0-0.4
						c0.1,0.2-0.2,0.2-0.3,0c-0.4-0.5-0.1-0.8,0-0.8l0.2,0.4c0.4-0.6-0.5-1.5-0.7-2.3l0.5,0.2l-0.5-0.7c0.1-0.2,0.3-0.4,0.4,0
						c0-0.6-0.3-0.5-0.2-1c0-0.1,0,0,0.1,0l-0.2-0.5c0.1,0.1,0.3-0.2,0.3,0.2c0-1-0.7-1.5-0.5-2l0,0.1c-0.4-1.3-0.3-0.1-0.9-1
						l0.6-0.9l-0.3-0.1c0-0.1-0.1-0.4,0.1-0.4c-0.3-0.5-0.1,0.1-0.4-0.2c0.1-0.7-0.5-1.9,0-2.1c-0.3-0.2-0.1,0.7-0.3,0
						c0.5-0.3-0.2-0.8-0.1-1.5c0.3,0.2,0.2,0.8,0.4,0.1c-0.5-0.3-0.1-1.2-0.2-1.8c-0.4,0-0.3-1.1-0.5-2c0.1,0,0.1-1.7,0.2-2.5l0.1,0
						c-0.4-0.1-0.3-1-0.4-1.6c0.2,0,0.3,0.1,0.4,0.5l0-0.6c-0.1-0.1-0.2-0.3-0.2-0.7l0.3,0.2c0-0.4-0.1-0.8-0.1-1.2
						c0-0.2,0-0.4,0-0.7c0-0.3,0.1-0.6,0.2-1c-0.1,0-0.4,0.3-0.6,0.4c-0.2,0.1-0.3,0-0.4-0.4c0.1-0.1,0.4-0.3,0.4,0
						c0-0.1-0.1-0.3,0-0.5c0,0,0.2,0.3,0.2,0.4c0.2-0.6-0.2-0.2-0.1-0.6c0.2-0.2,0.3-0.5,0.4-0.6c0,0.1-0.2,0.5-0.2,0.6
						c0.1-0.4,0.3-1,0.5-1.4c0-0.1-0.1-0.1-0.1-0.1c-0.1,0.1-0.3,0.3-0.7,0.5c-1.1,0.2-0.2-0.2-0.8-0.2c-0.4,0.2-1.1,0.2-1.1,0.5
						c-0.3,0-0.4-0.1-0.5-0.2c-0.4,0.2-1.9,0.2-1.4,0.5l0.1,0c0,0,0,0-0.1,0l0,0l0,0c-1.3,0.4-2.8,0-4.1,0.2l0-0.1
						c-0.8,0.2-1.8,0.1-2.3,0.4c-0.2,0-0.6-0.2-0.5-0.3c-0.6,0.1-0.7,0.2-1.6,0.1c0.6-0.2-0.2-0.1,0.6-0.1c-0.8-0.1-1-0.2-1.8,0.1
						c0.3-0.3-0.6-0.3-1-0.2l0.6,0.2c-0.4,0.1-0.8,0-1.2,0l0.2-0.3c-1.6-0.4-2.9,0.8-4.2,0.1c-0.4,0.2,0.9,0.1,0.5,0.4
						c-0.7,0-1.5-0.5-1.8-0.5c-1-0.2-0.9,0.5-2,0.4c0.1,0.1,0.3,0.4-0.5,0.6c-0.7,0-0.9-0.5-0.5-0.6c0.2,0,0.3,0,0.3,0.1
						c0.2,0,0.6-0.1,0.3-0.2l-0.1,0.1c-0.4-0.1-1.4-0.1-1.2-0.3c-0.6,0.1-0.2,0.2,0.2,0.3c-1-0.2-1.5,0-2.5-0.1
						c0.2,0.1,0.3,0.2,0.1,0.2c-1.5-0.1-0.6,0.2-1.6,0.3c-0.6-0.2,0.2-0.4-0.8-0.3c-0.6-0.1-0.1-0.3,0.1-0.4
						c-0.9,0.2-1.7-0.1-2.2-0.2l0.5-0.1c-0.3,0.1-0.5,0.1-0.8,0.1l0.3,0.2c-0.3,0-0.5,0-0.5-0.1c-0.3,0.2,0.2,0.4-0.3,0.6
						c-0.4-0.1-1.1,0.1-1.3-0.2c1.2,0.1-0.1-0.3,0.9-0.4c-0.2,0-0.4,0-0.7,0c0,0,0-0.1,0.1-0.1c-1.1-0.3-0.5,0.4-1.7,0.4
						c0.1-0.2-0.3-0.3-0.5-0.3c0.5,0,0.2,0.3-0.2,0.4c-0.7-0.1-0.8,0.1-1.2,0.1l0.4,0.1c-0.1,0.2-0.5,0.2-1,0.2
						c0-0.1,0.5-0.1,0.3-0.2c-0.6,0.3-1.3-0.3-2.1-0.1c-0.4-0.1,0-0.3-0.4-0.4c-0.9,0.2-1-0.2-1.9,0c0.3,0.2,0.3,0.2-0.3,0.4
						l1.5-0.2l-1,0.4c0.5,0,1-0.2,1.3-0.1c-0.5,0.2-0.4,0.1-0.2,0.3c-0.6-0.4-1.3,0.2-2,0l0-0.6c-1.1-0.3-2,0.3-3.4,0.2l0.5,0.1
						c-0.2,0.2-0.9,0-1.4,0.1c0-0.2-0.3-0.3-0.5-0.4c0,0.1-1.1,0-1.2,0.4l-0.6-0.3c-1.2-0.1-1.3,0.6-2.5,0.5
						c0.3-0.2-0.2-0.4,0.6-0.5c-0.4,0-0.7,0-0.7,0.1c-0.2-0.1-1,0.3-1.4,0.1c-0.2,0.1-0.2,0.3-0.6,0.3c0,0,0-0.1,0-0.1
						c0,0.1-0.7,0.1-0.3,0.4c-1.2-0.6-3.2,0.1-4.2-0.5c-0.8,0.1-1.8,0.1-2.5,0.2c0-0.1,0-0.1,0.1-0.1c-1-0.2-0.6,0.6-1.8,0.4
						c-0.6-0.3,0.6-0.2,0.2-0.3c-0.2-0.6-1.4,0.1-2.2-0.3l0.2,0c-0.6-0.2-1.5,0.3-2.4,0.2c0,0,0-0.1,0-0.1c-0.7,0.3-1.9,0.4-2.9,0.5
						c0.3-0.3,0.4-0.1,0.2-0.4c-0.4,0,0.1,0.4-0.7,0.5c-0.3-0.1-0.9-0.3-1-0.5l0.8,0c-0.4-0.4-1,0-1.4,0l0.1-0.2
						c-1.2,0.1-1.2,0.4-2.5,0.4l0.1,0.1c-0.4,0.2-0.5,0.1-0.7,0.1c-0.2-0.1-0.4-0.1-0.8,0c0,0-0.5-0.4-0.5-0.4
						c-0.3,0.1-0.8,0.1-1.3,0.2c-0.5,0.1-1,0.2-1.4,0.2c0-0.3,1.2-0.4,2-0.6c-0.7,0-2.5,0-2.5,0.2c0.2,0,0.4-0.1,0.8-0.1
						c-0.2,0.2-0.4,0.3-0.7,0.3c-0.2,0-0.3,0.1-0.5,0.1c-0.1,0-0.2,0-0.3,0c0,0.1,0.1,0.1,0.1,0.2c-0.3-0.1-0.5-0.2-0.7-0.2
						c-0.5-0.1,0.4,0.6,1.3,1.2c0.4,0.3,0.8,0.7,1.2,1c0.3,0.3,0.5,0.6,0.5,0.8c1.3,1,1.6,1.4,2.1,2.1c0.5,0.7,1,1.3,1.5,2.1
						c0.1-0.9,0.3,0.4,0.8,0c0.3,0.3,0.4,0.5,0.4,0.5c0,0,0.1,0.3,0.2,0.7c0.1,0.3,0.2,0.7,0.2,0.7c0,0.4-0.3-0.3-0.4-0.2
						c0.4,0.8,0,0.5,0.1,1.1c0.1-0.2,0.4,0.1,0.6,0.6c0,0,0-0.2,0-0.4c0-0.2-0.1-0.4-0.1-0.4c0.5,0.5,0.5,0.8,0.5,1.1
						c0,0.3,0,0.6,0.4,1.1l-0.3-0.3c0.4,0.6,0.8,2.3,1.4,2.8c0,0.1-0.2,0.3-0.3,0c0.3,1.5,1,3.5,0.5,4.7l-0.1-0.1
						c0,0.3,0.2,0.5,0,0.9c-0.1,0-0.1-0.1-0.2,0c0,0.2,0.2,0.8,0,1.2l-0.1-0.4c-0.3,0.7-0.3,1.3-0.3,1.9c0,0.6-0.1,1.2-0.3,1.8
						c-0.2-0.1-0.4,0.1-0.7,0.4c-0.3,0.3-0.5,0.7-0.7,0.9l0,0c-0.2,0.4-0.4,0.8-0.6,1.1c-0.3,0.7-0.8,1.3-1.1,1.9
						c-0.3,0.5-0.6,1.1-0.9,1.6l-0.2,0.4c0.2,0,0.4,0,0.6,0c0.4,0,0.7,0,1.1,0c0.3,0.1,0.8,0.2,1.5,0.3c0.4,0,0.8,0.1,1.2,0.1
						c0.3,0,0.5,0,0.8,0.1c1,0.1,2.1,0.1,3,0.3c-0.3-0.1,0.1-0.3,0.4-0.4c0.4,0.1,1.2-0.2,1.1,0.2l-0.1,0c0.3,0.4,1.2,0.4,1.8,0.4
						l0.1-0.5c1.7,0.9,4.6,0,5.5,0.7c0.4-0.1,1-0.1,1.4-0.2l0,0.3c1.2,0.1,1.8,0.2,3.2,0.2l-0.3,0.2c0.8,0.1,1.1-0.8,1.8-0.8
						l0.2,0.4c1.4,0.1,2.9,0.5,4.3,0.1c0,0.1-0.1,0.2-0.3,0.2c0.7,0,2.6,0.4,2.4-0.2c0,0.4,1.5,0.1,2.2-0.1l-0.1,0.3
						c0.7-0.3,0.7-0.4,1.6-0.5c0.2,0,0.2,0.2-0.1,0.1c0.7,0.2,0.6-0.2,1.4-0.1l-0.3,0.2c0.7,0,0.7-0.1,1.1-0.3
						c0.5-0.1,1.4,0.1,1.5,0.4c0.1-0.2,0.5-0.3,0.9-0.3c0.1,0.1-0.1,0.2-0.2,0.2c1.2,0.2,1.8-0.3,2.7,0c0,0.1,0.1,0.1,0.1,0.2
						c-1,0-1.8-0.1-1.7-0.1c0,0.3,0.8,0.3,0.1,0.7c0.6-0.2,1.7-0.6,2.5-0.4c0,0,0.1,0.1,0.1,0.1l-0.1,0c0.2,0,0.3,0,0.5,0
						c0.2,0,0.4,0.1,0.6,0.1c0.1,0.2,0.9,0.1,1.3,0.1c0-0.3,0.5-0.2,0-0.5c0.1,0-0.1,0-0.3,0c-0.1,0-0.1,0-0.2,0l0,0
						c-0.3,0-0.6,0-1,0c0.3-0.1,0.6-0.3,1.1-0.1c0.2-0.2,0.4-0.4,0.6-0.4c0.5,0.4,1.6,0.6,1.7,0.9c1.2-0.1,2.8-0.1,3.6-0.6
						c0.3-0.1,0.4,0.2,0.5,0.2c-0.2,0.1-0.4,0-0.5,0.1c0.7-0.1,2-0.1,2.2-0.4c0.9,0.2-0.5,0.3,0.7,0.3l-0.2,0.1
						c2.3,0.6,3.8-1,6.4-0.3c-0.2,0-0.3-0.1-0.3-0.1c3,0.2,6.1-0.5,9-0.3c0.8,0,0.9-0.2,1.4-0.4l0.2,0.3l0.8-0.4
						c1.2-0.4,2.2,0.5,3.7-0.3l-0.2-0.2c0.6-0.1,1.7-0.5,1.7-0.3c0-0.1,0.1-0.3,0.4-0.2l0.1,0.1c0,0,0.3-0.2,0.6-0.3
						c0.3-0.2,0.6-0.4,0.6-0.4c0.5-0.2,0.6,0,0.7,0.1c0,0.1,0.1,0.1,0.3,0.1c0.1,0,0.4-0.1,0.8-0.5c0.3-0.3,0.6-1,0.5-1.5
						c-0.1-0.5-0.4-0.7-0.4-0.6c0,0.2,0,0.4,0,0.5c-0.1,0.2-0.2,0.3-0.2,0.2c0,0,0-0.2,0-0.3c0-0.1-0.1-0.3-0.1-0.3
						c-0.2,0-0.5,0-0.7,0.1c-0.2,0.1-0.4,0.3-0.6,0.2c0,0,0.1,0,0,0.2c0,0.1-0.1,0.3-0.1,0.3c0,0-0.3-0.1-0.3-0.1
						c0,0,0.4-0.3,0.3-0.3c-0.3,0-0.3,0.2-0.5,0.5c-0.1-0.1-0.2-0.1-0.4-0.1c0,0-0.1,0.2-0.3,0.4c-0.2,0.2-0.3,0.3-0.3,0.3
						c-0.1-0.1,0.2-0.5-0.3-0.4c-0.3,0.3,0.5,0.3-0.1,0.6c-0.5-0.1-0.4-0.3-0.8,0c-0.1-0.1,0-0.2,0.2-0.3c-0.4,0.2-1.1,0.3-1.3,0.6
						c-0.5-0.2-1.4,0.3-1.5-0.1c-0.1,0.1-0.7,0.5-1.1,0.5c0.7-0.6-1.5,0.2-1.4-0.4c-0.5,0.5-1.9,0.4-2.9,0.8c0.1,0,0.2-0.1,0.2-0.1
						c-0.6,0-0.7-0.1-1.1-0.2c0,0.4-0.9,0.5-1.3,0.8c-0.7-0.3,0.4-0.5,0.1-0.8c0.1,0.3-1.2,0.4-0.9,0.6c-0.5-0.2-0.5-0.1-0.7-0.4
						c-0.1,0.5-0.5,0.1-0.9,0.4c-0.8-0.2-0.2-0.4-1-0.3C128,67,128.7,66.8,128.7,66.8z M109.1,67.7L109.1,67.7c0.2,0,0.3,0,0.4,0
						C109.4,67.7,109.3,67.7,109.1,67.7z M107.4,67.7c0.2,0,0.5,0,0.7,0c0.1,0.1,0,0.2-0.2,0.2C108.1,67.9,107.7,67.8,107.4,67.7z
						 M110.9,69.7c-0.3,0-0.4,0-0.4-0.1c0.1,0,0.3,0,0.5,0c0,0,0,0,0,0C111,69.6,111,69.7,110.9,69.7z"/>
					<path class="st5" d="M111.4,69.4c0,0,0.1,0,0.1,0C111.4,69.3,111.4,69.3,111.4,69.4l-0.1,0C111.3,69.4,111.3,69.4,111.4,69.4z"
						/>
					<path class="st5" d="M138.1,35.7L138.1,35.7C138.1,35.7,138.1,35.7,138.1,35.7C138.1,35.7,138.1,35.7,138.1,35.7z"/>
					<polygon class="st5" points="84.6,66.4 84.6,66.4 84.8,66.4 					"/>
					<path class="st5" d="M140.8,40.9c0,0,0,0.1-0.1,0.1C140.8,41.1,140.8,41,140.8,40.9z"/>
					<path class="st5" d="M140.9,44.9l0,0.6C140.9,45.2,140.9,45.1,140.9,44.9z"/>
					<path class="st5" d="M141.2,48c0.1,0,0.1,0,0.1,0l0,0L141.2,48z"/>
					<path class="st5" d="M106.1,38.1c0,0-0.1,0-0.1,0C105.7,38.2,105.9,38.1,106.1,38.1z"/>
					<path class="st5" d="M120.4,37.2c-0.2,0.1-0.3,0.1-0.5,0.1C120.2,37.3,120.4,37.4,120.4,37.2z"/>
					<polygon class="st5" points="90.1,38.6 90.1,38.6 90,38.6 					"/>
					<path class="st5" d="M119.3,37.3c0.3,0.1,0.5,0,0.7,0C119.8,37.3,119.5,37.3,119.3,37.3z"/>
					<path class="st5" d="M143.8,60.9l0,0.1c0,0,0,0,0,0L143.8,60.9z"/>
					<path class="st5" d="M143.9,61.1l0.1,0.1C143.9,61.2,143.9,61.1,143.9,61.1z"/>
					<path class="st5" d="M144.1,61.5l-0.2-0.3C144,61.3,144,61.5,144.1,61.5z"/>
					<path class="st5" d="M142.9,57l-0.1,0C142.8,57,142.9,57,142.9,57z"/>
					<path class="st5" d="M142.6,55.8c0,0.3,0,0.8,0.1,1.1l0.1,0C142.6,56.8,142.8,56,142.6,55.8z"/>
					<path class="st5" d="M142.8,50.6c0,0,0,0.3,0,0.5c0,0.3,0.1,0.5,0.1,0.5c0.1-0.2,0.2-0.4,0.3,0C143.3,50.3,143,51.9,142.8,50.6
						z"/>
					<path class="st5" d="M142.5,47.4c0.1,0.5,0.2,0,0.2,0C142.6,47.1,142.5,47,142.5,47.4z"/>
					<path class="st5" d="M131,35.8l0-0.3C130.6,35.6,131,35.7,131,35.8z"/>
					<polygon class="st5" points="126.7,37.3 127.1,37.4 127.3,37.2 					"/>
					<polygon class="st5" points="124,35.5 124.2,35.5 123.5,35.6 					"/>
					<path class="st5" d="M85.7,36.1l0.1,0.3C86.1,36.4,86.1,36,85.7,36.1z"/>
					<path class="st5" d="M69.1,36.5c-0.1-0.1-0.3-0.1-0.4-0.2c-0.1,0-0.2,0-0.3,0c-0.1,0-0.3,0-0.4,0.1c0.3,0,0.5,0,0.6,0.1
						C68.8,36.5,69,36.5,69.1,36.5z"/>
					<polygon class="st5" points="80.1,68.7 79.8,68.8 80.4,68.7 					"/>
				</g>
			</g>
		</g>
	</g>
</g>
<g>
	<path class="st6" d="M104,50.2h-2.2v-1.9H96v1.9h-2.2v-3.5h0.7c0.5-0.9,0.9-1.9,1.1-3.1c0.3-1.1,0.4-2.4,0.4-3.7h7.1v6.7h0.9V50.2z
		 M100.6,46.7v-5.1h-2.4c-0.1,1-0.2,2-0.5,2.8c-0.3,0.9-0.6,1.6-0.9,2.3H100.6z"/>
	<path class="st6" d="M112.6,48.3h-2.3v-4.9h-1.9c0,0.3,0,0.5,0,0.7c0,0.2,0,0.3,0,0.5c0,0.6-0.1,1.1-0.2,1.5
		c-0.1,0.4-0.2,0.7-0.3,0.9c-0.1,0.2-0.3,0.4-0.4,0.6c-0.1,0.1-0.3,0.3-0.4,0.4c-0.2,0.1-0.4,0.2-0.7,0.3c-0.3,0.1-0.5,0.1-0.8,0.1
		c-0.2,0-0.4,0-0.6,0s-0.3,0-0.4,0v-1.6h0.1c0,0,0,0,0.1,0c0,0,0.1,0,0.1,0c0.1,0,0.2,0,0.3,0c0.1,0,0.2-0.1,0.3-0.1
		c0.3-0.2,0.5-0.5,0.6-0.9c0.1-0.4,0.2-0.9,0.2-1.6c0-0.3,0-0.6,0.1-0.9s0-0.7,0-1.1h6.2V48.3z"/>
	<path class="st6" d="M121.5,48.3h-2.3v-2.2h-1l-1.7,2.2h-2.6l2-2.5c-0.5-0.2-0.8-0.4-1.1-0.7c-0.2-0.3-0.4-0.7-0.4-1.2
		c0-0.3,0.1-0.6,0.2-0.9s0.4-0.4,0.6-0.6c0.2-0.1,0.5-0.2,0.8-0.3c0.3-0.1,0.7-0.1,1.1-0.1h4.3V48.3z M119.2,44.9v-1.6h-1.4
		c-0.3,0-0.6,0.1-0.7,0.2s-0.3,0.3-0.3,0.5c0,0.3,0.1,0.5,0.3,0.6c0.2,0.1,0.4,0.2,0.8,0.2H119.2z"/>
	<path class="st6" d="M82.1,59.9l1.6-4.1h2.4l-4,8.6h-2.5l1.1-2.4L78,55.8h2.4L82.1,59.9z"/>
	<path class="st6" d="M94.1,62.1h-2.3v-2.2c-0.4,0.1-0.8,0.1-1.1,0.2s-0.8,0.1-1.2,0.1c-0.8,0-1.4-0.2-1.8-0.5S87,58.8,87,58.2v-2.4
		h2.3v1.4c0,0.3,0,0.5,0,0.7s0.1,0.3,0.2,0.5c0.1,0.1,0.3,0.2,0.5,0.3c0.2,0.1,0.5,0.1,0.9,0.1c0.1,0,0.2,0,0.4,0c0.2,0,0.3,0,0.4,0
		v-2.9h2.3V62.1z"/>
	<path class="st6" d="M103.5,62.1h-2.2v-3.9l-3.1,3.9h-1.9v-6.3h2.2v3.5l2.9-3.5h2.1V62.1z"/>
	<path class="st6" d="M111.5,57.2h-2.3v4.9h-2.3v-4.9h-2.3v-1.4h6.8V57.2z"/>
	<path class="st6" d="M119.6,59.3h-5.2c0,0.5,0.2,0.9,0.6,1.1c0.4,0.3,1,0.4,1.7,0.4c0.5,0,1-0.1,1.4-0.2c0.5-0.2,0.8-0.3,1.1-0.5
		h0.3v1.6c-0.5,0.2-1,0.3-1.5,0.4s-1,0.1-1.5,0.1c-1.4,0-2.5-0.3-3.3-0.9s-1.1-1.4-1.1-2.4c0-1,0.4-1.9,1.1-2.5
		c0.7-0.6,1.7-0.9,3-0.9c1.2,0,2,0.3,2.6,0.8c0.6,0.5,0.9,1.3,0.9,2.2V59.3z M117.3,58.1c0-0.4-0.1-0.7-0.4-1s-0.6-0.3-1-0.3
		c-0.4,0-0.8,0.1-1.1,0.3c-0.3,0.2-0.4,0.5-0.5,1H117.3z"/>
	<path class="st6" d="M128.3,62.1H126v-4.9h-1.9c0,0.3,0,0.5,0,0.7c0,0.2,0,0.3,0,0.5c0,0.6-0.1,1.1-0.2,1.5
		c-0.1,0.4-0.2,0.7-0.3,0.9c-0.1,0.2-0.3,0.4-0.4,0.6c-0.1,0.1-0.3,0.3-0.4,0.4c-0.2,0.1-0.4,0.2-0.7,0.3c-0.3,0.1-0.5,0.1-0.8,0.1
		c-0.2,0-0.4,0-0.6,0s-0.3,0-0.4,0v-1.6h0.1c0,0,0,0,0.1,0c0,0,0.1,0,0.1,0c0.1,0,0.2,0,0.3,0c0.1,0,0.2-0.1,0.3-0.1
		c0.3-0.2,0.5-0.5,0.6-0.9c0.1-0.4,0.2-0.9,0.2-1.6c0-0.3,0-0.6,0.1-0.9s0-0.7,0-1.1h6.2V62.1z"/>
	<path class="st6" d="M137.2,62.1h-2.3v-2.2h-1l-1.7,2.2h-2.6l2-2.5c-0.5-0.2-0.8-0.4-1.1-0.7c-0.2-0.3-0.4-0.7-0.4-1.2
		c0-0.3,0.1-0.6,0.2-0.9s0.4-0.4,0.6-0.6c0.2-0.1,0.5-0.2,0.8-0.3c0.3-0.1,0.7-0.1,1.1-0.1h4.3V62.1z M134.9,58.7v-1.6h-1.4
		c-0.3,0-0.6,0.1-0.7,0.2s-0.3,0.3-0.3,0.5c0,0.3,0.1,0.5,0.3,0.6c0.2,0.1,0.4,0.2,0.8,0.2H134.9z"/>
</g>
<g>
	<path class="st7" d="M66.5,76.2c0-0.5,0.2-0.9,0.5-1.2s0.7-0.5,1.2-0.5c0.5,0,0.9,0.2,1.2,0.5c0.3,0.3,0.5,0.7,0.5,1.2
		s-0.2,0.9-0.5,1.2c-0.3,0.3-0.7,0.5-1.2,0.5c-0.5,0-0.9-0.2-1.2-0.5S66.5,76.7,66.5,76.2z"/>
	<path class="st7" d="M77.4,79.4h-1.1v-0.9h-2.2v0.9H73v-1.8h0.3c0.2-0.3,0.3-0.8,0.4-1.3s0.2-1,0.2-1.6H77v2.9h0.4V79.4z
		 M75.8,77.6v-2.1H75c0,0.4-0.1,0.8-0.2,1.1c-0.1,0.4-0.2,0.7-0.3,0.9H75.8z"/>
	<path class="st7" d="M82,76.6c0,0.6-0.2,1.1-0.5,1.4c-0.4,0.4-0.9,0.5-1.5,0.5s-1.1-0.2-1.5-0.5c-0.4-0.4-0.5-0.8-0.5-1.4
		c0-0.6,0.2-1.1,0.5-1.5s0.9-0.5,1.5-0.5c0.7,0,1.2,0.2,1.5,0.5C81.8,75.5,82,76,82,76.6z M80.5,77.5c0.1-0.1,0.1-0.2,0.2-0.3
		c0-0.1,0.1-0.3,0.1-0.6c0-0.2,0-0.4-0.1-0.6c0-0.1-0.1-0.3-0.2-0.4c-0.1-0.1-0.2-0.2-0.3-0.2c-0.1,0-0.2-0.1-0.3-0.1
		c-0.1,0-0.2,0-0.3,0c-0.1,0-0.2,0.1-0.3,0.2c-0.1,0.1-0.1,0.2-0.2,0.4c0,0.2-0.1,0.3-0.1,0.6c0,0.2,0,0.4,0.1,0.5s0.1,0.3,0.2,0.4
		c0.1,0.1,0.2,0.1,0.3,0.2c0.1,0,0.2,0.1,0.3,0.1c0.1,0,0.2,0,0.3-0.1S80.5,77.6,80.5,77.5z"/>
	<path class="st7" d="M86.6,78.5h-1.2v-2.9h-1.4v2.9h-1.2v-3.7h3.8V78.5z"/>
	<path class="st7" d="M91.6,76.6c0,0.6-0.2,1.1-0.5,1.4c-0.4,0.4-0.9,0.5-1.5,0.5S88.4,78.4,88,78c-0.4-0.4-0.5-0.8-0.5-1.4
		c0-0.6,0.2-1.1,0.5-1.5s0.9-0.5,1.5-0.5c0.7,0,1.2,0.2,1.5,0.5C91.4,75.5,91.6,76,91.6,76.6z M90.1,77.5c0.1-0.1,0.1-0.2,0.2-0.3
		c0-0.1,0.1-0.3,0.1-0.6c0-0.2,0-0.4-0.1-0.6c0-0.1-0.1-0.3-0.2-0.4c-0.1-0.1-0.2-0.2-0.3-0.2c-0.1,0-0.2-0.1-0.3-0.1
		c-0.1,0-0.2,0-0.3,0c-0.1,0-0.2,0.1-0.3,0.2c-0.1,0.1-0.1,0.2-0.2,0.4c0,0.2-0.1,0.3-0.1,0.6c0,0.2,0,0.4,0.1,0.5s0.1,0.3,0.2,0.4
		c0.1,0.1,0.2,0.1,0.3,0.2c0.1,0,0.2,0.1,0.3,0.1c0.1,0,0.2,0,0.3-0.1S90.1,77.6,90.1,77.5z"/>
	<path class="st7" d="M96.2,78.5H95v-2.9h-1c0,0.2,0,0.3,0,0.4c0,0.1,0,0.2,0,0.3c0,0.4,0,0.6-0.1,0.9c0,0.2-0.1,0.4-0.2,0.5
		c-0.1,0.1-0.1,0.3-0.2,0.3s-0.2,0.2-0.2,0.2c-0.1,0.1-0.2,0.1-0.3,0.2s-0.3,0.1-0.4,0.1c-0.1,0-0.2,0-0.3,0s-0.2,0-0.2,0v-1h0
		c0,0,0,0,0,0c0,0,0,0,0.1,0c0.1,0,0.1,0,0.2,0c0.1,0,0.1,0,0.2-0.1c0.1-0.1,0.2-0.3,0.3-0.5c0-0.2,0.1-0.5,0.1-0.9
		c0-0.2,0-0.3,0-0.5c0-0.2,0-0.4,0-0.7h3.2V78.5z"/>
	<path class="st7" d="M101.1,78.5h-1.2v-1.6h-1.4v1.6h-1.2v-3.7h1.2V76h1.4v-1.3h1.2V78.5z"/>
	<path class="st7" d="M106,78.5h-1.2v-2.3l-1.6,2.3h-1v-3.7h1.2v2l1.5-2h1.1V78.5z"/>
	<path class="st7" d="M110.1,75.5H109v2.9h-1.2v-2.9h-1.2v-0.8h3.6V75.5z"/>
	<path class="st7" d="M114.4,76.8h-2.7c0,0.3,0.1,0.5,0.3,0.7c0.2,0.2,0.5,0.2,0.9,0.2c0.3,0,0.5,0,0.7-0.1s0.4-0.2,0.6-0.3h0.1v1
		c-0.3,0.1-0.5,0.2-0.8,0.2c-0.2,0-0.5,0.1-0.8,0.1c-0.7,0-1.3-0.2-1.7-0.5c-0.4-0.3-0.6-0.8-0.6-1.4c0-0.6,0.2-1.1,0.6-1.5
		c0.4-0.4,0.9-0.5,1.6-0.5c0.6,0,1.1,0.2,1.4,0.5c0.3,0.3,0.5,0.7,0.5,1.3V76.8z M113.2,76.1c0-0.3-0.1-0.4-0.2-0.6
		c-0.1-0.1-0.3-0.2-0.5-0.2c-0.2,0-0.4,0.1-0.6,0.2s-0.2,0.3-0.2,0.6H113.2z"/>
	<path class="st7" d="M119,78.5h-1.2v-2.9h-1c0,0.2,0,0.3,0,0.4c0,0.1,0,0.2,0,0.3c0,0.4,0,0.6-0.1,0.9c0,0.2-0.1,0.4-0.2,0.5
		c-0.1,0.1-0.1,0.3-0.2,0.3s-0.2,0.2-0.2,0.2c-0.1,0.1-0.2,0.1-0.3,0.2s-0.3,0.1-0.4,0.1c-0.1,0-0.2,0-0.3,0s-0.2,0-0.2,0v-1h0
		c0,0,0,0,0,0c0,0,0,0,0.1,0c0.1,0,0.1,0,0.2,0c0.1,0,0.1,0,0.2-0.1c0.1-0.1,0.2-0.3,0.3-0.5c0-0.2,0.1-0.5,0.1-0.9
		c0-0.2,0-0.3,0-0.5c0-0.2,0-0.4,0-0.7h3.2V78.5z"/>
	<path class="st7" d="M123.7,77.2c0,0.2,0,0.4-0.1,0.5c-0.1,0.2-0.2,0.3-0.3,0.4c-0.2,0.1-0.3,0.2-0.5,0.3c-0.2,0.1-0.4,0.1-0.6,0.1
		h-2.1v-3.7h1.2V76h0.9c0.3,0,0.5,0,0.7,0.1c0.2,0,0.3,0.1,0.5,0.2c0.1,0.1,0.2,0.2,0.3,0.4C123.7,76.8,123.7,77,123.7,77.2z
		 M122.5,77.2c0-0.2,0-0.3-0.1-0.4s-0.2-0.1-0.4-0.1h-0.7v1h0.7c0.1,0,0.2,0,0.3-0.1c0.1,0,0.1-0.1,0.2-0.1c0,0,0.1-0.1,0.1-0.2
		C122.5,77.3,122.5,77.3,122.5,77.2z"/>
	<path class="st7" d="M128.3,78.5h-1.2v-1.6h-1.4v1.6h-1.2v-3.7h1.2V76h1.4v-1.3h1.2V78.5z"/>
	<path class="st7" d="M133,77.2c0,0.2,0,0.4-0.1,0.5s-0.2,0.3-0.3,0.4c-0.2,0.1-0.3,0.2-0.5,0.3c-0.2,0.1-0.4,0.1-0.6,0.1h-2.1v-3.7
		h1.2V76h0.9c0.3,0,0.5,0,0.6,0.1c0.2,0,0.3,0.1,0.5,0.2c0.1,0.1,0.2,0.2,0.3,0.4C133,76.8,133,77,133,77.2z M131.8,77.2
		c0-0.2,0-0.3-0.1-0.4s-0.2-0.1-0.4-0.1h-0.7v1h0.7c0.1,0,0.2,0,0.3-0.1s0.1-0.1,0.2-0.1c0,0,0.1-0.1,0.1-0.2
		C131.8,77.3,131.8,77.3,131.8,77.2z M134.7,78.5h-1.2v-3.7h1.2V78.5z"/>
	<path class="st7" d="M139.5,76.8h-2.7c0,0.3,0.1,0.5,0.3,0.7c0.2,0.2,0.5,0.2,0.9,0.2c0.3,0,0.5,0,0.7-0.1s0.4-0.2,0.6-0.3h0.1v1
		c-0.3,0.1-0.5,0.2-0.8,0.2c-0.2,0-0.5,0.1-0.8,0.1c-0.7,0-1.3-0.2-1.7-0.5c-0.4-0.3-0.6-0.8-0.6-1.4c0-0.6,0.2-1.1,0.6-1.5
		c0.4-0.4,0.9-0.5,1.6-0.5c0.6,0,1.1,0.2,1.4,0.5c0.3,0.3,0.5,0.7,0.5,1.3V76.8z M138.3,76.1c0-0.3-0.1-0.4-0.2-0.6
		c-0.1-0.1-0.3-0.2-0.5-0.2c-0.2,0-0.4,0.1-0.6,0.2s-0.2,0.3-0.2,0.6H138.3z"/>
	<path class="st7" d="M72.4,85.5c0,0.2,0,0.3-0.1,0.5c-0.1,0.1-0.2,0.3-0.3,0.3c-0.2,0.1-0.3,0.2-0.5,0.2c-0.2,0-0.4,0.1-0.6,0.1
		h-2.3v-3.7h2.2c0.3,0,0.5,0,0.6,0c0.1,0,0.3,0.1,0.4,0.1c0.1,0.1,0.2,0.2,0.3,0.3c0.1,0.1,0.1,0.3,0.1,0.4c0,0.2-0.1,0.3-0.2,0.5
		c-0.1,0.1-0.2,0.2-0.4,0.3v0c0.2,0.1,0.4,0.2,0.5,0.3S72.4,85.2,72.4,85.5z M71,84c0-0.1,0-0.2-0.1-0.3c-0.1-0.1-0.2-0.1-0.4-0.1
		h-0.6v0.7h0.7c0.2,0,0.3,0,0.4-0.1C70.9,84.2,71,84.1,71,84z M71.2,85.5c0-0.2,0-0.3-0.1-0.3C70.9,85,70.8,85,70.6,85h-0.8v0.9h0.8
		c0.2,0,0.3,0,0.4-0.1C71.1,85.7,71.2,85.6,71.2,85.5z"/>
	<path class="st7" d="M77.1,84.8c0,0.6-0.2,1.1-0.5,1.4c-0.4,0.4-0.9,0.5-1.5,0.5s-1.1-0.2-1.5-0.5c-0.4-0.4-0.5-0.8-0.5-1.4
		c0-0.6,0.2-1.1,0.5-1.5s0.9-0.5,1.5-0.5c0.7,0,1.2,0.2,1.5,0.5C76.9,83.7,77.1,84.1,77.1,84.8z M75.6,85.7c0.1-0.1,0.1-0.2,0.2-0.3
		c0-0.1,0.1-0.3,0.1-0.6c0-0.2,0-0.4-0.1-0.6c0-0.1-0.1-0.3-0.2-0.4c-0.1-0.1-0.2-0.2-0.3-0.2c-0.1,0-0.2-0.1-0.3-0.1
		c-0.1,0-0.2,0-0.3,0c-0.1,0-0.2,0.1-0.3,0.2c-0.1,0.1-0.1,0.2-0.2,0.4c0,0.2-0.1,0.3-0.1,0.6c0,0.2,0,0.4,0.1,0.5s0.1,0.3,0.2,0.4
		c0.1,0.1,0.2,0.1,0.3,0.2c0.1,0,0.2,0.1,0.3,0.1c0.1,0,0.2,0,0.3-0.1S75.5,85.7,75.6,85.7z"/>
	<path class="st7" d="M81.1,85.6c0,0.2-0.1,0.4-0.2,0.5c-0.1,0.2-0.2,0.3-0.4,0.4c-0.2,0.1-0.4,0.2-0.6,0.2c-0.2,0-0.5,0.1-0.7,0.1
		c-0.3,0-0.6,0-0.9-0.1c-0.3-0.1-0.5-0.1-0.7-0.2v-0.9h0.1c0.2,0.1,0.4,0.2,0.6,0.3s0.4,0.1,0.7,0.1c0.1,0,0.2,0,0.3,0
		c0.1,0,0.2,0,0.3-0.1c0.1,0,0.2-0.1,0.2-0.1c0,0,0.1-0.1,0.1-0.2c0-0.1,0-0.2-0.1-0.2c0-0.1-0.1-0.1-0.2-0.1c-0.1,0-0.1,0-0.2,0
		c-0.1,0-0.2,0-0.4,0h-0.6v-0.8h0.5c0.1,0,0.2,0,0.3,0c0.1,0,0.2,0,0.3,0c0.1,0,0.2-0.1,0.2-0.1c0-0.1,0.1-0.1,0.1-0.2
		c0-0.1,0-0.1-0.1-0.2c0,0-0.1-0.1-0.2-0.1c-0.1,0-0.1,0-0.2,0s-0.2,0-0.3,0c-0.2,0-0.3,0-0.6,0.1s-0.4,0.1-0.6,0.2h-0.1V83
		c0.1,0,0.3-0.1,0.6-0.1s0.5-0.1,0.8-0.1c0.2,0,0.5,0,0.7,0.1c0.2,0,0.4,0.1,0.5,0.2c0.2,0.1,0.3,0.2,0.4,0.3
		c0.1,0.1,0.2,0.3,0.2,0.5c0,0.2-0.1,0.4-0.2,0.5c-0.1,0.2-0.3,0.3-0.5,0.3v0c0.2,0.1,0.4,0.2,0.5,0.3C81,85.1,81.1,85.3,81.1,85.6z
		"/>
	<path class="st7" d="M86.5,86.6h-1.2v-2.3l-0.8,1.5h-0.5l-0.8-1.5v2.3h-1.1v-3.7h1.3l1,1.7l1-1.7h1.3V86.6z"/>
	<path class="st7" d="M91.4,84.8c0,0.6-0.2,1.1-0.5,1.4c-0.4,0.4-0.9,0.5-1.5,0.5s-1.1-0.2-1.5-0.5c-0.4-0.4-0.5-0.8-0.5-1.4
		c0-0.6,0.2-1.1,0.5-1.5s0.9-0.5,1.5-0.5c0.7,0,1.2,0.2,1.5,0.5C91.2,83.7,91.4,84.1,91.4,84.8z M89.9,85.7c0.1-0.1,0.1-0.2,0.2-0.3
		c0-0.1,0.1-0.3,0.1-0.6c0-0.2,0-0.4-0.1-0.6c0-0.1-0.1-0.3-0.2-0.4c-0.1-0.1-0.2-0.2-0.3-0.2c-0.1,0-0.2-0.1-0.3-0.1
		c-0.1,0-0.2,0-0.3,0c-0.1,0-0.2,0.1-0.3,0.2c-0.1,0.1-0.1,0.2-0.2,0.4c0,0.2-0.1,0.3-0.1,0.6c0,0.2,0,0.4,0.1,0.5s0.1,0.3,0.2,0.4
		c0.1,0.1,0.2,0.1,0.3,0.2c0.1,0,0.2,0.1,0.3,0.1c0.1,0,0.2,0,0.3-0.1S89.9,85.7,89.9,85.7z"/>
	<path class="st7" d="M98.4,86.6H97L96,85.1h-0.3v1.5h-1.2v-1.5h-0.3l-0.9,1.5h-1.4l1.3-1.9c-0.1,0-0.1-0.1-0.1-0.2
		s-0.1-0.1-0.1-0.3c-0.1-0.1-0.1-0.3-0.2-0.3c-0.1-0.1-0.2-0.1-0.3-0.1H92v-1c0,0,0.1,0,0.2,0c0.1,0,0.2,0,0.3,0
		c0.3,0,0.5,0.1,0.7,0.2s0.3,0.3,0.4,0.5c0,0,0.1,0.1,0.1,0.2s0.1,0.2,0.1,0.2c0.1,0.2,0.2,0.3,0.3,0.4s0.2,0.1,0.4,0.1v-1.5h1.2
		v1.5c0.2,0,0.4,0,0.4-0.1s0.2-0.2,0.3-0.4c0-0.1,0.1-0.1,0.1-0.2c0-0.1,0.1-0.2,0.1-0.2c0.1-0.2,0.2-0.3,0.4-0.5
		c0.2-0.1,0.4-0.2,0.7-0.2c0.1,0,0.2,0,0.3,0c0.1,0,0.2,0,0.2,0v1h-0.3c-0.1,0-0.2,0-0.3,0.1c-0.1,0.1-0.2,0.2-0.2,0.3
		c0,0.1-0.1,0.2-0.1,0.3s-0.1,0.1-0.2,0.2L98.4,86.6z"/>
	<path class="st7" d="M102.8,86.6h-1.2V85h-1.4v1.6h-1.2v-3.7h1.2v1.3h1.4v-1.3h1.2V86.6z"/>
	<path class="st7" d="M107.8,84.8c0,0.6-0.2,1.1-0.5,1.4c-0.4,0.4-0.9,0.5-1.5,0.5s-1.1-0.2-1.5-0.5c-0.4-0.4-0.5-0.8-0.5-1.4
		c0-0.6,0.2-1.1,0.5-1.5s0.9-0.5,1.5-0.5c0.7,0,1.2,0.2,1.5,0.5C107.6,83.7,107.8,84.1,107.8,84.8z M106.3,85.7
		c0.1-0.1,0.1-0.2,0.2-0.3c0-0.1,0.1-0.3,0.1-0.6c0-0.2,0-0.4-0.1-0.6c0-0.1-0.1-0.3-0.2-0.4c-0.1-0.1-0.2-0.2-0.3-0.2
		c-0.1,0-0.2-0.1-0.3-0.1c-0.1,0-0.2,0-0.3,0c-0.1,0-0.2,0.1-0.3,0.2c-0.1,0.1-0.1,0.2-0.2,0.4c0,0.2-0.1,0.3-0.1,0.6
		c0,0.2,0,0.4,0.1,0.5s0.1,0.3,0.2,0.4c0.1,0.1,0.2,0.1,0.3,0.2c0.1,0,0.2,0.1,0.3,0.1c0.1,0,0.2,0,0.3-0.1S106.3,85.7,106.3,85.7z"
		/>
	<path class="st7" d="M110.6,86.7c-0.3,0-0.6,0-0.9-0.1s-0.5-0.2-0.7-0.4c-0.2-0.2-0.4-0.4-0.5-0.6c-0.1-0.2-0.2-0.5-0.2-0.9
		c0-0.3,0.1-0.6,0.2-0.9c0.1-0.3,0.3-0.5,0.5-0.6c0.2-0.2,0.4-0.3,0.7-0.3c0.3-0.1,0.5-0.1,0.8-0.1c0.3,0,0.5,0,0.7,0.1
		c0.2,0.1,0.4,0.1,0.6,0.2v1h-0.2c0,0-0.1-0.1-0.2-0.1s-0.1-0.1-0.2-0.2c-0.1,0-0.2-0.1-0.3-0.1s-0.2,0-0.4,0
		c-0.3,0-0.6,0.1-0.7,0.3c-0.2,0.2-0.3,0.5-0.3,0.8c0,0.4,0.1,0.6,0.3,0.8c0.2,0.2,0.4,0.3,0.7,0.3c0.2,0,0.3,0,0.4-0.1
		s0.2-0.1,0.3-0.1c0.1,0,0.1-0.1,0.2-0.1c0.1,0,0.1-0.1,0.2-0.1h0.2v1c-0.2,0.1-0.4,0.2-0.6,0.2C111.1,86.7,110.8,86.7,110.6,86.7z"
		/>
	<path class="st7" d="M115.8,83.7h-1.2v2.9h-1.2v-2.9h-1.2v-0.8h3.6V83.7z"/>
	<path class="st7" d="M120.1,86.6H119v-2.3l-1.6,2.3h-1v-3.7h1.2v2l1.5-2h1.1V86.6z"/>
	<path class="st7" d="M122.7,84.2h-1.2v-1.3h1.2V84.2z M122.7,86.6h-1.2v-1.3h1.2V86.6z"/>
	<path class="st7" d="M70.6,94.9c-0.3,0-0.6,0-0.9-0.1s-0.5-0.2-0.7-0.4c-0.2-0.2-0.4-0.4-0.5-0.6c-0.1-0.2-0.2-0.5-0.2-0.9
		c0-0.3,0.1-0.6,0.2-0.9c0.1-0.3,0.3-0.5,0.5-0.6c0.2-0.2,0.4-0.3,0.7-0.3c0.3-0.1,0.5-0.1,0.8-0.1c0.3,0,0.5,0,0.7,0.1
		c0.2,0.1,0.4,0.1,0.6,0.2v1h-0.2c0,0-0.1-0.1-0.2-0.1S71.4,92,71.3,92c-0.1,0-0.2-0.1-0.3-0.1s-0.2,0-0.4,0c-0.3,0-0.6,0.1-0.7,0.3
		c-0.2,0.2-0.3,0.5-0.3,0.8c0,0.4,0.1,0.6,0.3,0.8c0.2,0.2,0.4,0.3,0.7,0.3c0.2,0,0.3,0,0.4-0.1s0.2-0.1,0.3-0.1
		c0.1,0,0.1-0.1,0.2-0.1c0.1,0,0.1-0.1,0.2-0.1h0.2v1c-0.2,0.1-0.4,0.2-0.6,0.2C71.1,94.8,70.8,94.9,70.6,94.9z"/>
	<path class="st7" d="M76.5,92.9c0,0.6-0.2,1.1-0.5,1.4c-0.4,0.4-0.9,0.5-1.5,0.5s-1.1-0.2-1.5-0.5c-0.4-0.4-0.5-0.8-0.5-1.4
		c0-0.6,0.2-1.1,0.5-1.5s0.9-0.5,1.5-0.5c0.7,0,1.2,0.2,1.5,0.5C76.4,91.8,76.5,92.3,76.5,92.9z M75.1,93.8c0.1-0.1,0.1-0.2,0.2-0.3
		c0-0.1,0.1-0.3,0.1-0.6c0-0.2,0-0.4-0.1-0.6c0-0.1-0.1-0.3-0.2-0.4c-0.1-0.1-0.2-0.2-0.3-0.2c-0.1,0-0.2-0.1-0.3-0.1
		c-0.1,0-0.2,0-0.3,0c-0.1,0-0.2,0.1-0.3,0.2c-0.1,0.1-0.1,0.2-0.2,0.4c0,0.2-0.1,0.3-0.1,0.6c0,0.2,0,0.4,0.1,0.5s0.1,0.3,0.2,0.4
		c0.1,0.1,0.2,0.1,0.3,0.2c0.1,0,0.2,0.1,0.3,0.1c0.1,0,0.2,0,0.3-0.1S75,93.9,75.1,93.8z"/>
	<path class="st7" d="M80.5,93.7c0,0.2-0.1,0.4-0.2,0.5c-0.1,0.2-0.2,0.3-0.4,0.4c-0.2,0.1-0.4,0.2-0.6,0.2c-0.2,0-0.5,0.1-0.7,0.1
		c-0.3,0-0.6,0-0.9-0.1c-0.3-0.1-0.5-0.1-0.7-0.2v-0.9h0.1c0.2,0.1,0.4,0.2,0.6,0.3s0.4,0.1,0.7,0.1c0.1,0,0.2,0,0.3,0
		c0.1,0,0.2,0,0.3-0.1c0.1,0,0.2-0.1,0.2-0.1c0,0,0.1-0.1,0.1-0.2c0-0.1,0-0.2-0.1-0.2c0-0.1-0.1-0.1-0.2-0.1c-0.1,0-0.1,0-0.2,0
		c-0.1,0-0.2,0-0.4,0h-0.6v-0.8h0.5c0.1,0,0.2,0,0.3,0c0.1,0,0.2,0,0.3,0c0.1,0,0.2-0.1,0.2-0.1c0-0.1,0.1-0.1,0.1-0.2
		c0-0.1,0-0.1-0.1-0.2c0,0-0.1-0.1-0.2-0.1c-0.1,0-0.1,0-0.2,0s-0.2,0-0.3,0c-0.2,0-0.3,0-0.6,0.1s-0.4,0.1-0.6,0.2h-0.1v-0.9
		c0.1,0,0.3-0.1,0.6-0.1s0.5-0.1,0.8-0.1c0.2,0,0.5,0,0.7,0.1c0.2,0,0.4,0.1,0.5,0.2c0.2,0.1,0.3,0.2,0.4,0.3
		c0.1,0.1,0.2,0.3,0.2,0.5c0,0.2-0.1,0.4-0.2,0.5c-0.1,0.2-0.3,0.3-0.5,0.3v0c0.2,0.1,0.4,0.2,0.5,0.3
		C80.5,93.3,80.5,93.5,80.5,93.7z"/>
	<path class="st7" d="M85.3,95.7h-1.1v-0.9H82v0.9H81v-1.8h0.3c0.2-0.3,0.3-0.8,0.4-1.3s0.2-1,0.2-1.6h3.1v2.9h0.4V95.7z M83.7,93.9
		v-2.1h-0.8c0,0.4-0.1,0.8-0.2,1.1c-0.1,0.4-0.2,0.7-0.3,0.9H83.7z"/>
	<path class="st7" d="M88.4,94.4c-0.1,0-0.1,0.1-0.2,0.2c-0.1,0.1-0.2,0.1-0.3,0.2c-0.1,0.1-0.2,0.1-0.4,0.1c-0.1,0-0.3,0-0.4,0
		c-0.4,0-0.7-0.1-0.9-0.3c-0.2-0.2-0.4-0.5-0.4-0.8c0-0.3,0.1-0.5,0.2-0.7c0.1-0.2,0.3-0.3,0.5-0.4c0.2-0.1,0.5-0.2,0.8-0.2
		s0.7-0.1,1-0.1v0c0-0.2-0.1-0.3-0.3-0.4s-0.4-0.1-0.7-0.1c-0.2,0-0.4,0-0.6,0.1c-0.2,0.1-0.4,0.1-0.5,0.2h-0.1v-0.9
		c0.1,0,0.3-0.1,0.6-0.1c0.3,0,0.6-0.1,0.9-0.1c0.7,0,1.2,0.1,1.5,0.3c0.3,0.2,0.5,0.5,0.5,1v2.5h-1.2V94.4z M88.4,93.8V93
		c-0.2,0-0.3,0-0.5,0.1c-0.2,0-0.3,0.1-0.4,0.1c-0.1,0-0.2,0.1-0.3,0.2S87,93.5,87,93.6c0,0.1,0,0.1,0,0.2c0,0,0,0.1,0.1,0.1
		c0.1,0,0.1,0.1,0.2,0.1c0.1,0,0.2,0,0.3,0c0.1,0,0.2,0,0.4-0.1C88.2,93.9,88.3,93.9,88.4,93.8z"/>
	<path class="st7" d="M94.4,94.8h-1.2v-1.6h-1.4v1.6h-1.2V91h1.2v1.3h1.4V91h1.2V94.8z"/>
	<path class="st7" d="M99.3,94.8h-1.2v-2.3l-1.6,2.3h-1V91h1.2v2l1.5-2h1.1V94.8z"/>
	<path class="st7" d="M104.1,93.1h-2.7c0,0.3,0.1,0.5,0.3,0.7c0.2,0.2,0.5,0.2,0.9,0.2c0.3,0,0.5,0,0.7-0.1s0.4-0.2,0.6-0.3h0.1v1
		c-0.3,0.1-0.5,0.2-0.8,0.2c-0.2,0-0.5,0.1-0.8,0.1c-0.7,0-1.3-0.2-1.7-0.5c-0.4-0.3-0.6-0.8-0.6-1.4c0-0.6,0.2-1.1,0.6-1.5
		c0.4-0.4,0.9-0.5,1.6-0.5c0.6,0,1.1,0.2,1.4,0.5c0.3,0.3,0.5,0.7,0.5,1.3V93.1z M103,92.4c0-0.3-0.1-0.4-0.2-0.6
		c-0.1-0.1-0.3-0.2-0.5-0.2c-0.2,0-0.4,0.1-0.6,0.2s-0.2,0.3-0.2,0.6H103z"/>
	<path class="st7" d="M111.1,94.8h-1.2v-2.3l-1.6,2.3h-1V91h1.2v2l1.5-2h1.1V94.8z"/>
	<path class="st7" d="M116.2,93.5l0.9-2.4h1.2l-2.1,5.1h-1.3l0.6-1.4l-1.5-3.7h1.3L116.2,93.5z"/>
	<path class="st7" d="M122.8,94.8h-1.2v-2.9h-1.4v2.9H119V91h3.8V94.8z"/>
	<path class="st7" d="M127.8,92.9c0,0.3,0,0.6-0.1,0.8s-0.2,0.5-0.4,0.6c-0.2,0.2-0.3,0.3-0.5,0.4c-0.2,0.1-0.4,0.1-0.6,0.1
		c-0.2,0-0.4,0-0.5-0.1s-0.3-0.1-0.5-0.2v1.6h-1.2V91h1.2v0.4c0.2-0.1,0.4-0.3,0.6-0.4s0.4-0.1,0.7-0.1c0.5,0,0.8,0.2,1.1,0.5
		C127.7,91.8,127.8,92.3,127.8,92.9z M126.6,92.9c0-0.4-0.1-0.6-0.2-0.8c-0.1-0.2-0.3-0.2-0.6-0.2c-0.1,0-0.2,0-0.3,0.1
		c-0.1,0-0.2,0.1-0.3,0.1v1.9c0.1,0,0.2,0.1,0.3,0.1s0.2,0,0.3,0c0.3,0,0.6-0.1,0.7-0.3S126.6,93.3,126.6,92.9z"/>
	<path class="st7" d="M130.9,94.4c-0.1,0-0.1,0.1-0.2,0.2c-0.1,0.1-0.2,0.1-0.3,0.2c-0.1,0.1-0.2,0.1-0.4,0.1c-0.1,0-0.3,0-0.4,0
		c-0.4,0-0.7-0.1-0.9-0.3c-0.2-0.2-0.4-0.5-0.4-0.8c0-0.3,0.1-0.5,0.2-0.7c0.1-0.2,0.3-0.3,0.5-0.4c0.2-0.1,0.5-0.2,0.8-0.2
		s0.7-0.1,1-0.1v0c0-0.2-0.1-0.3-0.3-0.4s-0.4-0.1-0.7-0.1c-0.2,0-0.4,0-0.6,0.1c-0.2,0.1-0.4,0.1-0.5,0.2h-0.1v-0.9
		c0.1,0,0.3-0.1,0.6-0.1c0.3,0,0.6-0.1,0.9-0.1c0.7,0,1.2,0.1,1.5,0.3c0.3,0.2,0.5,0.5,0.5,1v2.5h-1.2V94.4z M130.9,93.8V93
		c-0.2,0-0.3,0-0.5,0.1c-0.2,0-0.3,0.1-0.4,0.1c-0.1,0-0.2,0.1-0.3,0.2s-0.1,0.2-0.1,0.3c0,0.1,0,0.1,0,0.2c0,0,0,0.1,0.1,0.1
		c0.1,0,0.1,0.1,0.2,0.1c0.1,0,0.2,0,0.3,0c0.1,0,0.2,0,0.4-0.1C130.7,93.9,130.8,93.9,130.9,93.8z"/>
	<path class="st7" d="M136.9,93.6c0,0.2,0,0.3-0.1,0.5c-0.1,0.1-0.2,0.3-0.3,0.3c-0.2,0.1-0.3,0.2-0.5,0.2c-0.2,0-0.4,0.1-0.6,0.1
		h-2.3V91h2.2c0.3,0,0.5,0,0.6,0c0.1,0,0.3,0.1,0.4,0.1c0.1,0.1,0.2,0.2,0.3,0.3c0.1,0.1,0.1,0.3,0.1,0.4c0,0.2-0.1,0.3-0.2,0.5
		c-0.1,0.1-0.2,0.2-0.4,0.3v0c0.2,0.1,0.4,0.2,0.5,0.3S136.9,93.4,136.9,93.6z M135.5,92.2c0-0.1,0-0.2-0.1-0.3
		c-0.1-0.1-0.2-0.1-0.4-0.1h-0.6v0.7h0.7c0.2,0,0.3,0,0.4-0.1C135.5,92.4,135.5,92.3,135.5,92.2z M135.7,93.6c0-0.2,0-0.3-0.1-0.3
		c-0.1-0.1-0.2-0.1-0.4-0.1h-0.8V94h0.8c0.2,0,0.3,0,0.4-0.1C135.7,93.8,135.7,93.7,135.7,93.6z"/>
	<path class="st7" d="M141.5,94.8h-1.2v-2.9h-1c0,0.2,0,0.3,0,0.4c0,0.1,0,0.2,0,0.3c0,0.4,0,0.6-0.1,0.9c0,0.2-0.1,0.4-0.2,0.5
		c-0.1,0.1-0.1,0.3-0.2,0.3s-0.2,0.2-0.2,0.2c-0.1,0.1-0.2,0.1-0.3,0.2s-0.3,0.1-0.4,0.1c-0.1,0-0.2,0-0.3,0s-0.2,0-0.2,0v-1h0
		c0,0,0,0,0,0c0,0,0,0,0.1,0c0.1,0,0.1,0,0.2,0c0.1,0,0.1,0,0.2-0.1c0.1-0.1,0.2-0.3,0.3-0.5c0-0.2,0.1-0.5,0.1-0.9
		c0-0.2,0-0.3,0-0.5c0-0.2,0-0.4,0-0.7h3.2V94.8z"/>
	<path class="st7" d="M146.3,93.1h-2.7c0,0.3,0.1,0.5,0.3,0.7c0.2,0.2,0.5,0.2,0.9,0.2c0.3,0,0.5,0,0.7-0.1s0.4-0.2,0.6-0.3h0.1v1
		c-0.3,0.1-0.5,0.2-0.8,0.2c-0.2,0-0.5,0.1-0.8,0.1c-0.7,0-1.3-0.2-1.7-0.5c-0.4-0.3-0.6-0.8-0.6-1.4c0-0.6,0.2-1.1,0.6-1.5
		c0.4-0.4,0.9-0.5,1.6-0.5c0.6,0,1.1,0.2,1.4,0.5c0.3,0.3,0.5,0.7,0.5,1.3V93.1z M145.1,92.4c0-0.3-0.1-0.4-0.2-0.6
		c-0.1-0.1-0.3-0.2-0.5-0.2c-0.2,0-0.4,0.1-0.6,0.2s-0.2,0.3-0.2,0.6H145.1z"/>
	<path class="st7" d="M150.9,94.8h-1.2v-1.6h-1.4v1.6h-1.2V91h1.2v1.3h1.4V91h1.2V94.8z"/>
	<path class="st7" d="M155.8,94.8h-1.2v-2.3l-1.6,2.3h-1V91h1.2v2l1.5-2h1.1V94.8z"/>
	<path class="st7" d="M160.7,93.1h-2.7c0,0.3,0.1,0.5,0.3,0.7c0.2,0.2,0.5,0.2,0.9,0.2c0.3,0,0.5,0,0.7-0.1s0.4-0.2,0.6-0.3h0.1v1
		c-0.3,0.1-0.5,0.2-0.8,0.2c-0.2,0-0.5,0.1-0.8,0.1c-0.7,0-1.3-0.2-1.7-0.5c-0.4-0.3-0.6-0.8-0.6-1.4c0-0.6,0.2-1.1,0.6-1.5
		c0.4-0.4,0.9-0.5,1.6-0.5c0.6,0,1.1,0.2,1.4,0.5c0.3,0.3,0.5,0.7,0.5,1.3V93.1z M159.5,92.4c0-0.3-0.1-0.4-0.2-0.6
		c-0.1-0.1-0.3-0.2-0.5-0.2c-0.2,0-0.4,0.1-0.6,0.2s-0.2,0.3-0.2,0.6H159.5z"/>
	<path class="st7" d="M71.7,100h-1.8v2.9h-1.2v-3.7h3V100z"/>
	<path class="st7" d="M76.2,101c0,0.3,0,0.6-0.1,0.8s-0.2,0.5-0.4,0.6c-0.2,0.2-0.3,0.3-0.5,0.4c-0.2,0.1-0.4,0.1-0.6,0.1
		c-0.2,0-0.4,0-0.5-0.1s-0.3-0.1-0.5-0.2v1.6h-1.2v-5.1h1.2v0.4c0.2-0.1,0.4-0.3,0.6-0.4s0.4-0.1,0.7-0.1c0.5,0,0.8,0.2,1.1,0.5
		C76,100,76.2,100.4,76.2,101z M74.9,101c0-0.4-0.1-0.6-0.2-0.8c-0.1-0.2-0.3-0.2-0.6-0.2c-0.1,0-0.2,0-0.3,0.1
		c-0.1,0-0.2,0.1-0.3,0.1v1.9c0.1,0,0.2,0.1,0.3,0.1s0.2,0,0.3,0c0.3,0,0.6-0.1,0.7-0.3S74.9,101.4,74.9,101z"/>
	<path class="st7" d="M78.7,101.6l0.9-2.4h1.2l-2.1,5.1h-1.3l0.6-1.4l-1.5-3.7h1.3L78.7,101.6z"/>
	<path class="st7" d="M85.2,102.9H84V100h-1.4v2.9h-1.2v-3.7h3.8V102.9z"/>
	<path class="st7" d="M90.1,102.9h-1.2V100h-1.4v2.9h-1.2v-3.7h3.8V102.9z"/>
	<path class="st7" d="M93.5,102.5c-0.1,0-0.1,0.1-0.2,0.2c-0.1,0.1-0.2,0.1-0.3,0.2c-0.1,0.1-0.2,0.1-0.4,0.1c-0.1,0-0.3,0-0.4,0
		c-0.4,0-0.7-0.1-0.9-0.3c-0.2-0.2-0.4-0.5-0.4-0.8c0-0.3,0.1-0.5,0.2-0.7c0.1-0.2,0.3-0.3,0.5-0.4c0.2-0.1,0.5-0.2,0.8-0.2
		s0.7-0.1,1-0.1v0c0-0.2-0.1-0.3-0.3-0.4s-0.4-0.1-0.7-0.1c-0.2,0-0.4,0-0.6,0.1c-0.2,0.1-0.4,0.1-0.5,0.2h-0.1v-0.9
		c0.1,0,0.3-0.1,0.6-0.1c0.3,0,0.6-0.1,0.9-0.1c0.7,0,1.2,0.1,1.5,0.3c0.3,0.2,0.5,0.5,0.5,1v2.5h-1.2V102.5z M93.5,102v-0.8
		c-0.2,0-0.3,0-0.5,0.1c-0.2,0-0.3,0.1-0.4,0.1c-0.1,0-0.2,0.1-0.3,0.2s-0.1,0.2-0.1,0.3c0,0.1,0,0.1,0,0.2c0,0,0,0.1,0.1,0.1
		c0.1,0,0.1,0.1,0.2,0.1c0.1,0,0.2,0,0.3,0c0.1,0,0.2,0,0.4-0.1C93.3,102.1,93.4,102,93.5,102z"/>
	<path class="st7" d="M100.3,102.9h-1.2v-2.3l-0.8,1.5h-0.5l-0.8-1.5v2.3h-1.1v-3.7h1.3l1,1.7l1-1.7h1.3V102.9z"/>
	<path class="st7" d="M105.2,102.9h-1.2v-2.3l-1.6,2.3h-1v-3.7h1.2v2l1.5-2h1.1V102.9z"/>
</g>
</svg>
