<?xml version="1.0" encoding="utf-8"?>
<!-- Generator: Adobe Illustrator 17.0.0, SVG Export Plug-In . SVG Version: 6.00 Build 0)  -->
<!DOCTYPE svg PUBLIC "-//W3C//DTD SVG 1.1//EN" "http://www.w3.org/Graphics/SVG/1.1/DTD/svg11.dtd">
<svg version="1.1" id="Слой_1" xmlns="http://www.w3.org/2000/svg" xmlns:xlink="http://www.w3.org/1999/xlink" x="0px" y="0px"
	 width="960px" height="560px" viewBox="0 0 960 560" enable-background="new 0 0 960 560" xml:space="preserve">
<g opacity="0.8">
	<path opacity="0.85" fill="#3FBCFF" d="M543.125,445.811H14.477c-6.6,0-12-5.4-12-12V15.667c0-6.6,5.4-12,12-12h528.648
		c6.6,0,12,5.4,12,12v418.144C555.125,440.411,549.726,445.811,543.125,445.811z"/>
</g>
<path opacity="0.95" fill="#29ABE2" d="M20.425,446.804c0,1.429-0.595,2.661-1.467,3.228h-6.071c-7.017,0-12.759-5.89-12.759-13.089
	V13.187c0-7.199,5.741-13.089,12.759-13.089h4.88c0.989,0.349,1.722,1.756,1.722,3.447c0,1.538-0.617,2.847-1.478,3.338
	c-0.362,0.033-0.723,0.087-1.074,0.164C11.027,8.18,6.518,13.525,6.518,19.906v410.548c0,6.501,4.678,11.932,10.749,12.925
	c0.532,0.087,1.074,0.142,1.627,0.153C19.798,444.066,20.425,445.331,20.425,446.804z"/>
<g opacity="0.78">
	
		<rect x="95.398" y="63.119" transform="matrix(-1 -0.0011 0.0011 -1 573.4811 483.4275)" fill-rule="evenodd" clip-rule="evenodd" fill="#CCCCCC" width="382.963" height="356.861"/>
	
		<rect x="95.398" y="63.119" transform="matrix(1 0.0011 -0.0011 1 0.2775 -0.3292)" fill-rule="evenodd" clip-rule="evenodd" fill="#C8F5FF" width="382.963" height="356.861"/>
	<polygon fill-rule="evenodd" clip-rule="evenodd" fill="#6ED9FF" points="422.597,63.274 351.416,229.153 363.754,234.012 
		437.015,63.291 	"/>
	<path fill="#6ED9FF" d="M375.901,221.076c3.796,18.389,11.314,51.517,35.044,86.942c14.929,22.287,36.309,45.553,67.263,66.784
		l-0.019,16.407c-37.197-23.8-62.268-50.53-79.376-76.07c-25.126-37.509-33.021-72.272-37.003-91.56L375.901,221.076z"/>
	<polygon fill-rule="evenodd" clip-rule="evenodd" fill="#6ED9FF" points="478.495,125.104 95.202,412.419 95.193,419.76 
		106.783,419.773 478.476,141.153 	"/>
	
		<rect x="179.586" y="234.939" transform="matrix(-0.0011 1 -1 -0.0011 600.0572 -116.1078)" fill-rule="evenodd" clip-rule="evenodd" fill="#6ED9FF" width="356.861" height="13.383"/>
	
		<rect x="95.419" y="217.081" transform="matrix(1 0.0011 -0.0011 1 0.2565 -0.3291)" fill-rule="evenodd" clip-rule="evenodd" fill="#6ED9FF" width="382.963" height="12.508"/>
	
		<ellipse transform="matrix(0.0011 -1 1 0.0011 134.2092 581.1968)" fill-rule="evenodd" clip-rule="evenodd" fill="#6ED9FF" cx="358.037" cy="223.417" rx="36.873" ry="39.453"/>
	
		<ellipse transform="matrix(0.0011 -1 1 0.0011 134.2093 581.1967)" fill-rule="evenodd" clip-rule="evenodd" fill="#6BFFED" cx="358.037" cy="223.417" rx="24.848" ry="26.587"/>
	<polygon fill-rule="evenodd" clip-rule="evenodd" fill="#6ED9FF" points="275.675,293.172 283.208,282.829 128.75,219.055 
		121.217,229.399 	"/>
	<polygon fill-rule="evenodd" clip-rule="evenodd" fill="#6ED9FF" points="137.638,398.762 145.172,388.419 95.263,358.801 
		95.246,373.605 	"/>
	<polygon fill-rule="evenodd" clip-rule="evenodd" fill="#6ED9FF" points="358.044,165.321 358.443,152.814 95.556,103.537 
		95.542,116.117 	"/>
	<polygon fill-rule="evenodd" clip-rule="evenodd" fill="#6ED9FF" points="95.439,205.275 169.827,128.213 164.79,116.619 
		95.459,188.442 	"/>
	<polygon fill-rule="evenodd" clip-rule="evenodd" fill="#6ED9FF" points="119.348,176.487 128.925,165.42 95.493,158.914 
		95.478,171.841 	"/>
	<polygon fill-rule="evenodd" clip-rule="evenodd" fill="#FFFFFF" points="95.6,65.61 97.748,62.901 95.603,62.899 	"/>
	<polygon fill-rule="evenodd" clip-rule="evenodd" fill="#FFFFFF" points="95.447,198.7 98.29,195.414 95.451,194.821 	"/>
	<polygon fill-rule="evenodd" clip-rule="evenodd" fill="#6ED9FF" points="205.651,129.814 216.816,135.696 286.875,63.119 
		270.052,63.099 	"/>
	<polygon fill-rule="evenodd" clip-rule="evenodd" fill="#6ED9FF" points="199.089,220.921 210.699,227.155 219.12,132.964 
		207.51,126.73 	"/>
	<polygon fill-rule="evenodd" clip-rule="evenodd" fill="#6ED9FF" points="217.271,174.562 216.143,160.623 121.325,160.514 
		107.153,174.437 	"/>
	<polygon fill-rule="evenodd" clip-rule="evenodd" fill="#6ED9FF" points="360.92,178.482 362.592,164.334 208.704,160.422 
		207.033,174.572 	"/>
	<polygon fill-rule="evenodd" clip-rule="evenodd" fill="#FFFFFF" points="241.451,225.851 256.173,223.379 255.726,170.974 
		240.97,174.95 	"/>
	<polygon fill-rule="evenodd" clip-rule="evenodd" fill="#FFFFFF" points="288.884,224.475 303.605,222.003 303.158,169.598 
		288.402,173.573 	"/>
	<polygon fill-rule="evenodd" clip-rule="evenodd" fill="#6ED9FF" points="243.365,102.269 252.943,91.203 95.599,66.273 
		95.585,78.855 	"/>
	<polygon fill-rule="evenodd" clip-rule="evenodd" fill="#6ED9FF" points="186.554,84.365 200.622,89.114 216.463,63.038 
		199.496,63.018 	"/>
	<polygon fill-rule="evenodd" clip-rule="evenodd" fill="#6ED9FF" points="360.933,351.354 360.375,338.852 225.277,320.676 
		225.835,333.179 	"/>
	<polygon fill-rule="evenodd" clip-rule="evenodd" fill="#6ED9FF" points="362.409,397.116 361.852,384.613 171.68,360.654 
		172.239,373.157 	"/>
	<polygon fill-rule="evenodd" clip-rule="evenodd" fill="#6ED9FF" points="207.424,373.47 224.329,378.127 277.208,333.699 
		260.303,329.042 	"/>
	<polygon fill-rule="evenodd" clip-rule="evenodd" fill="#6ED9FF" points="404.884,317.454 418.7,323.415 478.375,229.341 
		478.378,226.556 465.948,221.193 	"/>
	<polygon fill-rule="evenodd" clip-rule="evenodd" fill="#6ED9FF" points="422.913,420.136 414.684,313.964 399.931,315.271 
		408.17,420.119 	"/>
	<polygon fill-rule="evenodd" clip-rule="evenodd" fill="#6ED9FF" points="415.961,397.177 415.403,384.674 358.313,386.608 
		358.871,399.111 	"/>
	<polygon fill-rule="evenodd" clip-rule="evenodd" fill="#6ED9FF" points="411.452,326.177 410.9,308.784 355.314,333.726 
		355.866,351.12 	"/>
	<polygon fill-rule="evenodd" clip-rule="evenodd" fill="#FFFFFF" points="213.235,419.895 226.638,376.945 213.358,371.506 
		198.262,419.878 	"/>
	<polygon fill-rule="evenodd" clip-rule="evenodd" fill="#6ED9FF" points="360.389,294.087 363.912,280.312 269.601,280.177 
		267.667,294 	"/>
	<polygon fill-rule="evenodd" clip-rule="evenodd" fill="#6ED9FF" points="413.239,99.883 413.994,113.844 478.502,118.545 
		478.517,105.81 	"/>
	<polygon fill-rule="evenodd" clip-rule="evenodd" fill="#6ED9FF" points="443.354,106.333 460.258,110.99 478.551,76.093 
		478.565,63.339 465.899,63.324 	"/>
	<polygon fill-rule="evenodd" clip-rule="evenodd" fill="#6ED9FF" points="388.701,149.905 389.456,163.865 445.14,161.538 
		456.56,150.229 	"/>
	<polygon fill-rule="evenodd" clip-rule="evenodd" fill="#6BFFED" points="225.72,330.618 251.301,336.604 216.027,366.241 
		183.64,362.161 	"/>
	<polygon fill-rule="evenodd" clip-rule="evenodd" fill="#6BFFED" points="125.187,174.457 95.439,205.275 95.426,216.861 
		199.441,216.98 203.299,173.826 	"/>
	<polygon fill-rule="evenodd" clip-rule="evenodd" fill="#D4CBBA" points="255.767,175.81 256.118,217.045 288.813,217.083 
		288.43,176.64 	"/>
	<polygon fill-rule="evenodd" clip-rule="evenodd" fill="#2D707D" points="437.015,63.291 421.009,100.589 445.213,102.786 
		465.899,63.324 	"/>
	<polygon fill-rule="evenodd" clip-rule="evenodd" fill="#2D707D" points="154.59,127.185 137.432,144.96 95.518,136.803 
		95.52,135.26 108.74,118.592 	"/>
	<polygon fill-rule="evenodd" clip-rule="evenodd" fill="#6ED9FF" points="478.32,277.466 446.55,260.086 440.048,271.024 
		478.303,291.951 	"/>
	<polygon fill-rule="evenodd" clip-rule="evenodd" fill="#6ED9FF" points="449.607,366.483 460.789,373.367 478.245,342.561 
		478.275,315.889 	"/>
	<polygon fill-rule="evenodd" clip-rule="evenodd" fill="#FFFFFF" points="478.26,329.45 475.112,333.948 478.252,335.96 	"/>
	<path fill-rule="evenodd" clip-rule="evenodd" fill="#6BFFED" d="M478.245,342.56l-12.952,22.858c0,0,5.22,4.056,9.737,7.18
		c1.026,0.71,2.112,1.451,3.177,2.175L478.245,342.56z"/>
	<polygon fill-rule="evenodd" clip-rule="evenodd" fill="#2D707D" points="224.523,127.711 254.688,96.462 309.174,106.261 
		288.701,139.741 	"/>
	<polygon fill-rule="evenodd" clip-rule="evenodd" fill="#2D707D" points="351.234,164.045 216.647,160.623 218.564,139.177 	"/>
	<path fill-rule="evenodd" clip-rule="evenodd" fill="#A2C7CF" d="M335.287,300.335c-27.663-0.032-56.252,7.931-63.855,17.785
		c-6.559,8.501,4.645,15.633,25.607,17.451c2.677,0.232,1.906,0.985,1.421,2.048l-11.72,25.637l27.431-25.253
		c1.115-1.026,1.899-2.181,4.78-2.392c23.801-1.742,46.082-8.851,52.658-17.375C379.212,308.38,362.951,300.366,335.287,300.335z"/>
	<path fill-rule="evenodd" clip-rule="evenodd" fill="#A8E8FF" d="M364.613,323.924l0.022-19.23
		c-3.544-1.431-8.061-2.564-13.379-3.316l-0.032,28.253C356.429,327.961,360.992,326.032,364.613,323.924z"/>
	<path fill-rule="evenodd" clip-rule="evenodd" fill="#A8E8FF" d="M328.696,334.589l-57.618-7.752
		c3.486,4.355,12.799,7.591,25.961,8.733c2.677,0.232,1.906,0.985,1.421,2.048l-2.296,5.022l11.315,1.522l6.692-6.161
		c1.115-1.026,1.899-2.181,4.78-2.392C322.241,335.369,325.501,335.025,328.696,334.589z"/>
	<path fill-rule="evenodd" clip-rule="evenodd" fill="#B9C9FF" d="M286.996,140.36c-37.462-0.043-67.863,28.221-67.903,63.13
		c-0.035,30.116,22.54,55.337,52.793,61.721c3.864,0.816,3.604,3.482,4.052,7.247l10.803,90.798l10.854-89.479
		c0.441-3.636,0.301-7.727,3.98-8.481c30.39-6.23,53.145-31.453,53.18-61.65C354.794,168.737,324.458,140.403,286.996,140.36z"/>
	<path fill-rule="evenodd" clip-rule="evenodd" fill="#FFFFFF" d="M286.859,259.12c32.835,0.038,59.644-24.887,59.679-55.484
		c0.035-30.597-26.717-55.583-59.552-55.621c-32.835-0.038-59.644,24.887-59.679,55.484
		C227.272,234.096,254.024,259.082,286.859,259.12z"/>
	<polygon fill-rule="evenodd" clip-rule="evenodd" fill="#6ED9FF" points="95.28,344.241 95.263,358.982 233.923,271.727 
		228.886,260.167 	"/>
	<g>
		<path fill-rule="evenodd" clip-rule="evenodd" fill="#6ED9FF" d="M211.507,350.14c7.269,12.992,15.367,25.622,21.717,38.928
			c4.854,10.171,9.178,20.477,12.976,30.865l-76.58-0.088c0.974-3.027,1.832-6.042,2.569-9.004
			c3.417-13.73,5.876-33.55-0.293-48.662c-19.492-29.652-44.163-56.044-73.405-78.204l-3.086-48.454
			c43.57,27.539,80.182,62.433,108.412,102.995l1.864-0.403l5.737,11.838C211.447,350.014,211.477,350.077,211.507,350.14z"/>
		<path fill="#6ED9FF" d="M198.779,353.307c0.085,0.176,0.168,0.353,0.252,0.53c8.134,12.59,15.296,25.47,21.518,38.507
			c4.357,9.13,8.251,18.336,11.696,27.573l-16.595-0.019c-2.815-7.41-5.935-14.798-9.368-22.135
			c-0.467,7.389-1.613,14.832-3.304,22.121l-18.203-0.021c0.383-1.367,0.747-2.741,1.091-4.122
			c4.998-20.085,5.64-41.182-1.554-57.483c-21.537-33.071-50.231-63.971-86.818-89.953l-1.135-17.829
			c43.775,29.101,77.553,64.629,102.34,102.849L198.779,353.307z"/>
	</g>
	<g>
		<path fill="#393689" d="M239.978,204.821l3.481,0.004l3.582,13.296l3.086-13.289l3.25,0.004l-5.229,19.452
			c-0.57,2.107-1.151,3.71-1.741,4.81c-0.59,1.1-1.352,1.649-2.284,1.648c-0.919-0.001-1.637-0.101-2.156-0.299l0.004-3.843
			c0.442,0.047,0.841,0.071,1.199,0.071c0.722,0.001,1.24-0.217,1.552-0.653c0.312-0.436,0.613-1.376,0.903-2.82L239.978,204.821z"
			/>
		<path fill="#393689" d="M262.771,204.253l2.009,0.002c-0.065,1.479-0.299,2.599-0.703,3.362c-0.404,0.762-1.399,1.142-2.983,1.141
			c-0.189,0-0.379-0.006-0.568-0.018l-0.378,0c-0.94-0.001-1.704,0.17-2.294,0.513c-0.59,0.343-1.072,1.009-1.449,1.998
			c-0.376,0.99-0.573,2.585-0.589,4.785c0.436-1.362,1-2.38,1.692-3.055c0.691-0.674,1.514-1.011,2.468-1.01
			c1.465,0.002,2.705,0.949,3.72,2.843c1.014,1.894,1.52,4.086,1.518,6.578c-0.003,2.597-0.54,4.826-1.612,6.688
			c-1.071,1.862-2.47,2.792-4.195,2.79c-1.185-0.001-2.226-0.474-3.122-1.418c-0.897-0.944-1.537-2.235-1.92-3.871
			c-0.384-1.636-0.574-4.347-0.569-8.131c0.005-4.448,0.501-7.644,1.489-9.588c0.987-1.943,2.708-2.914,5.162-2.911l1.494,0.002
			C262.353,204.951,262.63,204.719,262.771,204.253z M256.798,221.312c-0.002,1.689,0.251,3.025,0.758,4.01
			c0.507,0.985,1.129,1.477,1.865,1.478c0.792,0.001,1.443-0.508,1.953-1.526c0.51-1.018,0.765-2.331,0.767-3.938
			c0.002-1.642-0.254-2.967-0.768-3.975c-0.514-1.008-1.15-1.512-1.907-1.513c-0.736-0.001-1.364,0.494-1.884,1.483
			C257.061,218.319,256.8,219.646,256.798,221.312z"/>
		<path fill="#393689" d="M274.139,224.563l2.944,0.824c-0.381,1.793-0.98,3.158-1.798,4.094c-0.818,0.936-1.841,1.404-3.068,1.402
			c-1.942-0.002-3.379-1.058-4.309-3.166c-0.734-1.689-1.1-3.821-1.097-6.394c0.004-3.074,0.49-5.481,1.46-7.221
			c0.97-1.74,2.194-2.609,3.674-2.607c1.662,0.002,2.972,0.915,3.93,2.738c0.958,1.824,1.415,4.616,1.368,8.377l-7.405-0.008
			c0.019,1.456,0.256,2.588,0.711,3.398c0.455,0.81,1.022,1.215,1.703,1.216c0.463,0.001,0.852-0.209,1.168-0.628
			C273.737,226.169,273.977,225.494,274.139,224.563z M274.313,219.602c-0.019-1.421-0.239-2.501-0.659-3.241
			c-0.42-0.74-0.931-1.11-1.535-1.111c-0.645-0.001-1.178,0.389-1.6,1.168c-0.421,0.78-0.63,1.839-0.624,3.178L274.313,219.602z"/>
		<path fill="#393689" d="M283.988,230.478l0.009-7.913c-0.386,0.046-0.654,0.189-0.805,0.427c-0.151,0.239-0.417,0.946-0.797,2.121
			l-1.416,5.361l-3.176-0.004l1.584-5.116c0.802-2.561,1.635-4.027,2.498-4.399c-0.645-0.408-1.138-1.463-1.48-3.163
			c-0.258-1.269-0.494-2.029-0.707-2.28c-0.214-0.251-0.713-0.376-1.498-0.377l0.004-3.249c0.582-0.057,0.989-0.086,1.22-0.086
			c0.652,0.001,1.209,0.24,1.672,0.718c0.462,0.478,0.896,1.667,1.3,3.565c0.314,1.479,0.565,2.414,0.754,2.804
			c0.189,0.391,0.473,0.597,0.851,0.621l0.009-7.581l2.935,0.003l-0.009,7.581c0.378,0,0.664-0.203,0.858-0.61
			c0.193-0.407,0.445-1.344,0.755-2.811c0.402-1.874,0.829-3.056,1.282-3.544c0.453-0.489,1.034-0.732,1.742-0.732
			c0.203,0,0.596,0.03,1.178,0.089l-0.004,3.249c-0.778-0.001-1.276,0.124-1.494,0.374c-0.218,0.25-0.457,1.01-0.718,2.279
			c-0.346,1.7-0.841,2.753-1.487,3.16c0.862,0.374,1.691,1.842,2.488,4.405l1.572,5.12l-3.176-0.004l-1.393-5.364
			c-0.251-0.955-0.484-1.607-0.697-1.957c-0.214-0.349-0.516-0.548-0.909-0.595l-0.009,7.913L283.988,230.478z"/>
		<path fill="#393689" d="M294.579,211.94l2.84,0.003l-0.013,11.651l4.557-11.645l2.903,0.003l-0.021,18.55l-2.84-0.003l0.014-11.86
			l-4.621,11.855l-2.84-0.003L294.579,211.94z"/>
		<path fill="#393689" d="M307.832,211.955l2.724,0.003l-0.017,14.585l3.397,0.004l0.017-14.585l2.724,0.003l-0.017,14.585
			l3.439,0.004l0.017-14.585l2.724,0.003l-0.017,14.585l1.21,0.001l-0.01,8.856l-2.388-0.003l0.006-4.891l-13.831-0.016
			L307.832,211.955z"/>
		<path fill="#393689" d="M332.524,224.63l2.944,0.824c-0.381,1.793-0.98,3.158-1.798,4.094c-0.818,0.936-1.84,1.404-3.068,1.402
			c-1.942-0.002-3.379-1.058-4.309-3.166c-0.734-1.689-1.1-3.821-1.097-6.394c0.004-3.074,0.49-5.481,1.46-7.221
			c0.97-1.74,2.194-2.609,3.674-2.607c1.662,0.002,2.972,0.915,3.931,2.738c0.959,1.824,1.415,4.616,1.368,8.377l-7.405-0.008
			c0.019,1.456,0.257,2.588,0.711,3.398c0.455,0.81,1.022,1.215,1.703,1.216c0.463,0.001,0.852-0.209,1.168-0.628
			C332.123,226.236,332.361,225.561,332.524,224.63z M332.698,219.67c-0.019-1.421-0.239-2.501-0.659-3.241
			c-0.42-0.74-0.931-1.11-1.534-1.111c-0.645-0.001-1.179,0.389-1.6,1.168c-0.422,0.78-0.63,1.839-0.624,3.178L332.698,219.67z"/>
	</g>
	<g>
		<path fill="#683B1C" d="M266.225,175.822l0.016-13.599l3.103,0.004l1.852,9.279l1.853-9.274l3.11,0.004l-0.016,13.599
			l-1.926-0.002l0.012-10.705l-2.051,10.703l-1.996-0.002l-2.019-10.708l-0.012,10.705L266.225,175.822z"/>
		<path fill="#683B1C" d="M282.5,172.705l1.961,0.438c-0.254,0.952-0.653,1.677-1.197,2.174c-0.545,0.497-1.226,0.745-2.043,0.744
			c-1.293-0.001-2.25-0.562-2.87-1.682c-0.489-0.897-0.733-2.029-0.732-3.396c0.002-1.633,0.325-2.911,0.971-3.835
			c0.645-0.924,1.461-1.385,2.446-1.384c1.107,0.001,1.98,0.486,2.618,1.455c0.638,0.969,0.943,2.452,0.912,4.449l-4.931-0.006
			c0.013,0.773,0.17,1.375,0.474,1.805c0.303,0.43,0.681,0.646,1.134,0.646c0.308,0,0.567-0.111,0.777-0.333
			S282.393,173.2,282.5,172.705z M282.615,170.071c-0.013-0.754-0.159-1.328-0.439-1.721c-0.279-0.393-0.62-0.59-1.021-0.59
			c-0.43-0.001-0.785,0.206-1.066,0.62c-0.281,0.414-0.419,0.977-0.415,1.688L282.615,170.071z"/>
		<path fill="#683B1C" d="M292.473,168.913l-1.941,0.462c-0.065-0.513-0.213-0.9-0.444-1.16c-0.231-0.26-0.531-0.39-0.9-0.391
			c-0.49-0.001-0.882,0.223-1.174,0.671c-0.293,0.448-0.439,1.198-0.441,2.249c-0.001,1.169,0.146,1.995,0.442,2.477
			c0.296,0.483,0.693,0.724,1.193,0.725c0.374,0,0.679-0.14,0.918-0.421c0.238-0.281,0.407-0.765,0.506-1.451l1.933,0.438
			c-0.202,1.175-0.589,2.062-1.159,2.661c-0.571,0.599-1.334,0.898-2.292,0.897c-1.088-0.001-1.955-0.457-2.6-1.367
			c-0.646-0.91-0.968-2.169-0.966-3.777c0.002-1.626,0.328-2.892,0.978-3.798c0.65-0.905,1.529-1.357,2.635-1.356
			c0.906,0.001,1.626,0.26,2.16,0.777C291.857,167.068,292.24,167.855,292.473,168.913z"/>
		<path fill="#683B1C" d="M293.085,166.001l6.731,0.008l-0.002,2.106l-2.381-0.003l-0.009,7.746l-1.968-0.002l0.009-7.746
			l-2.382-0.003L293.085,166.001z"/>
		<path fill="#683B1C" d="M300.344,170.796c0.001-0.866,0.163-1.703,0.486-2.513c0.323-0.81,0.781-1.428,1.372-1.854
			c0.591-0.426,1.251-0.639,1.98-0.638c1.125,0.001,2.047,0.486,2.765,1.455c0.718,0.969,1.076,2.192,1.074,3.67
			c-0.002,1.49-0.366,2.726-1.094,3.705c-0.727,0.979-1.642,1.468-2.744,1.467c-0.682-0.001-1.332-0.206-1.95-0.615
			c-0.618-0.409-1.088-1.008-1.409-1.797S300.342,171.928,300.344,170.796z M302.36,170.938c-0.001,0.977,0.173,1.726,0.523,2.246
			c0.35,0.52,0.781,0.78,1.295,0.781c0.513,0.001,0.945-0.259,1.293-0.778c0.348-0.519,0.523-1.273,0.524-2.263
			c0.001-0.965-0.172-1.707-0.519-2.227c-0.347-0.52-0.778-0.78-1.291-0.781c-0.514-0.001-0.946,0.259-1.297,0.778
			C302.538,169.212,302.362,169.96,302.36,170.938z"/>
		<path fill="#683B1C" d="M248.601,188.748l1.968,0.002l-0.004,3.609l2.816,0.003l0.004-3.609l1.975,0.002l-0.011,9.852
			l-1.975-0.002l0.005-4.137l-2.816-0.003l-0.005,4.137l-1.968-0.002L248.601,188.748z"/>
		<path fill="#683B1C" d="M258.81,191.766l-1.786-0.429c0.202-0.952,0.548-1.657,1.039-2.114c0.491-0.457,1.22-0.685,2.186-0.684
			c0.878,0.001,1.531,0.139,1.961,0.415c0.429,0.276,0.731,0.626,0.906,1.049c0.175,0.424,0.261,1.202,0.26,2.333l-0.025,3.043
			c-0.001,0.866,0.03,1.505,0.092,1.916c0.062,0.412,0.18,0.852,0.352,1.322l-1.947-0.002c-0.051-0.173-0.114-0.43-0.188-0.77
			c-0.033-0.154-0.056-0.256-0.07-0.306c-0.337,0.433-0.697,0.757-1.08,0.973c-0.383,0.216-0.792,0.324-1.226,0.323
			c-0.766-0.001-1.369-0.277-1.81-0.828c-0.441-0.551-0.661-1.247-0.66-2.088c0.001-0.557,0.102-1.053,0.303-1.489
			c0.201-0.436,0.483-0.769,0.845-1.001c0.362-0.232,0.884-0.434,1.566-0.606c0.92-0.228,1.558-0.44,1.913-0.638l0-0.26
			c0.001-0.501-0.092-0.858-0.279-1.072c-0.187-0.214-0.539-0.321-1.057-0.321c-0.35,0-0.624,0.091-0.82,0.273
			C259.091,190.988,258.932,191.308,258.81,191.766z M261.441,193.884c-0.252,0.111-0.652,0.244-1.198,0.397
			c-0.547,0.154-0.904,0.305-1.072,0.453c-0.257,0.241-0.386,0.547-0.386,0.918c0,0.365,0.102,0.68,0.307,0.947
			c0.205,0.266,0.466,0.399,0.784,0.4c0.355,0,0.694-0.154,1.016-0.463c0.238-0.235,0.395-0.522,0.47-0.862
			c0.052-0.223,0.078-0.646,0.079-1.271L261.441,193.884z"/>
		<path fill="#683B1C" d="M267.492,194.577l0.002-1.698c0.341,0,0.588-0.029,0.743-0.087c0.154-0.059,0.3-0.201,0.438-0.426
			c0.138-0.226,0.207-0.484,0.207-0.774c0-0.309-0.084-0.595-0.255-0.859c-0.17-0.263-0.426-0.395-0.767-0.395
			c-0.262,0-0.495,0.074-0.701,0.222c-0.206,0.148-0.393,0.5-0.562,1.057l-1.666-0.475c0.169-0.865,0.529-1.514,1.081-1.947
			c0.551-0.432,1.18-0.648,1.885-0.647c0.897,0.001,1.591,0.274,2.083,0.819c0.492,0.545,0.738,1.229,0.737,2.051
			c-0.001,0.513-0.107,0.939-0.32,1.275c-0.213,0.337-0.548,0.65-1.006,0.941c0.551,0.199,0.963,0.499,1.235,0.901
			c0.273,0.402,0.409,0.904,0.408,1.503c-0.001,0.767-0.272,1.427-0.815,1.98c-0.543,0.553-1.323,0.829-2.34,0.827
			c-1.775-0.002-2.859-0.922-3.254-2.759l1.801-0.434c0.288,0.965,0.766,1.448,1.434,1.449c0.369,0,0.664-0.128,0.886-0.384
			s0.333-0.558,0.334-0.904c0-0.383-0.115-0.685-0.346-0.905c-0.231-0.22-0.533-0.33-0.907-0.33L267.492,194.577z"/>
		<path fill="#683B1C" d="M272.549,188.776l1.968,0.002l-0.004,3.609l2.816,0.003l0.004-3.609l1.975,0.002l-0.011,9.852
			l-1.975-0.002l0.005-4.137l-2.816-0.003l-0.005,4.137l-1.968-0.002L272.549,188.776z"/>
		<path fill="#683B1C" d="M282.759,191.793l-1.786-0.429c0.202-0.952,0.548-1.657,1.039-2.114c0.49-0.457,1.219-0.685,2.186-0.684
			c0.878,0.001,1.531,0.139,1.961,0.415c0.429,0.276,0.731,0.626,0.906,1.049c0.175,0.424,0.261,1.202,0.26,2.333l-0.025,3.043
			c-0.001,0.866,0.03,1.505,0.092,1.916c0.063,0.412,0.18,0.852,0.352,1.322l-1.947-0.002c-0.051-0.173-0.114-0.43-0.188-0.77
			c-0.033-0.154-0.056-0.256-0.069-0.306c-0.337,0.433-0.697,0.757-1.08,0.973c-0.383,0.216-0.792,0.324-1.226,0.323
			c-0.766-0.001-1.369-0.277-1.809-0.828c-0.441-0.551-0.661-1.247-0.66-2.088c0.001-0.557,0.101-1.053,0.303-1.489
			c0.201-0.436,0.483-0.769,0.845-1.001c0.362-0.232,0.884-0.434,1.566-0.606c0.92-0.228,1.558-0.44,1.913-0.638l0-0.26
			c0.001-0.501-0.093-0.858-0.279-1.072c-0.187-0.214-0.539-0.321-1.058-0.321c-0.35,0-0.623,0.091-0.82,0.273
			C283.04,191.016,282.88,191.336,282.759,191.793z M285.39,193.911c-0.252,0.111-0.652,0.244-1.198,0.397
			c-0.547,0.154-0.904,0.305-1.072,0.453c-0.257,0.241-0.386,0.547-0.386,0.918c0,0.365,0.102,0.68,0.307,0.947
			c0.205,0.266,0.467,0.399,0.784,0.4c0.355,0,0.694-0.154,1.016-0.463c0.239-0.235,0.395-0.522,0.47-0.862
			c0.052-0.223,0.078-0.646,0.079-1.271L285.39,193.911z"/>
		<path fill="#683B1C" d="M288.681,188.794l1.989,0.002l-0.003,2.356c-0.001,0.538,0.035,0.939,0.107,1.201
			c0.072,0.263,0.226,0.489,0.462,0.678c0.235,0.189,0.533,0.284,0.893,0.284c0.35,0,0.743-0.104,1.177-0.314l0.005-4.202
			l1.968,0.002l-0.011,9.852l-1.968-0.002l0.005-3.933c-0.766,0.271-1.35,0.407-1.751,0.406c-0.603-0.001-1.144-0.173-1.625-0.517
			c-0.481-0.344-0.809-0.783-0.986-1.319c-0.177-0.535-0.265-1.248-0.264-2.139L288.681,188.794z"/>
		<path fill="#683B1C" d="M301.541,195.525l1.961,0.438c-0.253,0.952-0.652,1.677-1.197,2.174c-0.545,0.497-1.226,0.745-2.043,0.744
			c-1.294-0.001-2.251-0.562-2.87-1.682c-0.489-0.897-0.733-2.029-0.732-3.396c0.002-1.633,0.325-2.911,0.971-3.835
			c0.646-0.924,1.461-1.385,2.446-1.384c1.107,0.001,1.979,0.486,2.618,1.455c0.639,0.969,0.943,2.452,0.913,4.449l-4.931-0.006
			c0.013,0.773,0.171,1.375,0.474,1.805c0.303,0.43,0.681,0.646,1.134,0.646c0.308,0,0.567-0.111,0.778-0.333
			C301.274,196.379,301.433,196.02,301.541,195.525z M301.656,192.891c-0.013-0.754-0.159-1.328-0.439-1.721
			c-0.28-0.393-0.62-0.59-1.022-0.59c-0.43,0-0.785,0.206-1.065,0.62c-0.281,0.414-0.419,0.977-0.415,1.688L301.656,192.891z"/>
		<path fill="#683B1C" d="M305.142,188.813l1.968,0.002l-0.004,3.609l2.815,0.003l0.004-3.609l1.975,0.002l-0.011,9.852
			l-1.975-0.002l0.005-4.137l-2.815-0.003l-0.005,4.137l-1.968-0.002L305.142,188.813z"/>
		<path fill="#683B1C" d="M313.834,188.823l1.892,0.002l-0.007,6.188l3.033-6.184l1.933,0.002l-0.011,9.852l-1.891-0.002
			l0.007-6.299l-3.075,6.295l-1.892-0.002L313.834,188.823z"/>
		<path fill="#683B1C" d="M329.077,188.841l-0.011,9.852l-1.954-0.002l0.005-4.091l-0.182,0c-0.425,0-0.737,0.072-0.936,0.217
			c-0.198,0.145-0.419,0.453-0.663,0.922l-0.119,0.195l-1.299,2.754l-2.29-0.003l1.411-2.856c0.403-0.816,0.767-1.285,1.095-1.409
			c-0.551-0.044-0.998-0.321-1.34-0.832c-0.343-0.511-0.514-1.162-0.513-1.953c0.001-0.637,0.115-1.181,0.342-1.632
			c0.227-0.451,0.529-0.758,0.905-0.922c0.376-0.163,0.935-0.245,1.678-0.244L329.077,188.841z M327.12,190.518l-1.408-0.002
			c-0.518-0.001-0.883,0.096-1.093,0.291c-0.21,0.195-0.316,0.518-0.316,0.969c-0.001,0.452,0.118,0.776,0.356,0.975
			c0.238,0.198,0.628,0.298,1.169,0.298l1.289,0.001L327.12,190.518z"/>
	</g>
</g>
<g>
	<path fill="#EAFFE9" d="M30.828,47.764c0-0.81,0.583-1.418,1.399-1.418c0.816,0,1.375,0.585,1.375,1.418
		c0,0.81-0.56,1.418-1.422,1.418C31.387,49.182,30.828,48.574,30.828,47.764z"/>
	<path fill="#EAFFE9" d="M35.653,47.764c0-0.81,0.583-1.418,1.399-1.418s1.375,0.585,1.375,1.418c0,0.81-0.56,1.418-1.422,1.418
		C36.212,49.182,35.653,48.574,35.653,47.764z"/>
	<path fill="#EAFFE9" d="M40.477,47.764c0-0.81,0.583-1.418,1.399-1.418s1.375,0.585,1.375,1.418c0,0.81-0.56,1.418-1.422,1.418
		C41.037,49.182,40.477,48.574,40.477,47.764z"/>
	<path fill="#EAFFE9" d="M46.537,38.041l2.448,6.437c0.279,0.72,0.56,1.576,0.746,2.229h0.046c0.21-0.653,0.443-1.485,0.723-2.273
		l2.238-6.392h2.168l-3.078,7.765c-1.469,3.736-2.471,5.626-3.871,6.819c-1.025,0.833-2.005,1.17-2.518,1.261l-0.513-1.643
		c0.513-0.158,1.189-0.473,1.795-0.968c0.56-0.428,1.235-1.193,1.725-2.206c0.093-0.203,0.164-0.36,0.164-0.473
		c0-0.113-0.047-0.271-0.164-0.518l-4.15-10.038H46.537z"/>
	<path fill="#EAFFE9" d="M63.693,38.041v4.389h5.339v-4.389h2.052v10.893h-2.052v-4.929h-5.339v4.929h-2.052V38.041H63.693z"/>
	<path fill="#EAFFE9" d="M82.365,46.324c0,0.945,0.046,1.868,0.163,2.611h-1.842l-0.164-1.373h-0.07
		c-0.629,0.855-1.842,1.621-3.451,1.621c-2.285,0-3.451-1.553-3.451-3.128c0-2.633,2.425-4.074,6.785-4.051v-0.225
		c0-0.877-0.256-2.521-2.564-2.498c-1.072,0-2.168,0.292-2.961,0.81l-0.466-1.328c0.933-0.563,2.308-0.945,3.73-0.945
		c3.451,0,4.29,2.273,4.29,4.434V46.324z M80.383,43.375c-2.238-0.045-4.78,0.337-4.78,2.453c0,1.305,0.886,1.891,1.912,1.891
		c1.492,0,2.448-0.9,2.774-1.823c0.07-0.225,0.093-0.45,0.093-0.63V43.375z"/>
	<path fill="#EAFFE9" d="M93.716,48.552c-0.536,0.248-1.725,0.63-3.241,0.63c-3.404,0-5.619-2.228-5.619-5.559
		c0-3.354,2.378-5.807,6.062-5.807c1.213,0,2.285,0.292,2.845,0.585l-0.466,1.508c-0.49-0.248-1.259-0.518-2.378-0.518
		c-2.588,0-3.987,1.868-3.987,4.119c0,2.521,1.679,4.074,3.917,4.074c1.166,0,1.935-0.27,2.518-0.518L93.716,48.552z"/>
	<path fill="#EAFFE9" d="M103.292,38.041v4.389h5.339v-4.389h2.052v10.893h-2.052v-4.929h-5.339v4.929h-2.052V38.041H103.292z"/>
	<path fill="#EAFFE9" d="M115.18,43.848c0.046,2.678,1.795,3.781,3.87,3.781c1.469,0,2.378-0.248,3.124-0.563l0.373,1.418
		c-0.723,0.315-1.981,0.698-3.777,0.698c-3.474,0-5.549-2.228-5.549-5.514s2.005-5.852,5.293-5.852c3.707,0,4.663,3.106,4.663,5.109
		c0,0.405-0.023,0.698-0.07,0.923H115.18z M121.195,42.43c0.023-1.238-0.536-3.196-2.844-3.196c-2.099,0-2.984,1.823-3.148,3.196
		H121.195z"/>
	<path fill="#EAFFE9" d="M133.246,38.041v1.553h-3.521v9.34h-2.052v-9.34h-3.521v-1.553H133.246z"/>
	<path fill="#EAFFE9" d="M140.073,38.176c0.816-0.135,2.285-0.248,3.591-0.248c1.912,0,5.036,0.315,5.036,2.724
		c0,1.35-1.072,2.206-2.355,2.476v0.045c1.656,0.225,2.868,1.103,2.868,2.678c0,2.858-3.73,3.219-5.945,3.219
		c-1.259,0-2.588-0.09-3.194-0.135V38.176z M142.032,47.652c0.583,0.045,1.002,0.067,1.632,0.067c1.399,0,3.451-0.292,3.451-1.891
		c0-1.576-1.655-1.913-3.59-1.913h-1.492V47.652z M142.055,42.633h1.539c1.515,0,3.078-0.428,3.078-1.733
		c0-1.081-0.979-1.598-3.031-1.598c-0.699,0-1.119,0.045-1.585,0.09V42.633z"/>
	<path fill="#EAFFE9" d="M151.797,41.597c0-1.395-0.047-2.521-0.094-3.556h1.819l0.116,1.868h0.047
		c0.815-1.328,2.168-2.093,4.01-2.093c2.751,0,4.804,2.228,4.804,5.514c0,3.916-2.495,5.852-5.153,5.852
		c-1.492,0-2.798-0.63-3.474-1.71h-0.047v5.919h-2.028V41.597z M153.826,44.501c0,0.292,0.023,0.563,0.094,0.81
		c0.373,1.373,1.608,2.318,3.077,2.318c2.168,0,3.428-1.711,3.428-4.209c0-2.161-1.189-4.029-3.357-4.029
		c-1.399,0-2.729,0.945-3.102,2.431c-0.069,0.248-0.14,0.541-0.14,0.788V44.501z"/>
	<path fill="#EAFFE9" d="M166.203,43.848c0.047,2.678,1.795,3.781,3.87,3.781c1.469,0,2.378-0.248,3.124-0.563l0.373,1.418
		c-0.723,0.315-1.981,0.698-3.777,0.698c-3.474,0-5.549-2.228-5.549-5.514s2.006-5.852,5.293-5.852c3.707,0,4.663,3.106,4.663,5.109
		c0,0.405-0.023,0.698-0.07,0.923H166.203z M172.218,42.43c0.022-1.238-0.537-3.196-2.845-3.196c-2.099,0-2.984,1.823-3.147,3.196
		H172.218z"/>
	<path fill="#EAFFE9" d="M176.877,38.041h2.519l2.028,5.492c0.303,0.81,0.77,2.138,1.025,2.993h0.047
		c0.257-0.833,0.886-2.543,1.353-3.736l1.795-4.749h2.541l0.793,10.893h-1.958l-0.257-5.199c-0.047-1.193-0.14-2.565-0.187-3.894
		h-0.069c-0.304,0.99-0.63,1.846-1.26,3.534l-2.168,5.492h-1.469l-2.006-5.402c-0.373-1.013-0.862-2.588-1.142-3.601h-0.094
		c-0.047,1.283-0.093,2.724-0.163,3.917l-0.303,5.154h-1.889L176.877,38.041z"/>
	<path fill="#EAFFE9" d="M192.775,43.848c0.047,2.678,1.795,3.781,3.87,3.781c1.469,0,2.378-0.248,3.124-0.563l0.373,1.418
		c-0.723,0.315-1.981,0.698-3.777,0.698c-3.474,0-5.549-2.228-5.549-5.514s2.006-5.852,5.293-5.852c3.707,0,4.663,3.106,4.663,5.109
		c0,0.405-0.023,0.698-0.07,0.923H192.775z M198.79,42.43c0.022-1.238-0.537-3.196-2.845-3.196c-2.099,0-2.984,1.823-3.147,3.196
		H198.79z"/>
	<path fill="#EAFFE9" d="M205.29,38.041v4.389h5.34v-4.389h2.052v10.893h-2.052v-4.929h-5.34v4.929h-2.052V38.041H205.29z"/>
	<path fill="#EAFFE9" d="M217.924,38.041v4.591c0,1.71-0.047,2.813-0.14,4.366l0.069,0.022c0.699-1.328,1.072-2.093,1.842-3.354
		l3.521-5.626h2.402v10.893h-1.959v-4.614c0-1.778,0.047-2.701,0.14-4.479h-0.046c-0.746,1.418-1.213,2.296-1.889,3.398
		c-1.073,1.688-2.332,3.781-3.521,5.694h-2.377V38.041H217.924z"/>
	<path fill="#EAFFE9" d="M227.619,51.725c0.513-1.351,1.143-3.759,1.399-5.402l2.284-0.225c-0.56,1.913-1.585,4.412-2.238,5.469
		L227.619,51.725z"/>
	<path fill="#EAFFE9" d="M247.457,38.041v9.408l1.166,0.022l-0.117,4.906h-1.608l-0.094-3.443h-7.811l-0.116,3.443h-1.585
		l-0.094-4.884l0.956-0.045c0.489-0.698,0.862-1.44,1.119-2.228c0.442-1.351,0.652-2.813,0.652-4.344v-2.835H247.457z
		 M241.722,41.327c0,1.463-0.187,2.858-0.583,4.074c-0.233,0.743-0.536,1.418-0.886,2.026h5.199v-7.877h-3.73V41.327z"/>
	<path fill="#EAFFE9" d="M261.186,43.398c0,4.029-2.914,5.784-5.619,5.784c-3.031,0-5.409-2.161-5.409-5.604
		c0-3.624,2.495-5.762,5.596-5.762C258.995,37.816,261.186,40.089,261.186,43.398z M252.257,43.51c0,2.386,1.398,4.187,3.404,4.187
		c1.958,0,3.427-1.778,3.427-4.231c0-1.845-0.956-4.164-3.38-4.164C253.306,39.302,252.257,41.462,252.257,43.51z"/>
	<path fill="#EAFFE9" d="M272.305,34.35c-0.56,0.203-1.608,0.383-2.354,0.495c-1.818,0.27-3.171,0.855-4.034,2.048
		c-0.723,0.968-1.119,2.431-1.235,3.601h0.07c0.746-1.598,2.331-2.453,3.939-2.453c2.775,0,4.804,1.913,4.804,5.379
		c0,3.556-1.912,5.784-5.223,5.784c-3.964,0-5.27-3.691-5.27-7.314c0-2.476,0.536-4.524,1.749-6.032
		c1.072-1.531,2.635-2.206,4.85-2.566c0.933-0.158,2.028-0.338,2.798-0.585L272.305,34.35z M268.271,39.504
		c-1.213,0-2.075,0.607-2.565,1.485c-0.373,0.653-0.559,1.44-0.559,2.318c0,1.8,0.932,4.411,3.17,4.411
		c2.285,0,3.102-2.138,3.102-4.164C271.419,41.8,270.696,39.504,268.271,39.504z"/>
	<path fill="#EAFFE9" d="M277.221,43.848c0.046,2.678,1.795,3.781,3.87,3.781c1.469,0,2.378-0.248,3.124-0.563l0.373,1.418
		c-0.723,0.315-1.981,0.698-3.776,0.698c-3.475,0-5.55-2.228-5.55-5.514s2.005-5.852,5.293-5.852c3.707,0,4.663,3.106,4.663,5.109
		c0,0.405-0.023,0.698-0.07,0.923H277.221z M283.235,42.43c0.023-1.238-0.536-3.196-2.844-3.196c-2.099,0-2.984,1.823-3.147,3.196
		H283.235z"/>
	<path fill="#EAFFE9" d="M287.756,41.597c0-1.395-0.047-2.521-0.094-3.556h1.819l0.116,1.868h0.047
		c0.815-1.328,2.168-2.093,4.01-2.093c2.751,0,4.804,2.228,4.804,5.514c0,3.916-2.495,5.852-5.153,5.852
		c-1.492,0-2.798-0.63-3.474-1.71h-0.047v5.919h-2.028V41.597z M289.784,44.501c0,0.292,0.023,0.563,0.094,0.81
		c0.373,1.373,1.608,2.318,3.077,2.318c2.168,0,3.428-1.711,3.428-4.209c0-2.161-1.189-4.029-3.357-4.029
		c-1.399,0-2.729,0.945-3.102,2.431c-0.069,0.248-0.14,0.541-0.14,0.788V44.501z"/>
	<path fill="#EAFFE9" d="M302.907,38.041v4.591c0,1.71-0.047,2.813-0.141,4.366l0.07,0.022c0.699-1.328,1.072-2.093,1.842-3.354
		l3.521-5.626h2.401v10.893h-1.958v-4.614c0-1.778,0.047-2.701,0.14-4.479h-0.047c-0.746,1.418-1.212,2.296-1.888,3.398
		c-1.073,1.688-2.332,3.781-3.521,5.694h-2.379V38.041H302.907z"/>
	<path fill="#EAFFE9" d="M321.976,48.552c-0.536,0.248-1.726,0.63-3.241,0.63c-3.404,0-5.619-2.228-5.619-5.559
		c0-3.354,2.378-5.807,6.063-5.807c1.212,0,2.284,0.292,2.845,0.585l-0.467,1.508c-0.489-0.248-1.259-0.518-2.378-0.518
		c-2.588,0-3.987,1.868-3.987,4.119c0,2.521,1.679,4.074,3.917,4.074c1.166,0,1.936-0.27,2.519-0.518L321.976,48.552z"/>
	<path fill="#EAFFE9" d="M326.355,38.041v3.668c0.49-0.067,1.259-0.113,1.865-0.113c2.542,0,5.223,0.788,5.223,3.691
		c0,1.125-0.466,1.913-1.188,2.498c-1.236,1.013-3.265,1.26-4.92,1.26c-1.119,0-2.168-0.067-3.031-0.157V38.041H326.355z
		 M326.332,47.539c0.42,0.067,0.863,0.09,1.539,0.09c1.516,0,3.521-0.496,3.521-2.296c0-1.891-2.052-2.318-3.59-2.318
		c-0.537,0-0.979,0.045-1.47,0.135V47.539z"/>
	<path fill="#EAFFE9" d="M349.666,38.041v9.408l1.166,0.022l-0.117,4.906h-1.608l-0.094-3.443h-7.811l-0.116,3.443h-1.585
		l-0.094-4.884l0.956-0.045c0.489-0.698,0.862-1.44,1.119-2.228c0.442-1.351,0.652-2.813,0.652-4.344v-2.835H349.666z
		 M343.931,41.327c0,1.463-0.187,2.858-0.583,4.074c-0.233,0.743-0.536,1.418-0.886,2.026h5.199v-7.877h-3.73V41.327z"/>
	<path fill="#EAFFE9" d="M363.395,43.398c0,4.029-2.914,5.784-5.619,5.784c-3.031,0-5.409-2.161-5.409-5.604
		c0-3.624,2.495-5.762,5.596-5.762C361.204,37.816,363.395,40.089,363.395,43.398z M354.466,43.51c0,2.386,1.398,4.187,3.404,4.187
		c1.958,0,3.427-1.778,3.427-4.231c0-1.845-0.956-4.164-3.38-4.164C355.515,39.302,354.466,41.462,354.466,43.51z"/>
	<path fill="#EAFFE9" d="M371.667,38.041l2.448,6.437c0.279,0.72,0.56,1.576,0.746,2.229h0.046c0.21-0.653,0.443-1.485,0.724-2.273
		l2.238-6.392h2.168l-3.077,7.765c-1.47,3.736-2.472,5.626-3.871,6.819c-1.025,0.833-2.005,1.17-2.518,1.261l-0.514-1.643
		c0.514-0.158,1.189-0.473,1.796-0.968c0.56-0.428,1.235-1.193,1.726-2.206c0.093-0.203,0.163-0.36,0.163-0.473
		c0-0.113-0.047-0.271-0.163-0.518l-4.15-10.038H371.667z"/>
	<path fill="#EAFFE9" d="M390.619,34.35c-0.56,0.203-1.608,0.383-2.354,0.495c-1.818,0.27-3.171,0.855-4.034,2.048
		c-0.723,0.968-1.119,2.431-1.235,3.601h0.07c0.746-1.598,2.331-2.453,3.939-2.453c2.775,0,4.804,1.913,4.804,5.379
		c0,3.556-1.912,5.784-5.223,5.784c-3.964,0-5.27-3.691-5.27-7.314c0-2.476,0.536-4.524,1.749-6.032
		c1.072-1.531,2.635-2.206,4.85-2.566c0.933-0.158,2.028-0.338,2.798-0.585L390.619,34.35z M386.586,39.504
		c-1.213,0-2.075,0.607-2.565,1.485c-0.373,0.653-0.559,1.44-0.559,2.318c0,1.8,0.932,4.411,3.17,4.411
		c2.285,0,3.102-2.138,3.102-4.164C389.733,41.8,389.011,39.504,386.586,39.504z"/>
	<path fill="#EAFFE9" d="M395.535,43.848c0.046,2.678,1.795,3.781,3.87,3.781c1.469,0,2.378-0.248,3.124-0.563l0.373,1.418
		c-0.723,0.315-1.981,0.698-3.776,0.698c-3.475,0-5.55-2.228-5.55-5.514s2.005-5.852,5.293-5.852c3.707,0,4.663,3.106,4.663,5.109
		c0,0.405-0.023,0.698-0.07,0.923H395.535z M401.55,42.43c0.023-1.238-0.536-3.196-2.844-3.196c-2.099,0-2.984,1.823-3.147,3.196
		H401.55z"/>
	<path fill="#EAFFE9" d="M407.026,38.041l3.754,4.749h0.396v-4.749h1.958v4.749h0.396l3.73-4.749h2.354l-4.453,4.951
		c1.702,0.18,2.705,1.148,3.381,2.881c0.396,1.058,0.77,2.206,1.235,3.061h-2.052c-0.373-0.653-0.699-1.553-1.025-2.498
		c-0.699-1.778-1.749-2.318-3.218-2.318h-0.35v4.816h-1.958v-4.816h-0.351c-1.608,0-2.564,0.563-3.264,2.341
		c-0.373,0.945-0.677,1.8-1.05,2.476h-2.005c0.49-0.878,0.863-2.025,1.259-3.039c0.7-1.755,1.68-2.723,3.381-2.903l-4.453-4.951
		H407.026z"/>
	<path fill="#EAFFE9" d="M423.506,38.041v4.591c0,1.71-0.047,2.813-0.14,4.366l0.069,0.022c0.699-1.328,1.072-2.093,1.842-3.354
		l3.521-5.626h2.402v10.893h-1.959v-4.614c0-1.778,0.047-2.701,0.14-4.479h-0.046c-0.746,1.418-1.213,2.296-1.889,3.398
		c-1.073,1.688-2.332,3.781-3.521,5.694h-2.378V38.041H423.506z"/>
	<path fill="#EAFFE9" d="M436.488,38.041v9.34h3.94v-9.34h2.028v9.34h3.917v-9.34h2.006v9.408l1.165,0.022l-0.116,4.906h-1.608
		l-0.07-3.443h-13.29V38.041H436.488z"/>
	<path fill="#EAFFE9" d="M459.915,46.324c0,0.945,0.047,1.868,0.164,2.611h-1.843l-0.163-1.373h-0.069
		c-0.63,0.855-1.843,1.621-3.451,1.621c-2.285,0-3.45-1.553-3.45-3.128c0-2.633,2.425-4.074,6.784-4.051v-0.225
		c0-0.877-0.256-2.521-2.564-2.498c-1.072,0-2.168,0.292-2.961,0.81l-0.467-1.328c0.933-0.563,2.309-0.945,3.73-0.945
		c3.451,0,4.29,2.273,4.29,4.434V46.324z M457.934,43.375c-2.238-0.045-4.779,0.337-4.779,2.453c0,1.305,0.886,1.891,1.911,1.891
		c1.492,0,2.448-0.9,2.775-1.823c0.069-0.225,0.093-0.45,0.093-0.63V43.375z"/>
</g>
</svg>
