<?xml version="1.0" encoding="utf-8"?>
<!-- Generator: Adobe Illustrator 17.0.0, SVG Export Plug-In . SVG Version: 6.00 Build 0)  -->
<!DOCTYPE svg PUBLIC "-//W3C//DTD SVG 1.1//EN" "http://www.w3.org/Graphics/SVG/1.1/DTD/svg11.dtd">
<svg version="1.1" id="Слой_1" xmlns="http://www.w3.org/2000/svg" xmlns:xlink="http://www.w3.org/1999/xlink" x="0px" y="0px"
	 width="960px" height="560px" viewBox="0 0 960 560" enable-background="new 0 0 960 560" xml:space="preserve">
<symbol  id="Alert" viewBox="-33.581 -30 67.162 60">
	<path fill="#EFCC0D" d="M32.182-19.675L5.959,25.743C4.32,28.582,2.16,30,0,30s-4.32-1.418-5.959-4.258l-26.224-45.418
		C-35.46-25.353-32.777-30-26.223-30h52.445C32.777-30,35.46-25.353,32.182-19.675z M28.562-24.462
		C28.482-24.568,27.815-25,26.223-25h-52.445c-1.593,0-2.26,0.432-2.335,0.529c-0.052,0.121-0.091,0.914,0.705,2.295l26.224,45.418
		c0.796,1.379,1.502,1.742,1.623,1.758c0.133-0.016,0.839-0.379,1.635-1.758l26.224-45.418
		C28.649-23.556,28.609-24.349,28.562-24.462z"/>
	<path fill="#EFCC0D" d="M0-11.613c-2.065,0-3.74-1.674-3.74-3.74s1.675-3.74,3.74-3.74c2.066,0,3.741,1.674,3.741,3.74
		S2.066-11.613,0-11.613z"/>
	<polygon fill="#EFCC0D" points="3.417,7.106 -3.417,7.106 -3.417,-8.787 3.417,-8.787 	"/>
</symbol>
<symbol  id="Campground_2" viewBox="-7.225 -7.227 14.449 14.453">
	<g>
		<polygon fill="none" points="-7.225,-7.227 7.225,-7.227 7.225,7.227 -7.225,7.227 		"/>
		<g>
			<path fill="#231F20" d="M7.225-4.95c0-1.257-1.021-2.276-2.283-2.276h-9.891c-1.258,0-2.275,1.02-2.275,2.276v9.894
				c0,1.261,1.017,2.283,2.275,2.283h9.891c1.263,0,2.283-1.022,2.283-2.283V-4.95z"/>
			<g>
				<polygon fill="#FFFFFF" points="0,5.655 -4.779,-3.557 -5.914,-3.557 -5.914,-4.506 5.947,-4.506 5.947,-3.557 4.84,-3.557 				
					"/>
				<polygon fill="#231F20" points="2.15,-3.557 0.055,0.382 -2.254,-3.515 				"/>
			</g>
		</g>
	</g>
</symbol>
<g>
	<g>
		<polygon opacity="0.14" fill="#FFFFFF" points="863.524,15.58 863.524,472.99 200.984,472.24 528.484,15.58 		"/>
		<polygon opacity="0.08" fill="#FFFFFF" points="528.484,15.58 200.984,472.24 19.764,472.99 19.764,15.58 		"/>
	</g>
	<rect x="19.764" y="15.58" opacity="0.17" fill="none" stroke="#FFFFFF" stroke-miterlimit="10" width="843.76" height="457.41"/>
</g>
<path opacity="0.08" fill="#FFFFFF" d="M199.02,471.18L526.14,15.05l0.38-0.53H195.5l0.35,1.06v43.54H19.01L19,63.45v0.51
	l-1.19-0.42v408.39h843.75L199.02,471.18z M193.74,14.52H17.81v42.8h175.93V14.52z"/>
<polygon opacity="0.14" fill="#FFFFFF" points="860.81,14.52 860.81,471.93 198.27,471.18 525.77,14.52 "/>
<polyline opacity="0.17" fill="none" stroke="#FFFFFF" stroke-miterlimit="10" points="861.56,14.52 526.14,15.05 199.02,15.57 
	195.85,15.58 "/>
<linearGradient id="SVGID_1_" gradientUnits="userSpaceOnUse" x1="0" y1="28.66" x2="193.74" y2="28.66">
	<stop  offset="0" style="stop-color:#B4B4B4"/>
	<stop  offset="1" style="stop-color:#656565"/>
</linearGradient>
<linearGradient id="SVGID_2_" gradientUnits="userSpaceOnUse" x1="-0.5" y1="28.66" x2="194.24" y2="28.66">
	<stop  offset="0" style="stop-color:#CDCDCD"/>
	<stop  offset="1" style="stop-color:#2E2E2E"/>
</linearGradient>
<rect fill="url(#SVGID_1_)" stroke="url(#SVGID_2_)" stroke-miterlimit="10" width="193.74" height="57.32"/>
<line opacity="0.2" fill="none" stroke="#FFFFFF" stroke-miterlimit="10" x1="19" y1="59.58" x2="17.81" y2="471.93"/>
<line opacity="0.17" fill="none" stroke="#FFFFFF" stroke-miterlimit="10" x1="17.81" y1="471.93" x2="861.56" y2="471.93"/>
<line opacity="0.17" fill="none" stroke="#FFFFFF" stroke-miterlimit="10" x1="861.56" y1="14.52" x2="861.56" y2="471.93"/>
<path fill="none" stroke="#000000" stroke-miterlimit="10" d="M14.52,57.324"/>
<path fill="none" stroke="#000000" stroke-miterlimit="10" d="M18.415,59.58"/>
<path fill="none" stroke="#000000" stroke-miterlimit="10" d="M194.52,59.58"/>
<path fill="none" stroke="#000000" stroke-miterlimit="10" d="M18.415,59.58"/>
<path fill="none" stroke="#000000" stroke-miterlimit="10" d="M18.415,59.58"/>
<path fill="none" stroke="#000000" stroke-miterlimit="10" d="M14.52,57.324"/>
<linearGradient id="SVGID_3_" gradientUnits="userSpaceOnUse" x1="18.5" y1="61.285" x2="19.52" y2="61.285">
	<stop  offset="0" style="stop-color:#B4B4B4"/>
	<stop  offset="1" style="stop-color:#656565"/>
</linearGradient>
<line fill="none" stroke="url(#SVGID_3_)" stroke-miterlimit="10" x1="19.02" y1="59.12" x2="19" y2="63.45"/>
<linearGradient id="SVGID_4_" gradientUnits="userSpaceOnUse" x1="98.0523" y1="50.0095" x2="97.391" y2="92.6611">
	<stop  offset="0" style="stop-color:#FFFFFF"/>
	<stop  offset="0" style="stop-color:#BEBEBE"/>
	<stop  offset="0.4196" style="stop-color:#0A0A0A"/>
	<stop  offset="0.7137" style="stop-color:#000000"/>
</linearGradient>
<polygon fill="url(#SVGID_4_)" points="195.85,59.12 19.01,59.12 19,63.45 19,63.96 17.81,63.54 0,57.32 193.74,57.32 "/>
<linearGradient id="SVGID_5_" gradientUnits="userSpaceOnUse" x1="175.5126" y1="29.4306" x2="212.7626" y2="29.6806">
	<stop  offset="0" style="stop-color:#FFFFFF"/>
	<stop  offset="0.5569" style="stop-color:#333333"/>
	<stop  offset="0.7686" style="stop-color:#000000"/>
	<stop  offset="0.8784" style="stop-color:#FFFFFF"/>
</linearGradient>
<polygon fill="url(#SVGID_5_)" points="195.5,14.52 195.85,15.58 195.85,59.12 193.74,57.32 193.74,0 198.66,14.52 "/>
<linearGradient id="SVGID_6_" gradientUnits="userSpaceOnUse" x1="0" y1="0" x2="193.74" y2="0">
	<stop  offset="0" style="stop-color:#E0E0E0"/>
	<stop  offset="0.2196" style="stop-color:#B3B3B3"/>
	<stop  offset="1" style="stop-color:#565656"/>
</linearGradient>
<line fill="none" stroke="url(#SVGID_6_)" stroke-miterlimit="10" x1="0" y1="0" x2="193.74" y2="0"/>
<line opacity="0.17" fill="none" stroke="#FFFFFF" stroke-miterlimit="10" x1="861.56" y1="15.05" x2="863.524" y2="15.58"/>
<line opacity="0.17" fill="none" stroke="#FFFFFF" stroke-miterlimit="10" x1="861.56" y1="471.93" x2="863.524" y2="472.99"/>
<line opacity="0.17" fill="none" stroke="#FFFFFF" stroke-miterlimit="10" x1="19.764" y1="472.99" x2="17.81" y2="471.93"/>
<g opacity="0.3">
	<path opacity="0.85" fill="#00B0B8" d="M845.199,249.172H666.443c-6.6,0-12-5.4-12-12V77.233c0-6.6,5.4-12,12-12h178.756
		c6.6,0,12,5.4,12,12v159.939C857.199,243.772,851.799,249.172,845.199,249.172z"/>
</g>
<path opacity="0.95" fill="#29ABE2" d="M661.028,249.585c0,0.594-0.218,1.107-0.538,1.343h-2.227c-2.574,0-4.681-2.45-4.681-5.445
	V69.193c0-2.995,2.106-5.445,4.681-5.445h1.79c0.363,0.145,0.632,0.731,0.632,1.434c0,0.64-0.226,1.184-0.542,1.388
	c-0.133,0.014-0.265,0.036-0.394,0.068c-2.169,0.472-3.823,2.695-3.823,5.35v170.795c0,2.704,1.716,4.964,3.944,5.377
	c0.195,0.036,0.394,0.059,0.597,0.064C660.797,248.446,661.028,248.972,661.028,249.585z"/>
<g opacity="0.85">
	<line fill="none" stroke="#00FFFF" stroke-width="2" stroke-miterlimit="10" x1="54.697" y1="423.066" x2="84.361" y2="423.066"/>
	<line fill="none" stroke="#00FFFF" stroke-width="2" stroke-miterlimit="10" x1="84.361" y1="423.066" x2="117.622" y2="458.266"/>
	
		<line fill="none" stroke="#00FFFF" stroke-width="2" stroke-miterlimit="10" x1="117.622" y1="458.266" x2="256.083" y2="458.266"/>
	
		<line fill="none" stroke="#00FFFF" stroke-width="2" stroke-miterlimit="10" x1="256.083" y1="458.266" x2="272.076" y2="410.456"/>
	
		<line fill="none" stroke="#00FFFF" stroke-width="2" stroke-miterlimit="10" x1="272.076" y1="410.456" x2="260.575" y2="387.617"/>
	
		<line fill="none" stroke="#00FFFF" stroke-width="2" stroke-miterlimit="10" x1="260.575" y1="387.617" x2="130.207" y2="387.617"/>
	<line fill="none" stroke="#00FFFF" stroke-width="2" stroke-miterlimit="10" x1="130.207" y1="387.617" x2="98.535" y2="414.73"/>
	<line fill="none" stroke="#00FFFF" stroke-width="2" stroke-miterlimit="10" x1="98.535" y1="414.73" x2="79.544" y2="414.73"/>
	<rect x="121.494" y="413.786" fill="#42DFC3" width="5.486" height="43.787"/>
	<rect x="126.819" y="403.137" fill="#98FFFA" width="5.486" height="54.436"/>
	<rect x="132.095" y="416.534" fill="#0AFAAC" width="5.486" height="41.039"/>
	<rect x="137.419" y="432.415" fill="#98FFFA" width="5.486" height="24.832"/>
	<rect x="142.144" y="396.095" fill="#BEFFFF" width="5.486" height="61.477"/>
	<rect x="147.468" y="392.659" fill="#98FFFA" width="5.486" height="64.912"/>
	<rect x="152.744" y="411.286" fill="#42DFC3" width="5.486" height="46.286"/>
	<rect x="158.069" y="419.11" fill="#0AFAAC" width="5.486" height="38.461"/>
	<rect x="163.228" y="421.343" fill="#98FFFA" width="5.486" height="36.231"/>
	<rect x="168.552" y="397.64" fill="#42DFC3" width="5.486" height="59.934"/>
	<rect x="173.828" y="447.451" fill="#98FFFA" width="5.486" height="10.124"/>
	<rect x="179.153" y="409.138" fill="#BEFFFF" width="5.486" height="48.436"/>
	<rect x="183.877" y="415.827" fill="#98FFFA" width="5.486" height="41.745"/>
	<rect x="189.202" y="424.843" fill="#0AFAAC" width="5.486" height="32.73"/>
	<rect x="194.478" y="400.045" fill="#0AFAAC" width="5.486" height="57.527"/>
	<rect x="199.802" y="409.138" fill="#BEFFFF" width="5.486" height="48.434"/>
	<rect x="204.865" y="402.106" fill="#98FFFA" width="5.486" height="55.466"/>
	<rect x="210.189" y="389.224" fill="#0AFAAC" width="5.486" height="68.348"/>
	<rect x="215.466" y="390.598" fill="#98FFFA" width="5.486" height="66.974"/>
	<rect x="220.79" y="411.8" fill="#42DFC3" width="5.486" height="45.772"/>
	<rect x="225.514" y="407.259" fill="#0AFAAC" width="5.486" height="50.312"/>
	<rect x="230.839" y="425.523" fill="#98FFFA" width="5.486" height="32.048"/>
	<rect x="236.115" y="399.036" fill="#BEFFFF" width="5.486" height="58.534"/>
	<rect x="241.439" y="393.475" fill="#98FFFA" width="5.486" height="64.095"/>
	<rect x="246.383" y="400.045" fill="#42DFC3" width="5.486" height="57.796"/>
</g>
<text transform="matrix(0.9541 0 0 1 56.1189 403.069)" fill="#FFFFFF" font-family="'Arial-BoldMT'" font-size="19.1986">100%</text>
<text transform="matrix(1.1426 0 0 1 47.9405 457.2469)" fill="#FFFFFF" font-family="'Arial-BoldMT'" font-size="15.5034">...load</text>
<rect x="29.729" y="368.515" opacity="0.21" fill="#FFFFFF" width="250.58" height="70.75"/>
<path opacity="0.5" fill="#29ABE2" d="M842.717,362.76v81.981H705.053c-8.952,0-16.273-7.191-16.273-15.978v-50.016
	c0-8.788,7.322-15.987,16.273-15.987H842.717z"/>
<rect x="850.359" y="362.76" opacity="0.5" fill="#29ABE2" width="11.597" height="81.981"/>
<use xlink:href="#Campground_2"  width="14.449" height="14.453" x="-7.225" y="-7.227" transform="matrix(4.818 0 0 -4.6118 731.8016 401.9242)" overflow="visible" opacity="0.5"/>
<use xlink:href="#Alert"  width="67.162" height="60" id="XMLID_1_" x="-33.581" y="-30" transform="matrix(0.8756 0 0 -0.8756 732.0657 399.2829)" overflow="visible" opacity="0.9"/>
<g opacity="0.8">
	<path fill="#00001E" d="M773.035,378.09c0-1.044,0.171-1.92,0.515-2.629c0.256-0.521,0.605-0.99,1.048-1.405
		c0.443-0.414,0.928-0.722,1.455-0.923c0.701-0.27,1.511-0.405,2.427-0.405c1.659,0,2.986,0.469,3.982,1.405
		c0.995,0.938,1.493,2.24,1.493,3.908c0,1.655-0.494,2.95-1.482,3.884c-0.988,0.936-2.309,1.402-3.962,1.402
		c-1.675,0-3.006-0.465-3.993-1.395C773.529,381.002,773.035,379.722,773.035,378.09z M775.377,378.021
		c0,1.16,0.295,2.04,0.884,2.64c0.588,0.599,1.336,0.898,2.242,0.898s1.649-0.298,2.23-0.892c0.581-0.595,0.872-1.486,0.872-2.675
		c0-1.175-0.283-2.051-0.849-2.629c-0.566-0.578-1.317-0.867-2.254-0.867c-0.938,0-1.692,0.293-2.266,0.878
		S775.377,376.841,775.377,378.021z"/>
	<path fill="#00001E" d="M785.698,383.152v-10.25h3.402l2.043,6.992l2.02-6.992h3.409v10.25h-2.111v-8.068l-2.235,8.068h-2.188
		l-2.227-8.068v8.068H785.698z"/>
	<path fill="#00001E" d="M798.83,383.152v-10.25h8.348v1.734h-6.075v2.271h5.652v1.728h-5.652v2.79h6.29v1.727H798.83z"/>
	<path fill="#00001E" d="M814.558,379.384v-1.727h4.899v4.083c-0.477,0.419-1.166,0.789-2.07,1.108
		c-0.903,0.318-1.818,0.479-2.745,0.479c-1.178,0-2.204-0.225-3.079-0.675c-0.876-0.449-1.533-1.093-1.974-1.93
		s-0.66-1.747-0.66-2.73c0-1.067,0.245-2.016,0.737-2.846c0.491-0.829,1.21-1.466,2.157-1.908c0.722-0.341,1.62-0.511,2.695-0.511
		c1.398,0,2.489,0.267,3.275,0.801c0.786,0.533,1.292,1.271,1.517,2.213l-2.258,0.385c-0.158-0.504-0.456-0.901-0.895-1.192
		c-0.438-0.291-0.984-0.438-1.64-0.438c-0.993,0-1.782,0.287-2.369,0.86c-0.586,0.573-0.879,1.424-0.879,2.552
		c0,1.217,0.297,2.129,0.891,2.737s1.372,0.913,2.335,0.913c0.476,0,0.953-0.085,1.432-0.256c0.479-0.17,0.89-0.376,1.232-0.618
		v-1.301H814.558z"/>
	<path fill="#00001E" d="M831.705,383.152h-2.473l-0.982-2.328h-4.5l-0.93,2.328h-2.411l4.385-10.25h2.403L831.705,383.152z
		 M827.521,379.097l-1.552-3.803l-1.521,3.803H827.521z"/>
</g>
<g opacity="0.78">
	<path d="M773.56,410.531v-6.718h1.612v6.718H773.56z"/>
	<path d="M776.451,408.029c0-0.428,0.132-0.842,0.396-1.242c0.264-0.399,0.638-0.705,1.122-0.916
		c0.483-0.211,1.024-0.316,1.621-0.316c0.921,0,1.677,0.239,2.266,0.718c0.589,0.478,0.884,1.082,0.884,1.812
		c0,0.736-0.298,1.347-0.893,1.831s-1.343,0.727-2.246,0.727c-0.559,0-1.091-0.102-1.598-0.303
		c-0.507-0.202-0.893-0.497-1.156-0.887S776.451,408.588,776.451,408.029z M778.104,408.098c0,0.483,0.144,0.853,0.43,1.109
		c0.287,0.257,0.641,0.385,1.062,0.385s0.774-0.128,1.059-0.385c0.285-0.257,0.428-0.629,0.428-1.118c0-0.477-0.143-0.843-0.428-1.1
		c-0.284-0.257-0.638-0.385-1.059-0.385s-0.774,0.128-1.062,0.385C778.247,407.246,778.104,407.615,778.104,408.098z"/>
	<path d="M785.138,410.531l-1.928-4.866h1.566l1.142,3.189l1.05-3.189h1.555l1.016,3.189l1.165-3.189h1.589l-1.956,4.866h-1.549
		l-1.051-3.13l-1.032,3.13H785.138z"/>
	<path d="M799.935,408.982l1.606,0.216c-0.207,0.47-0.532,0.828-0.979,1.074c-0.445,0.246-1.003,0.369-1.672,0.369
		c-1.06,0-1.844-0.276-2.353-0.83c-0.401-0.442-0.603-1.002-0.603-1.677c0-0.807,0.264-1.438,0.792-1.895
		c0.527-0.457,1.195-0.686,2.002-0.686c0.906,0,1.622,0.239,2.146,0.718c0.524,0.478,0.775,1.21,0.752,2.196h-4.039
		c0.012,0.383,0.142,0.68,0.39,0.892c0.249,0.213,0.559,0.318,0.93,0.318c0.253,0,0.465-0.055,0.637-0.165
		C799.717,409.404,799.847,409.227,799.935,408.982z M800.026,407.681c-0.012-0.372-0.132-0.655-0.361-0.85
		s-0.509-0.291-0.838-0.291c-0.352,0-0.643,0.103-0.872,0.307c-0.229,0.205-0.343,0.483-0.339,0.834H800.026z"/>
	<path d="M808.483,410.531h-1.612v-2.483c0-0.525-0.034-0.865-0.104-1.02c-0.068-0.154-0.181-0.274-0.335-0.36
		c-0.155-0.085-0.342-0.128-0.56-0.128c-0.279,0-0.53,0.062-0.752,0.184s-0.374,0.284-0.456,0.485
		c-0.082,0.202-0.123,0.574-0.123,1.118v2.204h-1.612v-4.866h1.497v0.715c0.532-0.55,1.201-0.825,2.009-0.825
		c0.355,0,0.681,0.052,0.975,0.153c0.295,0.103,0.518,0.233,0.669,0.393c0.151,0.158,0.256,0.339,0.315,0.54
		c0.06,0.202,0.089,0.49,0.089,0.866V410.531z"/>
	<path d="M813.647,408.982l1.606,0.216c-0.207,0.47-0.532,0.828-0.979,1.074c-0.445,0.246-1.003,0.369-1.672,0.369
		c-1.06,0-1.844-0.276-2.353-0.83c-0.401-0.442-0.603-1.002-0.603-1.677c0-0.807,0.264-1.438,0.792-1.895
		c0.527-0.457,1.195-0.686,2.002-0.686c0.906,0,1.622,0.239,2.146,0.718c0.524,0.478,0.775,1.21,0.752,2.196h-4.039
		c0.012,0.383,0.142,0.68,0.39,0.892c0.249,0.213,0.559,0.318,0.93,0.318c0.253,0,0.465-0.055,0.637-0.165
		C813.43,409.404,813.56,409.227,813.647,408.982z M813.739,407.681c-0.012-0.372-0.132-0.655-0.361-0.85s-0.509-0.291-0.838-0.291
		c-0.352,0-0.643,0.103-0.872,0.307c-0.229,0.205-0.343,0.483-0.339,0.834H813.739z"/>
	<path d="M818.197,410.531h-1.612v-4.866h1.498v0.691c0.256-0.326,0.486-0.542,0.691-0.646c0.204-0.104,0.437-0.156,0.696-0.156
		c0.367,0,0.722,0.081,1.062,0.243l-0.499,1.123c-0.271-0.141-0.523-0.211-0.757-0.211c-0.227,0-0.417,0.05-0.574,0.148
		c-0.157,0.1-0.28,0.279-0.37,0.539c-0.09,0.259-0.135,0.803-0.135,1.631V410.531z"/>
	<path d="M821.078,410.852l1.842,0.179c0.03,0.172,0.102,0.289,0.212,0.354c0.153,0.092,0.395,0.138,0.724,0.138
		c0.42,0,0.735-0.051,0.946-0.151c0.142-0.067,0.249-0.176,0.321-0.325c0.05-0.107,0.074-0.305,0.074-0.592v-0.71
		c-0.481,0.525-1.09,0.788-1.824,0.788c-0.818,0-1.467-0.276-1.945-0.829c-0.375-0.438-0.562-0.98-0.562-1.632
		c0-0.815,0.245-1.438,0.736-1.869c0.492-0.431,1.103-0.646,1.834-0.646c0.753,0,1.375,0.265,1.864,0.793v-0.683h1.509v4.367
		c0,0.574-0.059,1.003-0.178,1.287c-0.118,0.284-0.285,0.507-0.499,0.669s-0.5,0.289-0.857,0.381
		c-0.358,0.091-0.811,0.137-1.357,0.137c-1.032,0-1.765-0.141-2.197-0.424c-0.433-0.282-0.648-0.641-0.648-1.074
		C821.072,410.965,821.074,410.913,821.078,410.852z M822.519,407.997c0,0.517,0.125,0.895,0.375,1.135
		c0.251,0.239,0.56,0.359,0.927,0.359c0.395,0,0.727-0.123,0.999-0.369c0.271-0.246,0.407-0.61,0.407-1.093
		c0-0.504-0.13-0.878-0.391-1.123c-0.26-0.244-0.589-0.366-0.986-0.366c-0.387,0-0.705,0.12-0.956,0.359
		C822.644,407.14,822.519,407.506,822.519,407.997z"/>
	<path d="M827.642,405.665h1.716l1.457,3.455l1.423-3.455h1.67l-2.151,4.683l-0.385,0.848c-0.142,0.284-0.276,0.501-0.404,0.651
		c-0.128,0.149-0.275,0.271-0.441,0.364c-0.167,0.093-0.371,0.165-0.614,0.218c-0.243,0.052-0.518,0.077-0.823,0.077
		c-0.31,0-0.614-0.025-0.912-0.077l-0.144-1.009c0.252,0.04,0.479,0.06,0.683,0.06c0.375,0,0.652-0.088,0.832-0.264
		c0.18-0.175,0.317-0.399,0.413-0.671L827.642,405.665z"/>
	<path d="M788.893,421.793h-1.612v-2.483c0-0.525-0.034-0.865-0.104-1.02c-0.068-0.154-0.181-0.274-0.335-0.36
		c-0.155-0.085-0.342-0.128-0.56-0.128c-0.279,0-0.53,0.062-0.752,0.184s-0.374,0.284-0.456,0.485
		c-0.082,0.202-0.123,0.574-0.123,1.118v2.204h-1.612v-4.866h1.497v0.715c0.532-0.55,1.201-0.825,2.009-0.825
		c0.355,0,0.681,0.052,0.975,0.153c0.295,0.103,0.518,0.233,0.669,0.393c0.151,0.158,0.256,0.339,0.315,0.54
		c0.06,0.202,0.089,0.49,0.089,0.866V421.793z"/>
	<path d="M794.538,421.793v-0.729c-0.222,0.26-0.513,0.464-0.875,0.614c-0.361,0.149-0.742,0.225-1.145,0.225
		c-0.409,0-0.776-0.072-1.102-0.216s-0.561-0.345-0.705-0.604c-0.146-0.26-0.219-0.619-0.219-1.077v-3.079h1.612v2.236
		c0,0.684,0.03,1.104,0.089,1.258c0.06,0.154,0.168,0.276,0.324,0.366c0.157,0.09,0.356,0.135,0.597,0.135
		c0.275,0,0.522-0.06,0.74-0.181c0.219-0.12,0.367-0.271,0.448-0.449c0.08-0.179,0.12-0.616,0.12-1.313v-2.053h1.612v4.866H794.538z
		"/>
	<path d="M803.019,418.365l-1.589,0.229c-0.054-0.254-0.175-0.444-0.364-0.573c-0.189-0.128-0.436-0.192-0.737-0.192
		c-0.402,0-0.723,0.111-0.961,0.332c-0.239,0.222-0.359,0.593-0.359,1.111c0,0.577,0.122,0.985,0.364,1.224
		c0.243,0.238,0.569,0.357,0.979,0.357c0.306,0,0.557-0.069,0.752-0.208c0.195-0.14,0.333-0.379,0.413-0.718l1.583,0.216
		c-0.164,0.58-0.479,1.019-0.946,1.314c-0.467,0.297-1.092,0.445-1.876,0.445c-0.892,0-1.602-0.225-2.132-0.674
		c-0.529-0.449-0.795-1.071-0.795-1.865c0-0.804,0.267-1.429,0.798-1.876c0.531-0.448,1.251-0.672,2.157-0.672
		c0.742,0,1.332,0.128,1.771,0.383C802.513,417.454,802.827,417.843,803.019,418.365z"/>
	<path d="M804.241,421.793v-6.718h1.612v6.718H804.241z"/>
	<path d="M811.034,420.244l1.606,0.216c-0.207,0.47-0.532,0.828-0.979,1.074c-0.445,0.246-1.003,0.369-1.672,0.369
		c-1.06,0-1.844-0.276-2.353-0.83c-0.401-0.442-0.603-1.002-0.603-1.677c0-0.807,0.264-1.438,0.792-1.895
		c0.527-0.457,1.195-0.686,2.002-0.686c0.906,0,1.622,0.239,2.146,0.718c0.524,0.478,0.775,1.21,0.752,2.196h-4.039
		c0.012,0.383,0.142,0.68,0.39,0.892c0.249,0.213,0.559,0.318,0.93,0.318c0.253,0,0.465-0.055,0.637-0.165
		C810.816,420.666,810.946,420.488,811.034,420.244z M811.126,418.942c-0.012-0.372-0.132-0.655-0.361-0.85
		s-0.509-0.291-0.838-0.291c-0.352,0-0.643,0.103-0.872,0.307c-0.229,0.205-0.343,0.483-0.339,0.834H811.126z"/>
	<path d="M815.245,418.411l-1.463-0.211c0.165-0.47,0.448-0.818,0.85-1.045c0.401-0.226,0.998-0.339,1.79-0.339
		c0.719,0,1.255,0.068,1.606,0.204s0.6,0.309,0.743,0.518c0.144,0.21,0.215,0.594,0.215,1.152l-0.018,1.503
		c0,0.428,0.026,0.743,0.078,0.946s0.148,0.421,0.29,0.653h-1.596c-0.042-0.086-0.094-0.212-0.154-0.38
		c-0.027-0.077-0.046-0.127-0.058-0.151c-0.275,0.214-0.57,0.374-0.884,0.48c-0.313,0.107-0.648,0.161-1.004,0.161
		c-0.628,0-1.122-0.137-1.483-0.408s-0.542-0.615-0.542-1.031c0-0.274,0.082-0.52,0.247-0.735c0.164-0.215,0.395-0.38,0.69-0.495
		c0.297-0.114,0.725-0.214,1.283-0.3c0.753-0.113,1.275-0.219,1.566-0.316v-0.128c0-0.247-0.077-0.424-0.229-0.529
		c-0.153-0.105-0.442-0.158-0.867-0.158c-0.286,0-0.511,0.045-0.671,0.135C815.475,418.027,815.345,418.186,815.245,418.411z
		 M817.403,419.456c-0.207,0.055-0.534,0.121-0.981,0.197s-0.74,0.151-0.878,0.225c-0.21,0.119-0.315,0.27-0.315,0.453
		c0,0.181,0.084,0.336,0.252,0.468c0.169,0.131,0.383,0.197,0.643,0.197c0.291,0,0.568-0.077,0.832-0.229
		c0.195-0.116,0.323-0.258,0.385-0.426c0.042-0.11,0.063-0.319,0.063-0.628V419.456z"/>
	<path d="M822.119,421.793h-1.612v-4.866h1.498v0.691c0.256-0.326,0.486-0.542,0.691-0.646c0.204-0.104,0.437-0.156,0.696-0.156
		c0.367,0,0.722,0.081,1.062,0.243l-0.499,1.123c-0.271-0.141-0.523-0.211-0.757-0.211c-0.227,0-0.417,0.05-0.574,0.148
		c-0.157,0.1-0.28,0.279-0.37,0.539c-0.09,0.259-0.135,0.803-0.135,1.631V421.793z"/>
	<path d="M777.714,433.054h-1.612v-4.866h1.498v0.691c0.256-0.326,0.486-0.542,0.691-0.646c0.204-0.104,0.437-0.156,0.696-0.156
		c0.367,0,0.722,0.081,1.062,0.243l-0.499,1.123c-0.271-0.141-0.523-0.211-0.757-0.211c-0.227,0-0.417,0.05-0.574,0.148
		c-0.157,0.1-0.28,0.279-0.37,0.539c-0.09,0.259-0.135,0.803-0.135,1.631V433.054z"/>
	<path d="M784.272,431.505l1.606,0.216c-0.207,0.47-0.532,0.828-0.979,1.074c-0.445,0.246-1.003,0.369-1.672,0.369
		c-1.06,0-1.844-0.276-2.353-0.83c-0.401-0.442-0.603-1.002-0.603-1.677c0-0.807,0.264-1.438,0.792-1.895
		c0.527-0.457,1.195-0.686,2.002-0.686c0.906,0,1.622,0.239,2.146,0.718c0.524,0.478,0.775,1.21,0.752,2.196h-4.039
		c0.012,0.383,0.142,0.68,0.39,0.892c0.249,0.213,0.559,0.318,0.93,0.318c0.253,0,0.465-0.055,0.637-0.165
		C784.055,431.927,784.185,431.749,784.272,431.505z M784.364,430.203c-0.012-0.372-0.132-0.655-0.361-0.85
		s-0.509-0.291-0.838-0.291c-0.352,0-0.643,0.103-0.872,0.307c-0.229,0.205-0.343,0.483-0.339,0.834H784.364z"/>
	<path d="M788.483,429.672l-1.463-0.211c0.165-0.47,0.448-0.818,0.85-1.045c0.401-0.226,0.998-0.339,1.79-0.339
		c0.719,0,1.255,0.068,1.606,0.204s0.6,0.309,0.743,0.518c0.144,0.21,0.215,0.594,0.215,1.152l-0.018,1.503
		c0,0.428,0.026,0.743,0.078,0.946s0.148,0.421,0.29,0.653h-1.596c-0.042-0.086-0.094-0.212-0.154-0.38
		c-0.027-0.077-0.046-0.127-0.058-0.151c-0.275,0.214-0.57,0.374-0.884,0.48c-0.313,0.107-0.648,0.161-1.004,0.161
		c-0.628,0-1.122-0.137-1.483-0.408s-0.542-0.615-0.542-1.031c0-0.274,0.082-0.52,0.247-0.735c0.164-0.215,0.395-0.38,0.69-0.495
		c0.297-0.114,0.725-0.214,1.283-0.3c0.753-0.113,1.275-0.219,1.566-0.316v-0.128c0-0.247-0.077-0.424-0.229-0.529
		c-0.153-0.105-0.442-0.158-0.867-0.158c-0.286,0-0.511,0.045-0.671,0.135C788.713,429.288,788.583,429.446,788.483,429.672z
		 M790.642,430.717c-0.207,0.055-0.534,0.121-0.981,0.197s-0.74,0.151-0.878,0.225c-0.21,0.119-0.315,0.27-0.315,0.453
		c0,0.181,0.084,0.336,0.252,0.468c0.169,0.131,0.383,0.197,0.643,0.197c0.291,0,0.568-0.077,0.832-0.229
		c0.195-0.116,0.323-0.258,0.385-0.426c0.042-0.11,0.063-0.319,0.063-0.628V430.717z"/>
	<path d="M799.127,429.626l-1.589,0.229c-0.054-0.254-0.175-0.444-0.364-0.573c-0.189-0.128-0.436-0.192-0.737-0.192
		c-0.402,0-0.723,0.111-0.961,0.332c-0.239,0.222-0.359,0.593-0.359,1.111c0,0.577,0.122,0.985,0.364,1.224
		c0.243,0.238,0.569,0.357,0.979,0.357c0.306,0,0.557-0.069,0.752-0.208c0.195-0.14,0.333-0.379,0.413-0.718l1.583,0.216
		c-0.164,0.58-0.479,1.019-0.946,1.314c-0.467,0.297-1.092,0.445-1.876,0.445c-0.892,0-1.602-0.225-2.132-0.674
		c-0.529-0.449-0.795-1.071-0.795-1.865c0-0.804,0.267-1.429,0.798-1.876c0.531-0.448,1.251-0.672,2.157-0.672
		c0.742,0,1.332,0.128,1.771,0.383C798.621,428.715,798.936,429.104,799.127,429.626z"/>
	<path d="M803.144,428.188v1.026h-1.102v1.961c0,0.397,0.011,0.629,0.031,0.694c0.021,0.065,0.069,0.12,0.144,0.163
		c0.074,0.042,0.165,0.063,0.272,0.063c0.149,0,0.365-0.041,0.648-0.123l0.138,0.999c-0.375,0.128-0.8,0.192-1.273,0.192
		c-0.291,0-0.553-0.039-0.786-0.117s-0.404-0.179-0.514-0.303c-0.109-0.123-0.185-0.291-0.227-0.502
		c-0.034-0.149-0.052-0.451-0.052-0.907v-2.121h-0.74v-1.026h0.74v-0.967l1.618-0.752v1.719H803.144z"/>
	<path d="M804.263,427.527v-1.191h1.612v1.191H804.263z M804.263,433.054v-4.866h1.612v4.866H804.263z"/>
	<path d="M807.154,430.552c0-0.428,0.132-0.842,0.396-1.242c0.264-0.399,0.638-0.705,1.122-0.916
		c0.483-0.211,1.024-0.316,1.621-0.316c0.921,0,1.677,0.239,2.266,0.718c0.589,0.478,0.884,1.082,0.884,1.812
		c0,0.736-0.298,1.347-0.893,1.831s-1.343,0.727-2.246,0.727c-0.559,0-1.091-0.102-1.598-0.303
		c-0.507-0.202-0.893-0.497-1.156-0.887S807.154,431.11,807.154,430.552z M808.807,430.62c0,0.483,0.144,0.853,0.43,1.109
		c0.287,0.257,0.641,0.385,1.062,0.385s0.774-0.128,1.059-0.385c0.285-0.257,0.428-0.629,0.428-1.118c0-0.477-0.143-0.843-0.428-1.1
		c-0.284-0.257-0.638-0.385-1.059-0.385s-0.774,0.128-1.062,0.385C808.95,429.769,808.807,430.138,808.807,430.62z"/>
	<path d="M820.247,433.054h-1.612v-2.483c0-0.525-0.034-0.865-0.104-1.02c-0.068-0.154-0.181-0.274-0.335-0.36
		c-0.155-0.085-0.342-0.128-0.56-0.128c-0.279,0-0.53,0.062-0.752,0.184s-0.374,0.284-0.456,0.485
		c-0.082,0.202-0.123,0.574-0.123,1.118v2.204h-1.612v-4.866h1.497v0.715c0.532-0.55,1.201-0.825,2.009-0.825
		c0.355,0,0.681,0.052,0.975,0.153c0.295,0.103,0.518,0.233,0.669,0.393c0.151,0.158,0.256,0.339,0.315,0.54
		c0.06,0.202,0.089,0.49,0.089,0.866V433.054z"/>
	<path d="M821.314,431.665l1.618-0.197c0.068,0.251,0.208,0.441,0.419,0.571c0.21,0.13,0.505,0.194,0.884,0.194
		c0.416,0,0.73-0.061,0.94-0.184c0.142-0.085,0.212-0.199,0.212-0.344c0-0.098-0.038-0.179-0.114-0.242
		c-0.08-0.062-0.26-0.118-0.539-0.17c-1.301-0.229-2.125-0.438-2.474-0.628c-0.481-0.263-0.723-0.627-0.723-1.095
		c0-0.422,0.209-0.776,0.626-1.063c0.416-0.287,1.063-0.431,1.938-0.431c0.834,0,1.454,0.108,1.859,0.325
		c0.405,0.218,0.685,0.538,0.838,0.963l-1.521,0.225c-0.065-0.189-0.188-0.335-0.37-0.436s-0.441-0.151-0.777-0.151
		c-0.425,0-0.729,0.048-0.912,0.143c-0.123,0.066-0.184,0.154-0.184,0.261c0,0.092,0.053,0.17,0.16,0.233
		c0.146,0.086,0.647,0.206,1.506,0.362c0.859,0.156,1.459,0.347,1.799,0.572c0.337,0.229,0.505,0.549,0.505,0.958
		c0,0.446-0.233,0.829-0.7,1.15c-0.466,0.32-1.156,0.481-2.07,0.481c-0.83,0-1.487-0.135-1.972-0.403
		C821.78,432.491,821.464,432.127,821.314,431.665z"/>
	<path d="M829.049,431.321l-0.419-3.409v-1.576h1.744v1.576l-0.413,3.409H829.049z M828.699,433.054v-1.288h1.611v1.288H828.699z"/>
</g>
<path opacity="0.5" fill="#29ABE2" d="M842.37,262.88v81.981H704.706c-8.952,0-16.273-7.191-16.273-15.979v-50.016
	c0-8.788,7.322-15.987,16.273-15.987H842.37z"/>
<rect x="850.011" y="262.88" opacity="0.5" fill="#29ABE2" width="11.597" height="81.981"/>
<use xlink:href="#Campground_2"  width="14.449" height="14.453" x="-7.225" y="-7.227" transform="matrix(4.818 0 0 -4.6118 731.454 302.0437)" overflow="visible" opacity="0.5"/>
<use xlink:href="#Alert"  width="67.162" height="60" id="XMLID_2_" x="-33.581" y="-30" transform="matrix(0.8756 0 0 -0.8756 731.7181 299.4024)" overflow="visible" opacity="0.9"/>
<g opacity="0.8">
	<path fill="#00001E" d="M772.688,278.209c0-1.044,0.171-1.92,0.515-2.629c0.256-0.521,0.605-0.99,1.048-1.405
		c0.443-0.414,0.928-0.722,1.455-0.923c0.701-0.27,1.511-0.405,2.427-0.405c1.659,0,2.986,0.469,3.982,1.405
		c0.995,0.938,1.493,2.24,1.493,3.908c0,1.655-0.494,2.951-1.482,3.884c-0.988,0.936-2.309,1.402-3.962,1.402
		c-1.675,0-3.006-0.465-3.993-1.395C773.183,281.122,772.688,279.841,772.688,278.209z M775.03,278.14c0,1.16,0.295,2.04,0.884,2.64
		c0.588,0.599,1.336,0.899,2.242,0.899s1.649-0.298,2.23-0.892c0.581-0.595,0.872-1.486,0.872-2.675
		c0-1.175-0.283-2.051-0.849-2.629c-0.566-0.578-1.317-0.867-2.254-0.867c-0.938,0-1.692,0.293-2.266,0.878
		S775.03,276.96,775.03,278.14z"/>
	<path fill="#00001E" d="M785.352,283.272v-10.25h3.402l2.043,6.992l2.02-6.992h3.409v10.25h-2.111v-8.069l-2.235,8.069h-2.188
		l-2.227-8.069v8.069H785.352z"/>
	<path fill="#00001E" d="M798.483,283.272v-10.25h8.348v1.734h-6.075v2.271h5.652v1.728h-5.652v2.791h6.29v1.727H798.483z"/>
	<path fill="#00001E" d="M814.211,279.503v-1.727h4.899v4.083c-0.477,0.419-1.166,0.789-2.07,1.108
		c-0.903,0.318-1.818,0.479-2.745,0.479c-1.178,0-2.204-0.225-3.079-0.675c-0.876-0.449-1.533-1.093-1.974-1.93
		c-0.44-0.837-0.66-1.747-0.66-2.73c0-1.067,0.245-2.016,0.737-2.846c0.491-0.829,1.21-1.466,2.157-1.908
		c0.722-0.341,1.62-0.511,2.695-0.511c1.398,0,2.489,0.267,3.275,0.801c0.786,0.533,1.292,1.271,1.517,2.213l-2.258,0.385
		c-0.158-0.504-0.456-0.901-0.895-1.192c-0.438-0.291-0.984-0.438-1.64-0.438c-0.993,0-1.782,0.287-2.369,0.86
		c-0.586,0.573-0.879,1.424-0.879,2.552c0,1.217,0.297,2.129,0.891,2.737c0.594,0.609,1.372,0.914,2.335,0.914
		c0.476,0,0.953-0.085,1.432-0.256c0.479-0.17,0.89-0.376,1.232-0.619v-1.301H814.211z"/>
	<path fill="#00001E" d="M831.358,283.272h-2.473l-0.982-2.329h-4.5l-0.93,2.329h-2.411l4.385-10.25h2.403L831.358,283.272z
		 M827.174,279.216l-1.552-3.803l-1.521,3.803H827.174z"/>
</g>
<g opacity="0.78">
	<path d="M776.371,308.521h-1.499v-2.65c0-0.562-0.032-0.924-0.096-1.089c-0.064-0.164-0.168-0.292-0.313-0.384
		c-0.144-0.091-0.317-0.137-0.52-0.137c-0.26,0-0.493,0.065-0.699,0.195c-0.206,0.131-0.348,0.304-0.424,0.519
		s-0.114,0.613-0.114,1.193v2.353h-1.499v-5.194h1.392v0.763c0.495-0.587,1.117-0.88,1.867-0.88c0.331,0,0.633,0.055,0.907,0.164
		c0.273,0.109,0.48,0.248,0.621,0.418s0.238,0.362,0.293,0.577c0.056,0.215,0.083,0.523,0.083,0.925V308.521z"/>
	<path d="M777.545,305.85c0-0.456,0.122-0.897,0.368-1.325c0.245-0.427,0.593-0.753,1.042-0.978c0.45-0.226,0.952-0.338,1.507-0.338
		c0.857,0,1.56,0.255,2.107,0.766c0.547,0.51,0.821,1.155,0.821,1.935c0,0.785-0.276,1.437-0.829,1.953
		c-0.554,0.518-1.249,0.775-2.089,0.775c-0.519,0-1.014-0.107-1.485-0.322c-0.471-0.216-0.829-0.531-1.074-0.946
		C777.667,306.953,777.545,306.446,777.545,305.85z M779.081,305.924c0,0.515,0.133,0.909,0.399,1.184
		c0.268,0.273,0.596,0.41,0.987,0.41c0.391,0,0.719-0.137,0.984-0.41c0.265-0.274,0.396-0.672,0.396-1.193
		c0-0.509-0.132-0.9-0.396-1.174c-0.266-0.274-0.594-0.411-0.984-0.411c-0.392,0-0.72,0.137-0.987,0.411
		C779.214,305.014,779.081,305.408,779.081,305.924z"/>
	<path d="M787.162,303.326v1.096h-1.024v2.094c0,0.424,0.01,0.671,0.029,0.74c0.02,0.07,0.064,0.128,0.134,0.174
		s0.153,0.068,0.253,0.068c0.139,0,0.34-0.044,0.603-0.132l0.128,1.066c-0.349,0.137-0.743,0.205-1.184,0.205
		c-0.271,0-0.514-0.041-0.73-0.125c-0.218-0.083-0.376-0.19-0.478-0.322s-0.172-0.311-0.211-0.535
		c-0.032-0.16-0.048-0.483-0.048-0.969v-2.265h-0.688v-1.096h0.688v-1.032l1.504-0.802v1.834H787.162z"/>
	<path d="M792.357,304.911l-1.36-0.226c0.153-0.502,0.416-0.873,0.789-1.114c0.374-0.241,0.929-0.362,1.664-0.362
		c0.669,0,1.167,0.072,1.494,0.218c0.327,0.145,0.557,0.329,0.69,0.553s0.2,0.633,0.2,1.229l-0.017,1.604
		c0,0.457,0.024,0.793,0.072,1.01s0.138,0.449,0.27,0.697h-1.482c-0.039-0.091-0.088-0.227-0.145-0.406
		c-0.024-0.081-0.042-0.135-0.053-0.161c-0.257,0.229-0.53,0.399-0.822,0.514c-0.291,0.114-0.603,0.171-0.933,0.171
		c-0.584,0-1.043-0.145-1.379-0.436c-0.336-0.29-0.504-0.656-0.504-1.1c0-0.294,0.076-0.556,0.229-0.785
		c0.152-0.23,0.366-0.406,0.643-0.528c0.275-0.122,0.673-0.229,1.191-0.32c0.701-0.121,1.187-0.233,1.456-0.338v-0.137
		c0-0.264-0.07-0.452-0.213-0.564c-0.143-0.113-0.411-0.169-0.806-0.169c-0.267,0-0.475,0.048-0.624,0.145
		C792.57,304.501,792.449,304.67,792.357,304.911z M794.362,306.026c-0.191,0.059-0.496,0.129-0.912,0.21
		c-0.416,0.082-0.688,0.161-0.815,0.24c-0.195,0.127-0.294,0.288-0.294,0.483c0,0.192,0.078,0.359,0.235,0.499
		c0.156,0.141,0.355,0.211,0.597,0.211c0.271,0,0.528-0.082,0.773-0.245c0.182-0.124,0.301-0.275,0.357-0.455
		c0.039-0.117,0.059-0.34,0.059-0.67V306.026z"/>
	<path d="M798.87,308.521l-2.283-5.194h1.573l1.067,2.651l0.309,0.885c0.082-0.225,0.134-0.373,0.155-0.445
		c0.05-0.146,0.103-0.293,0.16-0.439l1.077-2.651h1.541l-2.251,5.194H798.87z"/>
	<path d="M804.508,304.911l-1.36-0.226c0.153-0.502,0.416-0.873,0.789-1.114c0.374-0.241,0.929-0.362,1.664-0.362
		c0.669,0,1.167,0.072,1.494,0.218c0.327,0.145,0.557,0.329,0.69,0.553s0.2,0.633,0.2,1.229l-0.017,1.604
		c0,0.457,0.024,0.793,0.072,1.01s0.138,0.449,0.27,0.697h-1.482c-0.039-0.091-0.088-0.227-0.145-0.406
		c-0.024-0.081-0.042-0.135-0.053-0.161c-0.257,0.229-0.53,0.399-0.822,0.514c-0.291,0.114-0.603,0.171-0.933,0.171
		c-0.584,0-1.043-0.145-1.379-0.436c-0.336-0.29-0.504-0.656-0.504-1.1c0-0.294,0.076-0.556,0.229-0.785
		c0.152-0.23,0.366-0.406,0.643-0.528c0.275-0.122,0.673-0.229,1.191-0.32c0.701-0.121,1.187-0.233,1.456-0.338v-0.137
		c0-0.264-0.07-0.452-0.213-0.564c-0.143-0.113-0.411-0.169-0.806-0.169c-0.267,0-0.475,0.048-0.624,0.145
		C804.721,304.501,804.6,304.67,804.508,304.911z M806.513,306.026c-0.191,0.059-0.496,0.129-0.912,0.21
		c-0.416,0.082-0.688,0.161-0.815,0.24c-0.195,0.127-0.294,0.288-0.294,0.483c0,0.192,0.078,0.359,0.235,0.499
		c0.156,0.141,0.355,0.211,0.597,0.211c0.271,0,0.528-0.082,0.773-0.245c0.182-0.124,0.301-0.275,0.357-0.455
		c0.039-0.117,0.059-0.34,0.059-0.67V306.026z"/>
	<path d="M809.463,302.622v-1.271h1.499v1.271H809.463z M809.463,308.521v-5.194h1.499v5.194H809.463z"/>
	<path d="M812.498,308.521v-7.17h1.499v7.17H812.498z"/>
	<path d="M816.653,304.911l-1.36-0.226c0.153-0.502,0.416-0.873,0.789-1.114c0.374-0.241,0.929-0.362,1.664-0.362
		c0.669,0,1.167,0.072,1.494,0.218c0.327,0.145,0.557,0.329,0.69,0.553s0.2,0.633,0.2,1.229l-0.017,1.604
		c0,0.457,0.024,0.793,0.072,1.01s0.138,0.449,0.27,0.697h-1.482c-0.039-0.091-0.088-0.227-0.145-0.406
		c-0.024-0.081-0.042-0.135-0.053-0.161c-0.257,0.229-0.53,0.399-0.822,0.514c-0.291,0.114-0.603,0.171-0.933,0.171
		c-0.584,0-1.043-0.145-1.379-0.436c-0.336-0.29-0.504-0.656-0.504-1.1c0-0.294,0.076-0.556,0.229-0.785
		c0.152-0.23,0.366-0.406,0.643-0.528c0.275-0.122,0.673-0.229,1.191-0.32c0.701-0.121,1.187-0.233,1.456-0.338v-0.137
		c0-0.264-0.07-0.452-0.213-0.564c-0.143-0.113-0.411-0.169-0.806-0.169c-0.267,0-0.475,0.048-0.624,0.145
		C816.866,304.501,816.745,304.67,816.653,304.911z M818.658,306.026c-0.191,0.059-0.496,0.129-0.912,0.21
		c-0.416,0.082-0.688,0.161-0.815,0.24c-0.195,0.127-0.294,0.288-0.294,0.483c0,0.192,0.078,0.359,0.235,0.499
		c0.156,0.141,0.355,0.211,0.597,0.211c0.271,0,0.528-0.082,0.773-0.245c0.182-0.124,0.301-0.275,0.357-0.455
		c0.039-0.117,0.059-0.34,0.059-0.67V306.026z"/>
	<path d="M821.544,308.521v-7.17h1.499v2.582c0.462-0.482,1.01-0.724,1.643-0.724c0.69,0,1.261,0.229,1.712,0.688
		c0.452,0.458,0.678,1.115,0.678,1.974c0,0.887-0.23,1.569-0.69,2.049c-0.461,0.479-1.02,0.719-1.678,0.719
		c-0.323,0-0.643-0.074-0.957-0.223s-0.586-0.367-0.813-0.657v0.763H821.544z M823.032,305.811c0,0.538,0.093,0.937,0.277,1.193
		c0.26,0.365,0.604,0.548,1.035,0.548c0.33,0,0.612-0.129,0.845-0.389c0.233-0.259,0.35-0.667,0.35-1.225
		c0-0.594-0.117-1.021-0.352-1.284c-0.235-0.263-0.535-0.394-0.901-0.394c-0.359,0-0.658,0.128-0.896,0.384
		S823.032,305.289,823.032,305.811z"/>
	<path d="M828.281,308.521v-7.17h1.499v7.17H828.281z"/>
	<path d="M834.597,306.867l1.493,0.23c-0.192,0.502-0.495,0.884-0.909,1.146s-0.933,0.394-1.555,0.394
		c-0.985,0-1.714-0.295-2.188-0.885c-0.373-0.473-0.56-1.069-0.56-1.79c0-0.861,0.245-1.535,0.736-2.022
		c0.49-0.487,1.111-0.731,1.861-0.731c0.843,0,1.508,0.255,1.995,0.766c0.486,0.51,0.72,1.292,0.698,2.345h-3.755
		c0.011,0.408,0.132,0.725,0.362,0.951c0.231,0.227,0.52,0.34,0.864,0.34c0.234,0,0.433-0.059,0.592-0.176
		C834.394,307.317,834.515,307.128,834.597,306.867z M834.682,305.479c-0.011-0.397-0.122-0.7-0.336-0.907
		c-0.213-0.207-0.473-0.311-0.778-0.311c-0.327,0-0.598,0.109-0.811,0.327c-0.214,0.219-0.318,0.516-0.315,0.891H834.682z"/>
	<path d="M788.517,320.54h-1.499v-2.65c0-0.562-0.032-0.924-0.096-1.089c-0.064-0.164-0.168-0.292-0.313-0.384
		c-0.144-0.091-0.317-0.137-0.52-0.137c-0.26,0-0.493,0.065-0.699,0.195c-0.206,0.131-0.348,0.304-0.424,0.519
		s-0.114,0.613-0.114,1.193v2.353h-1.499v-5.194h1.392v0.763c0.495-0.587,1.117-0.88,1.867-0.88c0.331,0,0.633,0.055,0.907,0.164
		c0.273,0.109,0.48,0.248,0.621,0.418s0.238,0.362,0.293,0.577c0.056,0.215,0.083,0.523,0.083,0.925V320.54z"/>
	<path d="M793.317,318.887l1.493,0.23c-0.192,0.502-0.495,0.884-0.909,1.146s-0.933,0.394-1.555,0.394
		c-0.985,0-1.714-0.295-2.188-0.885c-0.373-0.473-0.56-1.069-0.56-1.79c0-0.861,0.245-1.535,0.736-2.022
		c0.49-0.487,1.111-0.731,1.861-0.731c0.843,0,1.508,0.255,1.995,0.766c0.486,0.51,0.72,1.292,0.698,2.345h-3.755
		c0.011,0.408,0.132,0.725,0.362,0.951c0.231,0.227,0.52,0.34,0.864,0.34c0.234,0,0.433-0.059,0.592-0.176
		C793.114,319.337,793.235,319.147,793.317,318.887z M793.402,317.498c-0.011-0.397-0.122-0.7-0.336-0.907
		c-0.213-0.207-0.473-0.311-0.778-0.311c-0.327,0-0.598,0.109-0.811,0.327c-0.214,0.219-0.318,0.516-0.315,0.891H793.402z"/>
	<path d="M798.71,315.346v1.096h-1.024v2.094c0,0.424,0.01,0.671,0.029,0.74c0.02,0.07,0.064,0.128,0.134,0.174
		s0.153,0.068,0.253,0.068c0.139,0,0.34-0.044,0.603-0.132l0.128,1.066c-0.349,0.137-0.743,0.205-1.184,0.205
		c-0.271,0-0.514-0.041-0.73-0.125c-0.218-0.083-0.376-0.19-0.478-0.322s-0.172-0.311-0.211-0.535
		c-0.032-0.16-0.048-0.483-0.048-0.969v-2.265h-0.688v-1.096h0.688v-1.032l1.504-0.802v1.834H798.71z"/>
	<path d="M800.806,320.54l-1.792-5.194h1.456l1.062,3.404l0.977-3.404h1.445l0.943,3.404l1.083-3.404h1.478l-1.818,5.194h-1.44
		l-0.977-3.341l-0.96,3.341H800.806z"/>
	<path d="M807.899,317.869c0-0.456,0.122-0.897,0.368-1.325c0.245-0.427,0.593-0.753,1.042-0.978
		c0.45-0.226,0.952-0.338,1.507-0.338c0.857,0,1.56,0.255,2.107,0.766c0.547,0.51,0.821,1.155,0.821,1.935
		c0,0.785-0.276,1.437-0.829,1.953c-0.554,0.518-1.249,0.775-2.089,0.775c-0.519,0-1.014-0.107-1.485-0.322
		c-0.471-0.216-0.829-0.531-1.074-0.946C808.021,318.973,807.899,318.466,807.899,317.869z M809.436,317.943
		c0,0.515,0.133,0.909,0.399,1.184c0.268,0.273,0.596,0.41,0.987,0.41c0.391,0,0.719-0.137,0.984-0.41
		c0.265-0.274,0.396-0.672,0.396-1.193c0-0.509-0.132-0.9-0.396-1.174c-0.266-0.274-0.594-0.411-0.984-0.411
		c-0.392,0-0.72,0.137-0.987,0.411C809.568,317.033,809.436,317.428,809.436,317.943z"/>
	<path d="M816.354,320.54h-1.499v-5.194h1.393v0.738c0.238-0.349,0.452-0.578,0.643-0.689c0.19-0.11,0.406-0.166,0.648-0.166
		c0.341,0,0.67,0.086,0.986,0.259l-0.464,1.198c-0.253-0.149-0.487-0.225-0.704-0.225c-0.21,0-0.388,0.053-0.533,0.159
		c-0.146,0.105-0.261,0.298-0.345,0.574c-0.083,0.277-0.125,0.857-0.125,1.741V320.54z"/>
	<path d="M819.116,320.54v-7.17h1.499v3.805l1.755-1.829h1.846l-1.937,1.897l2.075,3.297h-1.616l-1.425-2.333l-0.698,0.67v1.663
		H819.116z"/>
	<path d="M780.112,328.902l-1.477,0.244c-0.051-0.271-0.163-0.475-0.339-0.611c-0.177-0.137-0.405-0.205-0.686-0.205
		c-0.373,0-0.671,0.118-0.894,0.354s-0.333,0.632-0.333,1.186c0,0.616,0.112,1.052,0.338,1.307c0.227,0.254,0.529,0.381,0.91,0.381
		c0.284,0,0.517-0.074,0.698-0.223c0.182-0.147,0.31-0.403,0.384-0.765l1.473,0.229c-0.153,0.619-0.446,1.088-0.88,1.403
		c-0.435,0.316-1.016,0.475-1.744,0.475c-0.829,0-1.489-0.239-1.981-0.719c-0.493-0.479-0.739-1.143-0.739-1.99
		c0-0.857,0.247-1.525,0.741-2.003s1.163-0.717,2.006-0.717c0.689,0,1.238,0.136,1.646,0.408S779.935,328.345,780.112,328.902z"/>
	<path d="M780.902,329.89c0-0.456,0.122-0.897,0.368-1.325c0.245-0.427,0.593-0.753,1.042-0.978c0.45-0.226,0.952-0.338,1.507-0.338
		c0.857,0,1.56,0.255,2.107,0.766c0.547,0.51,0.821,1.155,0.821,1.935c0,0.785-0.276,1.437-0.829,1.953
		c-0.554,0.518-1.249,0.775-2.089,0.775c-0.519,0-1.014-0.107-1.485-0.322c-0.471-0.216-0.829-0.531-1.074-0.946
		C781.024,330.993,780.902,330.486,780.902,329.89z M782.438,329.964c0,0.515,0.133,0.909,0.399,1.184
		c0.268,0.273,0.596,0.41,0.987,0.41c0.391,0,0.719-0.137,0.984-0.41c0.265-0.274,0.396-0.672,0.396-1.193
		c0-0.509-0.132-0.9-0.396-1.174c-0.266-0.274-0.594-0.411-0.984-0.411c-0.392,0-0.72,0.137-0.987,0.411
		C782.571,329.054,782.438,329.448,782.438,329.964z"/>
	<path d="M793.074,332.561h-1.499v-2.65c0-0.562-0.032-0.924-0.096-1.089c-0.064-0.164-0.168-0.292-0.313-0.384
		c-0.144-0.091-0.317-0.137-0.52-0.137c-0.26,0-0.493,0.065-0.699,0.195c-0.206,0.131-0.348,0.304-0.424,0.519
		s-0.114,0.613-0.114,1.193v2.353h-1.499v-5.194h1.392v0.763c0.495-0.587,1.117-0.88,1.867-0.88c0.331,0,0.633,0.055,0.907,0.164
		c0.273,0.109,0.48,0.248,0.621,0.418s0.238,0.362,0.293,0.577c0.056,0.215,0.083,0.523,0.083,0.925V332.561z"/>
	<path d="M799.747,332.561h-1.499v-2.65c0-0.562-0.032-0.924-0.096-1.089c-0.064-0.164-0.168-0.292-0.313-0.384
		c-0.144-0.091-0.317-0.137-0.52-0.137c-0.26,0-0.493,0.065-0.699,0.195c-0.206,0.131-0.348,0.304-0.424,0.519
		s-0.114,0.613-0.114,1.193v2.353h-1.499v-5.194h1.392v0.763c0.495-0.587,1.117-0.88,1.867-0.88c0.331,0,0.633,0.055,0.907,0.164
		c0.273,0.109,0.48,0.248,0.621,0.418s0.238,0.362,0.293,0.577c0.056,0.215,0.083,0.523,0.083,0.925V332.561z"/>
	<path d="M804.548,330.907l1.493,0.23c-0.192,0.502-0.495,0.884-0.909,1.146s-0.933,0.394-1.555,0.394
		c-0.985,0-1.714-0.295-2.188-0.885c-0.373-0.473-0.56-1.069-0.56-1.79c0-0.861,0.245-1.535,0.736-2.022
		c0.49-0.487,1.111-0.731,1.861-0.731c0.843,0,1.508,0.255,1.995,0.766c0.486,0.51,0.72,1.292,0.698,2.345h-3.755
		c0.011,0.408,0.132,0.725,0.362,0.951c0.231,0.227,0.52,0.34,0.864,0.34c0.234,0,0.433-0.059,0.592-0.176
		C804.345,331.357,804.466,331.168,804.548,330.907z M804.633,329.519c-0.011-0.397-0.122-0.7-0.336-0.907
		c-0.213-0.207-0.473-0.311-0.778-0.311c-0.327,0-0.598,0.109-0.811,0.327c-0.214,0.219-0.318,0.516-0.315,0.891H804.633z"/>
	<path d="M812.281,328.902l-1.477,0.244c-0.051-0.271-0.163-0.475-0.339-0.611c-0.177-0.137-0.405-0.205-0.686-0.205
		c-0.373,0-0.671,0.118-0.894,0.354s-0.333,0.632-0.333,1.186c0,0.616,0.112,1.052,0.338,1.307c0.227,0.254,0.529,0.381,0.91,0.381
		c0.284,0,0.517-0.074,0.698-0.223c0.182-0.147,0.31-0.403,0.384-0.765l1.473,0.229c-0.153,0.619-0.446,1.088-0.88,1.403
		c-0.435,0.316-1.016,0.475-1.744,0.475c-0.829,0-1.489-0.239-1.981-0.719c-0.493-0.479-0.739-1.143-0.739-1.99
		c0-0.857,0.247-1.525,0.741-2.003s1.163-0.717,2.006-0.717c0.689,0,1.238,0.136,1.646,0.408S812.104,328.345,812.281,328.902z"/>
	<path d="M816.016,327.366v1.096h-1.024v2.094c0,0.424,0.01,0.671,0.029,0.74c0.02,0.07,0.064,0.128,0.134,0.174
		s0.153,0.068,0.253,0.068c0.139,0,0.34-0.044,0.603-0.132l0.128,1.066c-0.349,0.137-0.743,0.205-1.184,0.205
		c-0.271,0-0.514-0.041-0.73-0.125c-0.218-0.083-0.376-0.19-0.478-0.322s-0.172-0.311-0.211-0.535
		c-0.032-0.16-0.048-0.483-0.048-0.969v-2.265h-0.688v-1.096h0.688v-1.032l1.504-0.802v1.834H816.016z"/>
	<path d="M817.056,326.662v-1.271h1.499v1.271H817.056z M817.056,332.561v-5.194h1.499v5.194H817.056z"/>
	<path d="M819.744,329.89c0-0.456,0.122-0.897,0.368-1.325c0.245-0.427,0.593-0.753,1.042-0.978c0.45-0.226,0.952-0.338,1.507-0.338
		c0.857,0,1.56,0.255,2.107,0.766c0.547,0.51,0.821,1.155,0.821,1.935c0,0.785-0.276,1.437-0.829,1.953
		c-0.554,0.518-1.249,0.775-2.089,0.775c-0.519,0-1.014-0.107-1.485-0.322c-0.471-0.216-0.829-0.531-1.074-0.946
		C819.866,330.993,819.744,330.486,819.744,329.89z M821.28,329.964c0,0.515,0.133,0.909,0.399,1.184
		c0.268,0.273,0.596,0.41,0.987,0.41c0.391,0,0.719-0.137,0.984-0.41c0.265-0.274,0.396-0.672,0.396-1.193
		c0-0.509-0.132-0.9-0.396-1.174c-0.266-0.274-0.594-0.411-0.984-0.411c-0.392,0-0.72,0.137-0.987,0.411
		C821.413,329.054,821.28,329.448,821.28,329.964z"/>
	<path d="M831.916,332.561h-1.499v-2.65c0-0.562-0.032-0.924-0.096-1.089c-0.064-0.164-0.168-0.292-0.313-0.384
		c-0.144-0.091-0.317-0.137-0.52-0.137c-0.26,0-0.493,0.065-0.699,0.195c-0.206,0.131-0.348,0.304-0.424,0.519
		s-0.114,0.613-0.114,1.193v2.353h-1.499v-5.194h1.392v0.763c0.495-0.587,1.117-0.88,1.867-0.88c0.331,0,0.633,0.055,0.907,0.164
		c0.273,0.109,0.48,0.248,0.621,0.418s0.238,0.362,0.293,0.577c0.056,0.215,0.083,0.523,0.083,0.925V332.561z"/>
</g>
<path opacity="0.84" fill="#42DFC3" stroke="#0AFAAC" stroke-miterlimit="10" d="M687.667,129.688c0,0.935,1.945-0.767,5.402,0
	c1.729-1.294,3.835-0.775,6.266-0.192c2.431,2.625,5.186-5.851,8.211,0.192c1.513,1.399,3.093-0.474,4.733,3.353
	c1.641-0.396,3.342,4.44,5.098,0.822c1.756,0.294,3.565-2.411,5.422-6.081c1.857,4.469,3.761-1.282,5.706,1.906
	c0.648,9.301,1.301,6.644,1.958,7.132c0.657,0.483,1.318,2.023,1.983,0.526c1.33,8.083,2.677,5.41,4.037,0.37
	c0.68,0.186,1.364-0.855,2.051-5.62c0.687,1.061,1.377-0.419,2.07,2.757c0.693,2.951,1.389,5.495,2.088,5.776
	c0.699,1.31,1.401,0.096,2.105-5.568c1.409-6.447,2.827-6.279,4.253-4.146c0.713,4.172,1.428-6.992,2.145-5.245
	c0.359-6.747,0.717,5.816,1.077-3.086c0.18-0.531,0.359,6.758,0.539,5.129c0.18,0.394,0.36,5.754,0.54,1.977
	c1.08-6.253,2.164-5.835,3.25-1.812c1.086,5.043,2.175-2.308,3.266,3.814c0.545-2.59,1.091-6.158,1.637-2.613
	c0.546,0.059,1.092,7.479,1.639,6.563c0.273-4.198,0.547-6.737,0.82-6.735c0.273,4.508,0.547,0.539,0.82,1.952
	c0.547-1.195,1.094,5.329,1.641,0.219c1.094,12.39,2.188,4.031,3.281,2.71c1.093,4.984,2.185-1.611,3.276-7.007
	c1.09,5.021,2.179-7.007,3.266-1.358c1.086-2.364,2.17,4.507,3.25,4.267c0.54,7.499,1.079-0.209,1.618,1.837
	c0.538-1.889,1.076,0.788,1.612-6.441c0.268-0.687,0.536,10.732,0.804,7.915c0.268,1.109,0.535,1.49,0.802-0.981
	c0.534-6.413,1.067-3.182,1.599-2.33c1.063-2.426,2.122-2.877,3.174-4.944c0.526-5.627,1.051-1.269,1.574-1.981
	c0.523-4.112,1.045,10.639,1.565,6.925c1.04-3.069,2.073,3.661,3.098-2.32c1.026-0.372,2.043,0.348,3.053,2.32
	c2.019-4.509,4.004-6.728,5.949,0c0.972-2.693,1.935-3.836,2.886-2.33c0.951,11.751,1.891-0.757,2.82,1.616
	c0.928,0.333,1.845,0.034,2.749,1.515c0.452,3.27,0.901,3.928,1.346,4.204c0.446,4.58,0.888,4.266,1.327-5.005
	c1.756,1.855,3.457-1.997,5.098,0.786c1.641,3.279,3.221-4.578,4.733-0.786c1.513,7.184,2.957,2.621,4.328,3.864
	c1.371-3.722,2.667-1.374,3.883-3.864c2.431-0.296,4.538-1.08,6.266,0c3.457,0,5.402,0,5.402,0"/>
<path opacity="0.84" fill="#42DFC3" stroke="#0AFAAC" stroke-miterlimit="10" d="M687.667,162.918c0,1.8,1.945-6.142,5.402-0.066
	c3.457-13.859,8.427,0.689,14.477-0.177c3.025,3.312,6.32,1.278,9.831-0.6c3.511-1.877,7.238-3.598,11.128,0.344
	c1.945-4.708,3.93-5.285,5.949-4.898c2.019,0.387,4.072,1.737,6.151,0.882c2.08-0.025,4.186,0.404,6.313,0.42
	c2.127-1.991,4.274,0.626,6.435,3.292c2.161-0.585,4.335,0.97,6.516,2.796c1.09,4.862,2.183,2.517,3.276,1.736
	c1.093-1.034,2.187-3.562,3.281-4.126c1.094,8.671,2.188,4.868,3.281,3.852c1.093,3.048,2.185-1.46,3.276-1.96
	c2.181,3.559,4.355-1.36,6.516-2.617c1.44,1.435,2.875,1.062,4.301,5.672c1.426,3.086,2.845-5.24,4.253,1.902
	c2.817-9.635,5.594,2.601,8.315-0.497c1.36-9.532,2.707-4.791,4.037-6.465c1.33-2.997,2.645,4.965,3.941-0.916
	c1.945,6.066,3.849,3.52,5.706,3.057c1.857-2.17,3.667,7.816,5.422-2.727c1.756,0.852,3.457,2.613,5.098-1.834
	c1.641-1.959,3.221-6.002,4.733,1.248c3.025-0.74,5.78-0.762,8.211-0.1c2.431,5.546,4.538,1.145,6.266-0.077
	c3.457-0.042,5.402-0.066,5.402-0.066"/>
<path opacity="0.84" fill="#42DFC3" stroke="#0AFAAC" stroke-miterlimit="10" d="M685.618,194.866c0,3.968,0.493,2.228,1.423,0.366
	c0.93-2.829,2.298-3.895,4.049-0.366c0.876-11.955,1.847,1.489,2.907-6.258c0.53,4.508,1.082,4.656,1.656,6.263
	c0.574-1.891,1.169-8.319,1.784-1.358c1.231-0.093,2.544,5.205,3.933,3.329c1.389-6.668,2.852-4.717,4.385-1.975
	c0.766,13.762,1.549-1.671,2.349,6.17c0.4,6.921,0.803,14.499,1.211,2.683c0.408-5.493,0.819-6.116,1.235-4.374
	c0.831,4.781,1.678,3.279,2.539,5.594c0.431,12.143,0.865,9.039,1.302-1.096c0.438-4.985,0.879-8.293,1.323-6.618
	c1.778-12.717,3.612-1.577,5.493-0.075c0.941,11.935,1.893,10.322,2.857,3.383c0.964-12.744,1.938-6.52,2.923-5.668
	c0.985-13.309,1.98,8.436,2.985,7.907c1.005-3.589,2.019,2.707,3.041-3.097c1.023,6.988,2.054,2.331,3.093-0.226
	c1.039-5.965,2.085-2.275,3.139-5.612c0.527,8.935,1.055,5.883,1.585,7.158c0.53,1.913,1.062-4.178,1.595-1.616
	c1.066,6.859,2.138-2.624,3.216,3.361c1.077,2.626,2.16-7.146,3.246-1.28c0.543-4.875,1.088-9.15,1.633-6.749
	c0.545-4.429,1.092-5.457,1.639,0.154c1.094,1.017,2.192,6.277,3.293,3.4c1.1-5.805,2.203,0.742,3.308-3.988
	c1.105-2.365,2.211-8.643,3.318-4.057c0.554-2.029,1.107-5.498,1.661-1.615c0.554,4.492,1.108,5.653,1.662,6.261
	c0.554,7.495,1.108,2.168,1.662,3.178c0.554,3.972,1.108-3.936,1.661-6.585c0.554-0.513,1.107,2.284,1.66,4.237
	c0.553,1.953,1.106,3.061,1.658-0.83c1.105-2.616,2.208-1.745,3.308,4.29c0.55-1.432,1.1,5.157,1.649,1.977
	c0.549,0.932,1.097-1.61,1.644-6.267c1.094-8.279,2.185,0.227,3.272-4.517c0.543-5.651,1.086-5.37,1.627-5.43
	c0.541,1.95,1.081,4.066,1.62,9.36c1.077,8.484,2.149,3.819,3.216-3.196c1.066-1.139,2.126,9.218,3.18,3.783
	c2.107,0.726,4.186,5.041,6.231,0c2.045-3.248,4.056,4.115,6.026,0c3.94-1.084,7.716-1.323,11.273-2.225
	c3.557-1.017,6.895,3.8,9.959,2.225c3.064,3.125,5.855-2.243,8.318-0.012c2.462,0.751,4.597,0.102,6.348,0.012
	c3.502-2.571,5.472-2.383,5.472,0"/>
<rect x="686.01" y="116.58" fill="none" stroke="#42DFC3" stroke-width="3" stroke-miterlimit="10" width="159.174" height="99.798"/>
<ellipse fill="#42DFC3" stroke="#42DFC3" stroke-miterlimit="10" cx="686.75" cy="115.645" rx="7.198" ry="7.185"/>
<g>
	<path fill="#42DFC3" d="M697.549,110.99l2.776-7.273h1.612l-2.806,7.273H697.549z"/>
	<path fill="#42DFC3" d="M701.899,110.99l2.776-7.273h1.614l-2.806,7.273H701.899z"/>
	<path fill="#42DFC3" d="M706.251,110.99l2.776-7.273h1.612l-2.806,7.273H706.251z"/>
	<path fill="#42DFC3" d="M710.992,109.417l2.157-0.207c0.091,0.262,0.278,0.462,0.558,0.598c0.28,0.136,0.672,0.204,1.177,0.204
		c0.556,0,0.974-0.064,1.254-0.191c0.189-0.09,0.284-0.209,0.284-0.36c0-0.102-0.051-0.187-0.153-0.255
		c-0.108-0.064-0.348-0.123-0.719-0.177c-1.733-0.24-2.832-0.459-3.296-0.658c-0.643-0.275-0.963-0.657-0.963-1.146
		c0-0.442,0.278-0.812,0.834-1.113c0.556-0.301,1.417-0.451,2.583-0.451c1.111,0,1.939,0.113,2.477,0.341
		c0.541,0.227,0.914,0.563,1.118,1.007l-2.028,0.235c-0.087-0.198-0.25-0.351-0.492-0.456c-0.242-0.106-0.588-0.158-1.037-0.158
		c-0.564,0-0.969,0.049-1.215,0.148c-0.163,0.071-0.244,0.162-0.244,0.274c0,0.096,0.07,0.178,0.214,0.244
		c0.193,0.09,0.863,0.216,2.006,0.379c1.145,0.163,1.943,0.363,2.397,0.6c0.45,0.24,0.674,0.574,0.674,1.003
		c0,0.467-0.312,0.869-0.933,1.204c-0.624,0.336-1.542,0.504-2.762,0.504c-1.105,0-1.981-0.141-2.626-0.422
		C711.613,110.282,711.191,109.899,710.992,109.417z"/>
	<path fill="#42DFC3" d="M724.182,105.775v1.075h-1.468v2.053c0,0.416,0.013,0.659,0.042,0.727c0.028,0.069,0.091,0.126,0.191,0.17
		c0.1,0.045,0.221,0.067,0.363,0.067c0.199,0,0.486-0.043,0.863-0.129l0.185,1.046c-0.501,0.134-1.067,0.201-1.699,0.201
		c-0.386,0-0.736-0.041-1.046-0.122c-0.312-0.081-0.541-0.187-0.685-0.317c-0.146-0.129-0.246-0.304-0.301-0.525
		c-0.047-0.157-0.07-0.474-0.07-0.95v-2.221h-0.986v-1.075h0.986v-1.012l2.157-0.787v1.799H724.182z"/>
	<path fill="#42DFC3" d="M727.279,107.33l-1.951-0.221c0.221-0.493,0.598-0.857,1.133-1.094c0.535-0.237,1.33-0.355,2.386-0.355
		c0.959,0,1.671,0.072,2.14,0.214c0.469,0.142,0.8,0.323,0.99,0.542c0.191,0.219,0.286,0.621,0.286,1.207l-0.023,1.573
		c0,0.448,0.036,0.778,0.104,0.991c0.07,0.213,0.197,0.441,0.386,0.684h-2.125c-0.057-0.09-0.125-0.222-0.206-0.398
		c-0.036-0.08-0.062-0.133-0.076-0.159c-0.367,0.224-0.761,0.392-1.179,0.504c-0.418,0.112-0.863,0.168-1.336,0.168
		c-0.838,0-1.495-0.142-1.977-0.427c-0.484-0.285-0.723-0.644-0.723-1.08c0-0.288,0.11-0.545,0.329-0.77
		c0.218-0.225,0.526-0.398,0.921-0.518c0.397-0.12,0.965-0.225,1.71-0.314c1.005-0.118,1.701-0.229,2.087-0.331v-0.134
		c0-0.259-0.102-0.444-0.305-0.554c-0.204-0.11-0.59-0.166-1.154-0.166c-0.384,0-0.681,0.048-0.895,0.142
		C727.585,106.927,727.411,107.093,727.279,107.33z M730.153,108.424c-0.276,0.057-0.711,0.126-1.307,0.206
		c-0.596,0.08-0.986,0.158-1.171,0.235c-0.28,0.125-0.42,0.283-0.42,0.475c0,0.189,0.112,0.352,0.337,0.489
		c0.223,0.137,0.509,0.206,0.855,0.206c0.388,0,0.757-0.08,1.109-0.24c0.261-0.121,0.431-0.27,0.513-0.446
		c0.055-0.115,0.083-0.334,0.083-0.658V108.424z"/>
	<path fill="#42DFC3" d="M734.289,110.87v-7.033h2.149v2.533c0.664-0.473,1.449-0.71,2.356-0.71c0.988,0,1.807,0.225,2.454,0.674
		c0.647,0.45,0.971,1.095,0.971,1.936c0,0.87-0.331,1.54-0.991,2.01c-0.66,0.47-1.461,0.705-2.405,0.705
		c-0.462,0-0.921-0.073-1.372-0.218c-0.452-0.145-0.84-0.361-1.167-0.645v0.748H734.289z M736.423,108.213
		c0,0.528,0.134,0.918,0.399,1.17c0.371,0.358,0.865,0.538,1.483,0.538c0.475,0,0.878-0.127,1.211-0.382
		c0.335-0.254,0.503-0.655,0.503-1.202c0-0.582-0.17-1.002-0.505-1.259c-0.337-0.258-0.768-0.387-1.294-0.387
		c-0.513,0-0.942,0.126-1.283,0.377C736.595,107.319,736.423,107.701,736.423,108.213z"/>
	<path fill="#42DFC3" d="M743.948,105.084v-1.247h2.149v1.247H743.948z M743.948,110.87v-5.095h2.149v5.095H743.948z"/>
	<path fill="#42DFC3" d="M748.299,110.87v-7.033h2.149v7.033H748.299z"/>
	<path fill="#42DFC3" d="M752.651,105.084v-1.247h2.149v1.247H752.651z M752.651,110.87v-5.095h2.149v5.095H752.651z"/>
	<path fill="#42DFC3" d="M760.726,105.775v1.075h-1.468v2.053c0,0.416,0.013,0.659,0.042,0.727c0.028,0.069,0.091,0.126,0.191,0.17
		c0.1,0.045,0.221,0.067,0.363,0.067c0.199,0,0.486-0.043,0.863-0.129l0.185,1.046c-0.501,0.134-1.067,0.201-1.699,0.201
		c-0.386,0-0.736-0.041-1.046-0.122c-0.312-0.081-0.541-0.187-0.685-0.317c-0.146-0.129-0.246-0.304-0.301-0.525
		c-0.047-0.157-0.07-0.474-0.07-0.95v-2.221h-0.986v-1.075h0.986v-1.012l2.157-0.787v1.799H760.726z"/>
	<path fill="#42DFC3" d="M761.199,105.775h2.286l1.943,3.617l1.896-3.617h2.225l-2.868,4.903l-0.511,0.888
		c-0.189,0.297-0.369,0.524-0.541,0.681c-0.17,0.156-0.367,0.284-0.588,0.381c-0.223,0.098-0.494,0.173-0.819,0.228
		c-0.325,0.054-0.689,0.082-1.097,0.082c-0.414,0-0.819-0.028-1.217-0.082l-0.191-1.056c0.337,0.042,0.641,0.063,0.91,0.063
		c0.501,0,0.87-0.092,1.109-0.276c0.24-0.184,0.424-0.418,0.551-0.703L761.199,105.775z"/>
	<path fill="#42DFC3" d="M774.779,108.251c0-0.448,0.176-0.881,0.528-1.3c0.35-0.419,0.848-0.739,1.493-0.96
		c0.645-0.221,1.366-0.331,2.161-0.331c1.228,0,2.236,0.25,3.02,0.751c0.785,0.501,1.177,1.133,1.177,1.898
		c0,0.77-0.397,1.409-1.19,1.916c-0.791,0.507-1.79,0.76-2.993,0.76c-0.745,0-1.455-0.106-2.13-0.317
		c-0.674-0.211-1.19-0.521-1.54-0.928C774.956,109.332,774.779,108.836,774.779,108.251z M776.981,108.323
		c0,0.505,0.191,0.892,0.573,1.161c0.384,0.269,0.855,0.403,1.415,0.403c0.562,0,1.031-0.134,1.413-0.403
		c0.38-0.268,0.568-0.659,0.568-1.17c0-0.499-0.189-0.883-0.568-1.152c-0.382-0.269-0.851-0.403-1.413-0.403
		c-0.56,0-1.031,0.134-1.415,0.403C777.172,107.43,776.981,107.818,776.981,108.323z"/>
	<path fill="#42DFC3" d="M783.902,105.775h1.192v-0.383c0-0.429,0.072-0.749,0.218-0.96c0.144-0.211,0.414-0.383,0.802-0.516
		c0.39-0.133,0.884-0.199,1.48-0.199c0.611,0,1.211,0.057,1.797,0.173l-0.291,0.94c-0.341-0.051-0.67-0.077-0.986-0.077
		c-0.31,0-0.534,0.046-0.668,0.137c-0.136,0.091-0.204,0.266-0.204,0.525v0.36h1.606v1.061h-1.606v4.035h-2.149v-4.035h-1.192
		V105.775z"/>
	<path fill="#42DFC3" d="M793.65,109.417l2.157-0.207c0.091,0.262,0.278,0.462,0.558,0.598c0.28,0.136,0.672,0.204,1.177,0.204
		c0.556,0,0.974-0.064,1.253-0.191c0.189-0.09,0.284-0.209,0.284-0.36c0-0.102-0.051-0.187-0.153-0.255
		c-0.108-0.064-0.348-0.123-0.719-0.177c-1.733-0.24-2.832-0.459-3.296-0.658c-0.643-0.275-0.963-0.657-0.963-1.146
		c0-0.442,0.278-0.812,0.834-1.113c0.556-0.301,1.417-0.451,2.583-0.451c1.111,0,1.939,0.113,2.477,0.341
		c0.541,0.227,0.914,0.563,1.118,1.007l-2.028,0.235c-0.087-0.198-0.25-0.351-0.492-0.456s-0.588-0.158-1.037-0.158
		c-0.564,0-0.969,0.049-1.215,0.148c-0.163,0.071-0.244,0.162-0.244,0.274c0,0.096,0.07,0.178,0.214,0.244
		c0.193,0.09,0.863,0.216,2.006,0.379c1.145,0.163,1.943,0.363,2.397,0.6c0.45,0.24,0.674,0.574,0.674,1.003
		c0,0.467-0.312,0.869-0.933,1.204c-0.624,0.336-1.542,0.504-2.762,0.504c-1.105,0-1.981-0.141-2.626-0.422
		C794.272,110.282,793.85,109.899,793.65,109.417z"/>
	<path fill="#42DFC3" d="M802.1,105.775h2.286l1.941,3.617l1.896-3.617h2.225l-2.865,4.903l-0.513,0.888
		c-0.189,0.297-0.369,0.524-0.539,0.681c-0.172,0.156-0.367,0.284-0.59,0.381c-0.221,0.098-0.494,0.173-0.817,0.228
		c-0.325,0.054-0.691,0.082-1.099,0.082c-0.411,0-0.819-0.028-1.215-0.082l-0.191-1.056c0.335,0.042,0.638,0.063,0.91,0.063
		c0.498,0,0.87-0.092,1.109-0.276c0.24-0.184,0.422-0.418,0.549-0.703L802.1,105.775z"/>
	<path fill="#42DFC3" d="M811.068,109.417l2.157-0.207c0.091,0.262,0.278,0.462,0.558,0.598c0.28,0.136,0.672,0.204,1.177,0.204
		c0.556,0,0.974-0.064,1.254-0.191c0.189-0.09,0.284-0.209,0.284-0.36c0-0.102-0.051-0.187-0.153-0.255
		c-0.108-0.064-0.348-0.123-0.719-0.177c-1.733-0.24-2.832-0.459-3.296-0.658c-0.643-0.275-0.963-0.657-0.963-1.146
		c0-0.442,0.278-0.812,0.834-1.113c0.556-0.301,1.417-0.451,2.583-0.451c1.111,0,1.939,0.113,2.477,0.341
		c0.541,0.227,0.914,0.563,1.118,1.007l-2.028,0.235c-0.087-0.198-0.25-0.351-0.492-0.456c-0.242-0.106-0.588-0.158-1.037-0.158
		c-0.564,0-0.969,0.049-1.215,0.148c-0.163,0.071-0.244,0.162-0.244,0.274c0,0.096,0.07,0.178,0.214,0.244
		c0.193,0.09,0.863,0.216,2.006,0.379c1.145,0.163,1.943,0.363,2.397,0.6c0.45,0.24,0.674,0.574,0.674,1.003
		c0,0.467-0.312,0.869-0.933,1.204c-0.624,0.336-1.542,0.504-2.762,0.504c-1.105,0-1.981-0.141-2.626-0.422
		C811.69,110.282,811.267,109.899,811.068,109.417z"/>
	<path fill="#42DFC3" d="M824.259,105.775v1.075h-1.468v2.053c0,0.416,0.013,0.659,0.042,0.727c0.028,0.069,0.091,0.126,0.191,0.17
		c0.1,0.045,0.221,0.067,0.363,0.067c0.199,0,0.486-0.043,0.863-0.129l0.185,1.046c-0.501,0.134-1.067,0.201-1.699,0.201
		c-0.386,0-0.736-0.041-1.046-0.122c-0.312-0.081-0.541-0.187-0.685-0.317c-0.146-0.129-0.246-0.304-0.301-0.525
		c-0.047-0.157-0.07-0.474-0.07-0.95v-2.221h-0.986v-1.075h0.986v-1.012l2.157-0.787v1.799H824.259z"/>
	<path fill="#42DFC3" d="M830.452,109.249l2.14,0.225c-0.276,0.493-0.708,0.868-1.302,1.125c-0.594,0.257-1.338,0.386-2.229,0.386
		c-1.413,0-2.458-0.29-3.135-0.868c-0.537-0.464-0.804-1.049-0.804-1.756c0-0.844,0.352-1.505,1.056-1.984
		c0.702-0.478,1.593-0.717,2.668-0.717c1.207,0,2.161,0.25,2.859,0.751s1.033,1.267,1.001,2.301h-5.383
		c0.017,0.4,0.189,0.711,0.52,0.933c0.333,0.223,0.744,0.334,1.239,0.334c0.337,0,0.621-0.057,0.851-0.173
		C830.161,109.69,830.333,109.505,830.452,109.249z M830.573,107.886c-0.015-0.39-0.174-0.687-0.481-0.89
		c-0.305-0.203-0.677-0.305-1.116-0.305c-0.469,0-0.857,0.108-1.162,0.322s-0.456,0.505-0.452,0.873H830.573z"/>
	<path fill="#42DFC3" d="M834.297,105.775h1.981v0.696c0.708-0.54,1.553-0.811,2.53-0.811c0.52,0,0.971,0.067,1.353,0.201
		c0.382,0.135,0.696,0.338,0.94,0.609c0.358-0.271,0.742-0.475,1.156-0.609c0.414-0.134,0.853-0.201,1.324-0.201
		c0.596,0,1.101,0.076,1.512,0.228c0.414,0.152,0.721,0.375,0.927,0.669c0.146,0.217,0.221,0.569,0.221,1.056v3.257h-2.149v-2.912
		c0-0.505-0.074-0.831-0.221-0.979c-0.199-0.192-0.505-0.288-0.918-0.288c-0.301,0-0.583,0.058-0.848,0.173
		c-0.265,0.115-0.456,0.284-0.575,0.506c-0.117,0.222-0.176,0.573-0.176,1.053v2.447h-2.149v-2.792c0-0.496-0.038-0.816-0.115-0.959
		c-0.076-0.144-0.195-0.251-0.354-0.321c-0.161-0.071-0.38-0.106-0.655-0.106c-0.331,0-0.628,0.056-0.893,0.168
		c-0.265,0.112-0.456,0.274-0.571,0.485s-0.172,0.562-0.172,1.05v2.476h-2.149V105.775z"/>
</g>
<g opacity="0.4">
	<path opacity="0.85" fill="#29ABE2" d="M39.629,468.385h280.288c6.6,0,12-5.4,12-12v-83.927c0-6.6-5.4-12-12-12H39.629
		c-6.6,0-12,5.4-12,12v83.927C27.629,462.985,33.029,468.385,39.629,468.385z"/>
</g>
<path opacity="0.95" fill="#29ABE2" d="M322.035,468.627c0,0.349,0.328,0.65,0.808,0.788h3.343c3.864,0,7.025-1.438,7.025-3.195
	V362.782c0-1.757-3.161-3.195-7.025-3.195h-2.687c-0.544,0.085-0.948,0.429-0.948,0.841c0,0.375,0.34,0.695,0.814,0.815
	c0.199,0.008,0.398,0.021,0.591,0.04c3.255,0.277,5.737,1.582,5.737,3.139v100.214c0,1.587-2.576,2.913-5.918,3.155
	c-0.293,0.021-0.591,0.035-0.896,0.037C322.38,467.959,322.035,468.268,322.035,468.627z"/>
<path opacity="0.95" fill="#29ABE2" d="M130.079,426.206c0,1.116-0.608,2.079-1.499,2.522h-6.201
	c-7.167,0-13.031-4.601-13.031-10.224V87.486c0-5.623,5.864-10.224,13.031-10.224h4.984c1.01,0.273,1.759,1.372,1.759,2.692
	c0,1.201-0.63,2.224-1.509,2.607c-0.369,0.026-0.738,0.068-1.097,0.128c-6.038,0.886-10.642,5.061-10.642,10.045v320.7
	c0,5.078,4.778,9.321,10.979,10.096c0.543,0.068,1.097,0.111,1.661,0.119C129.438,424.067,130.079,425.056,130.079,426.206z"/>
<g opacity="0.4">
	<path opacity="0.85" fill="#29C7E2" d="M664.192,425.43H123.748c-6.6,0-12-5.4-12-12V92.049c0-6.6,5.4-12,12-12h540.444
		c6.6,0,12,5.4,12,12V413.43C676.192,420.03,670.792,425.43,664.192,425.43z"/>
</g>
</svg>
