<?xml version="1.0" encoding="utf-8"?>
<!-- Generator: Adobe Illustrator 17.0.0, SVG Export Plug-In . SVG Version: 6.00 Build 0)  -->
<!DOCTYPE svg PUBLIC "-//W3C//DTD SVG 1.1//EN" "http://www.w3.org/Graphics/SVG/1.1/DTD/svg11.dtd">
<svg version="1.1" id="Слой_1" xmlns="http://www.w3.org/2000/svg" xmlns:xlink="http://www.w3.org/1999/xlink" x="0px" y="0px"
	 width="960px" height="560px" viewBox="0 0 960 560" enable-background="new 0 0 960 560" xml:space="preserve">
<path opacity="0.3" fill="#FFFFFF" d="M221.693,525.324L586.111,17.186l0.423-0.59H217.771l0.39,1.181v48.504H21.158l-0.011,4.824
	v0.568l-1.326-0.468V526.16h939.955L221.693,525.324z M215.81,16.596H19.821v47.68h195.99V16.596z"/>
<rect x="-0.02" y="0.42" fill="#999999" width="215.83" height="63.856"/>
<polygon opacity="0.36" fill="#FFFFFF" points="959.776,16.596 959.776,526.16 221.693,525.324 586.534,16.596 "/>
<line opacity="0.2" fill="none" stroke="#FFFFFF" stroke-miterlimit="10" x1="21.146" y1="66.793" x2="19.821" y2="526.16"/>
<line opacity="0.17" fill="none" stroke="#FFFFFF" stroke-miterlimit="10" x1="19.821" y1="526.16" x2="959.776" y2="526.16"/>
<polyline opacity="0.17" fill="none" stroke="#FFFFFF" stroke-miterlimit="10" points="959.776,16.596 586.111,17.186 
	221.693,17.765 218.161,17.776 "/>
<line opacity="0.17" fill="none" stroke="#FFFFFF" stroke-miterlimit="10" x1="959.776" y1="16.596" x2="959.776" y2="526.16"/>
<path fill="none" stroke="#000000" stroke-miterlimit="10" d="M16.156,64.28"/>
<path fill="none" stroke="#000000" stroke-miterlimit="10" d="M20.495,66.793"/>
<path fill="none" stroke="#000000" stroke-miterlimit="10" d="M216.679,66.793"/>
<path fill="none" stroke="#000000" stroke-miterlimit="10" d="M20.495,66.793"/>
<path fill="none" stroke="#000000" stroke-miterlimit="10" d="M20.495,66.793"/>
<path fill="none" stroke="#000000" stroke-miterlimit="10" d="M16.156,64.28"/>
<linearGradient id="SVGID_1_" gradientUnits="userSpaceOnUse" x1="20.6464" y1="68.6928" x2="21.6687" y2="68.6928">
	<stop  offset="0" style="stop-color:#B4B4B4"/>
	<stop  offset="1" style="stop-color:#656565"/>
</linearGradient>
<line fill="none" stroke="url(#SVGID_1_)" stroke-miterlimit="10" x1="21.169" y1="66.281" x2="21.146" y2="71.105"/>
<polygon fill="#666666" points="218.161,66.281 21.158,66.281 21.146,71.105 21.146,71.673 19.821,71.205 -0.02,64.276 
	215.81,64.276 "/>
<polygon fill="#333333" points="217.771,16.596 218.161,17.776 218.161,66.281 215.81,64.276 215.81,0.42 221.291,16.596 "/>
<line fill="none" x1="-0.02" y1="0.42" x2="215.81" y2="0.42"/>
<line opacity="0.17" fill="none" stroke="#FFFFFF" stroke-miterlimit="10" x1="21.997" y1="527.341" x2="19.821" y2="526.16"/>
<polyline opacity="0.9" fill="#29ABE2" points="960,17 960,78 879.614,78 839,49.083 839,17 "/>
<g opacity="0.8">
	<line fill="none" stroke="#F2F2F2" stroke-width="4" stroke-miterlimit="10" x1="929.238" y1="21.93" x2="880.592" y2="70.577"/>
	<line fill="none" stroke="#F2F2F2" stroke-width="4" stroke-miterlimit="10" x1="880.592" y1="21.93" x2="929.238" y2="70.577"/>
</g>
<rect x="853" y="90" opacity="0.9" fill="#29ABE2" width="96" height="96"/>
<rect x="853" y="202" opacity="0.9" fill="#29ABE2" width="96" height="95"/>
<rect x="853" y="313" opacity="0.9" fill="#29ABE2" width="96" height="96"/>
<rect x="853" y="422" opacity="0.9" fill="#29ABE2" width="96" height="96"/>
<rect x="28" y="434" opacity="0.4" fill="#FFFFFF" width="811" height="67"/>
<rect x="28" y="501" opacity="0.3" fill="#F2F2F2" width="811" height="21"/>
<g opacity="0.8">
	<g>
		<polygon fill="#F2F2F2" points="922.733,104.93 886.411,104.93 871.126,118.601 871.126,172.182 907.473,172.182 907.473,167.371 
			876.537,167.371 876.537,123.839 892.218,123.839 892.218,109.736 917.322,109.736 917.322,124.628 922.733,124.628 		"/>
		<polygon fill="#F2F2F2" points="915.095,146.741 915.095,131.888 926.625,131.888 926.625,146.741 942.477,146.741 
			942.477,157.513 926.625,157.513 926.625,172.365 915.095,172.365 915.095,157.513 899.271,157.513 899.271,146.741 		"/>
	</g>
</g>
<g opacity="0.8">
	<g id="Layer_5_56_">
		<g>
			<path fill="#F2F2F2" d="M940.15,233.279c0,0-3.254,0-4.339,0c-0.488,0-0.414-0.725-0.414-0.725v-2.175
				c0-2.855-2.323-5.178-5.179-5.178h-35.43c-0.238,0-0.526-0.478-1.042-1.483c-0.077-0.149-0.154-0.299-0.233-0.448
				c-1.806-3.422-4.15-4.14-5.798-4.14h-9.218c-2.33,0-3.721,1.354-5.359,4.024c-0.107,0.174-0.211,0.35-0.316,0.527
				c-0.528,0.89-0.926,1.521-1.233,1.521h-2.694c-2.855,0-5.179,2.323-5.179,5.178v43.051c0,2.53,1.825,4.641,4.227,5.089
				c0.291,0.102,0.609,0.159,0.951,0.159h63.175c1.709,0,3.352-1.376,3.651-3.059l6.99-39.282
				C943.012,234.656,941.859,233.279,940.15,233.279z M868.896,229.344h2.694c2.691,0,3.958-2.137,4.796-3.55
				c0.094-0.158,0.188-0.317,0.284-0.473c0.834-1.359,1.485-2.048,2.277-2.048h8.769c0.276,0,1.115,0,2.134,1.931
				c0.072,0.136,0.142,0.274,0.213,0.41c0.764,1.485,1.919,3.73,4.726,3.73h35.43c0.561,0,1.036,0.474,1.036,1.036v2.071
				c0,0,0.065,0.829-0.414,0.829c-13.466,0-53.865,0-53.865,0c-1.709,0-3.352,1.376-3.651,3.059l-5.197,29.21
				c0,0-0.265,0.977-0.265-0.835c0-8.583,0-34.333,0-34.333C867.86,229.818,868.335,229.344,868.896,229.344z"/>
		</g>
	</g>
</g>
<g opacity="0.8">
	<g>
		<path fill="#F2F2F2" d="M922.565,335.302h-3.938V360.9h-31.505v-25.598h-15.753v63.011h63.011v-51.196L922.565,335.302z
			 M926.503,394.374h-47.258v-27.567h47.258V394.374z"/>
		<rect x="883.183" y="370.745" fill="#F2F2F2" width="39.382" height="3.938"/>
		<rect x="883.183" y="378.622" fill="#F2F2F2" width="39.382" height="3.938"/>
		<rect x="883.183" y="386.498" fill="#F2F2F2" width="39.382" height="3.938"/>
		<rect x="906.812" y="339.24" fill="#F2F2F2" width="7.876" height="17.722"/>
	</g>
</g>
<g opacity="0.8">
	<polygon fill="#F2F2F2" points="879.818,438.338 879.813,503.26 936.265,470.794 	"/>
</g>
<polygon opacity="0.4" fill="#29ABE2" points="28,434 28,79 236.175,79 247.315,58 809.896,58 839,79.048 839,434 "/>
</svg>
