<?xml version="1.0" standalone="no"?>
<!DOCTYPE svg PUBLIC "-//W3C//DTD SVG 20010904//EN"
 "http://www.w3.org/TR/2001/REC-SVG-20010904/DTD/svg10.dtd">
<svg version="1.0" xmlns="http://www.w3.org/2000/svg"
 width="512.000000pt" height="512.000000pt" viewBox="0 0 512.000000 512.000000"
 preserveAspectRatio="xMidYMid meet">
<metadata>
Created by potrace 1.12, written by Peter Selinger 2001-2015
</metadata>
<g transform="translate(0.000000,512.000000) scale(0.100000,-0.100000)"
fill="#000000" stroke="none">
<path d="M1995 4851 c-44 -11 -70 -27 -99 -61 -35 -42 -46 -89 -46 -197 l0
-93 -85 0 -85 0 0 -265 0 -265 84 0 84 0 4 -152 c4 -177 15 -213 81 -256 40
-27 43 -27 244 -30 l203 -3 0 -45 0 -44 -241 0 c-160 0 -256 -4 -283 -12 -55
-16 -148 -109 -164 -164 -7 -23 -12 -71 -12 -108 l0 -66 -45 0 -45 0 0 91 0
91 -207 -4 c-172 -3 -215 -7 -248 -21 -50 -22 -110 -80 -138 -132 -22 -40 -22
-44 -25 -737 l-3 -698 31 0 c16 0 30 -2 30 -4 0 -2 -12 -25 -27 -52 -26 -45
-28 -59 -32 -177 l-3 -128 88 3 89 3 3 107 c3 105 3 107 33 132 26 22 40 26
99 26 59 0 73 -4 99 -26 30 -25 30 -27 33 -132 l3 -107 89 -3 88 -3 -3 128
c-4 118 -6 132 -31 177 -16 27 -28 50 -28 52 0 2 14 4 30 4 l30 0 0 615 0 615
45 0 45 0 0 -509 c0 -356 3 -518 11 -542 7 -19 27 -55 45 -80 l34 -47 0 -521
0 -522 -29 -25 c-53 -44 -61 -76 -61 -248 l0 -156 395 0 395 0 0 155 c0 136
-3 161 -20 195 -11 22 -31 47 -45 56 l-25 16 2 497 3 496 175 0 175 0 3 -496
2 -497 -25 -16 c-14 -9 -34 -34 -45 -56 -17 -34 -20 -59 -20 -195 l0 -155 395
0 395 0 0 156 c0 172 -8 204 -61 248 l-29 25 0 524 0 524 34 44 c18 24 38 59
45 78 8 24 11 190 11 542 l0 509 45 0 45 0 0 -615 0 -615 30 0 c17 0 30 -2 30
-4 0 -2 -12 -25 -27 -52 -26 -45 -28 -59 -32 -177 l-3 -128 88 3 89 3 3 107
c3 105 3 107 33 132 26 22 40 26 99 26 59 0 73 -4 99 -26 30 -25 30 -27 33
-132 l3 -107 89 -3 88 -3 -3 128 c-4 118 -6 132 -31 177 -16 27 -28 50 -28 52
0 2 14 4 30 4 l31 0 -3 698 c-3 693 -3 697 -25 737 -28 52 -88 110 -138 132
-33 14 -76 18 -247 21 l-208 4 0 -91 0 -91 -45 0 -45 0 0 66 c0 37 -5 85 -12
108 -16 55 -109 148 -164 164 -27 8 -123 12 -283 12 l-241 0 0 44 0 45 203 3
c201 3 204 3 244 30 66 43 77 79 81 256 l4 152 84 0 84 0 0 265 0 265 -85 0
-85 0 0 93 c0 108 -11 155 -47 197 -56 68 -30 65 -643 67 -305 1 -568 -2 -585
-6z m1095 -346 l0 -174 88 -3 87 -3 3 -87 3 -88 -91 0 -90 0 0 -220 0 -220
-530 0 -530 0 0 220 0 220 -90 0 -91 0 3 88 3 87 88 3 87 3 0 174 0 175 530 0
530 0 0 -175z m147 -1268 l28 -27 3 -628 c2 -440 0 -638 -8 -665 -20 -69 -2
-67 -701 -67 -687 0 -676 -1 -698 62 -16 44 -15 1253 0 1298 22 61 8 60 711
57 l638 -2 27 -28z m-1827 -767 l0 -620 -130 0 -130 0 0 593 c1 450 4 596 13
608 24 31 53 38 150 39 l97 0 0 -620z m2513 608 c47 -25 46 -10 47 -635 l0
-593 -130 0 -130 0 0 620 0 620 96 0 c53 0 105 -5 117 -12z m-1715 -1885 l2
-483 -135 0 -135 0 0 485 0 486 133 -3 132 -3 3 -482z m972 2 l0 -485 -135 0
-135 0 0 485 0 485 135 0 135 0 0 -485z m-882 -707 l-3 -43 -222 -3 -223 -2 0
45 0 45 226 0 225 0 -3 -42z m972 -3 l0 -45 -222 2 -223 3 -3 28 c-7 58 -12
57 228 57 l220 0 0 -45z"/>
<path d="M2225 4484 c-66 -34 -97 -83 -98 -153 -2 -134 135 -220 253 -159 166
85 105 328 -82 328 -24 0 -56 -7 -73 -16z"/>
<path d="M2760 4489 c-122 -49 -139 -233 -29 -306 135 -89 311 32 269 186 -13
50 -54 100 -97 117 -37 16 -107 17 -143 3z"/>
</g>
</svg>
